<svg xmlns="http://www.w3.org/2000/svg" width="46" height="87" viewBox="0 0 46 87">
  <g fill="none" fill-rule="evenodd">
    <path fill="#F48024" fill-rule="nonzero" d="M22.8,86.8 L22.5,86.4 L14.9,75.5 C8.1,66.2 0.3,53.9 0,40.7 L0,40 C-1.54208655e-15,27.4079077 10.2079077,17.2 22.8,17.2 C35.3920923,17.2 45.6,27.4079077 45.6,40 L45.6,40.6 C45.399289,47.3513834 43.6182866,53.9616422 40.4,59.9 C35.1547097,69.0728854 29.4128425,77.9527498 23.2,86.5 L22.8,86.8 Z M22.8,17.9 C10.6497355,17.9 0.8,27.7497355 0.8,39.9 L0.8,40.6 C1.1,53.6 8.9,65.8 15.6,75 L22.9,85.5 C24.1,83.8 28.7,77.4 33,70.8 C35.5402905,67.1889487 37.7810885,63.3762477 39.7,59.4 L40.5,57.7 C43.117721,52.2939924 44.5820827,46.4024906 44.8,40.4 L44.8,39.8 C44.7449486,27.6888062 34.911319,17.8998749 22.8,17.9 Z"/>
    <path fill="#FFB935" fill-rule="nonzero" d="M23.9,31 C20.1996922,31 17.2,33.9996922 17.2,37.7 C17.2,41.4003078 20.1996922,44.4 23.9,44.4 C27.6003078,44.4 30.6,41.4003078 30.6,37.7 C30.6272593,35.9148324 29.9301253,34.1947772 28.6676741,32.9323259 C27.4052228,31.6698747 25.6851676,30.9727407 23.9,31 Z"/>
    <path fill="#F48024" fill-rule="nonzero" d="M34.5,49 L10.8,49 L10.8,24.6 L34.5,24.6 L34.5,49 Z M11.6,48.3 L33.8,48.3 L33.8,25.3 L11.6,25.3 L11.6,48.3 Z"/>
    <path fill="#F48024" fill-rule="nonzero" d="M30.4,75.5 L29.6,75.5 L29.6,49.1 L15.7,49.1 L15.7,75.3 L15,75.3 L15,48.4 L30.4,48.4 L30.4,75.5 Z M22.7,43.7 C20.8169629,43.7 19.0110501,42.9519664 17.6795419,41.6204581 C16.3480336,40.2889499 15.6,38.4830371 15.6,36.6 C15.6,32.7 18.8,29.5 22.7,29.5 C26.6,29.5 29.8,32.7 29.8,36.6 C29.8,40.5 26.6,43.7 22.7,43.7 Z M22.7,30.2 C19.1653776,30.2 16.3,33.0653776 16.3,36.6 C16.3,40.1 19.2,43 22.7,43 C26.2,43 29.1,40.1 29.1,36.6 C29.0463698,33.0878318 26.2121682,30.2536302 22.7,30.2 Z"/>
    <polygon fill="#F48024" fill-rule="nonzero" points="23.7 38.4 20 35.7 20.5 35.1 23 36.9 23 33.5 23.7 33.5"/>
    <polygon fill="#FFB935" fill-rule="nonzero" points="23.9 2.5 19 19.1 28.9 19.1"/>
    <path fill="#F48024" fill-rule="nonzero" d="M28.1,18.3 L17.3,18.3 L22.7,0 L28.1,18.3 Z M18.3,17.5 L27.1,17.5 L22.7,2.6 L18.3,17.5 Z M21.6,72.8 L18.3,72.8 L18.3,52.8 L21.6,52.8 L21.6,72.8 Z M19.1,72 L20.9,72 L20.9,53.5 L19.1,53.5 L19.1,72 Z M27.2,72.8 L23.9,72.8 L23.9,52.8 L27.2,52.8 L27.2,72.8 Z M24.7,72 L26.5,72 L26.5,53.5 L24.7,53.5 L24.7,72 Z"/>
    <path fill="#F48024" fill-rule="nonzero" d="M32.7,25.3 L12.6,25.3 L12.6,17.1 L32.7,17.1 L32.7,25.3 Z M13.4,24.6 L32,24.6 L32,17.9 L13.4,17.9 L13.4,24.6 Z"/>
  </g>
</svg>
