<svg xmlns="http://www.w3.org/2000/svg" viewBox="0 0 90 90"><g fill="none"><path fill="#FFB935" d="M69.19 28v40h-43V28z"/><path stroke="#126CFA" d="M18.5 19.5h53v51h-53z"/><path stroke="#F17F21" d="M66.31 24.5v40.96H22.5V24.5z"/><path stroke="#126CFA" d="M24.96 12.5h41.08c.8.06 1.46 1.14 1.46 2.5v4.5h-44V15c0-1.36.65-2.44 1.46-2.5zm5.64-15h28.8l3.22 15H27.38l3.22-15zm34.03 80H24.37a1.98 1.98 0 0 1-1.87-1.96V70.5h44v5.05a1.98 1.98 0 0 1-1.87 1.95zm-5.23 14H30.6l-3.23-14h35.26l-3.23 14z"/><path stroke="#FFF" d="M60.73 47.83h-2.86l-4.3 10.07-4.28-24.47-2.87 14.4h-4.28l-2.87 11.5-4.28-17.26-2.86 5.76h-2.86"/><path stroke="#126CFA" d="M37.5 4h15M37.85 85h14.3M71.5 30.5h7v10h-7v-10zm0 20h7v10h-7v-10zm-53 9h-7v-9h7z"/></g></svg>