<svg xmlns="http://www.w3.org/2000/svg" viewBox="0 0 90 90"><g fill="none" transform="translate(5 3)"><ellipse cx="53.98" cy="23.51" fill="#FFB935" rx="4.21" ry="4.24"/><path fill="#FFB935" d="M30.4 20.68l-1.74-3.56-1.75 3.56-3.88.56 2.8 2.76-.65 3.89 3.48-1.84 3.47 1.84-.66-3.89 2.81-2.76zm15.14 9.9H37.1l4.21-7.07z"/><path stroke="#126CFA" stroke-width="1.06" d="M3.25 77.34v3.05M17.3 34.93V71.7m11.26-36.76V71.7m11.25-36.76V71.7m11.26-36.76V71.7m11.25-36.76V71.7"/><ellipse cx="3.25" cy="81.59" stroke="#126CFA" stroke-width="1.06" rx="1.41" ry="1.42"/><path stroke="#126CFA" stroke-width="1.06" d="M76.4 77.34v3.05"/><ellipse cx="76.41" cy="81.59" stroke="#126CFA" stroke-width="1.06" rx="1.41" ry="1.42"/><path stroke="#126CFA" stroke-width="1.06" d="M.43 26.87h5.62v50.47H.43zm5.64 8.06h67.52v42.41H6.07zm67.52 36.76H6.07m67.52-44.82h5.62v50.47H73.6zM39.82 1v21.2"/><ellipse cx="52.49" cy="22.21" stroke="#F17F21" stroke-width=".9" rx="4.21" ry="4.24"/><path stroke="#F17F21" stroke-width=".9" d="M28.9 19.37l-1.74-3.54-1.74 3.54-3.88.57 2.8 2.75-.65 3.9 3.47-1.85 3.48 1.85-.66-3.9 2.8-2.75zm15.15 9.91H35.6l4.21-7.07z"/><path stroke="#126CFA" stroke-width="1.06" d="M52.49 17.96V6.66H27.16v9.17"/></g></svg>