<svg xmlns="http://www.w3.org/2000/svg" viewBox="0 0 90 90"><g fill="none" transform="translate(5 2)"><ellipse cx="18.55" cy="55.64" fill="#CCEAFF" rx="5.61" ry="5.61"/><path stroke="#126CFA" stroke-width=".87" d="M11.33 65.92h11.24v17.99H11.33zm44.94.01v17.98H31.55V61.43H54.1M27.06 83.91V6.51"/><path stroke="#126CFA" stroke-width=".87" d="M60.76 70.04v13.87H4.6v-40.2m56.16-20.33v24.64"/><ellipse cx="14.7" cy="74.92" stroke="#126CFA" stroke-width=".87" rx="1" ry="1"/><path stroke="#126CFA" stroke-width=".87" d="M56.26 65.92H31.55m24.71 4.5H31.55m24.71 4.5H31.55m24.71 4.5H31.55m-14.6-31.27v11.24m5.62-5.63H11.33"/><ellipse cx="16.94" cy="53.76" stroke="#126CFA" stroke-width=".87" rx="5.61" ry="5.61"/><path stroke="#126CFA" stroke-width=".87" d="M60.76 21.13L24.81 5.39V.89l40.44 17.98v4.5h-4.49zM27.06 33.6L4.59 41.47v2.25H.09v-4.5l26.97-10.11zm39.48 50.31v-29.4"/><ellipse cx="66.54" cy="59.03" stroke="#126CFA" stroke-width=".87" rx="12.43" ry="12.43"/><path stroke="#126CFA" stroke-width=".87" d="M66.54 62.42l-6.78-6.78m6.78 11.3l6.79-6.78M.1 83.91h77.6"/><path fill="#FFB935" d="M37.78 36.4H54.1v12.72H37.78z"/><path stroke="#F17F21" stroke-width=".9" d="M41.18 34.62v7.26m5.45-7.26v7.26m-10.89-7.26h16.33v7.26H35.74zm0 7.26h16.33v5.44H35.74zm17.88 0H34.2"/></g></svg>