<svg xmlns="http://www.w3.org/2000/svg" width="46" height="89" viewBox="0 0 46 89">
  <g fill="none" fill-rule="evenodd">
    <path fill="#F48024" fill-rule="nonzero" d="M22.8,88.7 L22.5,88.3 L14.9,77.4 C8.1,68.1 0.3,55.8 0,42.5 L0,41.8 C-1.54208655e-15,29.2079077 10.2079077,19 22.8,19 C35.3920923,19 45.6,29.2079077 45.6,41.8 L45.6,42.4 C45.3846192,49.1492113 43.6045113,55.7561502 40.4,61.7 C35.1547097,70.8728854 29.4128425,79.7527498 23.2,88.3 L22.8,88.7 Z M22.8,19.8 C10.6497355,19.8 0.8,29.6497355 0.8,41.8 L0.8,42.5 C1.1,55.5 8.9,67.7 15.6,76.9 L22.9,87.4 C24.1,85.7 28.7,79.3 33,72.7 C35.5402905,69.0889487 37.7810885,65.2762477 39.7,61.3 L40.5,59.6 C43.117721,54.1939924 44.5820827,48.3024906 44.8,42.3 L44.8,41.7 C44.7449486,29.5888062 34.911319,19.7998749 22.8,19.8 Z"/>
    <polyline points="32.5 44.7 27 37.6 18.1 37.6 12.6 44.6"/>
    <polygon fill="#F48024" fill-rule="nonzero" points="32.2 44.9 26.8 38 18.2 38 12.9 44.8 12.3 44.4 17.9 37.2 27.2 37.2 32.8 44.4"/>
    <path fill="#FFFFFF" fill-rule="nonzero" d="M13.8,54.2 L31.3,54.2"/>
    <path fill="#F48024" fill-rule="nonzero" d="M13.8,53.8 L31.3,53.8 L31.3,54.6 L13.8,54.6 L13.8,53.8 Z M27.4,38 L17.7,38 L17.7,30.1 L27.4,30.1 L27.4,38 Z M18.4,37.2 L26.6,37.2 L26.6,30.8 L18.4,30.8 L18.4,37.2 Z M34,60.7 L34.8,60.7 L34.8,71.4 L34,71.4 L34,60.7 Z M12.9,56.8 L32.3,56.8 L32.3,57.6 L12.9,57.6 L12.9,56.8 Z M10.3,60.7 L11.1,60.7 L11.1,70.6 L10.3,70.6 L10.3,60.7 Z M19.6,48.7 L16.2,48.7 L16.2,45.7 C16.2,44.8 17,44 17.9,44 C18.8,44 19.6,44.8 19.6,45.7 L19.6,48.7 Z M17,47.9 L18.9,47.9 L18.9,45.7 C18.9,45.2 18.5,44.8 18,44.8 C17.5,44.8 17.1,45.2 17.1,45.7 L17.1,47.9 L17,47.9 Z M24.2,48.7 L20.8,48.7 L20.8,45.7 C20.8,44.8 21.6,44 22.5,44 C23.4,44 24.2,44.8 24.2,45.7 L24.2,48.7 Z M21.6,47.9 L23.5,47.9 L23.5,45.7 C23.5,45.2 23.1,44.8 22.6,44.8 C22.1,44.8 21.7,45.2 21.7,45.7 L21.7,47.9 L21.6,47.9 Z M28.8,48.7 L25.4,48.7 L25.4,45.7 C25.4,44.8 26.2,44 27.1,44 C28,44 28.8,44.8 28.8,45.7 L28.8,48.7 Z M26.2,47.9 L28,47.9 L28,45.7 C28,45.2 27.6,44.8 27.1,44.8 C26.6,44.8 26.2,45.2 26.2,45.7 L26.2,47.9 Z"/>
    <polygon fill="#FFB935" fill-rule="nonzero" points="28.5 32.2 28.5 29.5 24.1 4 19.6 29.5 19.6 32.2"/>
    <circle cx="24.1" cy="66.5" r="4.1" fill="#FFB935" fill-rule="nonzero"/>
    <path fill="#F48024" fill-rule="nonzero" d="M12.7,58.3 L8.7,58.3 L7.1,55.8 L7.1,47.1 L14.1,47.1 L14.1,55.7 L12.7,58.3 Z M9.1,57.6 L12.2,57.6 L13.3,55.6 L13.3,47.9 L7.9,47.9 L7.9,55.6 L9.1,57.6 Z"/>
    <path fill="#F48024" fill-rule="nonzero" d="M13.1,47.9 L8.1,47.9 L8.1,46.3 L10.6,30 L13.1,46.2 L13.1,47.9 Z M8.9,47.1 L12.4,47.1 L12.4,46.2 L10.6,35 L8.9,46.3 L8.9,47.1 Z M12.8,61.1 L8.5,61.1 L8.5,57.6 L12.8,57.6 L12.8,61.1 Z M9.3,58.3 L9.3,60.3 L12.1,60.3 L12.1,58.3 L9.3,58.3 Z M36.5,58.3 L32.5,58.3 L30.9,55.8 L30.9,47.1 L37.9,47.1 L37.9,55.7 L36.5,58.3 Z M32.9,57.6 L36,57.6 L37.1,55.6 L37.1,47.9 L31.6,47.9 L31.6,55.6 L32.9,57.6 Z"/>
    <path fill="#F48024" fill-rule="nonzero" d="M36.9,47.9 L31.9,47.9 L31.9,46.3 L34.4,30 L36.9,46.2 L36.9,47.9 Z M32.7,47.1 L36.2,47.1 L36.2,46.2 L34.4,35 L32.7,46.3 L32.7,47.1 Z M36.6,61.1 L32.3,61.1 L32.3,57.6 L36.6,57.6 L36.6,61.1 Z M33.1,60.3 L35.9,60.3 L35.9,58.3 L33.1,58.3 L33.1,60.3 Z M27.4,30.9 L17.7,30.9 L17.7,27.8 L22.5,0.2 L27.3,27.8 L27.4,30.9 Z M18.4,30.1 L26.6,30.1 L26.6,27.8 L22.5,4.5 L18.4,27.9 L18.4,30.1 Z M22.8,69.9 C20.3,69.9 18.3,67.9 18.3,65.4 C18.3,62.9 20.3,60.9 22.8,60.9 C25.3,60.9 27.3,62.9 27.3,65.4 C27.3,67.9 25.3,69.9 22.8,69.9 Z M22.8,61.6 C21.4423907,61.5999999 20.1879079,62.3242758 19.5091033,63.4999999 C18.8302986,64.6757241 18.8302986,66.1242759 19.5091033,67.3000001 C20.1879079,68.4757242 21.4423907,69.2000001 22.8,69.2 C24.898682,69.2 26.6,67.498682 26.6,65.4 C26.6,63.301318 24.898682,61.6 22.8,61.6 Z"/>
  </g>
</svg>
