<svg xmlns="http://www.w3.org/2000/svg" width="46" height="89" viewBox="0 0 46 89">
  <g fill="none" fill-rule="evenodd">
    <path fill="#F48024" fill-rule="nonzero" d="M22.8,89.1 L22.5,88.7 L14.9,77.8 C8.1,68.5 0.3,56.1 0,42.9 L0,42.2 C-1.54208655e-15,29.6079077 10.2079077,19.4 22.8,19.4 C35.3920923,19.4 45.6,29.6079077 45.6,42.2 L45.6,42.8 C45.3846192,49.5492113 43.6045113,56.1561502 40.4,62.1 C35.1547097,71.2728854 29.4128425,80.1527498 23.2,88.7 L22.8,89.1 Z M22.8,20.2 C10.6497355,20.2 0.8,30.0497355 0.8,42.2 L0.8,42.9 C1.1,55.9 8.9,68.1 15.6,77.3 L22.9,87.8 C24.1,86.1 28.7,79.7 33,73.1 C35.5402905,69.4889487 37.7810885,65.6762477 39.7,61.7 L40.5,60 C43.117721,54.5939924 44.5820827,48.7024906 44.8,42.7 L44.8,42.1 C44.7449486,29.9888062 34.911319,20.1998749 22.8,20.2 Z"/>
    <path fill="#F48024" fill-rule="nonzero" d="M19.3,78.4 L18.5,78.4 L18.5,56.7 L5.7,56.7 L5.7,61.6 L5,61.6 L5,55.9 L19.3,55.9 L19.3,78.4 Z M27,78.4 L26.2,78.4 L26.2,55.9 L40.6,55.9 L40.6,61.3 L39.8,61.3 L39.8,56.7 L27,56.7 L27,78.4 Z M27.1,30.5 L26.3,30.5 L26.3,28.2 L19.2,28.2 L19.2,30.5 L18.5,30.5 L18.5,27.5 L27.1,27.5 L27.1,30.5 Z"/>
    <path fill="#F48024" fill-rule="nonzero" d="M27,83 L26.2,83 L26.2,36.1 L33.6,36.1 L33.6,30.8 L12.5,30.8 L12.5,36.1 L19.3,36.1 L19.3,83 L18.5,83 L18.5,36.8 L11.8,36.8 L11.8,30.1 L34.3,30.1 L34.3,36.8 L27,36.8 L27,83 Z M22.5,0 L23.3,0 L23.3,16.5 L22.5,16.5 L22.5,0 Z"/>
    <polygon fill="#FFB935" fill-rule="nonzero" points="22.1 17.8 26.7 17.8 26.7 29.2 22.1 29.2"/>
    <path fill="#F48024" fill-rule="nonzero" d="M25.5,28.2 L20.2,28.2 L20.2,16.1 L25.5,16.1 L25.5,28.2 Z M20.9,27.5 L24.7,27.5 L24.7,16.9 L20.9,16.9 L20.9,27.5 Z"/>
    <path fill="#FFB935" fill-rule="nonzero" d="M10.7,38.1 L20.6,38.1 L20.6,57.9 L10.7,57.9 L10.7,38.1 Z M28.3,38.1 L38.2,38.1 L38.2,57.9 L28.3,57.9 L28.3,38.1 Z"/>
    <path fill="#F48024" fill-rule="nonzero" d="M19.3,56.7 L8.6,56.7 L8.6,36.1 L19.2,36.1 L19.2,56.7 L19.3,56.7 Z M9.4,55.9 L18.5,55.9 L18.5,36.8 L9.4,36.8 L9.4,55.9 Z M36.9,56.7 L26.2,56.7 L26.2,36.1 L36.8,36.1 L36.8,56.7 L36.9,56.7 Z M27,55.9 L36.1,55.9 L36.1,36.8 L27,36.8 L27,55.9 Z"/>
  </g>
</svg>
