<svg xmlns="http://www.w3.org/2000/svg" viewBox="0 0 90 90"><g fill="none"><path fill="#FFB935" d="M55 30.46h18.41V18.19H55zm-33.13 0h18.41V18.19H21.87z"/><path fill="#CCEAFF" d="M48.09 80a14.72 14.72 0 0 1-14.72-14.73V51.78a14.73 14.73 0 1 1 29.45 0v13.5A14.72 14.72 0 0 1 48.09 80z"/><path stroke="#126CFA" stroke-width=".75" d="M12.51 12.51H7.6V66.5h23.31m29.45 0h23.32V12.51h-4.91"/><path stroke="#126CFA" stroke-width=".75" d="M30.91 61.59h-18.4V7.6m47.85 53.99h18.41V7.6"/><path stroke="#126CFA" stroke-width=".75" d="M12.51 61.59L7.6 66.5m71.17-4.91l4.91 4.91M12.51 7.6h28.22a4.91 4.91 0 0 1 4.91 4.91v28.22m0-28.22a4.91 4.91 0 0 1 4.91-4.91h28.22m-58.9 27h18.41m-18.41 6.13h12.27m-12.27 6.14H26M19.87 53H26"/><path stroke="#F17F21" stroke-width=".75" d="M53 28.46h18.41V16.19H53z"/><path stroke="#126CFA" stroke-width=".75" d="M45.64 83.68c-8.12 0-14.7-6.56-14.73-14.68V55.46a14.73 14.73 0 1 1 29.45 0V69a14.72 14.72 0 0 1-14.72 14.68z"/><path stroke="#126CFA" stroke-width=".75" d="M45.64 53A2.63 2.63 0 0 1 43 50.37v-2.1a2.63 2.63 0 0 1 5.26 0v2.1A2.63 2.63 0 0 1 45.64 53z"/><path stroke="#F17F21" stroke-width=".75" d="M19.87 28.46h18.41V16.19H19.87z"/></g></svg>