<svg width="252" height="149" viewBox="0 0 252 149" fill="none" xmlns="http://www.w3.org/2000/svg">
<rect width="252" height="149" fill="white"/>
<path d="M41.1587 28.1533L39.1304 20.5094H40.168L41.3307 25.5202C41.4559 26.0451 41.5636 26.5665 41.654 27.0844C41.8487 26.2675 41.9634 25.7965 41.9981 25.6714L43.4529 20.5094H44.673L45.768 24.3783C46.0426 25.3377 46.2407 26.2397 46.3624 27.0844C46.4597 26.6012 46.5866 26.0468 46.743 25.4211L47.9423 20.5094H48.959L46.8629 28.1533H45.8879L44.2767 22.3291C44.1411 21.8425 44.0612 21.5435 44.0369 21.4323C43.9569 21.7834 43.8822 22.0823 43.8127 22.3291L42.1911 28.1533H41.1587ZM49.7881 28.1533V20.5094H50.7266V23.252C51.1646 22.7445 51.7173 22.4908 52.3847 22.4908C52.7949 22.4908 53.1512 22.5724 53.4536 22.7358C53.756 22.8957 53.9716 23.1182 54.1002 23.4032C54.2323 23.6883 54.2983 24.1019 54.2983 24.6442V28.1533H53.3598V24.6442C53.3598 24.1749 53.2572 23.8343 53.0521 23.6222C52.8505 23.4067 52.5637 23.299 52.1918 23.299C51.9137 23.299 51.6513 23.3719 51.4045 23.5179C51.1611 23.6605 50.9873 23.8551 50.883 24.1019C50.7788 24.3487 50.7266 24.6894 50.7266 25.1239V28.1533H49.7881ZM59.3456 27.4703C58.998 27.7657 58.6625 27.9743 58.3393 28.096C58.0195 28.2176 57.6753 28.2785 57.3069 28.2785C56.6986 28.2785 56.231 28.1307 55.9043 27.8353C55.5775 27.5363 55.4141 27.1557 55.4141 26.6934C55.4141 26.4222 55.475 26.1754 55.5966 25.953C55.7218 25.727 55.8834 25.5462 56.0815 25.4107C56.2832 25.2751 56.5091 25.1726 56.7594 25.103C56.9436 25.0544 57.2217 25.0075 57.5936 24.9623C58.3514 24.8719 58.9093 24.7641 59.2674 24.639C59.2709 24.5104 59.2726 24.4287 59.2726 24.3939C59.2726 24.0116 59.184 23.7422 59.0067 23.5857C58.7668 23.3737 58.4105 23.2677 57.9378 23.2677C57.4963 23.2677 57.1696 23.3459 56.9575 23.5023C56.749 23.6553 56.5943 23.9281 56.4935 24.3209L55.5758 24.1958C55.6592 23.803 55.7965 23.4867 55.9877 23.2468C56.1789 23.0035 56.4552 22.8175 56.8167 22.6889C57.1783 22.5568 57.5971 22.4908 58.0733 22.4908C58.5461 22.4908 58.9302 22.5464 59.2257 22.6576C59.5211 22.7688 59.7384 22.9096 59.8774 23.08C60.0165 23.2468 60.1138 23.4589 60.1694 23.7161C60.2007 23.876 60.2164 24.1645 60.2164 24.5816V25.833C60.2164 26.7055 60.2355 27.2582 60.2737 27.4911C60.3154 27.7205 60.3954 27.9413 60.5136 28.1533H59.5333C59.436 27.9587 59.3734 27.731 59.3456 27.4703ZM59.2674 25.3742C58.9267 25.5132 58.4157 25.6314 57.7344 25.7287C57.3486 25.7844 57.0757 25.8469 56.9158 25.9165C56.7559 25.986 56.6325 26.0885 56.5456 26.2241C56.4587 26.3562 56.4152 26.5039 56.4152 26.6673C56.4152 26.9176 56.5091 27.1261 56.6968 27.293C56.888 27.4598 57.1661 27.5433 57.5311 27.5433C57.8926 27.5433 58.2141 27.4651 58.4957 27.3086C58.7773 27.1487 58.9841 26.9315 59.1162 26.6569C59.217 26.4448 59.2674 26.132 59.2674 25.7183V25.3742ZM63.7255 27.3138L63.861 28.1429C63.5969 28.1985 63.3605 28.2263 63.1519 28.2263C62.8113 28.2263 62.5471 28.1724 62.3594 28.0647C62.1717 27.9569 62.0396 27.8161 61.9631 27.6423C61.8866 27.4651 61.8484 27.0948 61.8484 26.5317V23.3459H61.1601V22.6159H61.8484V21.2446L62.7817 20.6814V22.6159H63.7255V23.3459H62.7817V26.5839C62.7817 26.8515 62.7974 27.0236 62.8286 27.1001C62.8634 27.1765 62.9173 27.2374 62.9903 27.2826C63.0668 27.3277 63.1745 27.3503 63.3136 27.3503C63.4178 27.3503 63.5552 27.3382 63.7255 27.3138ZM67.6257 21.5887V20.5094H68.5642V21.5887H67.6257ZM67.6257 28.1533V22.6159H68.5642V28.1533H67.6257ZM69.9981 28.1533V22.6159H70.8428V23.4032C71.2495 22.7949 71.837 22.4908 72.6052 22.4908C72.9389 22.4908 73.2448 22.5516 73.5229 22.6733C73.8044 22.7914 74.0147 22.9479 74.1538 23.1425C74.2928 23.3372 74.3901 23.5683 74.4458 23.836C74.4805 24.0098 74.4979 24.314 74.4979 24.7485V28.1533H73.5594V24.785C73.5594 24.4026 73.5229 24.1176 73.4499 23.9299C73.3769 23.7387 73.2465 23.5875 73.0588 23.4762C72.8746 23.3615 72.6573 23.3042 72.407 23.3042C72.0073 23.3042 71.6614 23.431 71.3694 23.6848C71.0809 23.9386 70.9366 24.42 70.9366 25.1291V28.1533H69.9981ZM77.9914 27.3138L78.127 28.1429C77.8628 28.1985 77.6264 28.2263 77.4178 28.2263C77.0772 28.2263 76.813 28.1724 76.6253 28.0647C76.4376 27.9569 76.3055 27.8161 76.229 27.6423C76.1525 27.4651 76.1143 27.0948 76.1143 26.5317V23.3459H75.426V22.6159H76.1143V21.2446L77.0476 20.6814V22.6159H77.9914V23.3459H77.0476V26.5839C77.0476 26.8515 77.0633 27.0236 77.0946 27.1001C77.1293 27.1765 77.1832 27.2374 77.2562 27.2826C77.3327 27.3277 77.4404 27.3503 77.5795 27.3503C77.6838 27.3503 77.8211 27.3382 77.9914 27.3138ZM82.705 26.3701L83.6748 26.49C83.5219 27.0566 83.2386 27.4963 82.8249 27.8092C82.4112 28.122 81.8829 28.2785 81.2398 28.2785C80.4299 28.2785 79.7868 28.0299 79.3106 27.5328C78.8378 27.0323 78.6014 26.3318 78.6014 25.4315C78.6014 24.4999 78.8413 23.7769 79.321 23.2625C79.8007 22.748 80.4229 22.4908 81.1877 22.4908C81.9281 22.4908 82.5329 22.7428 83.0022 23.2468C83.4715 23.7508 83.7061 24.46 83.7061 25.3742C83.7061 25.4298 83.7044 25.5132 83.7009 25.6245H79.5713C79.606 26.2328 79.7781 26.6986 80.0875 27.0219C80.3968 27.3451 80.7827 27.5068 81.245 27.5068C81.5891 27.5068 81.8829 27.4164 82.1262 27.2356C82.3695 27.0549 82.5625 26.7664 82.705 26.3701ZM79.6234 24.8528H82.7154C82.6737 24.387 82.5555 24.0376 82.3608 23.8047C82.0619 23.4432 81.6743 23.2625 81.1981 23.2625C80.7671 23.2625 80.4038 23.4067 80.1083 23.6952C79.8163 23.9837 79.6547 24.3696 79.6234 24.8528ZM84.6863 28.6122L85.5988 28.7477C85.6371 29.0293 85.7431 29.2344 85.9169 29.363C86.1498 29.5368 86.4678 29.6237 86.8711 29.6237C87.3056 29.6237 87.641 29.5368 87.8774 29.363C88.1138 29.1892 88.2737 28.9459 88.3571 28.633C88.4058 28.4418 88.4284 28.0403 88.4249 27.4286C88.0147 27.9117 87.5037 28.1533 86.8919 28.1533C86.1307 28.1533 85.5415 27.8787 85.1243 27.3295C84.7072 26.7803 84.4986 26.1215 84.4986 25.3533C84.4986 24.825 84.5942 24.3383 84.7854 23.8934C84.9766 23.4449 85.253 23.0991 85.6145 22.8557C85.9795 22.6124 86.407 22.4908 86.8971 22.4908C87.5507 22.4908 88.0894 22.7549 88.5135 23.2833V22.6159H89.3791V27.4025C89.3791 28.2646 89.2904 28.8746 89.1132 29.2326C88.9394 29.5942 88.6613 29.8792 88.2789 30.0878C87.9 30.2963 87.4325 30.4006 86.8763 30.4006C86.2158 30.4006 85.6823 30.2511 85.2755 29.9522C84.8688 29.6567 84.6724 29.2101 84.6863 28.6122ZM85.4633 25.2855C85.4633 26.012 85.6075 26.5421 85.896 26.8759C86.1845 27.2096 86.5461 27.3764 86.9806 27.3764C87.4116 27.3764 87.7731 27.2113 88.0651 26.8811C88.3571 26.5474 88.5031 26.0259 88.5031 25.3168C88.5031 24.639 88.3519 24.128 88.0495 23.7839C87.7505 23.4397 87.389 23.2677 86.9649 23.2677C86.5478 23.2677 86.1932 23.438 85.9012 23.7787C85.6093 24.1158 85.4633 24.6181 85.4633 25.2855ZM90.7921 28.1533V22.6159H91.6368V23.4554C91.8523 23.0626 92.0505 22.8036 92.2312 22.6785C92.4155 22.5533 92.6171 22.4908 92.8361 22.4908C93.1524 22.4908 93.4739 22.5916 93.8007 22.7932L93.4774 23.6639C93.248 23.5284 93.0186 23.4606 92.7891 23.4606C92.584 23.4606 92.3998 23.5232 92.2364 23.6483C92.0731 23.77 91.9566 23.9403 91.8871 24.1593C91.7828 24.493 91.7307 24.858 91.7307 25.2543V28.1533H90.7921ZM97.972 27.4703C97.6244 27.7657 97.2889 27.9743 96.9657 28.096C96.6459 28.2176 96.3017 28.2785 95.9333 28.2785C95.3249 28.2785 94.8574 28.1307 94.5307 27.8353C94.2039 27.5363 94.0405 27.1557 94.0405 26.6934C94.0405 26.4222 94.1014 26.1754 94.223 25.953C94.3482 25.727 94.5098 25.5462 94.7079 25.4107C94.9096 25.2751 95.1355 25.1726 95.3858 25.103C95.57 25.0544 95.8481 25.0075 96.22 24.9623C96.9778 24.8719 97.5357 24.7641 97.8938 24.639C97.8973 24.5104 97.899 24.4287 97.899 24.3939C97.899 24.0116 97.8104 23.7422 97.6331 23.5857C97.3932 23.3737 97.0369 23.2677 96.5642 23.2677C96.1227 23.2677 95.796 23.3459 95.5839 23.5023C95.3754 23.6553 95.2207 23.9281 95.1199 24.3209L94.2022 24.1958C94.2856 23.803 94.4229 23.4867 94.6141 23.2468C94.8053 23.0035 95.0816 22.8175 95.4431 22.6889C95.8046 22.5568 96.2235 22.4908 96.6997 22.4908C97.1725 22.4908 97.5566 22.5464 97.8521 22.6576C98.1475 22.7688 98.3648 22.9096 98.5038 23.08C98.6429 23.2468 98.7402 23.4589 98.7958 23.7161C98.8271 23.876 98.8428 24.1645 98.8428 24.5816V25.833C98.8428 26.7055 98.8619 27.2582 98.9001 27.4911C98.9418 27.7205 99.0218 27.9413 99.14 28.1533H98.1597C98.0624 27.9587 97.9998 27.731 97.972 27.4703ZM97.8938 25.3742C97.5531 25.5132 97.0421 25.6314 96.3608 25.7287C95.975 25.7844 95.7021 25.8469 95.5422 25.9165C95.3823 25.986 95.2589 26.0885 95.172 26.2241C95.0851 26.3562 95.0416 26.5039 95.0416 26.6673C95.0416 26.9176 95.1355 27.1261 95.3232 27.293C95.5144 27.4598 95.7925 27.5433 96.1575 27.5433C96.519 27.5433 96.8405 27.4651 97.1221 27.3086C97.4037 27.1487 97.6105 26.9315 97.7426 26.6569C97.8434 26.4448 97.8938 26.132 97.8938 25.7183V25.3742ZM102.352 27.3138L102.487 28.1429C102.223 28.1985 101.987 28.2263 101.778 28.2263C101.438 28.2263 101.173 28.1724 100.986 28.0647C100.798 27.9569 100.666 27.8161 100.589 27.6423C100.513 27.4651 100.475 27.0948 100.475 26.5317V23.3459H99.7865V22.6159H100.475V21.2446L101.408 20.6814V22.6159H102.352V23.3459H101.408V26.5839C101.408 26.8515 101.424 27.0236 101.455 27.1001C101.49 27.1765 101.544 27.2374 101.617 27.2826C101.693 27.3277 101.801 27.3503 101.94 27.3503C102.044 27.3503 102.182 27.3382 102.352 27.3138ZM103.28 21.5887V20.5094H104.219V21.5887H103.28ZM103.28 28.1533V22.6159H104.219V28.1533H103.28ZM105.303 25.3846C105.303 24.3592 105.588 23.5996 106.158 23.106C106.634 22.6958 107.215 22.4908 107.9 22.4908C108.661 22.4908 109.283 22.741 109.766 23.2416C110.25 23.7387 110.491 24.4269 110.491 25.3064C110.491 26.019 110.383 26.5804 110.168 26.9906C109.956 27.3973 109.645 27.7136 109.235 27.9395C108.828 28.1655 108.383 28.2785 107.9 28.2785C107.125 28.2785 106.497 28.0299 106.017 27.5328C105.541 27.0358 105.303 26.3197 105.303 25.3846ZM106.268 25.3846C106.268 26.0937 106.422 26.6256 106.732 26.9801C107.041 27.3312 107.43 27.5068 107.9 27.5068C108.366 27.5068 108.753 27.3295 109.062 26.9749C109.372 26.6204 109.527 26.0798 109.527 25.3533C109.527 24.6685 109.37 24.1506 109.057 23.7995C108.748 23.4449 108.362 23.2677 107.9 23.2677C107.43 23.2677 107.041 23.4432 106.732 23.7943C106.422 24.1454 106.268 24.6755 106.268 25.3846ZM111.597 28.1533V22.6159H112.441V23.4032C112.848 22.7949 113.435 22.4908 114.204 22.4908C114.537 22.4908 114.843 22.5516 115.121 22.6733C115.403 22.7914 115.613 22.9479 115.752 23.1425C115.891 23.3372 115.989 23.5683 116.044 23.836C116.079 24.0098 116.096 24.314 116.096 24.7485V28.1533H115.158V24.785C115.158 24.4026 115.121 24.1176 115.048 23.9299C114.975 23.7387 114.845 23.5875 114.657 23.4762C114.473 23.3615 114.256 23.3042 114.005 23.3042C113.606 23.3042 113.26 23.431 112.968 23.6848C112.679 23.9386 112.535 24.42 112.535 25.1291V28.1533H111.597ZM117.165 26.5004L118.093 26.3544C118.146 26.7264 118.29 27.0114 118.526 27.2096C118.766 27.4077 119.1 27.5068 119.527 27.5068C119.958 27.5068 120.278 27.4199 120.487 27.2461C120.695 27.0688 120.8 26.862 120.8 26.6256C120.8 26.4135 120.707 26.2467 120.523 26.125C120.395 26.0416 120.075 25.9356 119.564 25.807C118.876 25.6331 118.398 25.4837 118.13 25.3585C117.866 25.2299 117.664 25.0544 117.525 24.8319C117.389 24.606 117.322 24.3574 117.322 24.0863C117.322 23.8395 117.377 23.6118 117.489 23.4032C117.603 23.1912 117.758 23.0156 117.953 22.8766C118.099 22.7688 118.297 22.6785 118.547 22.6055C118.801 22.529 119.072 22.4908 119.36 22.4908C119.795 22.4908 120.176 22.5533 120.502 22.6785C120.833 22.8036 121.076 22.9739 121.232 23.1895C121.389 23.4015 121.496 23.6865 121.556 24.0446L120.638 24.1697C120.596 23.8847 120.475 23.6622 120.273 23.5023C120.075 23.3424 119.793 23.2625 119.428 23.2625C118.997 23.2625 118.69 23.3337 118.505 23.4762C118.321 23.6188 118.229 23.7856 118.229 23.9768C118.229 24.0985 118.267 24.2079 118.344 24.3053C118.42 24.4061 118.54 24.4895 118.703 24.5556C118.797 24.5903 119.074 24.6703 119.532 24.7954C120.196 24.9727 120.659 25.1187 120.919 25.2334C121.184 25.3446 121.39 25.508 121.54 25.7235C121.689 25.939 121.764 26.2067 121.764 26.5265C121.764 26.8394 121.672 27.1348 121.488 27.4129C121.307 27.6875 121.045 27.9013 120.7 28.0543C120.356 28.2037 119.967 28.2785 119.532 28.2785C118.813 28.2785 118.264 28.129 117.885 27.83C117.509 27.5311 117.27 27.0879 117.165 26.5004ZM129.465 26.125L130.388 26.2449C130.288 26.8811 130.029 27.3799 129.611 27.7414C129.198 28.0994 128.689 28.2785 128.084 28.2785C127.326 28.2785 126.716 28.0317 126.254 27.5381C125.795 27.041 125.565 26.3301 125.565 25.4055C125.565 24.8076 125.664 24.2844 125.862 23.836C126.061 23.3876 126.361 23.0521 126.765 22.8297C127.171 22.6037 127.613 22.4908 128.089 22.4908C128.69 22.4908 129.182 22.6437 129.565 22.9496C129.947 23.252 130.192 23.6831 130.3 24.2427L129.387 24.3835C129.3 24.0116 129.146 23.7317 128.923 23.544C128.704 23.3563 128.438 23.2625 128.125 23.2625C127.653 23.2625 127.269 23.4328 126.973 23.7734C126.678 24.1106 126.53 24.6459 126.53 25.3794C126.53 26.1233 126.672 26.6638 126.957 27.001C127.242 27.3382 127.614 27.5068 128.073 27.5068C128.442 27.5068 128.749 27.3938 128.996 27.1678C129.243 26.9419 129.399 26.5943 129.465 26.125ZM134.805 27.4703C134.457 27.7657 134.122 27.9743 133.798 28.096C133.479 28.2176 133.134 28.2785 132.766 28.2785C132.158 28.2785 131.69 28.1307 131.363 27.8353C131.037 27.5363 130.873 27.1557 130.873 26.6934C130.873 26.4222 130.934 26.1754 131.056 25.953C131.181 25.727 131.343 25.5462 131.541 25.4107C131.742 25.2751 131.968 25.1726 132.219 25.103C132.403 25.0544 132.681 25.0075 133.053 24.9623C133.811 24.8719 134.368 24.7641 134.727 24.639C134.73 24.5104 134.732 24.4287 134.732 24.3939C134.732 24.0116 134.643 23.7422 134.466 23.5857C134.226 23.3737 133.87 23.2677 133.397 23.2677C132.955 23.2677 132.629 23.3459 132.417 23.5023C132.208 23.6553 132.053 23.9281 131.953 24.3209L131.035 24.1958C131.118 23.803 131.256 23.4867 131.447 23.2468C131.638 23.0035 131.914 22.8175 132.276 22.6889C132.637 22.5568 133.056 22.4908 133.532 22.4908C134.005 22.4908 134.389 22.5464 134.685 22.6576C134.98 22.7688 135.198 22.9096 135.337 23.08C135.476 23.2468 135.573 23.4589 135.629 23.7161C135.66 23.876 135.675 24.1645 135.675 24.5816V25.833C135.675 26.7055 135.695 27.2582 135.733 27.4911C135.775 27.7205 135.855 27.9413 135.973 28.1533H134.992C134.895 27.9587 134.833 27.731 134.805 27.4703ZM134.727 25.3742C134.386 25.5132 133.875 25.6314 133.194 25.7287C132.808 25.7844 132.535 25.8469 132.375 25.9165C132.215 25.986 132.092 26.0885 132.005 26.2241C131.918 26.3562 131.874 26.5039 131.874 26.6673C131.874 26.9176 131.968 27.1261 132.156 27.293C132.347 27.4598 132.625 27.5433 132.99 27.5433C133.352 27.5433 133.673 27.4651 133.955 27.3086C134.236 27.1487 134.443 26.9315 134.575 26.6569C134.676 26.4448 134.727 26.132 134.727 25.7183V25.3742ZM137.135 28.1533V22.6159H137.98V23.4032C138.387 22.7949 138.974 22.4908 139.743 22.4908C140.076 22.4908 140.382 22.5516 140.66 22.6733C140.942 22.7914 141.152 22.9479 141.291 23.1425C141.43 23.3372 141.527 23.5683 141.583 23.836C141.618 24.0098 141.635 24.314 141.635 24.7485V28.1533H140.697V24.785C140.697 24.4026 140.66 24.1176 140.587 23.9299C140.514 23.7387 140.384 23.5875 140.196 23.4762C140.012 23.3615 139.795 23.3042 139.544 23.3042C139.145 23.3042 138.799 23.431 138.507 23.6848C138.218 23.9386 138.074 24.42 138.074 25.1291V28.1533H137.135ZM147.074 28.1533L145.379 22.6159H146.349L147.23 25.8122L147.559 27.001C147.572 26.9419 147.668 26.5613 147.845 25.8591L148.726 22.6159H149.691L150.52 25.8278L150.797 26.8863L151.115 25.8174L152.064 22.6159H152.976L151.245 28.1533H150.27L149.389 24.8371L149.175 23.8934L148.054 28.1533H147.074ZM157.559 26.3701L158.529 26.49C158.376 27.0566 158.093 27.4963 157.679 27.8092C157.266 28.122 156.737 28.2785 156.094 28.2785C155.284 28.2785 154.641 28.0299 154.165 27.5328C153.692 27.0323 153.456 26.3318 153.456 25.4315C153.456 24.4999 153.696 23.7769 154.175 23.2625C154.655 22.748 155.277 22.4908 156.042 22.4908C156.782 22.4908 157.387 22.7428 157.856 23.2468C158.326 23.7508 158.56 24.46 158.56 25.3742C158.56 25.4298 158.559 25.5132 158.555 25.6245H154.426C154.46 26.2328 154.632 26.6986 154.942 27.0219C155.251 27.3451 155.637 27.5068 156.099 27.5068C156.443 27.5068 156.737 27.4164 156.98 27.2356C157.224 27.0549 157.417 26.7664 157.559 26.3701ZM154.478 24.8528H157.57C157.528 24.387 157.41 24.0376 157.215 23.8047C156.916 23.4432 156.529 23.2625 156.052 23.2625C155.621 23.2625 155.258 23.4067 154.963 23.6952C154.671 23.9837 154.509 24.3696 154.478 24.8528ZM166.314 28.1533V27.3399C165.883 27.9656 165.297 28.2785 164.557 28.2785C164.23 28.2785 163.924 28.2159 163.639 28.0908C163.357 27.9656 163.147 27.8092 163.008 27.6215C162.872 27.4303 162.777 27.1974 162.721 26.9228C162.683 26.7385 162.664 26.4466 162.664 26.0468V22.6159H163.602V25.687C163.602 26.1772 163.622 26.5074 163.66 26.6777C163.719 26.9245 163.844 27.1192 164.035 27.2617C164.226 27.4007 164.463 27.4703 164.744 27.4703C165.026 27.4703 165.29 27.399 165.537 27.2565C165.784 27.1105 165.958 26.9141 166.058 26.6673C166.163 26.417 166.215 26.0555 166.215 25.5827V22.6159H167.153V28.1533H166.314ZM168.253 26.5004L169.182 26.3544C169.234 26.7264 169.378 27.0114 169.614 27.2096C169.854 27.4077 170.188 27.5068 170.615 27.5068C171.047 27.5068 171.366 27.4199 171.575 27.2461C171.783 27.0688 171.888 26.862 171.888 26.6256C171.888 26.4135 171.796 26.2467 171.611 26.125C171.483 26.0416 171.163 25.9356 170.652 25.807C169.964 25.6331 169.486 25.4837 169.218 25.3585C168.954 25.2299 168.752 25.0544 168.613 24.8319C168.478 24.606 168.41 24.3574 168.41 24.0863C168.41 23.8395 168.466 23.6118 168.577 23.4032C168.691 23.1912 168.846 23.0156 169.041 22.8766C169.187 22.7688 169.385 22.6785 169.635 22.6055C169.889 22.529 170.16 22.4908 170.449 22.4908C170.883 22.4908 171.264 22.5533 171.591 22.6785C171.921 22.8036 172.164 22.9739 172.32 23.1895C172.477 23.4015 172.585 23.6865 172.644 24.0446L171.726 24.1697C171.684 23.8847 171.563 23.6622 171.361 23.5023C171.163 23.3424 170.881 23.2625 170.516 23.2625C170.085 23.2625 169.778 23.3337 169.593 23.4762C169.409 23.6188 169.317 23.7856 169.317 23.9768C169.317 24.0985 169.355 24.2079 169.432 24.3053C169.508 24.4061 169.628 24.4895 169.792 24.5556C169.885 24.5903 170.162 24.6703 170.621 24.7954C171.285 24.9727 171.747 25.1187 172.008 25.2334C172.272 25.3446 172.479 25.508 172.628 25.7235C172.778 25.939 172.852 26.2067 172.852 26.5265C172.852 26.8394 172.76 27.1348 172.576 27.4129C172.395 27.6875 172.133 27.9013 171.789 28.0543C171.445 28.2037 171.055 28.2785 170.621 28.2785C169.901 28.2785 169.352 28.129 168.973 27.83C168.598 27.5311 168.358 27.0879 168.253 26.5004ZM177.759 26.3701L178.729 26.49C178.576 27.0566 178.292 27.4963 177.879 27.8092C177.465 28.122 176.937 28.2785 176.294 28.2785C175.484 28.2785 174.841 28.0299 174.364 27.5328C173.892 27.0323 173.655 26.3318 173.655 25.4315C173.655 24.4999 173.895 23.7769 174.375 23.2625C174.855 22.748 175.477 22.4908 176.242 22.4908C176.982 22.4908 177.587 22.7428 178.056 23.2468C178.525 23.7508 178.76 24.46 178.76 25.3742C178.76 25.4298 178.758 25.5132 178.755 25.6245H174.625C174.66 26.2328 174.832 26.6986 175.141 27.0219C175.451 27.3451 175.837 27.5068 176.299 27.5068C176.643 27.5068 176.937 27.4164 177.18 27.2356C177.423 27.0549 177.616 26.7664 177.759 26.3701ZM174.677 24.8528H177.769C177.728 24.387 177.609 24.0376 177.415 23.8047C177.116 23.4432 176.728 23.2625 176.252 23.2625C175.821 23.2625 175.458 23.4067 175.162 23.6952C174.87 23.9837 174.709 24.3696 174.677 24.8528ZM181.669 26.271C181.666 26.1459 181.664 26.052 181.664 25.9894C181.664 25.621 181.716 25.3029 181.821 25.0353C181.897 24.8336 182.021 24.6303 182.191 24.4252C182.316 24.2757 182.54 24.0585 182.864 23.7734C183.19 23.4849 183.402 23.2555 183.5 23.0852C183.597 22.9148 183.646 22.7289 183.646 22.5273C183.646 22.1623 183.503 21.8425 183.218 21.5679C182.933 21.2898 182.584 21.1507 182.17 21.1507C181.77 21.1507 181.437 21.2759 181.169 21.5261C180.901 21.7764 180.726 22.1675 180.642 22.6993L179.678 22.5846C179.765 21.872 180.022 21.3263 180.449 20.9474C180.88 20.5685 181.449 20.379 182.154 20.379C182.902 20.379 183.498 20.5824 183.943 20.9891C184.388 21.3958 184.61 21.8877 184.61 22.4647C184.61 22.7984 184.532 23.106 184.376 23.3876C184.219 23.6692 183.913 24.0116 183.458 24.4148C183.152 24.6859 182.952 24.8858 182.858 25.0144C182.764 25.143 182.695 25.2908 182.65 25.4576C182.605 25.6245 182.578 25.8956 182.572 26.271H181.669ZM181.612 28.1533V27.0844H182.681V28.1533H181.612Z" fill="#6A737C"/>
<rect opacity="0.5" x="39.3062" y="61.2671" width="189.851" height="8.32018" rx="1.64286" fill="url(#paint0_linear)"/>
<rect opacity="0.5" x="39.3062" y="76.3945" width="189.851" height="54.4594" rx="1.64286" fill="url(#paint1_linear)"/>
<rect opacity="0.5" x="16.6147" y="40.0884" width="43.87" height="8.32018" rx="1.64286" fill="url(#paint2_linear)"/>
<path d="M18.8838 64.2927L25.1769 58.2417L30.9859 64.2927H18.8838Z" fill="#E8EAEC"/>
<path d="M30.9858 67.3181L24.6928 73.3691L18.8838 67.3181L30.9858 67.3181Z" fill="#E8EAEC"/>
<rect x="16.6147" y="16.6406" width="16.6404" height="16.6404" rx="1.64286" fill="url(#paint3_linear)"/>
<circle cx="32.5" cy="32.5" r="4.5" fill="white"/>
<path d="M32.5 30L35 31.115V33C35 34.75 33.0455 36 32.5 36C31.9545 36 30 34.76 30 33.005V31.125L32.5 30ZM31.8182 34.5H33.1818L32.7909 33.3C32.7773 33.2 32.8136 33.1 32.8818 33.05C33.0682 32.895 33.1818 32.535 33.1818 32.25C33.1818 31.785 32.8636 31.5 32.4955 31.5C32.1227 31.5 31.8182 31.785 31.8182 32.25C31.8182 32.535 31.9318 32.895 32.1227 33.05C32.1909 33.1 32.2227 33.2 32.2091 33.3L31.8182 34.5Z" fill="#C4C4C4"/>
<defs>
<linearGradient id="paint0_linear" x1="38.6881" y1="65.2538" x2="303.167" y2="65.2538" gradientUnits="userSpaceOnUse">
<stop stop-color="#D6D9DC"/>
<stop offset="1" stop-color="#EFF0F1"/>
</linearGradient>
<linearGradient id="paint1_linear" x1="38.6881" y1="102.489" x2="303.167" y2="102.489" gradientUnits="userSpaceOnUse">
<stop stop-color="#D6D9DC"/>
<stop offset="1" stop-color="#EFF0F1"/>
</linearGradient>
<linearGradient id="paint2_linear" x1="16.4719" y1="44.0751" x2="77.5867" y2="44.0751" gradientUnits="userSpaceOnUse">
<stop stop-color="#D6D9DC"/>
<stop offset="1" stop-color="#EFF0F1"/>
</linearGradient>
<linearGradient id="paint3_linear" x1="6.78181" y1="26.3344" x2="48.3827" y2="26.3344" gradientUnits="userSpaceOnUse">
<stop stop-color="#FFB935"/>
<stop offset="1" stop-color="#FFD943"/>
</linearGradient>
</defs>
</svg>
