<svg width="312" height="158" fill="none" xmlns="http://www.w3.org/2000/svg"><path fill="#fff" d="M0 0H311.629V157.327H0z"/><path d="M0 127.072h311.629v30.255H0v-30.255z" fill="#FAFAFB"/><path d="M10.06 146.542v-7.644h.938v2.742c.438-.507.99-.761 1.658-.761.41 0 .766.082 1.069.245.302.16.518.382.646.667.133.285.199.699.199 1.241v3.51h-.939v-3.51c0-.469-.103-.81-.308-1.022-.201-.215-.488-.323-.86-.323-.278 0-.54.073-.787.219a1.213 1.213 0 0 0-.522.584c-.104.247-.156.588-.156 1.022v3.03h-.939zm7.993-.84l.135.829c-.264.056-.5.084-.709.084-.34 0-.605-.054-.792-.162a.912.912 0 0 1-.397-.422c-.076-.178-.114-.548-.114-1.111v-3.186h-.689v-.73h.689v-1.371l.933-.563v1.934h.944v.73h-.944v3.238c0 .268.015.44.047.516a.408.408 0 0 0 .162.183.64.64 0 0 0 .323.068c.104 0 .241-.013.412-.037zm2.972 0l.135.829c-.264.056-.5.084-.709.084-.34 0-.605-.054-.792-.162a.912.912 0 0 1-.397-.422c-.076-.178-.114-.548-.114-1.111v-3.186h-.689v-.73h.689v-1.371l.933-.563v1.934h.944v.73h-.944v3.238c0 .268.016.44.047.516a.408.408 0 0 0 .162.183.641.641 0 0 0 .323.068c.104 0 .241-.013.412-.037zm.923 2.962v-7.66h.855v.72c.201-.282.429-.492.683-.631.254-.143.561-.214.923-.214.473 0 .89.122 1.251.365.362.243.634.587.819 1.032.184.442.276.927.276 1.455a3.69 3.69 0 0 1-.308 1.533c-.201.452-.497.8-.886 1.043-.386.24-.793.36-1.22.36-.313 0-.595-.066-.845-.198a1.934 1.934 0 0 1-.61-.501v2.696h-.938zm.85-4.86c0 .713.144 1.239.432 1.58.289.341.638.511 1.048.511.418 0 .774-.176 1.07-.527.298-.354.448-.902.448-1.642 0-.706-.146-1.234-.438-1.585-.289-.351-.635-.527-1.038-.527-.4 0-.754.188-1.064.563-.305.372-.459.914-.459 1.627zm4.718 1.085l.929-.146c.052.372.196.657.432.855.24.198.574.297 1.001.297.431 0 .751-.087.96-.261.208-.177.313-.384.313-.62a.571.571 0 0 0-.277-.501c-.128-.083-.448-.189-.96-.318-.687-.174-1.165-.323-1.433-.448a1.43 1.43 0 0 1-.605-.527 1.421 1.421 0 0 1-.203-.746c0-.246.055-.474.167-.683.114-.212.269-.387.464-.526.146-.108.344-.198.594-.271.254-.077.525-.115.814-.115.434 0 .815.063 1.141.188.33.125.574.295.73.511.157.212.265.497.324.855l-.918.125a1.002 1.002 0 0 0-.365-.668c-.198-.159-.48-.239-.845-.239-.43 0-.738.071-.923.213-.184.143-.276.31-.276.501 0 .122.038.231.115.328a.827.827 0 0 0 .36.251c.093.035.37.114.829.24.663.177 1.126.323 1.386.438.265.111.471.274.621.49.15.215.224.483.224.803 0 .313-.092.608-.276.886-.18.275-.443.488-.787.641-.345.15-.734.225-1.168.225-.72 0-1.27-.15-1.648-.449-.376-.299-.615-.742-.72-1.329zm5.976-2.816v-1.069h1.069v1.069h-1.07zm0 4.469v-1.069h1.069v1.069h-1.07zm2.007.13l2.216-7.905h.751l-2.21 7.905h-.757zm2.972 0l2.216-7.905h.751l-2.21 7.905h-.757zm7.269-.13v-.699c-.351.549-.867.824-1.549.824-.441 0-.848-.122-1.22-.365a2.436 2.436 0 0 1-.86-1.017c-.202-.438-.303-.94-.303-1.507 0-.553.092-1.053.277-1.502.184-.452.46-.797.829-1.037.368-.24.78-.36 1.236-.36.333 0 .63.071.891.214.26.139.473.321.636.547v-2.742h.934v7.644h-.871zm-2.967-2.764c0 .709.15 1.239.448 1.59.3.351.652.527 1.059.527.41 0 .758-.167 1.043-.501.288-.337.432-.85.432-1.538 0-.758-.146-1.314-.438-1.668-.292-.355-.651-.532-1.079-.532-.417 0-.766.17-1.048.511-.278.34-.417.878-.417 1.611zm9.109.98l.97.12c-.153.567-.436 1.007-.85 1.319-.414.313-.942.47-1.585.47-.81 0-1.453-.249-1.93-.746-.472-.501-.709-1.201-.709-2.101 0-.932.24-1.655.72-2.169.48-.515 1.102-.772 1.867-.772.74 0 1.345.252 1.814.756.47.504.704 1.213.704 2.127 0 .056-.002.139-.005.251h-4.13c.035.608.207 1.074.517 1.397.309.323.695.485 1.157.485.344 0 .638-.09.881-.271.244-.181.437-.469.579-.866zm-3.081-1.517h3.091c-.041-.466-.16-.815-.354-1.048a1.437 1.437 0 0 0-1.163-.542c-.43 0-.794.144-1.09.432-.292.289-.453.675-.484 1.158zm5.234 3.301v-5.538h.84v.777a1.958 1.958 0 0 1 1.679-.902c.41 0 .745.085 1.006.255.264.171.45.409.558.715.438-.647 1.008-.97 1.71-.97.55 0 .972.153 1.267.459.296.302.444.77.444 1.402v3.802h-.934v-3.489c0-.375-.031-.645-.093-.808a.766.766 0 0 0-.329-.401 1.032 1.032 0 0 0-.563-.152c-.39 0-.713.131-.97.391-.257.258-.386.671-.386 1.241v3.218h-.938v-3.598c0-.417-.077-.73-.23-.939-.153-.208-.403-.313-.75-.313-.265 0-.51.07-.736.209a1.186 1.186 0 0 0-.485.61c-.1.268-.151.653-.151 1.158v2.873h-.938zm8.547-2.769c0-1.026.285-1.785.855-2.279.476-.41 1.056-.615 1.741-.615.761 0 1.384.25 1.867.751.483.497.724 1.185.724 2.065 0 .712-.107 1.274-.323 1.684a2.258 2.258 0 0 1-.933.949 2.702 2.702 0 0 1-1.335.339c-.775 0-1.402-.249-1.882-.746-.476-.497-.715-1.213-.715-2.148zm.964 0c0 .709.155 1.241.464 1.595.31.351.699.527 1.168.527.466 0 .853-.177 1.163-.532.31-.354.464-.895.464-1.621 0-.685-.157-1.203-.47-1.554a1.473 1.473 0 0 0-1.157-.532c-.47 0-.858.175-1.168.526-.31.352-.464.882-.464 1.591zm5.595 2.769v-1.069h1.069v1.069h-1.07zm6.32-.684c-.348.296-.684.504-1.007.626-.32.122-.664.183-1.032.183-.609 0-1.076-.148-1.403-.444a1.478 1.478 0 0 1-.49-1.141c0-.272.06-.518.182-.741.126-.226.287-.407.485-.542.202-.136.428-.238.678-.308.184-.048.463-.095.835-.141.757-.09 1.315-.198 1.673-.323.004-.128.005-.21.005-.245 0-.382-.088-.652-.266-.808-.24-.212-.596-.318-1.068-.318-.442 0-.769.078-.98.234-.21.153-.364.426-.465.819l-.917-.125c.083-.393.22-.709.412-.949.19-.243.467-.429.829-.558.361-.132.78-.198 1.256-.198.473 0 .857.056 1.153.167.295.111.512.252.651.422.14.167.237.379.292.636.031.16.047.449.047.866v1.251c0 .873.02 1.425.057 1.658.042.23.122.45.24.663h-.98a1.996 1.996 0 0 1-.188-.684zm-.079-2.096c-.34.139-.851.258-1.533.355-.386.056-.659.118-.818.188a.81.81 0 0 0-.5.75c0 .251.093.459.28.626.192.167.47.25.835.25.361 0 .683-.078.965-.234.281-.16.488-.377.62-.652.1-.212.151-.525.151-.939v-.344zm4.458 1.94l.136.829a3.46 3.46 0 0 1-.71.084c-.34 0-.604-.054-.792-.162a.912.912 0 0 1-.396-.422c-.077-.178-.115-.548-.115-1.111v-3.186h-.688v-.73h.688v-1.371l.934-.563v1.934h.943v.73h-.944v3.238c0 .268.016.44.047.516a.408.408 0 0 0 .162.183.641.641 0 0 0 .323.068c.105 0 .242-.013.412-.037zm.902.84v-7.644h.939v7.644h-.939zm6.012-.684c-.347.296-.683.504-1.006.626-.32.122-.664.183-1.032.183-.609 0-1.076-.148-1.403-.444a1.478 1.478 0 0 1-.49-1.141c0-.272.06-.518.182-.741.125-.226.287-.407.485-.542.202-.136.428-.238.678-.308.184-.048.462-.095.834-.141.758-.09 1.316-.198 1.674-.323.004-.128.005-.21.005-.245 0-.382-.088-.652-.266-.808-.24-.212-.596-.318-1.069-.318-.441 0-.768.078-.98.234-.208.153-.363.426-.464.819l-.918-.125c.084-.393.221-.709.412-.949.192-.243.468-.429.83-.558.36-.132.78-.198 1.256-.198.473 0 .857.056 1.152.167.296.111.513.252.652.422.14.167.236.379.292.636.031.16.047.449.047.866v1.251c0 .873.02 1.425.057 1.658.042.23.122.45.24.663h-.98a1.994 1.994 0 0 1-.188-.684zm-.078-2.096c-.34.139-.852.258-1.533.355-.386.056-.659.118-.819.188a.81.81 0 0 0-.5.75c0 .251.094.459.282.626.19.167.469.25.834.25.361 0 .683-.078.964-.234.282-.16.489-.377.62-.652.102-.212.152-.525.152-.939v-.344zm2.034 1.127l.928-.146c.052.372.196.657.432.855.24.198.574.297 1.002.297.43 0 .75-.087.959-.261.209-.177.313-.384.313-.62a.571.571 0 0 0-.276-.501c-.13-.083-.449-.189-.96-.318-.688-.174-1.166-.323-1.434-.448a1.43 1.43 0 0 1-.605-.527 1.422 1.422 0 0 1-.203-.746c0-.246.056-.474.167-.683.114-.212.27-.387.464-.526.146-.108.344-.198.594-.271.254-.077.525-.115.814-.115.434 0 .815.063 1.142.188.33.125.573.295.73.511.156.212.264.497.323.855l-.918.125a1.001 1.001 0 0 0-.365-.668c-.198-.159-.48-.239-.844-.239-.431 0-.74.071-.923.213-.185.143-.277.31-.277.501 0 .122.038.231.115.328a.826.826 0 0 0 .36.251c.094.035.37.114.829.24.664.177 1.126.323 1.387.438.264.111.47.274.62.49.15.215.224.483.224.803 0 .313-.092.608-.276.886-.18.275-.443.488-.787.641-.344.15-.734.225-1.168.225-.72 0-1.269-.15-1.648-.449-.375-.299-.615-.742-.72-1.329zm5.339 0l.928-.146c.052.372.196.657.433.855.24.198.573.297 1 .297.432 0 .752-.087.96-.261.209-.177.313-.384.313-.62a.571.571 0 0 0-.276-.501c-.129-.083-.449-.189-.96-.318-.688-.174-1.166-.323-1.434-.448a1.43 1.43 0 0 1-.604-.527 1.422 1.422 0 0 1-.204-.746c0-.246.056-.474.167-.683.115-.212.27-.387.464-.526.146-.108.344-.198.595-.271.253-.077.525-.115.813-.115.434 0 .815.063 1.142.188.33.125.574.295.73.511.156.212.264.497.323.855l-.917.125a1.001 1.001 0 0 0-.366-.668c-.198-.159-.48-.239-.844-.239-.431 0-.739.071-.923.213-.184.143-.276.31-.276.501 0 .122.038.231.114.328a.827.827 0 0 0 .36.251c.094.035.37.114.83.24.663.177 1.125.323 1.386.438.264.111.471.274.62.49.15.215.225.483.225.803 0 .313-.092.608-.277.886-.18.275-.443.488-.787.641-.344.15-.733.225-1.168.225-.72 0-1.269-.15-1.648-.449-.375-.299-.615-.742-.72-1.329zm5.72-4.912v-1.079h.938v1.079h-.938zm0 6.565v-5.538h.938v5.538h-.938zm5.986-.684c-.348.296-.683.504-1.007.626-.32.122-.664.183-1.032.183-.608 0-1.076-.148-1.403-.444a1.48 1.48 0 0 1-.49-1.141 1.544 1.544 0 0 1 .668-1.283c.201-.136.427-.238.677-.308.185-.048.463-.095.835-.141.757-.09 1.315-.198 1.673-.323l.006-.245c0-.382-.089-.652-.266-.808-.24-.212-.596-.318-1.069-.318-.442 0-.768.078-.98.234-.209.153-.364.426-.465.819l-.917-.125c.083-.393.221-.709.412-.949.191-.243.467-.429.829-.558.361-.132.78-.198 1.256-.198.473 0 .857.056 1.153.167.295.111.512.252.651.422.139.167.237.379.292.636.032.16.047.449.047.866v1.251c0 .873.019 1.425.058 1.658.041.23.121.45.24.663h-.981a1.985 1.985 0 0 1-.187-.684zm-.079-2.096c-.34.139-.851.258-1.533.355-.385.056-.658.118-.818.188a.809.809 0 0 0-.501.75c0 .251.094.459.282.626.191.167.469.25.834.25.362 0 .683-.078.965-.234.281-.16.488-.377.62-.652.101-.212.151-.525.151-.939v-.344zm2.409 2.78v-5.538h.845v.787c.407-.608.994-.912 1.762-.912.334 0 .64.061.918.182.282.119.492.275.631.47.139.194.236.426.292.693.035.174.052.478.052.913v3.405h-.938v-3.369c0-.382-.037-.667-.11-.855a.889.889 0 0 0-.391-.454 1.212 1.212 0 0 0-.652-.172 1.53 1.53 0 0 0-1.037.381c-.289.254-.433.735-.433 1.444v3.025h-.939zm6.21 0v-1.069h1.069v1.069h-1.069zm2.707 0v-5.538h.844v.787c.407-.608.994-.912 1.763-.912.333 0 .639.061.917.182.282.119.492.275.631.47a1.8 1.8 0 0 1 .292.693c.035.174.052.478.052.913v3.405h-.938v-3.369c0-.382-.037-.667-.11-.855a.889.889 0 0 0-.391-.454 1.212 1.212 0 0 0-.652-.172 1.53 1.53 0 0 0-1.037.381c-.289.254-.433.735-.433 1.444v3.025h-.938zm9.734-1.784l.97.12c-.153.567-.436 1.007-.85 1.319-.413.313-.942.47-1.585.47-.81 0-1.453-.249-1.929-.746-.473-.501-.709-1.201-.709-2.101 0-.932.24-1.655.719-2.169.48-.515 1.102-.772 1.867-.772.74 0 1.345.252 1.815.756.469.504.703 1.213.703 2.127 0 .056-.001.139-.005.251h-4.129c.034.608.206 1.074.516 1.397.309.323.695.485 1.157.485.344 0 .638-.09.882-.271.243-.181.436-.469.578-.866zm-3.081-1.517h3.092c-.042-.466-.16-.815-.355-1.048a1.436 1.436 0 0 0-1.163-.542c-.431 0-.794.144-1.089.432-.292.289-.454.675-.485 1.158zm7.284 2.461l.135.829c-.264.056-.5.084-.709.084-.34 0-.604-.054-.792-.162a.907.907 0 0 1-.396-.422c-.077-.178-.115-.548-.115-1.111v-3.186h-.688v-.73h.688v-1.371l.933-.563v1.934h.944v.73h-.944v3.238c0 .268.016.44.047.516a.41.41 0 0 0 .162.183.639.639 0 0 0 .323.068c.104 0 .242-.013.412-.037zm.219.97l2.216-7.905h.751l-2.211 7.905h-.756zm4.541-.13h-.87v-7.644h.938v2.727c.397-.498.902-.746 1.518-.746.34 0 .662.069.964.209.306.135.556.328.751.578.198.247.353.546.464.897.111.351.167.727.167 1.126 0 .949-.235 1.683-.704 2.201s-1.032.777-1.689.777c-.654 0-1.167-.273-1.539-.819v.694zm-.01-2.811c0 .664.09 1.144.271 1.439.296.483.695.725 1.199.725.411 0 .765-.177 1.064-.532.299-.358.449-.89.449-1.595 0-.723-.145-1.257-.433-1.601-.285-.344-.631-.516-1.038-.516-.41 0-.765.179-1.064.537-.299.354-.448.869-.448 1.543zm5.079 2.811v-5.538h.844v.84c.216-.393.414-.652.595-.777.184-.125.386-.188.605-.188.316 0 .637.101.964.302l-.323.871a1.35 1.35 0 0 0-.688-.203.886.886 0 0 0-.553.187.988.988 0 0 0-.349.511 3.636 3.636 0 0 0-.157 1.095v2.9h-.938zm3.217-2.769c0-1.026.285-1.785.855-2.279.476-.41 1.057-.615 1.741-.615.762 0 1.384.25 1.867.751.483.497.725 1.185.725 2.065 0 .712-.108 1.274-.323 1.684a2.266 2.266 0 0 1-.934.949 2.701 2.701 0 0 1-1.335.339c-.775 0-1.402-.249-1.882-.746-.476-.497-.714-1.213-.714-2.148zm.964 0c0 .709.155 1.241.464 1.595.31.351.699.527 1.168.527.466 0 .854-.177 1.163-.532.309-.354.464-.895.464-1.621 0-.685-.156-1.203-.469-1.554a1.472 1.472 0 0 0-1.158-.532c-.469 0-.858.175-1.168.526-.309.352-.464.882-.464 1.591zm6.351 2.769l-1.694-5.538h.969l.882 3.196.328 1.189.287-1.142.881-3.243h.965l.829 3.212.276 1.058.318-1.068.949-3.202h.913l-1.732 5.538h-.975l-.881-3.317-.214-.943-1.121 4.26h-.98zm6.32-1.653l.928-.146c.052.372.196.657.433.855.239.198.573.297 1.001.297.431 0 .751-.087.959-.261.209-.177.313-.384.313-.62a.571.571 0 0 0-.276-.501c-.129-.083-.449-.189-.96-.318-.688-.174-1.166-.323-1.434-.448a1.436 1.436 0 0 1-.605-.527 1.426 1.426 0 0 1-.203-.746c0-.246.056-.474.167-.683.115-.212.269-.387.464-.526.146-.108.344-.198.594-.271a2.79 2.79 0 0 1 .814-.115c.434 0 .815.063 1.142.188.33.125.573.295.73.511.156.212.264.497.323.855l-.918.125a.997.997 0 0 0-.365-.668c-.198-.159-.479-.239-.844-.239-.431 0-.739.071-.923.213-.184.143-.277.31-.277.501 0 .122.039.231.115.328a.833.833 0 0 0 .36.251c.094.035.37.114.829.24.664.177 1.126.323 1.387.438.264.111.471.274.62.49.15.215.225.483.225.803 0 .313-.093.608-.277.886a1.773 1.773 0 0 1-.787.641c-.344.15-.734.225-1.168.225-.72 0-1.269-.15-1.648-.449-.375-.299-.615-.742-.719-1.329zm9.505-.131l.97.12c-.153.567-.436 1.007-.85 1.319-.414.313-.942.47-1.585.47-.81 0-1.453-.249-1.929-.746-.473-.501-.709-1.201-.709-2.101 0-.932.239-1.655.719-2.169.48-.515 1.102-.772 1.867-.772.74 0 1.345.252 1.814.756.47.504.704 1.213.704 2.127 0 .056-.002.139-.005.251h-4.13c.035.608.207 1.074.517 1.397.309.323.695.485 1.157.485.344 0 .638-.09.881-.271.244-.181.437-.469.579-.866zm-3.081-1.517h3.092c-.042-.466-.16-.815-.355-1.048a1.438 1.438 0 0 0-1.163-.542c-.431 0-.794.144-1.09.432-.292.289-.453.675-.484 1.158zm4.531 3.431l2.216-7.905h.75l-2.21 7.905h-.756zm3.754-.13v-7.644h2.868c.584 0 1.051.078 1.402.234.355.153.631.391.829.715.202.319.303.655.303 1.006 0 .327-.089.634-.266.923-.178.288-.445.521-.803.698.462.136.817.367 1.063.694.251.327.376.713.376 1.157 0 .359-.077.692-.23 1.002a1.913 1.913 0 0 1-.557.709 2.378 2.378 0 0 1-.84.38 5.125 5.125 0 0 1-1.23.126h-2.915zm1.011-4.433h1.653c.449 0 .77-.029.965-.088.257-.077.45-.204.579-.381.132-.177.198-.4.198-.667 0-.254-.061-.476-.183-.668a.91.91 0 0 0-.521-.396c-.226-.073-.614-.109-1.163-.109h-1.528v2.309zm0 3.53h1.904c.326 0 .556-.012.688-.036.233-.042.427-.111.584-.209.156-.097.285-.238.386-.422.1-.188.151-.403.151-.647 0-.285-.073-.531-.219-.74a1.134 1.134 0 0 0-.61-.443c-.257-.087-.629-.13-1.116-.13h-1.768v2.627zm11.169-6.741h1.012v4.416c0 .768-.087 1.378-.261 1.83-.174.452-.488.82-.944 1.106-.452.281-1.046.422-1.783.422-.716 0-1.302-.124-1.757-.37a2.11 2.11 0 0 1-.975-1.069c-.195-.47-.292-1.109-.292-1.919v-4.416h1.011v4.411c0 .664.061 1.154.183 1.47.125.313.337.555.636.725.302.17.671.255 1.105.255.744 0 1.274-.168 1.591-.505.316-.338.474-.986.474-1.945v-4.411zm6.278 4.645v-.896l3.238-.006v2.837a5.797 5.797 0 0 1-1.538.897 4.605 4.605 0 0 1-1.627.297c-.751 0-1.434-.16-2.049-.48a3.205 3.205 0 0 1-1.387-1.397c-.313-.609-.47-1.288-.47-2.039 0-.744.155-1.437.465-2.08.312-.647.761-1.127 1.345-1.44.584-.312 1.256-.469 2.018-.469.552 0 1.051.091 1.496.271.449.178.8.426 1.053.746.254.32.447.737.579 1.251l-.912.251c-.115-.39-.258-.696-.428-.918-.17-.223-.414-.4-.73-.532a2.654 2.654 0 0 0-1.053-.203c-.462 0-.862.071-1.199.214a2.24 2.24 0 0 0-.819.552c-.205.23-.365.482-.48.756a4.015 4.015 0 0 0-.292 1.538c0 .682.117 1.252.35 1.711.236.459.578.799 1.027 1.022.448.222.925.333 1.429.333.438 0 .865-.083 1.282-.25.417-.17.734-.351.949-.542v-1.424h-2.247zm4.249.704v-.943h2.884v.943h-2.884zm7.196 2.295h-.939v-5.981a4.83 4.83 0 0 1-.891.646 6.112 6.112 0 0 1-.986.485v-.907a5.682 5.682 0 0 0 1.377-.897c.393-.351.671-.691.834-1.022h.605v7.676zm7.341-.903v.903h-5.052c-.007-.226.03-.444.109-.652.129-.344.334-.683.616-1.017.285-.334.695-.72 1.23-1.158.831-.681 1.392-1.22 1.684-1.616.292-.4.438-.777.438-1.131 0-.372-.133-.685-.401-.939-.264-.257-.61-.386-1.038-.386-.452 0-.813.136-1.084.407-.271.271-.409.646-.412 1.126l-.965-.099c.066-.719.315-1.267.746-1.642.431-.379 1.01-.569 1.736-.569.734 0 1.314.204 1.742.61.427.407.641.911.641 1.512 0 .306-.063.607-.188.902-.125.296-.333.607-.625.934-.289.327-.77.775-1.445 1.345-.563.473-.924.794-1.084.965-.16.167-.292.335-.397.505h3.749zm1.017-1.115l.939-.126c.108.532.29.916.547 1.153.261.233.577.349.949.349.442 0 .814-.153 1.116-.459.306-.306.459-.684.459-1.136 0-.431-.141-.786-.422-1.064-.282-.282-.64-.422-1.075-.422-.177 0-.398.034-.662.104l.105-.824a1.938 1.938 0 0 0 1.23-.302c.32-.209.48-.53.48-.965 0-.344-.117-.629-.35-.855-.232-.226-.533-.339-.902-.339-.365 0-.669.115-.912.344-.243.23-.4.574-.469 1.033l-.939-.167c.115-.63.376-1.116.782-1.46.407-.348.913-.522 1.518-.522.417 0 .801.091 1.152.271.351.178.619.421.803.73.188.31.281.638.281.986 0 .33-.088.631-.266.902-.177.271-.439.487-.787.646.452.105.803.322 1.053.652.251.327.376.737.376 1.231 0 .667-.244 1.234-.73 1.7-.487.462-1.102.693-1.846.693-.671 0-1.229-.2-1.674-.6-.441-.399-.693-.917-.756-1.553zm8.948 2.018v-1.831h-3.316v-.86l3.488-4.953h.766v4.953h1.033v.86h-1.033v1.831h-.938zm0-2.691v-3.447l-2.394 3.447h2.394z" fill="#6A737C"/><path fill="#FAFAFB" d="M0 0H311.629V45.383H0z"/><path d="M48.684 33.889l.928-.146c.052.372.197.657.433.855.24.198.573.297 1.001.297.431 0 .75-.087.96-.26.208-.178.312-.385.312-.621a.57.57 0 0 0-.276-.5c-.129-.084-.449-.19-.96-.319-.688-.174-1.166-.323-1.433-.448a1.43 1.43 0 0 1-.605-.527 1.423 1.423 0 0 1-.204-.745c0-.247.056-.475.167-.684.115-.212.27-.387.464-.526.146-.108.344-.198.595-.271.253-.077.525-.115.813-.115.435 0 .815.063 1.142.188.33.125.574.295.73.51.156.213.264.498.323.856l-.917.125a1 1 0 0 0-.365-.668c-.199-.16-.48-.24-.845-.24-.431 0-.739.072-.923.214-.184.143-.276.31-.276.501 0 .122.038.231.114.329.077.1.197.184.36.25.094.035.37.115.83.24.663.177 1.125.323 1.386.438.264.11.471.274.62.49.15.215.225.483.225.803 0 .313-.092.608-.276.886-.181.275-.444.488-.788.641-.344.15-.733.225-1.168.225-.72 0-1.269-.15-1.648-.449-.375-.299-.615-.742-.719-1.33zm9.344 1.652v-.813c-.431.626-1.017.939-1.758.939-.326 0-.632-.063-.917-.188-.282-.125-.492-.282-.631-.47a1.817 1.817 0 0 1-.287-.698c-.038-.184-.057-.476-.057-.876v-3.43h.938v3.07c0 .49.02.82.058.99a.99.99 0 0 0 .375.585c.191.139.428.209.71.209.28 0 .545-.072.792-.214.247-.146.42-.343.521-.59.105-.25.157-.611.157-1.084v-2.967h.938v5.537h-.84zm3.18 0h-.87v-7.643h.938v2.727c.396-.497.902-.746 1.517-.746.341 0 .663.07.965.208.306.136.556.329.75.58.199.246.354.545.465.896.111.351.167.727.167 1.126 0 .95-.235 1.683-.704 2.2-.47.519-1.033.778-1.69.778-.653 0-1.166-.273-1.538-.819v.694zm-.01-2.81c0 .664.09 1.144.271 1.44.295.482.695.724 1.2.724.41 0 .764-.177 1.063-.532.299-.358.448-.89.448-1.595 0-.724-.144-1.257-.432-1.601-.285-.344-.631-.516-1.038-.516-.41 0-.765.179-1.064.537-.299.354-.448.869-.448 1.543zm5.089 2.81v-5.537h.84v.777c.173-.271.404-.488.693-.652.288-.167.617-.25.985-.25.41 0 .746.085 1.007.255.264.17.45.409.558.715.438-.647 1.008-.97 1.71-.97.55 0 .971.153 1.267.459.295.302.443.77.443 1.402v3.802h-.933v-3.489c0-.375-.031-.645-.094-.808a.77.77 0 0 0-.329-.401c-.16-.101-.347-.152-.563-.152-.39 0-.712.13-.97.391-.257.258-.385.671-.385 1.241v3.218h-.939v-3.598c0-.417-.076-.73-.23-.939-.152-.208-.403-.313-.75-.313-.264 0-.51.07-.735.209-.223.139-.384.342-.485.61-.101.268-.151.653-.151 1.158v2.873h-.94zm8.9-6.564v-1.08h.939v1.08h-.939zm0 6.564v-5.537h.939v5.537h-.939zm4.422-.839l.136.83c-.265.055-.5.083-.71.083-.34 0-.604-.054-.792-.162a.908.908 0 0 1-.396-.422c-.077-.178-.115-.548-.115-1.111v-3.186h-.688v-.73h.688v-1.371l.933-.563v1.934h.944v.73h-.944v3.238c0 .268.016.44.047.516a.41.41 0 0 0 .162.183.639.639 0 0 0 .323.068c.104 0 .242-.013.412-.037zm2.972 0l.136.83c-.264.055-.5.083-.71.083-.34 0-.604-.054-.792-.162a.908.908 0 0 1-.396-.422c-.077-.178-.115-.548-.115-1.111v-3.186h-.688v-.73h.688v-1.371l.933-.563v1.934h.944v.73h-.944v3.238c0 .268.016.44.047.516a.41.41 0 0 0 .162.183.64.64 0 0 0 .323.068c.105 0 .242-.013.412-.037zm4.714-.944l.97.12c-.153.567-.437 1.007-.85 1.32-.414.312-.942.469-1.586.469-.81 0-1.453-.249-1.929-.746-.472-.5-.709-1.201-.709-2.101 0-.932.24-1.655.72-2.17.48-.514 1.102-.771 1.866-.771.74 0 1.346.252 1.815.756.47.504.704 1.213.704 2.127 0 .056-.002.14-.005.25h-4.13c.035.609.207 1.075.516 1.398.31.323.695.485 1.158.485.344 0 .638-.09.88-.271.244-.18.437-.47.58-.866zm-3.082-1.517h3.092c-.042-.466-.16-.815-.354-1.048a1.439 1.439 0 0 0-1.163-.542 1.5 1.5 0 0 0-1.09.432c-.292.289-.454.675-.485 1.158zm8.828 3.3v-.698c-.351.549-.868.824-1.549.824-.441 0-.848-.122-1.22-.365a2.427 2.427 0 0 1-.86-1.017c-.202-.438-.303-.94-.303-1.507 0-.553.092-1.053.277-1.502.184-.452.46-.797.829-1.037.368-.24.78-.36 1.235-.36.334 0 .631.071.892.214.26.139.473.321.636.547v-2.742h.934v7.643h-.871zm-2.967-2.763c0 .71.15 1.24.448 1.59.3.351.652.527 1.059.527.41 0 .757-.167 1.043-.5.288-.338.432-.85.432-1.539 0-.758-.146-1.314-.438-1.668-.292-.355-.651-.532-1.079-.532-.417 0-.767.17-1.048.51-.278.341-.417.878-.417 1.612zm6.976 2.764l2.936-7.644h1.09l3.128 7.643h-1.152l-.892-2.315h-3.196l-.84 2.316H97.05zm2.206-3.14h2.591l-.797-2.116a21.021 21.021 0 0 1-.543-1.585 9.62 9.62 0 0 1-.412 1.46l-.839 2.242zm9.266 3.14v-.814c-.432.626-1.017.939-1.758.939-.326 0-.632-.063-.917-.188-.282-.125-.492-.282-.631-.47a1.815 1.815 0 0 1-.287-.698c-.038-.184-.057-.476-.057-.876v-3.43h.938v3.07c0 .49.019.82.058.99a.99.99 0 0 0 .375.585c.191.139.427.209.709.209s.546-.072.793-.214c.246-.146.42-.343.521-.59.104-.25.156-.611.156-1.084v-2.967h.939v5.537h-.839zm2.143.458l.912.136c.038.281.144.487.318.615.233.174.551.26.954.26.435 0 .77-.086 1.007-.26.236-.174.396-.417.479-.73.049-.191.072-.593.068-1.204-.41.483-.921.724-1.533.724-.761 0-1.35-.274-1.767-.823-.418-.55-.626-1.208-.626-1.977 0-.528.095-1.014.287-1.46.191-.448.467-.794.829-1.037.365-.243.792-.365 1.282-.365.654 0 1.193.264 1.617.793v-.668h.865v4.787c0 .862-.088 1.472-.266 1.83a1.902 1.902 0 0 1-.834.855c-.379.209-.846.313-1.403.313-.66 0-1.194-.15-1.6-.449-.407-.295-.603-.742-.589-1.34zm.776-3.326c0 .726.145 1.256.433 1.59.289.334.65.5 1.085.5a1.39 1.39 0 0 0 1.084-.495c.292-.334.438-.855.438-1.564 0-.678-.151-1.189-.453-1.533-.299-.344-.661-.516-1.085-.516-.417 0-.772.17-1.064.51-.292.338-.438.84-.438 1.508zm11.586 2.867h-.938v-5.98a4.807 4.807 0 0 1-.892.646 6.198 6.198 0 0 1-.985.485v-.907a5.669 5.669 0 0 0 1.376-.897c.393-.35.671-.692.834-1.022h.605v7.675zm7.342-.901v.901h-5.053a1.66 1.66 0 0 1 .11-.651 3.45 3.45 0 0 1 .615-1.017c.285-.334.695-.72 1.231-1.158.83-.68 1.392-1.22 1.684-1.616.292-.4.438-.777.438-1.131 0-.372-.134-.685-.402-.939-.264-.257-.61-.386-1.037-.386-.452 0-.814.136-1.085.407-.271.271-.408.646-.412 1.126l-.964-.099c.066-.72.314-1.267.745-1.642.431-.38 1.01-.569 1.736-.569.734 0 1.314.204 1.742.61.428.407.641.911.641 1.512 0 .306-.062.607-.187.902-.126.296-.334.607-.626.934-.289.327-.77.775-1.444 1.345-.564.473-.925.794-1.085.965-.16.166-.292.335-.396.505h3.749zm1.517.901v-1.068h1.069v1.069c0 .392-.07.709-.209.948-.139.244-.359.431-.662.564l-.26-.402a.889.889 0 0 0 .438-.386c.093-.167.146-.408.156-.724h-.532zm10.371-.901v.901h-5.052a1.659 1.659 0 0 1 .109-.651c.129-.344.334-.683.615-1.017.285-.334.696-.72 1.231-1.158.831-.68 1.392-1.22 1.684-1.616.292-.4.438-.777.438-1.131 0-.372-.134-.685-.402-.939-.264-.257-.61-.386-1.037-.386-.452 0-.814.136-1.085.407-.271.271-.408.646-.412 1.126l-.964-.099c.066-.72.314-1.267.745-1.642.431-.38 1.01-.569 1.737-.569.733 0 1.314.204 1.741.61.428.407.642.911.642 1.512 0 .306-.063.607-.188.902-.125.296-.334.607-.626.934-.288.327-.77.775-1.444 1.345-.563.473-.925.794-1.085.965-.16.166-.292.335-.396.505h3.749zm1.012-2.868c0-.904.092-1.63.276-2.18.188-.552.464-.978.829-1.277.368-.3.831-.449 1.387-.449.41 0 .77.084 1.079.25.31.164.565.402.767.715.201.31.36.688.474 1.137.115.445.172 1.046.172 1.804 0 .897-.092 1.621-.276 2.174-.184.55-.461.975-.829 1.277-.365.3-.827.449-1.387.449-.737 0-1.316-.264-1.736-.793-.504-.636-.756-1.672-.756-3.107zm.964 0c0 1.255.146 2.09.438 2.508.296.413.659.62 1.09.62.431 0 .792-.208 1.084-.625.296-.418.444-1.252.444-2.503 0-1.259-.148-2.095-.444-2.508-.292-.414-.657-.62-1.094-.62-.432 0-.776.182-1.033.547-.323.466-.485 1.326-.485 2.58zm8.515 3.77h-.939V29.56a4.83 4.83 0 0 1-.891.646 6.204 6.204 0 0 1-.986.485v-.907a5.675 5.675 0 0 0 1.377-.897c.393-.35.671-.692.834-1.022h.605v7.675zm2.55-1.768l.902-.084c.076.425.222.732.438.923.215.192.492.287.829.287.288 0 .54-.066.756-.198a1.62 1.62 0 0 0 .537-.527c.139-.222.255-.521.349-.896a4.705 4.705 0 0 0 .136-1.335 2.166 2.166 0 0 1-.772.73 2.089 2.089 0 0 1-1.053.276c-.633 0-1.168-.23-1.606-.688-.438-.459-.657-1.064-.657-1.815 0-.775.228-1.399.683-1.872.459-.472 1.032-.709 1.721-.709.497 0 .95.134 1.36.402.414.267.727.65.939 1.147.216.494.323 1.21.323 2.148 0 .977-.106 1.756-.318 2.336-.212.577-.528 1.017-.949 1.32-.417.302-.907.453-1.47.453-.598 0-1.086-.165-1.465-.495-.379-.334-.607-.802-.683-1.403zm3.842-3.374c0-.538-.144-.966-.432-1.282-.285-.317-.63-.475-1.033-.475-.417 0-.78.17-1.089.511-.31.34-.465.782-.465 1.325 0 .486.146.883.438 1.188.296.303.659.454 1.09.454.435 0 .791-.151 1.069-.454.282-.306.422-.728.422-1.267zm6.059 5.142h-.87v-7.644h.938v2.727c.396-.497.902-.746 1.517-.746.341 0 .663.07.965.208.306.136.556.329.751.58.198.246.353.545.464.896.111.351.167.727.167 1.126 0 .95-.235 1.683-.704 2.2-.469.519-1.033.778-1.69.778-.653 0-1.166-.273-1.538-.819v.694zm-.01-2.81c0 .663.09 1.143.271 1.438.295.483.695.725 1.199.725.41 0 .765-.177 1.064-.532.299-.358.448-.89.448-1.595 0-.724-.144-1.257-.432-1.601-.285-.344-.631-.516-1.038-.516-.41 0-.765.179-1.064.537-.299.354-.448.869-.448 1.543zm5.047 4.942l-.104-.881c.205.056.384.083.537.083.208 0 .375-.034.5-.104a.847.847 0 0 0 .308-.292c.059-.094.155-.327.287-.699.017-.052.045-.128.083-.23l-2.101-5.547h1.012l1.152 3.207c.149.407.283.834.401 1.282.108-.43.237-.851.386-1.261l1.184-3.228h.938l-2.106 5.631c-.226.609-.402 1.028-.527 1.257-.167.31-.358.535-.573.678a1.345 1.345 0 0 1-.772.219c-.181 0-.382-.038-.605-.115zm8.473-2.133v-7.643h2.633c.595 0 1.048.036 1.361.11.438.1.812.282 1.121.547.403.34.704.776.902 1.308.202.529.303 1.134.303 1.815 0 .58-.068 1.095-.204 1.543-.135.449-.309.82-.521 1.116a2.803 2.803 0 0 1-.699.694c-.25.166-.554.293-.912.38a5.18 5.18 0 0 1-1.226.13h-2.758zm1.012-.901h1.632c.504 0 .898-.047 1.183-.141.289-.094.518-.226.689-.397.239-.24.425-.561.557-.964.136-.407.204-.899.204-1.476 0-.8-.132-1.413-.396-1.84-.261-.431-.579-.72-.955-.866-.271-.104-.707-.156-1.308-.156h-1.606v5.84zm10.376-.882l.97.12c-.153.567-.437 1.007-.85 1.32-.414.312-.942.469-1.585.469-.81 0-1.453-.249-1.93-.746-.472-.5-.709-1.201-.709-2.101 0-.932.24-1.655.72-2.17.48-.514 1.102-.771 1.866-.771.741 0 1.346.252 1.815.756.469.504.704 1.213.704 2.127 0 .056-.002.14-.005.25h-4.13c.035.609.207 1.075.516 1.398.31.323.696.485 1.158.485.344 0 .638-.09.881-.271.243-.18.436-.47.579-.866zm-3.082-1.517h3.092c-.041-.466-.16-.815-.354-1.048a1.44 1.44 0 0 0-1.163-.542c-.431 0-.794.144-1.09.432-.292.289-.453.675-.485 1.158zm6.773 3.3l-2.106-5.537h.991l1.188 3.316c.129.358.247.73.355 1.116.083-.292.2-.643.349-1.053l1.231-3.379h.965l-2.097 5.537h-.876zm7.592-1.783l.97.12c-.153.567-.436 1.007-.85 1.32-.414.312-.942.469-1.585.469-.81 0-1.453-.249-1.929-.746-.473-.5-.709-1.201-.709-2.101 0-.932.24-1.655.719-2.17.48-.514 1.102-.771 1.867-.771.74 0 1.345.252 1.814.756.47.504.704 1.213.704 2.127 0 .056-.001.14-.005.25h-4.129c.034.609.206 1.075.516 1.398.309.323.695.485 1.157.485.344 0 .638-.09.881-.271.244-.18.437-.47.579-.866zm-3.081-1.517h3.092c-.042-.466-.16-.815-.355-1.048a1.438 1.438 0 0 0-1.163-.542c-.431 0-.794.144-1.089.432-.292.289-.454.675-.485 1.158zm5.214 3.3v-7.643h.938v7.643h-.938zm2.049-2.768c0-1.026.285-1.785.855-2.279.476-.41 1.057-.615 1.742-.615.761 0 1.383.25 1.866.75.483.498.725 1.186.725 2.066 0 .712-.108 1.274-.323 1.684a2.25 2.25 0 0 1-.934.949 2.698 2.698 0 0 1-1.334.339c-.776 0-1.403-.249-1.883-.746-.476-.497-.714-1.213-.714-2.148zm.965 0c0 .709.154 1.24.464 1.595a1.49 1.49 0 0 0 1.168.527c.465 0 .853-.177 1.162-.532.31-.355.464-.895.464-1.621 0-.685-.156-1.203-.469-1.554a1.472 1.472 0 0 0-1.157-.532c-.47 0-.859.175-1.168.527-.31.35-.464.88-.464 1.59zm5.328 4.89v-7.659h.856v.72c.201-.282.429-.492.683-.631.253-.143.561-.214.923-.214.472 0 .889.122 1.251.365.361.243.634.587.819 1.032.184.442.276.927.276 1.455 0 .567-.103 1.078-.308 1.533-.201.452-.497.8-.886 1.043-.386.24-.793.36-1.22.36-.313 0-.595-.066-.845-.199a1.924 1.924 0 0 1-.61-.5v2.696h-.939zm.85-4.859c0 .713.145 1.24.433 1.58.289.34.638.51 1.048.51.417 0 .774-.175 1.069-.526.299-.354.448-.902.448-1.642 0-.706-.146-1.234-.438-1.585-.288-.351-.634-.527-1.037-.527-.4 0-.754.188-1.064.563-.306.372-.459.915-.459 1.627zm8.885.954l.97.12c-.153.567-.436 1.007-.85 1.32-.413.312-.942.469-1.585.469-.81 0-1.453-.249-1.929-.746-.473-.5-.709-1.201-.709-2.101 0-.932.24-1.655.719-2.17.48-.514 1.102-.771 1.867-.771.74 0 1.345.252 1.814.756.47.504.704 1.213.704 2.127 0 .056-.001.14-.005.25h-4.129c.034.609.206 1.075.516 1.398.309.323.695.485 1.157.485.344 0 .638-.09.881-.271.244-.18.437-.47.579-.866zm-3.081-1.517h3.092c-.042-.466-.16-.815-.355-1.048a1.438 1.438 0 0 0-1.163-.542c-.431 0-.794.144-1.089.432-.292.289-.454.675-.485 1.158zm5.224 3.3v-5.537h.845v.84c.215-.393.414-.652.594-.777.185-.125.386-.188.605-.188.317 0 .638.1.965.302l-.323.871a1.346 1.346 0 0 0-.689-.203.883.883 0 0 0-.552.188.988.988 0 0 0-.35.51 3.665 3.665 0 0 0-.156 1.095v2.9h-.939z" fill="#6A737C"/><path d="M37.551 17.078l1.727.547c-.265.963-.706 1.679-1.323 2.148-.614.465-1.394.698-2.34.698-1.172 0-2.135-.4-2.889-1.198-.754-.802-1.13-1.897-1.13-3.284 0-1.468.378-2.607 1.136-3.418.758-.814 1.755-1.221 2.99-1.221 1.08 0 1.956.319 2.63.957.4.377.702.918.902 1.624l-1.763.421c-.104-.457-.323-.818-.655-1.083-.33-.264-.73-.397-1.204-.397-.654 0-1.185.235-1.594.704-.405.47-.608 1.23-.608 2.28 0 1.115.2 1.91.602 2.383.401.473.922.71 1.564.71.473 0 .88-.15 1.222-.452.34-.3.585-.774.733-1.42zm4.513-1.198l-1.535-.277c.173-.617.47-1.074.891-1.371.421-.297 1.047-.445 1.877-.445.754 0 1.316.09 1.685.27.369.177.627.403.776.68.152.273.228.776.228 1.51l-.018 1.974c0 .561.026.976.078 1.245.057.265.159.55.307.854h-1.672a6.195 6.195 0 0 1-.163-.499 3.072 3.072 0 0 0-.06-.199c-.289.281-.597.492-.926.632-.33.14-.68.21-1.053.21-.658 0-1.177-.178-1.558-.535-.377-.357-.566-.808-.566-1.353 0-.361.086-.682.259-.963.172-.285.413-.501.722-.65.313-.152.762-.285 1.347-.397.79-.148 1.338-.287 1.643-.415v-.168c0-.325-.08-.556-.24-.692-.161-.14-.464-.21-.91-.21-.3 0-.535.06-.703.18-.169.116-.305.323-.41.62zm2.262 1.372c-.217.072-.56.158-1.029.259-.47.1-.776.198-.92.294-.221.157-.331.355-.331.596a.83.83 0 0 0 .264.614.924.924 0 0 0 .674.258c.305 0 .596-.1.873-.3a1.06 1.06 0 0 0 .403-.56c.044-.144.066-.419.066-.824v-.337zm9.145 3.068h-1.69v-3.26c0-.69-.037-1.136-.11-1.336a.932.932 0 0 0-.354-.475.991.991 0 0 0-.584-.169c-.293 0-.555.08-.788.24-.233.161-.393.374-.481.639-.084.264-.127.753-.127 1.468v2.893h-1.69v-6.389h1.57v.939c.558-.722 1.26-1.083 2.106-1.083.373 0 .714.068 1.023.204.308.133.541.303.698.511.16.21.27.446.33.71.065.265.097.644.097 1.137v3.971zm1.678-8.796h1.69v1.21c0 .49-.041.876-.125 1.16-.085.282-.245.534-.482.759-.233.224-.53.401-.89.53l-.331-.698c.34-.113.583-.267.728-.464.144-.196.22-.465.228-.806h-.818v-1.69zm6.402 2.407v1.348h-1.156v2.575c0 .521.01.826.03.914a.391.391 0 0 0 .15.21c.081.057.177.085.29.085.156 0 .383-.054.68-.162l.144 1.311a3.36 3.36 0 0 1-1.336.253c-.305 0-.58-.05-.824-.15-.245-.105-.425-.237-.541-.398-.113-.164-.19-.385-.235-.662-.036-.196-.054-.593-.054-1.19v-2.786h-.776V13.93h.776v-1.27l1.696-.986v2.256h1.156zm4.446 6.81l1.93.235c.033.225.107.38.223.463.16.12.414.18.758.18.442 0 .773-.065.993-.198a.818.818 0 0 0 .337-.427c.052-.14.078-.399.078-.776v-.933c-.505.69-1.143 1.035-1.913 1.035-.858 0-1.538-.363-2.04-1.089-.392-.573-.589-1.287-.589-2.142 0-1.07.257-1.889.77-2.454a2.504 2.504 0 0 1 1.925-.848c.79 0 1.442.346 1.956 1.04v-.896h1.582v5.734c0 .754-.062 1.317-.187 1.69-.124.373-.298.666-.523.878-.225.213-.525.38-.902.5-.373.12-.847.18-1.42.18-1.083 0-1.851-.186-2.304-.56-.454-.368-.68-.837-.68-1.407 0-.056.002-.124.006-.205zm1.51-3.748c0 .678.13 1.176.39 1.492.265.313.59.47.975.47.414 0 .763-.16 1.047-.482.285-.325.427-.804.427-1.438 0-.661-.136-1.153-.409-1.474a1.3 1.3 0 0 0-1.034-.48c-.406 0-.74.158-1.005.474-.26.313-.391.793-.391 1.438zm9.878 1.294l1.685.283c-.216.617-.56 1.088-1.029 1.413-.465.321-1.048.482-1.75.482-1.111 0-1.934-.363-2.467-1.09-.421-.58-.632-1.315-.632-2.201 0-1.06.277-1.887.83-2.485.554-.602 1.254-.902 2.1-.902.95 0 1.7.314 2.25.944.55.626.812 1.586.788 2.882h-4.235c.012.501.148.892.409 1.173.26.277.586.415.975.415.264 0 .487-.072.667-.216.18-.145.317-.377.41-.698zm.097-1.709c-.012-.49-.139-.86-.38-1.113a1.159 1.159 0 0 0-.878-.385c-.369 0-.673.134-.914.403-.24.269-.36.634-.355 1.095h2.527zm5.992-2.647v1.348H82.32v2.575c0 .521.01.826.03.914a.391.391 0 0 0 .15.21c.08.057.177.085.29.085.156 0 .382-.054.679-.162l.144 1.311a3.36 3.36 0 0 1-1.335.253c-.305 0-.58-.05-.824-.15-.245-.105-.426-.237-.542-.398-.112-.164-.19-.385-.234-.662-.037-.196-.055-.593-.055-1.19v-2.786h-.776V13.93h.776v-1.27l1.697-.986v2.256h1.155zm7.532 0v1.348h-1.155v2.575c0 .521.01.826.03.914a.391.391 0 0 0 .15.21c.081.057.177.085.29.085.156 0 .383-.054.68-.162l.144 1.311a3.36 3.36 0 0 1-1.336.253c-.305 0-.58-.05-.824-.15-.245-.105-.425-.237-.541-.398-.113-.164-.191-.385-.235-.662-.036-.196-.054-.593-.054-1.19v-2.786h-.776V13.93h.776v-1.27l1.696-.986v2.256h1.156zm2.858-2.43v3.242c.546-.638 1.197-.956 1.956-.956.389 0 .74.072 1.052.216.313.145.548.33.704.554.16.224.269.473.325.746.06.272.09.696.09 1.27v3.747h-1.69v-3.375c0-.67-.032-1.095-.096-1.275a.818.818 0 0 0-.343-.428 1.063 1.063 0 0 0-.608-.162 1.4 1.4 0 0 0-.752.205c-.22.136-.383.343-.487.62-.1.272-.15.677-.15 1.215v3.2h-1.691V11.5h1.69zm9.548 6.786l1.685.283c-.217.617-.56 1.088-1.029 1.413-.465.321-1.049.482-1.751.482-1.111 0-1.933-.363-2.466-1.09-.422-.58-.632-1.315-.632-2.201 0-1.06.277-1.887.83-2.485.554-.602 1.253-.902 2.1-.902.95 0 1.7.314 2.25.944.549.626.812 1.586.788 2.882h-4.236c.013.501.149.892.41 1.173.26.277.585.415.974.415.265 0 .488-.072.668-.216.181-.145.317-.377.409-.698zm.096-1.709c-.012-.49-.138-.86-.379-1.113a1.157 1.157 0 0 0-.878-.385c-.369 0-.674.134-.914.403-.241.269-.359.634-.355 1.095h2.526zm9.422-2.647v1.348h-1.155v2.575c0 .521.01.826.03.914a.391.391 0 0 0 .15.21.494.494 0 0 0 .289.085c.157 0 .383-.054.68-.162l.144 1.311a3.358 3.358 0 0 1-1.335.253c-.305 0-.58-.05-.825-.15-.244-.105-.425-.237-.541-.398-.112-.164-.19-.385-.235-.662-.036-.196-.054-.593-.054-1.19v-2.786h-.776V13.93h.776v-1.27l1.697-.986v2.256h1.155zm2.858-2.43v3.242c.545-.638 1.197-.956 1.955-.956.389 0 .74.072 1.053.216.313.145.547.33.704.554.16.224.269.473.325.746.06.272.09.696.09 1.27v3.747h-1.691v-3.375c0-.67-.032-1.095-.096-1.275a.815.815 0 0 0-.343-.428c-.16-.108-.363-.162-.608-.162-.28 0-.531.068-.752.205-.22.136-.383.343-.487.62-.1.272-.15.677-.15 1.215v3.2h-1.691V11.5h1.691zm5.848 1.564V11.5h1.69v1.565h-1.69zm0 7.255v-6.389h1.69v6.39h-1.69zm9.241 0h-1.691v-3.26c0-.69-.036-1.136-.108-1.336a.934.934 0 0 0-.355-.475.993.993 0 0 0-.584-.169c-.293 0-.555.08-.788.24-.233.161-.393.374-.481.639-.084.264-.127.753-.127 1.468v2.893h-1.69v-6.389h1.57v.939c.558-.722 1.26-1.083 2.106-1.083.373 0 .714.068 1.023.204.308.133.541.303.698.511.16.21.27.446.33.71.065.265.097.644.097 1.137v3.971zm1.564.421l1.931.235c.032.225.106.38.223.463.16.12.413.18.758.18.441 0 .772-.065.993-.198a.817.817 0 0 0 .336-.427c.053-.14.079-.399.079-.776v-.933c-.506.69-1.143 1.035-1.914 1.035-.858 0-1.538-.363-2.039-1.089-.393-.573-.59-1.287-.59-2.142 0-1.07.257-1.889.77-2.454a2.507 2.507 0 0 1 1.926-.848c.79 0 1.442.346 1.955 1.04v-.896h1.582v5.734c0 .754-.062 1.317-.186 1.69-.125.373-.299.666-.524.878-.224.213-.525.38-.902.5-.373.12-.846.18-1.42.18-1.083 0-1.851-.186-2.304-.56-.453-.368-.68-.837-.68-1.407 0-.056.002-.124.006-.205zm1.51-3.748c0 .678.13 1.176.391 1.492.265.313.59.47.975.47.413 0 .762-.16 1.047-.482.284-.325.427-.804.427-1.438 0-.661-.137-1.153-.409-1.474a1.3 1.3 0 0 0-1.035-.48c-.405 0-.74.158-1.005.474-.261.313-.391.793-.391 1.438zm12.538-3.062v1.348h-1.155v2.575c0 .521.01.826.03.914a.391.391 0 0 0 .15.21.494.494 0 0 0 .289.085c.157 0 .383-.054.68-.162l.144 1.311a3.358 3.358 0 0 1-1.335.253c-.305 0-.58-.05-.824-.15-.245-.105-.426-.237-.542-.398-.112-.164-.19-.385-.235-.662-.036-.196-.054-.593-.054-1.19v-2.786h-.776V13.93h.776v-1.27l1.697-.986v2.256h1.155zm.782 3.104c0-.561.139-1.105.415-1.63a2.858 2.858 0 0 1 1.173-1.203 3.51 3.51 0 0 1 1.703-.415c.967 0 1.759.314 2.377.944.617.626.926 1.418.926 2.377 0 .966-.313 1.768-.939 2.406-.621.634-1.405.95-2.352.95a3.727 3.727 0 0 1-1.678-.396 2.731 2.731 0 0 1-1.21-1.162c-.276-.513-.415-1.137-.415-1.87zm1.733.09c0 .634.15 1.12.451 1.457.301.337.672.505 1.113.505.441 0 .81-.168 1.107-.505.301-.337.451-.827.451-1.468 0-.626-.15-1.107-.451-1.444a1.416 1.416 0 0 0-1.107-.506c-.441 0-.812.169-1.113.506-.301.337-.451.822-.451 1.456zm10.811 3.195l-2.021-6.389h1.642l1.197 4.187 1.101-4.187h1.631l1.065 4.187 1.221-4.187h1.667l-2.052 6.39h-1.624l-1.101-4.11-1.083 4.11h-1.643zm8.008-3.285c0-.561.138-1.105.415-1.63a2.858 2.858 0 0 1 1.173-1.203 3.51 3.51 0 0 1 1.703-.415c.966 0 1.759.314 2.376.944.618.626.927 1.418.927 2.377 0 .966-.313 1.768-.939 2.406-.621.634-1.406.95-2.352.95a3.731 3.731 0 0 1-1.679-.396 2.734 2.734 0 0 1-1.209-1.162c-.277-.513-.415-1.137-.415-1.87zm1.733.09c0 .634.15 1.12.451 1.457.301.337.672.505 1.113.505.441 0 .81-.168 1.107-.505.301-.337.451-.827.451-1.468 0-.626-.15-1.107-.451-1.444a1.416 1.416 0 0 0-1.107-.506c-.441 0-.812.169-1.113.506-.301.337-.451.822-.451 1.456zm7.809 3.195h-1.691v-6.389h1.57v.908c.269-.429.51-.712.722-.848.217-.136.462-.204.734-.204.385 0 .756.106 1.113.318l-.523 1.474c-.285-.184-.549-.276-.794-.276a.93.93 0 0 0-.602.198c-.164.129-.295.363-.391.704-.092.341-.138 1.055-.138 2.142v1.973zm3.122 0V11.5h1.691v4.681l1.979-2.25h2.082l-2.184 2.334 2.34 4.055h-1.823l-1.606-2.87-.788.825v2.045h-1.691z" fill="#07C"/><path d="M194.102 20.32v-7.056h2.647c.539 0 .971.073 1.295.217.327.141.582.36.765.66.186.294.28.604.28.928 0 .302-.082.586-.246.852-.164.267-.411.482-.741.645.427.125.754.339.982.64.231.302.346.658.346 1.069 0 .33-.07.638-.212.924-.137.282-.309.5-.515.654a2.181 2.181 0 0 1-.774.352 4.764 4.764 0 0 1-1.136.115h-2.691zm.934-4.09h1.526c.414 0 .71-.028.89-.083.238-.07.416-.187.534-.351.122-.164.183-.369.183-.616 0-.234-.056-.44-.168-.616a.841.841 0 0 0-.482-.366c-.208-.067-.566-.101-1.073-.101h-1.41v2.132zm0 3.258h1.757c.301 0 .513-.012.635-.034.215-.038.395-.103.539-.193.144-.09.263-.22.356-.39.093-.173.14-.372.14-.596 0-.263-.068-.491-.202-.684a1.053 1.053 0 0 0-.563-.409c-.238-.08-.581-.12-1.03-.12h-1.632v2.426zm10.31-6.224h.933v4.077c0 .71-.08 1.272-.24 1.69-.161.417-.451.757-.872 1.02-.417.26-.965.39-1.646.39-.661 0-1.201-.114-1.622-.342a1.955 1.955 0 0 1-.9-.987c-.179-.433-.269-1.023-.269-1.771v-4.077h.934v4.072c0 .613.056 1.066.168 1.358.115.288.311.511.587.669.279.157.619.235 1.021.235.686 0 1.176-.155 1.468-.466.292-.312.438-.91.438-1.796v-4.072zm5.794 4.289v-.828l2.989-.005v2.618a5.33 5.33 0 0 1-1.42.828 4.239 4.239 0 0 1-1.501.275 4.041 4.041 0 0 1-1.892-.443 2.964 2.964 0 0 1-1.28-1.29c-.289-.562-.433-1.189-.433-1.882 0-.687.143-1.327.428-1.92.289-.597.703-1.04 1.242-1.329.539-.289 1.16-.433 1.863-.433.51 0 .97.083 1.381.25.414.164.738.393.972.689.234.295.413.68.534 1.155l-.842.23c-.106-.359-.237-.641-.395-.846a1.597 1.597 0 0 0-.673-.491 2.445 2.445 0 0 0-.973-.188c-.426 0-.795.066-1.107.197a2.062 2.062 0 0 0-.755.51 2.46 2.46 0 0 0-.443.698c-.18.437-.27.91-.27 1.42 0 .63.108 1.155.323 1.579.218.423.534.738.948.943a2.93 2.93 0 0 0 1.319.308c.404 0 .799-.077 1.184-.23.385-.158.677-.325.876-.501v-1.314h-2.075zm3.923.65v-.872h2.662v.872h-2.662zm6.642 2.117h-.866V14.8a4.467 4.467 0 0 1-.823.597c-.337.198-.64.348-.91.447v-.837a5.235 5.235 0 0 0 1.271-.828c.362-.324.619-.639.77-.944h.558v7.085zm6.777-.832v.832h-4.664c-.006-.208.027-.409.101-.601.119-.318.308-.63.568-.939.263-.308.642-.664 1.136-1.068.767-.63 1.285-1.127 1.555-1.492.269-.37.404-.718.404-1.045 0-.343-.124-.632-.371-.866-.244-.238-.563-.356-.958-.356-.417 0-.75.125-1.001.375-.25.25-.377.597-.38 1.04l-.89-.092c.061-.664.29-1.17.688-1.516.398-.35.932-.524 1.603-.524.677 0 1.213.187 1.607.563.395.375.592.84.592 1.395 0 .283-.058.56-.173.833-.116.273-.308.56-.578.862-.266.301-.71.715-1.333 1.241-.52.437-.853.734-1.001.89-.148.155-.269.31-.366.468h3.461zm.938-1.03l.867-.116c.099.491.268.846.505 1.064.241.215.533.322.876.322.408 0 .751-.14 1.03-.423.282-.283.424-.632.424-1.05 0-.397-.13-.725-.39-.981-.26-.26-.591-.39-.992-.39a2.49 2.49 0 0 0-.611.096l.096-.76c.058.006.105.01.14.01.369 0 .701-.097.996-.29.295-.192.443-.489.443-.89 0-.318-.107-.58-.322-.79-.215-.208-.493-.312-.833-.312-.337 0-.618.106-.842.317-.225.212-.369.53-.434.954l-.866-.154c.106-.581.347-1.03.722-1.348.375-.321.842-.482 1.401-.482.385 0 .739.084 1.063.25.324.164.571.389.742.675.173.285.259.588.259.91 0 .304-.081.582-.245.832-.164.25-.406.45-.727.597.417.096.741.297.972.601.231.302.347.68.347 1.136 0 .616-.225 1.14-.674 1.57-.449.426-1.017.64-1.704.64-.619 0-1.134-.185-1.545-.554-.407-.37-.64-.847-.698-1.434zm8.26 1.862v-1.69h-3.061v-.793l3.219-4.573h.708v4.573h.953v.794h-.953v1.69h-.866zm0-2.483v-3.182l-2.21 3.182h2.21z" fill="#6A737C"/><path opacity=".5" fill="url(#paint0_linear)" d="M12.102 58.241H297.25699999999995V66.561H12.102z"/><path opacity=".5" fill="url(#paint1_linear)" d="M12.102 74.126H261.707V82.446H12.102z"/><path opacity=".5" fill="url(#paint2_linear)" d="M12.102 90.009H276.835V98.32900000000001H12.102z"/><path opacity=".5" fill="url(#paint3_linear)" d="M12.102 105.893H207.248V114.213H12.102z"/><path fill="#E5493A" d="M31.012 25.717H43.114000000000004V37.819H31.012z"/><circle cx="37.063" cy="31.768" r="3.026" fill="#fff"/><g clip-path="url(#clip0)"><path d="M23.253 9.833h-6.984a3.151 3.151 0 0 0 3.151 3.151h1.287v1.243a3.151 3.151 0 0 0 3.143 3.15V10.44a.605.605 0 0 0-.597-.607z" fill="#2684FF"/><path d="M19.538 13.52h-6.984a3.151 3.151 0 0 0 3.151 3.151h1.287v1.243a3.154 3.154 0 0 0 3.151 3.152v-6.941a.605.605 0 0 0-.605-.605z" fill="url(#paint4_linear)"/><path d="M15.886 17.2H8.894a3.153 3.153 0 0 0 3.161 3.151h1.287v1.244a3.151 3.151 0 0 0 3.151 3.15v-6.938a.607.607 0 0 0-.607-.607z" fill="url(#paint5_linear)"/></g><path stroke="#D6D9DC" d="M0 45.5L312 45.5"/><path stroke="#D6D9DC" d="M0 126.5L312 126.5"/><defs><linearGradient id="paint0_linear" x1="11.174" y1="62.228" x2="408.419" y2="62.228" gradientUnits="userSpaceOnUse"><stop stop-color="#D6D9DC"/><stop offset="1" stop-color="#EFF0F1"/></linearGradient><linearGradient id="paint1_linear" x1="11.29" y1="78.112" x2="359.011" y2="78.112" gradientUnits="userSpaceOnUse"><stop stop-color="#D6D9DC"/><stop offset="1" stop-color="#EFF0F1"/></linearGradient><linearGradient id="paint2_linear" x1="11.24" y1="93.996" x2="380.036" y2="93.996" gradientUnits="userSpaceOnUse"><stop stop-color="#D6D9DC"/><stop offset="1" stop-color="#EFF0F1"/></linearGradient><linearGradient id="paint3_linear" x1="11.467" y1="109.88" x2="283.322" y2="109.88" gradientUnits="userSpaceOnUse"><stop stop-color="#D6D9DC"/><stop offset="1" stop-color="#EFF0F1"/></linearGradient><linearGradient id="paint4_linear" x1="19.996" y1="13.533" x2="17.025" y2="16.595" gradientUnits="userSpaceOnUse"><stop offset=".18" stop-color="#0052CC"/><stop offset="1" stop-color="#2684FF"/></linearGradient><linearGradient id="paint5_linear" x1="327.387" y1="310.044" x2="202.336" y2="432.644" gradientUnits="userSpaceOnUse"><stop offset=".18" stop-color="#0052CC"/><stop offset="1" stop-color="#2684FF"/></linearGradient><clipPath id="clip0"><path d="M8.189 8.912h16.574v16.575H8.19V8.912z" fill="#fff"/></clipPath></defs></svg>