<svg width="306" height="190" fill="none" xmlns="http://www.w3.org/2000/svg"><path fill="#F3F2F1" d="M0 0H306V190H0z"/><path d="M0 0h306v29H0V0z" fill="#464775"/><path d="M240.629 21H66.371C65.067 21 64 19.895 64 18.544V9.456C64 8.106 65.067 7 66.37 7H240.63C241.933 7 243 8.105 243 9.456v9.088c0 1.35-1.067 2.456-2.371 2.456z" fill="#EDEBE9"/><rect x="12" y="40" width="281" height="137.985" rx="5.37" fill="#fff"/><path d="M23.409 80.027h256.026c1.341 0 2.285.91 2.285 1.868v85.097c0 .959-.944 1.869-2.285 1.869H23.409c-1.341 0-2.285-.91-2.285-1.869V81.895c0-.959.944-1.868 2.285-1.868z" fill="#fff" stroke="#F2F2F2"/><path d="M23.398 79.527h256.047c.736 0 1.442.291 1.962.81a2.76 2.76 0 0 1 .813 1.957v.108H20.624v-.108c0-.734.292-1.438.813-1.957a2.778 2.778 0 0 1 1.961-.81zm19.118 12.936H30.354a1.824 1.824 0 0 0-1.825 1.824v12.162c0 1.008.817 1.825 1.825 1.825h12.162a1.825 1.825 0 0 0 1.824-1.825V94.287a1.824 1.824 0 0 0-1.824-1.824z" fill="#F48024"/><path opacity=".5" d="M29.248 140.519c0-.742.601-1.343 1.342-1.343h155.423c.741 0 1.342.601 1.342 1.343v5.22c0 .742-.601 1.343-1.342 1.343H30.59a1.343 1.343 0 0 1-1.342-1.343v-5.22z" fill="url(#paint0_linear)"/><path opacity=".5" d="M29.248 126.864c0-.741.601-1.343 1.342-1.343h191.356c.742 0 1.343.602 1.343 1.343v5.22c0 .742-.601 1.343-1.343 1.343H30.59a1.343 1.343 0 0 1-1.342-1.343v-5.22z" fill="url(#paint1_linear)"/><path d="M31.052 159.182l.767-.102c.088.434.237.748.447.942.213.19.472.285.776.285.36 0 .664-.125.912-.375.25-.25.374-.56.374-.929 0-.352-.114-.642-.345-.869-.23-.23-.522-.345-.877-.345a2.19 2.19 0 0 0-.541.085l.085-.673a1.582 1.582 0 0 0 1.005-.247c.262-.171.392-.433.392-.789a.93.93 0 0 0-.285-.698c-.19-.185-.436-.277-.737-.277-.298 0-.547.094-.746.281-.199.187-.327.469-.383.844l-.767-.137c.093-.514.306-.912.639-1.193.332-.284.745-.426 1.24-.426.34 0 .654.074.941.222.287.145.506.343.657.596.153.253.23.521.23.806 0 .269-.073.515-.218.737a1.49 1.49 0 0 1-.643.528c.37.085.656.263.86.533.205.267.307.602.307 1.005 0 .546-.199 1.009-.596 1.389-.398.378-.9.567-1.508.567-.549 0-1.005-.163-1.368-.49-.361-.327-.567-.75-.618-1.27zm10.447-.008l.755.098c-.083.519-.294.927-.635 1.222-.338.293-.754.439-1.249.439-.619 0-1.117-.201-1.495-.605-.375-.406-.563-.987-.563-1.742 0-.489.081-.916.243-1.283.162-.366.408-.64.737-.822a2.188 2.188 0 0 1 1.083-.277c.491 0 .893.125 1.205.375.313.247.513.599.601 1.056l-.745.116c-.072-.304-.198-.533-.38-.686a.965.965 0 0 0-.652-.231c-.386 0-.7.14-.941.418-.242.276-.362.713-.362 1.312 0 .608.116 1.05.349 1.325.233.276.537.414.912.414.3 0 .552-.093.754-.277.202-.185.33-.469.383-.852zm1.125-.605c0-.838.233-1.459.699-1.862.39-.336.864-.503 1.423-.503.622 0 1.13.204 1.526.613.394.407.592.969.592 1.688 0 .582-.088 1.041-.264 1.376a1.839 1.839 0 0 1-.763.775 2.205 2.205 0 0 1-1.09.277c-.634 0-1.147-.203-1.539-.609-.39-.406-.584-.991-.584-1.755zm.788 0c0 .579.127 1.014.38 1.303.252.287.57.431.954.431.38 0 .697-.145.95-.435.253-.29.38-.731.38-1.325 0-.56-.128-.983-.384-1.27a1.206 1.206 0 0 0-.946-.434c-.383 0-.702.143-.954.43-.253.287-.38.72-.38 1.3zm4.355 2.262v-4.525h.686v.635a1.596 1.596 0 0 1 1.372-.737c.335 0 .61.069.822.209.216.139.368.333.456.583.358-.528.824-.792 1.398-.792.449 0 .794.125 1.035.375.242.247.362.629.362 1.146v3.106h-.762v-2.85c0-.307-.026-.527-.077-.661a.63.63 0 0 0-.268-.328.848.848 0 0 0-.46-.123c-.319 0-.583.106-.793.319-.21.21-.316.548-.316 1.014v2.629h-.766v-2.94c0-.341-.063-.596-.188-.767-.125-.17-.33-.255-.613-.255-.216 0-.417.056-.601.17a.974.974 0 0 0-.397.498c-.082.219-.123.534-.123.946v2.348h-.767zm7.269 0v-4.525h.686v.635a1.597 1.597 0 0 1 1.372-.737c.335 0 .61.069.822.209.216.139.368.333.456.583.358-.528.824-.792 1.398-.792.448 0 .794.125 1.035.375.242.247.362.629.362 1.146v3.106h-.763v-2.85c0-.307-.025-.527-.076-.661a.629.629 0 0 0-.269-.328.848.848 0 0 0-.46-.123c-.318 0-.582.106-.792.319-.21.21-.316.548-.316 1.014v2.629h-.767v-2.94c0-.341-.062-.596-.187-.767-.125-.17-.33-.255-.614-.255-.215 0-.416.056-.6.17a.974.974 0 0 0-.397.498c-.082.219-.123.534-.123.946v2.348h-.767zm10.366-1.457l.793.098c-.125.463-.356.822-.695 1.078-.338.255-.77.383-1.295.383-.662 0-1.187-.203-1.576-.609-.387-.409-.58-.981-.58-1.717 0-.761.196-1.352.588-1.773.392-.42.9-.63 1.525-.63.606 0 1.1.206 1.483.618.384.412.576.991.576 1.738 0 .046-.002.114-.005.205h-3.374c.028.497.169.877.422 1.141.252.265.568.397.945.397.282 0 .522-.074.72-.222.2-.148.357-.383.473-.707zm-2.518-1.24h2.527c-.034-.381-.13-.666-.29-.856a1.174 1.174 0 0 0-.95-.444c-.352 0-.649.118-.89.354-.239.236-.371.551-.397.946zm4.278 2.697v-4.525h.69v.643c.333-.497.813-.745 1.44-.745.273 0 .523.05.75.149.23.097.402.224.516.383.114.16.193.348.239.567.028.142.042.391.042.746v2.782h-.767v-2.752c0-.313-.03-.546-.09-.699a.726.726 0 0 0-.319-.371.984.984 0 0 0-.532-.14c-.327 0-.61.103-.848.311-.236.207-.354.6-.354 1.18v2.471h-.767zm6.532-.686l.11.678a2.875 2.875 0 0 1-.579.068c-.278 0-.494-.044-.647-.132a.739.739 0 0 1-.324-.346c-.063-.144-.094-.447-.094-.907v-2.603h-.562v-.597h.562v-1.12l.763-.461v1.581h.77v.597h-.77v2.646c0 .218.013.359.038.421a.335.335 0 0 0 .132.15c.063.036.15.055.264.055.085 0 .198-.01.337-.03zm.447-.665l.759-.119c.042.304.16.537.353.699.196.162.47.243.818.243.353 0 .614-.071.784-.213.17-.145.256-.314.256-.507a.465.465 0 0 0-.226-.409c-.105-.069-.366-.155-.784-.26-.562-.142-.953-.264-1.171-.367a1.165 1.165 0 0 1-.495-.43 1.163 1.163 0 0 1-.166-.609c0-.202.046-.388.136-.559a1.26 1.26 0 0 1 .38-.43c.119-.088.28-.162.485-.221.208-.063.43-.094.665-.094.355 0 .666.051.933.153.27.102.469.242.597.418.127.173.216.406.264.699l-.75.102a.819.819 0 0 0-.298-.546c-.162-.13-.392-.196-.69-.196-.353 0-.604.059-.755.175-.15.117-.226.253-.226.409 0 .1.032.189.094.269.063.082.16.15.294.204.077.029.303.094.678.196.542.145.92.264 1.133.358.216.091.385.224.507.401.122.176.183.394.183.656 0 .255-.075.497-.225.724a1.453 1.453 0 0 1-.644.524c-.281.122-.6.183-.954.183-.588 0-1.037-.122-1.347-.366-.306-.244-.502-.607-.588-1.087zm9.775 1.351h-.767v-4.887a3.936 3.936 0 0 1-.729.528 5.179 5.179 0 0 1-.805.397v-.742a4.638 4.638 0 0 0 1.125-.733c.32-.287.548-.565.681-.835h.495v6.272zm5.999-.737v.737h-4.129a1.361 1.361 0 0 1 .09-.533c.105-.281.272-.558.502-.83.233-.273.568-.588 1.006-.946.679-.557 1.138-.997 1.376-1.321.239-.327.358-.635.358-.925 0-.304-.11-.559-.328-.767-.216-.21-.499-.315-.848-.315-.37 0-.665.111-.886.332-.222.222-.334.529-.337.921l-.788-.081c.054-.588.257-1.036.61-1.342.351-.31.824-.465 1.418-.465.6 0 1.074.166 1.423.499.35.332.524.744.524 1.235 0 .25-.05.496-.153.737a2.83 2.83 0 0 1-.511.763c-.236.267-.63.634-1.18 1.099-.46.387-.756.649-.887.789-.13.136-.239.274-.324.413h3.064zm6.433.737v-.665c-.352.512-.83.767-1.435.767-.267 0-.517-.051-.75-.153a1.253 1.253 0 0 1-.516-.384 1.48 1.48 0 0 1-.234-.57 3.9 3.9 0 0 1-.047-.716v-2.804h.767v2.51c0 .4.016.67.047.809.048.202.15.361.307.477.156.114.349.171.579.171.23 0 .446-.058.648-.175a.985.985 0 0 0 .426-.481c.085-.205.128-.5.128-.887v-2.424h.766v4.525h-.686zm1.892 1.734v-6.259h.7v.588c.164-.23.35-.402.557-.515.208-.117.459-.175.754-.175.387 0 .728.099 1.023.298.295.199.518.48.669.844.15.36.226.757.226 1.188 0 .463-.084.881-.252 1.253a1.874 1.874 0 0 1-.724.852 1.86 1.86 0 0 1-.997.294c-.256 0-.486-.054-.69-.162a1.57 1.57 0 0 1-.499-.409v2.203h-.767zm.695-3.971c0 .582.118 1.013.353 1.291.236.279.522.418.857.418.341 0 .632-.144.873-.431.245-.289.367-.737.367-1.342 0-.576-.12-1.008-.358-1.295-.236-.287-.519-.43-.848-.43-.327 0-.616.153-.87.46-.25.304-.374.747-.374 1.329zm5.42 2.237l-1.722-4.525h.81l.971 2.71c.105.293.202.596.29.912.068-.239.163-.526.285-.861l1.006-2.761h.788l-1.713 4.525h-.715zm2.82-2.262c0-.838.233-1.459.699-1.862.389-.336.863-.503 1.423-.503.622 0 1.131.204 1.525.613.395.407.593.969.593 1.688 0 .582-.088 1.041-.264 1.376a1.845 1.845 0 0 1-.763.775 2.207 2.207 0 0 1-1.091.277c-.633 0-1.146-.203-1.538-.609-.389-.406-.584-.991-.584-1.755zm.788 0c0 .579.127 1.014.38 1.303.252.287.571.431.954.431.381 0 .697-.145.95-.435.253-.29.379-.731.379-1.325 0-.56-.127-.983-.383-1.27a1.206 1.206 0 0 0-.946-.434c-.383 0-.702.143-.954.43-.253.287-.38.72-.38 1.3zm6.029 1.576l.111.678a2.876 2.876 0 0 1-.579.068c-.279 0-.494-.044-.648-.132a.744.744 0 0 1-.324-.346c-.062-.144-.093-.447-.093-.907v-2.603h-.563v-.597h.563v-1.12l.762-.461v1.581h.771v.597h-.771v2.646c0 .218.013.359.039.421a.33.33 0 0 0 .132.15.53.53 0 0 0 .264.055c.085 0 .197-.01.336-.03zm3.852-.771l.793.098c-.125.463-.357.822-.695 1.078-.338.255-.77.383-1.295.383-.662 0-1.187-.203-1.577-.609-.386-.409-.579-.981-.579-1.717 0-.761.196-1.352.588-1.773.392-.42.9-.63 1.525-.63.605 0 1.1.206 1.483.618.384.412.575.991.575 1.738 0 .046-.001.114-.004.205h-3.375c.029.497.169.877.422 1.141.253.265.568.397.946.397.281 0 .521-.074.72-.222.199-.148.357-.383.473-.707zm-2.518-1.24h2.527c-.034-.381-.131-.666-.29-.856a1.174 1.174 0 0 0-.95-.444c-.352 0-.649.118-.891.354-.238.236-.37.551-.396.946zm3.971 1.346l.759-.119c.042.304.16.537.353.699.196.162.469.243.818.243.352 0 .614-.071.784-.213.171-.145.256-.314.256-.507a.464.464 0 0 0-.226-.409c-.105-.069-.366-.155-.784-.26-.562-.142-.953-.264-1.172-.367a1.166 1.166 0 0 1-.494-.43 1.161 1.161 0 0 1-.166-.609c0-.202.045-.388.136-.559.094-.173.22-.316.38-.43.119-.088.281-.162.485-.221a2.28 2.28 0 0 1 .665-.094c.355 0 .666.051.933.153.27.102.469.242.597.418.127.173.215.406.264.699l-.75.102a.821.821 0 0 0-.298-.546c-.162-.13-.392-.196-.691-.196-.352 0-.603.059-.754.175-.15.117-.226.253-.226.409 0 .1.032.189.094.269.063.082.161.15.294.204.077.029.303.094.678.196.542.145.92.264 1.133.358.216.091.385.224.507.401.122.176.183.394.183.656 0 .255-.075.497-.226.724a1.45 1.45 0 0 1-.643.524 2.373 2.373 0 0 1-.954.183c-.588 0-1.037-.122-1.347-.366-.307-.244-.503-.607-.588-1.087z" fill="#C8CCD0"/><rect opacity=".5" x="21" y="50" width="232" height="8" rx="1.342" fill="url(#paint2_linear)"/><rect opacity=".5" x="20.624" y="63.716" width="133.673" height="7.905" rx="1.342" fill="url(#paint3_linear)"/><path d="M53.398 102.438l1.546-.15c.093.519.281.9.564 1.144.287.243.672.365 1.155.365.512 0 .897-.108 1.155-.322.261-.219.392-.473.392-.763a.7.7 0 0 0-.166-.473c-.108-.132-.298-.247-.57-.343-.186-.065-.61-.18-1.273-.344-.852-.212-1.45-.471-1.794-.779-.483-.433-.725-.962-.725-1.584 0-.402.113-.776.338-1.123.23-.351.557-.618.983-.8.43-.183.947-.274 1.553-.274.988 0 1.73.216 2.229.65.501.433.764 1.011.79 1.734l-1.59.07c-.069-.404-.215-.694-.441-.87-.222-.179-.557-.268-1.004-.268-.462 0-.824.094-1.085.284a.574.574 0 0 0-.253.49c0 .185.079.345.236.477.201.168.688.344 1.461.526.774.183 1.345.373 1.714.57.372.193.662.46.87.8.211.337.317.754.317 1.252 0 .451-.125.873-.376 1.267-.25.394-.605.688-1.064.881-.458.19-1.03.285-1.713.285-.995 0-1.76-.23-2.294-.688-.533-.462-.852-1.133-.956-2.014zm10.344-3.142v1.203h-1.031v2.299c0 .465.009.737.027.816a.349.349 0 0 0 .134.188c.072.05.158.075.258.075.14 0 .342-.048.607-.145l.129 1.171a2.99 2.99 0 0 1-1.193.226c-.272 0-.517-.045-.736-.134a1.123 1.123 0 0 1-.483-.355 1.45 1.45 0 0 1-.21-.591c-.032-.175-.048-.53-.048-1.063v-2.487h-.693v-1.203h.693v-1.133l1.515-.881v2.014h1.031zm2.176 1.74l-1.37-.247c.154-.551.419-.96.795-1.225.376-.264.934-.397 1.676-.397.673 0 1.174.08 1.503.242.33.157.56.36.693.607.136.243.204.692.204 1.348l-.016 1.761c0 .502.024.872.07 1.112.05.237.142.491.274.763h-1.493c-.04-.1-.088-.249-.145-.446a2.939 2.939 0 0 0-.054-.177 2.71 2.71 0 0 1-.827.564 2.375 2.375 0 0 1-.94.188c-.587 0-1.05-.159-1.391-.478-.337-.319-.505-.722-.505-1.209 0-.322.077-.608.231-.859.154-.254.369-.448.645-.58.279-.136.68-.254 1.203-.355.705-.132 1.194-.256 1.466-.37v-.151c0-.29-.072-.495-.215-.617-.143-.126-.413-.188-.81-.188-.27 0-.479.053-.63.161-.15.104-.271.288-.364.553zm2.019 1.225c-.193.064-.5.141-.918.231-.42.089-.693.177-.822.263-.197.14-.296.317-.296.532 0 .211.08.394.237.547a.825.825 0 0 0 .601.231c.272 0 .532-.089.78-.268a.946.946 0 0 0 .359-.5c.04-.129.059-.374.059-.735v-.301zm7.95-1.279l-1.489.269c-.05-.297-.164-.521-.343-.671-.176-.151-.405-.226-.688-.226-.376 0-.677.131-.902.392-.222.258-.333.691-.333 1.3 0 .677.113 1.155.338 1.434.23.279.535.419.919.419.286 0 .52-.081.703-.242.183-.164.312-.446.387-.843l1.482.252c-.153.681-.449 1.195-.886 1.542s-1.022.521-1.756.521c-.835 0-1.5-.263-1.998-.79-.494-.526-.741-1.255-.741-2.186 0-.941.249-1.674.746-2.197.498-.526 1.171-.789 2.02-.789.694 0 1.246.15 1.654.451.412.297.707.752.886 1.364zM76.981 105v-7.874h1.51v4.179l1.766-2.01h1.859l-1.95 2.085 2.09 3.62h-1.628l-1.434-2.562-.704.736V105h-1.51zm8.927-3.889c0-.802.12-1.475.36-2.02.179-.4.422-.76.73-1.079a3.094 3.094 0 0 1 1.02-.709c.491-.207 1.057-.311 1.698-.311 1.16 0 2.087.36 2.782 1.08.698.719 1.047 1.72 1.047 3.002 0 1.271-.345 2.266-1.036 2.986-.691.716-1.615 1.074-2.772 1.074-1.17 0-2.102-.356-2.793-1.069-.69-.716-1.036-1.7-1.036-2.954zm1.638-.053c0 .891.206 1.568.618 2.03.411.458.934.687 1.568.687s1.153-.227 1.557-.682c.409-.458.613-1.144.613-2.057 0-.902-.199-1.575-.596-2.02-.394-.443-.919-.665-1.574-.665s-1.184.225-1.585.676c-.4.448-.601 1.125-.601 2.031zM96.35 105l-2.299-5.704h1.585l1.074 2.911.312.972c.082-.247.134-.41.155-.489.05-.161.104-.322.161-.483l1.085-2.911h1.553L97.709 105H96.35zm7.858-1.815l1.504.252c-.193.551-.5.972-.919 1.262-.415.287-.936.43-1.563.43-.991 0-1.725-.324-2.202-.972-.376-.519-.564-1.175-.564-1.966 0-.945.247-1.685.742-2.218.494-.537 1.119-.806 1.874-.806.849 0 1.518.281 2.009.843.49.559.725 1.416.703 2.573h-3.781c.011.448.133.797.365 1.047.233.247.523.371.871.371a.923.923 0 0 0 .596-.193c.161-.129.283-.337.365-.623zm.086-1.526c-.011-.437-.124-.768-.338-.993a1.034 1.034 0 0 0-.785-.344c-.329 0-.601.12-.816.36-.215.24-.32.565-.317.977h2.256zm4.179 3.341h-1.51v-5.704h1.402v.811c.24-.383.455-.636.645-.757.193-.122.412-.183.655-.183.344 0 .675.095.994.285l-.468 1.316c-.254-.165-.49-.247-.709-.247a.83.83 0 0 0-.537.177c-.146.114-.263.324-.349.628-.082.305-.123.942-.123 1.912V105zm2.18-5.704h.838v-.43c0-.48.05-.838.151-1.074.103-.236.291-.428.564-.575.275-.15.623-.225 1.042-.225.429 0 .85.064 1.262.193l-.204 1.053a2.982 2.982 0 0 0-.693-.086c-.219 0-.376.052-.473.156-.093.1-.14.295-.14.585v.403h1.128v1.187H113V105h-1.509v-4.517h-.838v-1.187zm4.324 5.704v-7.874h1.509V105h-1.509zm2.712-2.933c0-.501.124-.986.371-1.455a2.549 2.549 0 0 1 1.047-1.074c.455-.248.962-.371 1.52-.371.863 0 1.571.281 2.122.843.551.559.827 1.266.827 2.122 0 .863-.279 1.579-.838 2.148-.555.566-1.255.849-2.1.849a3.317 3.317 0 0 1-1.498-.355 2.433 2.433 0 0 1-1.08-1.036c-.247-.459-.371-1.015-.371-1.671zm1.547.081c0 .566.135.999.403 1.3.269.301.6.451.994.451s.723-.15.988-.451c.269-.301.403-.738.403-1.311 0-.558-.134-.988-.403-1.289a1.262 1.262 0 0 0-.988-.451c-.394 0-.725.15-.994.451-.268.301-.403.734-.403 1.3zm6.591 2.852l-1.805-5.704h1.466l1.069 3.738.983-3.738h1.456l.95 3.738 1.091-3.738h1.487L130.693 105h-1.45l-.983-3.668-.967 3.668h-1.466zm9.899-5.704h.837v-.43c0-.48.051-.838.151-1.074.104-.236.292-.428.564-.575.276-.15.623-.225 1.042-.225.43 0 .85.064 1.262.193l-.204 1.053a2.982 2.982 0 0 0-.693-.086c-.218 0-.376.052-.473.156-.093.1-.139.295-.139.585v.403h1.128v1.187h-1.128V105h-1.51v-4.517h-.837v-1.187zm3.974 2.771c0-.501.124-.986.371-1.455a2.549 2.549 0 0 1 1.047-1.074c.455-.248.962-.371 1.52-.371.863 0 1.57.281 2.122.843.551.559.827 1.266.827 2.122 0 .863-.279 1.579-.838 2.148-.555.566-1.255.849-2.1.849a3.324 3.324 0 0 1-1.499-.355 2.436 2.436 0 0 1-1.079-1.036c-.247-.459-.371-1.015-.371-1.671zm1.547.081c0 .566.134.999.403 1.3.268.301.6.451.994.451.393 0 .723-.15.988-.451.268-.301.403-.738.403-1.311 0-.558-.135-.988-.403-1.289a1.264 1.264 0 0 0-.988-.451c-.394 0-.726.15-.994.451-.269.301-.403.734-.403 1.3zm6.972 2.852h-1.51v-5.704h1.402v.811c.24-.383.455-.636.645-.757.193-.122.412-.183.655-.183.344 0 .675.095.994.285l-.467 1.316c-.255-.165-.491-.247-.709-.247a.832.832 0 0 0-.538.177c-.146.114-.263.324-.349.628-.082.305-.123.942-.123 1.912V105zm7.686 0v-6.542h-2.337v-1.332h6.258v1.332h-2.331V105h-1.59zm7.428-1.815l1.504.252c-.193.551-.5.972-.919 1.262-.415.287-.936.43-1.563.43-.991 0-1.725-.324-2.202-.972-.376-.519-.564-1.175-.564-1.966 0-.945.247-1.685.742-2.218.494-.537 1.119-.806 1.874-.806.849 0 1.518.281 2.009.843.49.559.725 1.416.703 2.573h-3.781c.011.448.133.797.365 1.047.233.247.523.371.871.371a.923.923 0 0 0 .596-.193c.161-.129.283-.337.365-.623zm.086-1.526c-.011-.437-.124-.768-.338-.993a1.034 1.034 0 0 0-.785-.344c-.329 0-.601.12-.816.36-.215.24-.32.565-.317.977h2.256zm3.862-.623l-1.37-.247c.154-.551.419-.96.795-1.225.376-.264.935-.397 1.676-.397.673 0 1.174.08 1.504.242.329.157.56.36.693.607.136.243.204.692.204 1.348l-.016 1.761c0 .502.023.872.069 1.112.051.237.142.491.274.763h-1.493a5.558 5.558 0 0 1-.145-.446 2.601 2.601 0 0 0-.054-.177 2.694 2.694 0 0 1-.827.564 2.373 2.373 0 0 1-.94.188c-.587 0-1.051-.159-1.391-.478-.336-.319-.505-.722-.505-1.209 0-.322.077-.608.231-.859.154-.254.369-.448.645-.58.279-.136.68-.254 1.203-.355.705-.132 1.194-.256 1.466-.37v-.151c0-.29-.071-.495-.215-.617-.143-.126-.413-.188-.811-.188-.268 0-.478.053-.628.161-.15.104-.272.288-.365.553zm2.019 1.225a9.665 9.665 0 0 1-.918.231c-.419.089-.693.177-.822.263-.197.14-.295.317-.295.532 0 .211.078.394.236.547a.826.826 0 0 0 .602.231c.272 0 .531-.089.778-.268a.943.943 0 0 0 .36-.5c.04-.129.059-.374.059-.735v-.301zm2.863-2.965h1.391v.779c.498-.605 1.091-.908 1.778-.908.365 0 .682.075.951.226.268.15.488.377.66.682.251-.305.521-.532.811-.682.29-.15.6-.226.93-.226.419 0 .773.086 1.063.258.29.168.507.417.65.746.104.244.156.638.156 1.182V105h-1.51v-3.26c0-.566-.051-.931-.155-1.096-.14-.215-.355-.322-.645-.322-.211 0-.41.064-.596.193a1.074 1.074 0 0 0-.403.569c-.082.248-.123.64-.123 1.177V105h-1.51v-3.126c0-.555-.027-.913-.08-1.074a.681.681 0 0 0-.253-.36c-.111-.079-.263-.118-.456-.118-.233 0-.442.062-.629.188-.186.125-.32.306-.402.542-.079.237-.119.629-.119 1.177V105h-1.509v-5.704zm9.367 4.077l1.515-.231c.064.293.195.517.392.671.197.15.473.226.827.226.39 0 .684-.072.881-.215a.48.48 0 0 0 .199-.403.395.395 0 0 0-.108-.285c-.075-.071-.243-.138-.505-.198-1.217-.269-1.989-.514-2.314-.736-.452-.308-.677-.736-.677-1.284 0-.494.195-.91.585-1.246.39-.337.996-.505 1.816-.505.78 0 1.36.127 1.74.381.379.255.641.631.784 1.128l-1.423.263a.879.879 0 0 0-.349-.51c-.169-.118-.41-.177-.726-.177-.397 0-.682.055-.854.166a.359.359 0 0 0-.171.307c0 .107.05.198.15.274.136.1.605.241 1.407.424.806.182 1.368.406 1.687.671.315.269.472.643.472 1.123 0 .523-.218.972-.655 1.348-.437.376-1.083.564-1.939.564-.777 0-1.393-.158-1.847-.473a2.18 2.18 0 0 1-.887-1.283z" fill="#242729"/><defs><linearGradient id="paint0_linear" x1="28.733" y1="142.964" x2="248.991" y2="142.964" gradientUnits="userSpaceOnUse"><stop stop-color="#D6D9DC"/><stop offset="1" stop-color="#EFF0F1"/></linearGradient><linearGradient id="paint1_linear" x1="28.616" y1="129.309" x2="298.932" y2="129.309" gradientUnits="userSpaceOnUse"><stop stop-color="#D6D9DC"/><stop offset="1" stop-color="#EFF0F1"/></linearGradient><linearGradient id="paint2_linear" x1="20.245" y1="53.833" x2="343.441" y2="53.833" gradientUnits="userSpaceOnUse"><stop stop-color="#D6D9DC"/><stop offset="1" stop-color="#EFF0F1"/></linearGradient><linearGradient id="paint3_linear" x1="20.189" y1="67.504" x2="206.406" y2="67.504" gradientUnits="userSpaceOnUse"><stop stop-color="#D6D9DC"/><stop offset="1" stop-color="#EFF0F1"/></linearGradient></defs></svg>