<svg fill="none" height="179" viewBox="0 0 284 179" width="284" xmlns="http://www.w3.org/2000/svg" xmlns:xlink="http://www.w3.org/1999/xlink"><linearGradient id="a" gradientUnits="userSpaceOnUse" x1="98.8198" x2="196.89" y1="40.7027" y2="40.7027"><stop offset="0" stop-color="#ffb935"/><stop offset="1" stop-color="#ffd943"/></linearGradient><linearGradient id="b"><stop offset="0" stop-color="#d6d9dc"/><stop offset="1" stop-color="#eff0f1"/></linearGradient><linearGradient id="c" gradientUnits="userSpaceOnUse" x1="87.6451" x2="239.492" xlink:href="#b" y1="80.1041" y2="80.1041"/><linearGradient id="d" gradientUnits="userSpaceOnUse" x1="125.896" x2="170.475" xlink:href="#b" y1="101.271" y2="101.271"/><path d="m0 0h284v179h-284z" fill="#fff"/><rect fill="#0095ff" height="32.0956" rx="3" width="252.01" x="16" y="131.968"/><path d="m101.843 153v-7.81h1.59v6.483h3.953v1.327zm6.322-2.933c0-.501.124-.986.371-1.455s.596-.827 1.047-1.074c.455-.247.961-.371 1.52-.371.863 0 1.57.281 2.122.843.551.559.827 1.266.827 2.122 0 .863-.28 1.579-.838 2.148-.555.566-1.255.849-2.1.849-.523 0-1.023-.118-1.499-.355-.472-.236-.832-.581-1.079-1.036-.247-.459-.371-1.015-.371-1.671zm1.547.081c0 .566.134.999.403 1.3.268.301.6.451.993.451.394 0 .724-.15.989-.451.268-.301.403-.738.403-1.311 0-.558-.135-.988-.403-1.289-.265-.301-.595-.451-.989-.451-.393 0-.725.15-.993.451-.269.301-.403.734-.403 1.3zm5.387 3.228 1.724.209c.029.201.095.339.199.414.143.107.369.161.677.161.394 0 .689-.059.886-.177.132-.079.233-.206.301-.381.046-.126.07-.357.07-.693v-.833c-.452.616-1.021.924-1.708.924-.767 0-1.374-.324-1.821-.972-.351-.512-.527-1.15-.527-1.912 0-.956.23-1.687.688-2.192.462-.505 1.035-.757 1.719-.757.705 0 1.287.31 1.745.929v-.8h1.413v5.119c0 .673-.056 1.176-.167 1.509s-.266.594-.467.784c-.2.19-.469.338-.806.446-.333.107-.755.161-1.267.161-.967 0-1.653-.167-2.057-.5-.405-.329-.607-.748-.607-1.256 0-.051.002-.111.005-.183zm1.348-3.346c0 .605.117 1.049.349 1.332.237.279.527.419.871.419.368 0 .68-.143.934-.43.254-.29.381-.718.381-1.284 0-.59-.121-1.029-.365-1.316-.243-.286-.551-.429-.924-.429-.361 0-.66.141-.897.424-.232.279-.349.707-.349 1.284zm5.516-3.508v-1.396h1.51v1.396zm0 6.478v-5.704h1.51v5.704zm8.25 0h-1.509v-2.911c0-.616-.032-1.013-.097-1.193-.064-.182-.17-.324-.316-.424-.144-.1-.317-.15-.521-.15-.262 0-.496.071-.704.215-.208.143-.351.333-.43.569-.075.236-.113.673-.113 1.311v2.583h-1.509v-5.704h1.402v.838c.498-.645 1.124-.967 1.88-.967.333 0 .637.061.913.183.276.118.483.27.623.456.143.186.242.398.295.634.058.236.086.575.086 1.015zm5.662 0-1.805-5.704h1.466l1.069 3.738.983-3.738h1.455l.951 3.738 1.09-3.738h1.488l-1.831 5.704h-1.45l-.983-3.668-.967 3.668zm7.498-6.478v-1.396h1.509v1.396zm0 6.478v-5.704h1.509v5.704zm5.677-5.704v1.203h-1.031v2.299c0 .465.009.737.026.816.022.075.067.138.135.188.071.05.157.075.258.075.139 0 .341-.048.606-.145l.129 1.171c-.351.151-.748.226-1.192.226-.272 0-.517-.045-.736-.134-.218-.093-.379-.212-.483-.355-.101-.147-.17-.344-.21-.591-.032-.175-.048-.53-.048-1.063v-2.487h-.693v-1.203h.693v-1.133l1.515-.881v2.014zm2.551-2.17v2.895c.487-.569 1.069-.854 1.746-.854.347 0 .66.064.94.193.279.129.488.294.628.494.143.201.24.423.29.667.054.243.081.621.081 1.133v3.346h-1.51v-3.013c0-.598-.028-.978-.086-1.139-.057-.161-.159-.288-.306-.381-.143-.097-.324-.145-.542-.145-.251 0-.475.061-.672.182-.197.122-.342.307-.435.554-.089.243-.134.605-.134 1.085v2.857h-1.509v-7.874zm7.89 5.312 1.547-.15c.093.519.281.9.564 1.144.287.243.671.365 1.155.365.512 0 .897-.108 1.155-.322.261-.219.392-.473.392-.763 0-.186-.056-.344-.167-.473-.107-.132-.297-.247-.569-.343-.186-.065-.611-.18-1.273-.344-.852-.212-1.45-.471-1.794-.779-.483-.433-.725-.961-.725-1.585 0-.401.113-.775.338-1.122.229-.351.557-.618.983-.8.43-.183.947-.274 1.552-.274.989 0 1.732.216 2.229.65.502.433.765 1.011.79 1.734l-1.59.07c-.068-.404-.215-.694-.44-.87-.222-.179-.557-.268-1.005-.268-.462 0-.823.095-1.085.284-.168.122-.252.285-.252.489 0 .186.079.346.236.478.201.168.688.344 1.461.526.774.183 1.345.373 1.714.57.372.193.662.46.87.8.211.337.317.754.317 1.252 0 .451-.126.873-.376 1.267-.251.394-.606.688-1.064.881-.458.19-1.029.285-1.713.285-.996 0-1.76-.23-2.294-.688-.533-.462-.852-1.133-.956-2.014zm7.337 0 1.547-.15c.093.519.281.9.564 1.144.286.243.671.365 1.155.365.512 0 .897-.108 1.155-.322.261-.219.392-.473.392-.763 0-.186-.056-.344-.167-.473-.107-.132-.297-.247-.569-.343-.186-.065-.611-.18-1.273-.344-.852-.212-1.45-.471-1.794-.779-.484-.433-.725-.961-.725-1.585 0-.401.113-.775.338-1.122.229-.351.557-.618.983-.8.43-.183.947-.274 1.552-.274.989 0 1.732.216 2.229.65.502.433.765 1.011.79 1.734l-1.59.07c-.068-.404-.215-.694-.44-.87-.222-.179-.557-.268-1.005-.268-.462 0-.823.095-1.085.284-.168.122-.252.285-.252.489 0 .186.079.346.236.478.201.168.688.344 1.461.526.774.183 1.345.373 1.713.57.373.193.663.46.871.8.211.337.316.754.316 1.252 0 .451-.125.873-.376 1.267-.25.394-.605.688-1.063.881-.458.19-1.029.285-1.713.285-.996 0-1.76-.23-2.294-.688-.533-.462-.852-1.133-.956-2.014zm7.418-1.327c0-.802.12-1.475.359-2.019.18-.401.423-.761.731-1.08.311-.318.652-.555 1.02-.709.491-.207 1.057-.311 1.698-.311 1.16 0 2.087.36 2.782 1.079.698.72 1.047 1.721 1.047 3.003 0 1.271-.345 2.266-1.036 2.986-.691.716-1.615 1.074-2.772 1.074-1.171 0-2.102-.356-2.793-1.069-.691-.716-1.036-1.7-1.036-2.954zm1.638-.053c0 .891.206 1.568.617 2.03.412.458.935.687 1.569.687s1.153-.227 1.557-.682c.409-.458.613-1.144.613-2.057 0-.902-.199-1.575-.596-2.019-.394-.444-.919-.666-1.574-.666s-1.184.225-1.585.676c-.401.448-.601 1.125-.601 2.031z" fill="#fff"/><rect fill="url(#a)" height="39.228" rx="2" width="39.228" x="122" y="17.8506"/><rect fill="url(#c)" height="19" opacity=".5" rx="2" width="109" x="88" y="71"/><rect fill="url(#d)" height="11" opacity=".5" rx="2" width="32" x="126" y="96"/><circle cx="160.5" cy="57.5" fill="#fff" r="8.5"/><path d="m160.433 53.5117 4.161 1.7673v2.9876c0 2.7737-3.253 4.7549-4.161 4.7549s-4.161-1.9653-4.161-4.7469v-2.9798zm-1.135 7.1324h2.27l-.651-1.902c-.023-.1585.038-.317.151-.3962.311-.2457.5-.8163.5-1.268 0-.737-.53-1.1887-1.143-1.1887-.62 0-1.127.4517-1.127 1.1887 0 .4517.189 1.0223.507 1.268.114.0792.167.2377.144.3962z" fill="#c4c4c4"/></svg>