<svg width="349" height="190" fill="none" xmlns="http://www.w3.org/2000/svg"><path fill="#fff" d="M0 0H349V190H0z"/><path d="M23 0H0v190h23V0z" fill="#340E40"/><path d="M197.327 62H95.498c-1.704 0-3.086 1.087-3.086 2.429V76.57c0 1.342 1.382 2.429 3.086 2.429h101.829c1.704 0 3.085-1.087 3.085-2.429V64.43c0-1.342-1.381-2.429-3.085-2.429z" fill="url(#paint0_linear)" fill-opacity=".5"/><path d="M58.825 17.117H35.241c-.685 0-1.241.555-1.241 1.241v23.584c0 .685.556 1.241 1.241 1.241h23.584c.686 0 1.241-.556 1.241-1.241V18.358c0-.686-.555-1.241-1.24-1.241z" fill="#F48024"/><path d="M70.882 25.972l1.828-.178c.11.614.332 1.065.667 1.352.338.288.793.432 1.365.432.605 0 1.06-.127 1.364-.38.31-.259.464-.56.464-.902a.826.826 0 0 0-.197-.559c-.127-.156-.351-.292-.673-.406-.22-.076-.722-.212-1.504-.406-1.008-.25-1.714-.557-2.12-.92-.572-.513-.857-1.137-.857-1.873 0-.474.133-.916.4-1.327.27-.415.657-.73 1.161-.946.508-.215 1.12-.323 1.835-.323 1.168 0 2.046.256 2.634.768.592.512.903 1.195.933 2.05l-1.879.082c-.08-.478-.254-.82-.52-1.028-.263-.211-.659-.317-1.188-.317-.545 0-.973.112-1.282.336a.678.678 0 0 0-.298.578c0 .22.093.408.28.565.236.199.812.406 1.726.622.914.216 1.589.44 2.025.673.44.228.782.544 1.028.946.25.397.374.89.374 1.479a2.74 2.74 0 0 1-.444 1.498 2.681 2.681 0 0 1-1.257 1.04c-.541.225-1.216.337-2.025.337-1.176 0-2.08-.27-2.71-.813-.63-.545-1.007-1.339-1.13-2.38zm12.226-3.713v1.422h-1.22v2.716c0 .55.011.872.033.965a.412.412 0 0 0 .158.223c.085.059.187.088.305.088.165 0 .404-.057.717-.171l.153 1.384a3.545 3.545 0 0 1-1.41.266c-.321 0-.611-.053-.87-.158-.257-.11-.448-.25-.57-.42-.119-.173-.201-.405-.248-.698-.038-.207-.057-.626-.057-1.256v-2.94h-.819V22.26h.819v-1.34l1.79-1.04v2.38h1.219zm2.57 2.056l-1.618-.292c.182-.651.495-1.134.94-1.447.444-.313 1.104-.47 1.98-.47.795 0 1.388.096 1.777.286.39.186.662.425.819.717.16.288.241.82.241 1.594l-.019 2.082c0 .592.028 1.03.083 1.314.059.279.167.58.323.901H88.44a6.532 6.532 0 0 1-.172-.527 3.185 3.185 0 0 0-.063-.21c-.305.297-.63.52-.978.667a2.8 2.8 0 0 1-1.11.222c-.695 0-1.243-.188-1.645-.565-.397-.376-.596-.852-.596-1.428 0-.38.09-.72.273-1.015.182-.3.436-.53.761-.686.33-.16.804-.3 1.422-.419.834-.157 1.412-.303 1.733-.438v-.178c0-.342-.084-.586-.254-.73-.169-.148-.489-.222-.958-.222-.318 0-.565.064-.743.19-.178.123-.322.341-.431.654zm2.387 1.448c-.228.076-.59.167-1.085.273-.495.105-.82.21-.972.31-.232.166-.349.375-.349.63 0 .249.093.465.28.647a.975.975 0 0 0 .71.272c.322 0 .63-.105.921-.317.216-.16.358-.357.425-.59.047-.153.07-.442.07-.87v-.355zm9.395-1.511l-1.759.317c-.059-.35-.194-.615-.406-.793-.207-.178-.478-.267-.812-.267-.445 0-.8.155-1.067.464-.262.304-.393.816-.393 1.536 0 .8.133 1.364.4 1.695.27.33.632.495 1.085.495.339 0 .616-.096.832-.286.215-.195.368-.527.457-.997l1.752.299c-.182.804-.532 1.411-1.048 1.822-.516.41-1.208.615-2.076.615-.986 0-1.773-.31-2.36-.933-.585-.622-.877-1.483-.877-2.583 0-1.113.294-1.979.883-2.596.588-.622 1.383-.934 2.386-.934.821 0 1.473.178 1.955.534.487.35.836.888 1.048 1.612zM98.755 29v-9.306h1.783v4.939l2.089-2.374h2.196l-2.304 2.463L104.988 29h-1.923l-1.695-3.028-.832.87V29h-1.783zm10.549-4.596c0-.948.142-1.743.426-2.386.211-.474.499-.9.863-1.276.368-.377.77-.656 1.206-.838.58-.246 1.248-.368 2.006-.368 1.371 0 2.467.425 3.288 1.275.825.851 1.238 2.034 1.238 3.549 0 1.502-.409 2.679-1.225 3.53-.817.845-1.909 1.269-3.276 1.269-1.383 0-2.484-.421-3.3-1.264-.817-.846-1.226-2.01-1.226-3.49zm1.936-.063c0 1.053.244 1.853.73 2.4.487.54 1.105.812 1.854.812.749 0 1.363-.269 1.841-.806.482-.542.723-1.352.723-2.432 0-1.066-.234-1.862-.704-2.386-.466-.525-1.086-.787-1.86-.787s-1.399.266-1.873.8c-.474.528-.711 1.328-.711 2.399zM121.644 29l-2.717-6.741h1.873l1.27 3.44.368 1.15c.097-.293.158-.485.184-.579.059-.19.123-.38.19-.57l1.282-3.441h1.835L123.25 29h-1.606zm9.287-2.145l1.777.298c-.228.652-.59 1.149-1.085 1.492-.491.338-1.107.507-1.847.507-1.173 0-2.04-.383-2.603-1.149-.444-.613-.666-1.388-.666-2.323 0-1.117.292-1.99.876-2.621.584-.635 1.322-.953 2.215-.953 1.003 0 1.794.333 2.374.997.58.66.857 1.674.831 3.04h-4.468c.012.53.156.942.431 1.238.275.292.618.438 1.029.438.279 0 .514-.076.704-.228.191-.152.335-.398.432-.736zm.101-1.803c-.012-.517-.146-.908-.399-1.175a1.223 1.223 0 0 0-.927-.406c-.39 0-.711.142-.965.425-.254.284-.379.67-.375 1.156h2.666zM135.971 29h-1.784v-6.741h1.657v.958c.284-.452.537-.75.762-.895a1.42 1.42 0 0 1 .774-.216c.406 0 .798.113 1.174.337l-.552 1.555c-.3-.195-.58-.292-.838-.292a.979.979 0 0 0-.634.21c-.174.135-.311.383-.413.742-.097.36-.146 1.113-.146 2.26V29zm2.577-6.741h.99v-.508c0-.567.06-.99.178-1.27.123-.279.345-.505.667-.679.325-.177.736-.266 1.231-.266.508 0 1.005.076 1.492.228l-.241 1.244a3.53 3.53 0 0 0-.819-.101c-.258 0-.445.061-.559.184-.11.118-.165.349-.165.692v.476h1.333v1.403h-1.333V29h-1.784v-5.338h-.99v-1.403zm5.11 6.741v-9.306h1.784V29h-1.784zm3.206-3.466c0-.592.146-1.166.438-1.72a3.01 3.01 0 0 1 1.237-1.27 3.705 3.705 0 0 1 1.797-.438c1.02 0 1.855.333 2.507.997.652.66.978 1.496.978 2.507 0 1.02-.331 1.867-.991 2.54-.656.668-1.483 1.002-2.482 1.002-.617 0-1.208-.14-1.771-.419a2.883 2.883 0 0 1-1.275-1.225c-.292-.541-.438-1.2-.438-1.974zm1.828.095c0 .669.158 1.181.476 1.537.317.355.709.533 1.174.533.466 0 .855-.178 1.168-.534.317-.355.476-.871.476-1.548 0-.66-.159-1.168-.476-1.524a1.493 1.493 0 0 0-1.168-.533c-.465 0-.857.178-1.174.533-.318.356-.476.868-.476 1.536zM156.48 29l-2.133-6.741h1.733l1.264 4.418 1.161-4.418h1.72l1.124 4.418 1.288-4.418h1.759L162.231 29h-1.714l-1.161-4.335L158.213 29h-1.733zm11.699-6.741h.99v-.508c0-.567.059-.99.178-1.27.123-.279.345-.505.666-.679.326-.177.737-.266 1.232-.266.508 0 1.005.076 1.492.228l-.242 1.244a3.516 3.516 0 0 0-.818-.101c-.259 0-.445.061-.559.184-.11.118-.165.349-.165.692v.476h1.333v1.403h-1.333V29h-1.784v-5.338h-.99v-1.403zm4.697 3.275c0-.592.146-1.166.438-1.72a3.013 3.013 0 0 1 1.238-1.27 3.699 3.699 0 0 1 1.796-.438c1.02 0 1.856.333 2.508.997.651.66.977 1.496.977 2.507 0 1.02-.33 1.867-.99 2.54-.656.668-1.483 1.002-2.482 1.002-.618 0-1.208-.14-1.771-.419a2.88 2.88 0 0 1-1.276-1.225c-.292-.541-.438-1.2-.438-1.974zm1.828.095c0 .669.159 1.181.476 1.537.318.355.709.533 1.175.533.465 0 .855-.178 1.168-.534.317-.355.476-.871.476-1.548 0-.66-.159-1.168-.476-1.524a1.494 1.494 0 0 0-1.168-.533c-.466 0-.857.178-1.175.533-.317.356-.476.868-.476 1.536zm8.24 3.371h-1.784v-6.741h1.657v.958c.283-.452.537-.75.761-.895.229-.144.487-.216.775-.216.406 0 .797.113 1.174.337l-.552 1.555c-.301-.195-.58-.292-.838-.292-.25 0-.461.07-.635.21-.173.135-.311.383-.412.742-.098.36-.146 1.113-.146 2.26V29zm9.083 0v-7.731h-2.761v-1.575h7.395v1.575h-2.755V29h-1.879zm8.779-2.145l1.777.298c-.228.652-.59 1.149-1.085 1.492-.491.338-1.107.507-1.847.507-1.173 0-2.04-.383-2.603-1.149-.444-.613-.666-1.388-.666-2.323 0-1.117.292-1.99.876-2.621.584-.635 1.322-.953 2.215-.953 1.003 0 1.794.333 2.374.997.58.66.857 1.674.831 3.04h-4.468c.012.53.156.942.431 1.238.275.292.618.438 1.029.438.279 0 .514-.076.704-.228.191-.152.335-.398.432-.736zm.101-1.803c-.012-.517-.146-.908-.399-1.175a1.223 1.223 0 0 0-.927-.406c-.39 0-.711.142-.965.425-.254.284-.379.67-.375 1.156h2.666zm4.564-.737l-1.618-.292c.182-.651.495-1.134.939-1.447.445-.313 1.105-.47 1.981-.47.795 0 1.388.096 1.777.286.389.186.662.425.819.717.161.288.241.82.241 1.594l-.019 2.082c0 .592.028 1.03.083 1.314.059.279.167.58.323.901h-1.764a6.446 6.446 0 0 1-.172-.527 3.365 3.365 0 0 0-.063-.21 3.222 3.222 0 0 1-.978.667 2.8 2.8 0 0 1-1.111.222c-.694 0-1.242-.188-1.644-.565-.397-.376-.596-.852-.596-1.428 0-.38.091-.72.273-1.015.182-.3.436-.53.761-.686.33-.16.804-.3 1.422-.419.834-.157 1.412-.303 1.733-.438v-.178c0-.342-.084-.586-.254-.73-.169-.148-.489-.222-.958-.222-.318 0-.565.064-.743.19-.178.123-.322.341-.432.654zm2.387 1.448c-.228.076-.59.167-1.085.273-.495.105-.819.21-.971.31-.233.166-.35.375-.35.63 0 .249.093.465.28.647a.975.975 0 0 0 .711.272c.321 0 .628-.105.92-.317.216-.16.358-.357.425-.59.047-.153.07-.442.07-.87v-.355zm3.383-3.504h1.644v.92c.589-.715 1.289-1.073 2.102-1.073.431 0 .806.09 1.123.267.317.178.578.447.781.806a3.12 3.12 0 0 1 .958-.806 2.354 2.354 0 0 1 1.099-.267c.495 0 .914.102 1.256.305.343.199.599.493.768.883.123.287.184.753.184 1.396V29h-1.783v-3.853c0-.669-.062-1.1-.184-1.295-.165-.254-.419-.38-.762-.38-.25 0-.485.075-.705.228-.22.152-.378.376-.476.673-.097.292-.146.755-.146 1.39V29h-1.783v-3.694c0-.656-.032-1.08-.096-1.27a.797.797 0 0 0-.298-.425c-.131-.093-.311-.14-.539-.14-.276 0-.523.074-.743.222-.22.148-.379.362-.476.641-.093.28-.14.743-.14 1.39V29h-1.784v-6.741zm11.071 4.818l1.79-.273c.076.347.23.611.463.793.233.178.559.267.978.267.461 0 .808-.085 1.041-.254a.568.568 0 0 0 .235-.476.47.47 0 0 0-.127-.337c-.089-.084-.288-.163-.597-.235-1.439-.317-2.351-.607-2.736-.87-.533-.363-.8-.869-.8-1.516 0-.584.231-1.075.692-1.473.461-.398 1.177-.597 2.146-.597.922 0 1.608.15 2.056.451.449.3.758.745.927 1.333l-1.682.311a1.032 1.032 0 0 0-.413-.603c-.198-.14-.484-.21-.857-.21-.469 0-.806.066-1.009.197a.424.424 0 0 0-.203.362c0 .127.059.235.178.324.161.119.715.286 1.663.502.952.215 1.616.48 1.993.793.372.317.559.76.559 1.327 0 .617-.258 1.148-.775 1.593-.516.444-1.28.666-2.291.666-.919 0-1.646-.186-2.184-.558a2.578 2.578 0 0 1-1.047-1.517zM71.402 47v-9.306h1.264L77.554 45v-7.306h1.18V47h-1.263l-4.888-7.313V47h-1.18zm13.877-2.17l1.18.145c-.186.69-.53 1.225-1.034 1.606-.504.38-1.147.571-1.93.571-.986 0-1.769-.302-2.349-.907-.575-.61-.863-1.462-.863-2.558 0-1.135.292-2.015.876-2.641.584-.626 1.341-.94 2.272-.94.902 0 1.638.307 2.21.92.57.614.856 1.478.856 2.59 0 .068-.002.17-.006.305h-5.027c.042.74.251 1.308.628 1.702.377.393.846.59 1.41.59.418 0 .776-.11 1.072-.33.296-.22.531-.572.705-1.054zm-3.752-1.848h3.764c-.05-.567-.194-.992-.431-1.276a1.751 1.751 0 0 0-1.416-.66c-.525 0-.967.175-1.327.527-.355.351-.552.82-.59 1.409zM89.144 47l-2.063-6.741h1.181l1.073 3.89.4 1.448c.016-.072.133-.535.349-1.39l1.072-3.948h1.175l1.01 3.91.336 1.289.387-1.302 1.155-3.897h1.11L94.223 47h-1.187l-1.072-4.037-.26-1.149L90.337 47h-1.194zm16.168-.831c-.423.36-.832.613-1.225.761-.39.148-.809.222-1.257.222-.741 0-1.31-.18-1.708-.54-.397-.363-.596-.827-.596-1.39 0-.33.074-.63.222-.9.152-.276.349-.496.59-.66.246-.166.521-.29.825-.375.225-.06.563-.117 1.016-.172.922-.11 1.602-.241 2.038-.393l.006-.299c0-.465-.108-.793-.324-.983-.292-.259-.726-.388-1.301-.388-.538 0-.935.096-1.193.286-.254.186-.443.518-.565.996l-1.118-.152c.102-.478.269-.863.502-1.155.233-.296.569-.523 1.009-.68.44-.16.95-.24 1.53-.24.575 0 1.043.067 1.403.203.359.135.624.306.793.514.169.203.288.461.356.774.038.195.057.546.057 1.054v1.523c0 1.063.023 1.735.07 2.019.05.28.148.548.292.806h-1.194a2.437 2.437 0 0 1-.228-.831zm-.095-2.552c-.415.169-1.037.313-1.867.431-.469.068-.802.144-.996.229a.986.986 0 0 0-.61.914c0 .305.115.558.343.762.233.203.571.304 1.016.304.44 0 .831-.095 1.174-.285a1.79 1.79 0 0 0 .755-.794c.123-.258.185-.639.185-1.142v-.42zm7.331.914l1.124.146c-.123.774-.438 1.381-.946 1.822-.504.435-1.124.653-1.86.653-.923 0-1.665-.3-2.228-.901-.559-.605-.838-1.47-.838-2.596 0-.728.121-1.365.362-1.91a2.509 2.509 0 0 1 1.098-1.226 3.267 3.267 0 0 1 1.612-.413c.732 0 1.331.187 1.797.559.465.368.764.893.895 1.574l-1.111.172c-.106-.453-.294-.794-.565-1.022a1.442 1.442 0 0 0-.971-.343c-.576 0-1.043.207-1.403.622-.36.41-.54 1.062-.54 1.955 0 .906.174 1.564.521 1.974.347.41.8.616 1.358.616.449 0 .823-.138 1.124-.413.3-.275.491-.698.571-1.27zm4.596 1.447l.165 1.01c-.322.067-.61.1-.863.1-.415 0-.737-.065-.965-.196a1.104 1.104 0 0 1-.483-.514c-.093-.216-.139-.667-.139-1.352v-3.879h-.838v-.888h.838v-1.67l1.136-.685v2.355h1.149v.889h-1.149v3.941c0 .326.019.536.057.629a.497.497 0 0 0 .197.222.776.776 0 0 0 .393.083c.127 0 .294-.015.502-.045zm1.13-6.97v-1.314h1.142v1.314h-1.142zm0 7.992v-6.741h1.142V47h-1.142zm4.76 0l-2.564-6.741h1.206l1.447 4.037c.157.436.301.889.432 1.358.101-.355.243-.783.425-1.282l1.498-4.113h1.175L124.101 47h-1.067zm4.634-7.992v-1.314h1.143v1.314h-1.143zm0 7.992v-6.741h1.143V47h-1.143zm5.383-1.022l.165 1.01a4.239 4.239 0 0 1-.863.1c-.415 0-.737-.065-.965-.196a1.101 1.101 0 0 1-.482-.514c-.094-.216-.14-.667-.14-1.352v-3.879h-.838v-.888h.838v-1.67l1.136-.685v2.355h1.149v.889h-1.149v3.941c0 .326.019.536.057.629a.503.503 0 0 0 .197.222.777.777 0 0 0 .394.083c.127 0 .294-.015.501-.045zm1.073 3.618l-.127-1.073c.25.068.467.102.654.102.254 0 .457-.042.609-.127.152-.085.277-.203.375-.355.071-.115.188-.398.349-.851.021-.064.055-.157.101-.28l-2.558-6.753h1.232l1.402 3.904c.182.495.345 1.015.489 1.561.131-.525.288-1.037.47-1.536l1.441-3.93h1.142l-2.564 6.856c-.275.74-.489 1.25-.641 1.53-.203.377-.436.652-.698.825a1.637 1.637 0 0 1-.94.267c-.22 0-.465-.047-.736-.14z" fill="#242729"/><rect x="235.412" y="17" width="26" height="16" rx="5" fill="#EFF0F1"/><rect x="92.912" y="155.5" width="53" height="18" rx="3.5" stroke="#D6D9DC"/><path d="M246.158 28H244.9l-.5-1.3h-2.289l-.472 1.3h-1.227l2.231-5.727h1.222L246.158 28zm-2.129-2.266l-.789-2.125-.773 2.125h1.562zM246.775 28v-5.727h1.856c.703 0 1.161.03 1.375.086.328.086.603.274.824.563.221.286.332.657.332 1.113 0 .352-.064.647-.191.887-.128.24-.291.428-.489.566a1.671 1.671 0 0 1-.597.27c-.276.055-.676.082-1.199.082h-.754V28h-1.157zm1.157-4.758v1.625h.632c.456 0 .761-.03.915-.09a.766.766 0 0 0 .492-.727.737.737 0 0 0-.184-.515.797.797 0 0 0-.465-.254c-.138-.026-.415-.039-.832-.039h-.558zM252.111 28v-5.727h1.856c.703 0 1.161.03 1.375.086.328.086.603.274.824.563.221.286.332.657.332 1.113 0 .352-.064.647-.191.887-.128.24-.291.428-.489.566a1.671 1.671 0 0 1-.597.27c-.276.055-.676.082-1.2.082h-.753V28h-1.157zm1.157-4.758v1.625h.632c.456 0 .761-.03.914-.09a.748.748 0 0 0 .36-.28.766.766 0 0 0 .133-.446.742.742 0 0 0-.184-.516.797.797 0 0 0-.465-.254c-.138-.026-.415-.039-.832-.039h-.558zM273.138 29h-.879v-5.6c-.212.201-.49.403-.835.605-.342.202-.65.353-.923.454v-.85a5.3 5.3 0 0 0 1.289-.84c.368-.328.628-.647.781-.956h.567V29zm2.256-3.53c0-.847.086-1.527.258-2.041.176-.518.435-.917.777-1.197.345-.28.778-.42 1.299-.42.384 0 .721.079 1.01.235.29.153.529.376.718.669.189.29.337.644.444 1.064.108.417.162.98.162 1.69 0 .84-.087 1.518-.259 2.036-.173.514-.432.913-.777 1.196-.341.28-.774.42-1.298.42-.691 0-1.233-.247-1.626-.742-.472-.596-.708-1.566-.708-2.91zm.903 0c0 1.175.137 1.958.41 2.348.277.388.617.581 1.021.581.403 0 .742-.195 1.015-.585.277-.391.415-1.172.415-2.344 0-1.179-.138-1.961-.415-2.349-.273-.387-.615-.581-1.025-.581-.404 0-.726.17-.967.513-.303.436-.454 1.242-.454 2.417zm5.151-.655v-1h1.001v1h-1.001zm0 4.185v-1.001h1.001V29h-1.001zm2.3-1.89l.879-.117c.101.498.272.858.513 1.08.244.217.54.326.888.326a1.41 1.41 0 0 0 1.045-.43c.287-.286.43-.64.43-1.064 0-.403-.132-.735-.396-.996-.263-.264-.599-.395-1.005-.395-.166 0-.373.032-.621.097l.098-.771c.059.006.106.01.142.01.374 0 .711-.098 1.01-.293.3-.196.45-.497.45-.904 0-.322-.109-.589-.327-.8-.219-.212-.5-.318-.845-.318-.342 0-.627.108-.855.322-.228.215-.374.538-.439.967l-.879-.156c.107-.59.352-1.045.732-1.367.381-.326.855-.488 1.421-.488.391 0 .751.084 1.079.253.329.166.58.394.752.684.176.29.264.597.264.923 0 .31-.083.59-.249.845-.166.253-.412.455-.737.605.423.098.752.301.986.61.234.306.352.69.352 1.153a2.12 2.12 0 0 1-.684 1.591c-.456.433-1.032.65-1.729.65-.628 0-1.15-.187-1.567-.562-.413-.374-.649-.859-.708-1.455zm10.181 1.045V29h-4.732a1.562 1.562 0 0 1 .103-.61c.12-.323.312-.64.576-.953.267-.312.651-.673 1.152-1.084.778-.638 1.304-1.142 1.577-1.513.274-.375.411-.728.411-1.06 0-.348-.126-.641-.376-.879-.248-.24-.572-.361-.972-.361-.423 0-.762.127-1.016.38-.254.255-.382.606-.385 1.056l-.904-.093c.062-.674.295-1.187.699-1.538.403-.355.945-.532 1.626-.532.686 0 1.23.19 1.63.57.401.382.601.854.601 1.417 0 .286-.059.568-.176.845-.117.276-.312.568-.586.874-.27.306-.721.726-1.352 1.26-.528.442-.866.743-1.016.903-.15.156-.273.314-.371.473h3.511zm2.744.845l2.749-7.158h1.02l2.93 7.158h-1.079l-.835-2.168h-2.993L297.679 29h-1.006zm2.065-2.94h2.427l-.747-1.982a19.699 19.699 0 0 1-.508-1.484 9.11 9.11 0 0 1-.386 1.367l-.786 2.1zM304.1 29v-7.158h1.425l1.695 5.068c.156.472.27.825.342 1.06.081-.26.208-.643.38-1.148l1.714-4.98h1.275V29h-.913v-5.991L307.938 29h-.855l-2.07-6.094V29h-.913z" fill="#6A737C"/><path d="M103.291 165.49l.948.239c-.199.778-.557 1.373-1.075 1.783-.514.407-1.144.61-1.889.61-.772 0-1.4-.156-1.885-.469-.482-.315-.85-.771-1.104-1.367a4.896 4.896 0 0 1-.376-1.919c0-.745.142-1.395.425-1.948a2.93 2.93 0 0 1 1.216-1.265 3.557 3.557 0 0 1 1.738-.434c.716 0 1.319.182 1.807.547.488.364.828.877 1.02 1.538l-.932.219c-.166-.52-.407-.9-.723-1.137-.316-.238-.713-.357-1.191-.357-.55 0-1.011.132-1.382.396a2.089 2.089 0 0 0-.776 1.064c-.15.443-.225.9-.225 1.372 0 .609.088 1.141.264 1.597.179.452.455.791.83 1.016.374.224.779.337 1.216.337.53 0 .979-.153 1.347-.459.368-.306.617-.761.747-1.363zm1.68-.083c0-.96.267-1.671.801-2.134.446-.384.989-.576 1.631-.576.712 0 1.295.235 1.748.703.452.466.678 1.11.678 1.934 0 .667-.101 1.193-.302 1.577-.199.381-.49.677-.874.889a2.539 2.539 0 0 1-1.25.317c-.726 0-1.314-.233-1.763-.698-.446-.466-.669-1.136-.669-2.012zm.903 0c0 .664.145 1.162.435 1.494.29.329.654.494 1.094.494a1.38 1.38 0 0 0 1.088-.499c.29-.332.435-.838.435-1.518 0-.641-.146-1.126-.439-1.455a1.38 1.38 0 0 0-1.084-.498c-.44 0-.804.164-1.094.493-.29.329-.435.825-.435 1.489zm4.991 2.593v-5.186h.786v.728a1.82 1.82 0 0 1 .649-.61c.27-.157.578-.235.923-.235.384 0 .698.08.942.24.248.159.422.382.523.668.41-.605.944-.908 1.601-.908.515 0 .91.143 1.187.43.277.283.415.721.415 1.313V168h-.874v-3.267c0-.351-.029-.603-.088-.756a.715.715 0 0 0-.308-.376.96.96 0 0 0-.527-.142c-.365 0-.667.122-.908.366-.241.241-.362.628-.362 1.162V168h-.878v-3.369c0-.391-.072-.684-.215-.879-.144-.195-.378-.293-.703-.293-.248 0-.477.065-.689.195-.208.131-.36.321-.454.572-.094.25-.142.612-.142 1.084V168h-.878zm8.33 0v-5.186h.786v.728a1.82 1.82 0 0 1 .649-.61c.27-.157.578-.235.923-.235.384 0 .698.08.942.24.248.159.422.382.523.668.41-.605.944-.908 1.601-.908.515 0 .91.143 1.187.43.277.283.415.721.415 1.313V168h-.874v-3.267c0-.351-.029-.603-.088-.756a.715.715 0 0 0-.308-.376.96.96 0 0 0-.527-.142c-.365 0-.667.122-.908.366-.241.241-.361.628-.361 1.162V168h-.879v-3.369c0-.391-.072-.684-.215-.879-.143-.195-.378-.293-.703-.293-.248 0-.477.065-.689.195-.208.131-.36.321-.454.572-.094.25-.142.612-.142 1.084V168h-.878zm11.879-1.67l.909.112c-.144.531-.409.943-.796 1.236-.388.293-.882.439-1.485.439-.758 0-1.36-.233-1.806-.698-.443-.469-.664-1.125-.664-1.968 0-.872.224-1.549.674-2.031.449-.482 1.031-.723 1.748-.723.693 0 1.259.236 1.699.708.439.472.659 1.136.659 1.992 0 .053-.002.131-.005.235h-3.867c.032.569.194 1.006.483 1.308.29.303.651.455 1.084.455.323 0 .598-.085.825-.254.228-.17.409-.44.542-.811zm-2.885-1.421h2.895c-.039-.436-.15-.763-.332-.981a1.346 1.346 0 0 0-1.089-.508c-.403 0-.743.135-1.02.405-.274.27-.425.632-.454 1.084zm4.902 3.091v-5.186h.791v.738c.381-.57.931-.855 1.65-.855.313 0 .599.057.86.171.264.111.46.257.591.44.13.182.221.398.273.649.033.163.049.448.049.855V168h-.879v-3.154c0-.358-.034-.625-.103-.801a.826.826 0 0 0-.366-.425 1.133 1.133 0 0 0-.61-.161c-.374 0-.698.119-.972.356-.27.238-.405.689-.405 1.353V168h-.879zm7.485-.786l.127.776a3.256 3.256 0 0 1-.664.078c-.319 0-.566-.05-.742-.151a.851.851 0 0 1-.371-.396c-.072-.166-.107-.512-.107-1.04v-2.983h-.645v-.684h.645v-1.284l.874-.527v1.811h.883v.684h-.883v3.032c0 .251.014.412.044.484a.39.39 0 0 0 .151.171.603.603 0 0 0 .303.063c.097 0 .226-.011.385-.034z" fill="#9FA6AD"/><rect x="154.912" y="155.5" width="30" height="18" rx="3.5" stroke="#D6D9DC"/><path d="M162.229 168l-2.773-7.158h1.025l1.861 5.2c.15.417.275.807.376 1.172.11-.391.239-.781.386-1.172l1.933-5.2h.967L163.201 168h-.972zm4.332-6.147v-1.011h.878v1.011h-.878zm0 6.147v-5.186h.878V168h-.878zm5.771-1.67l.908.112c-.143.531-.408.943-.796 1.236-.387.293-.882.439-1.484.439-.759 0-1.361-.233-1.807-.698-.442-.469-.664-1.125-.664-1.968 0-.872.225-1.549.674-2.031.449-.482 1.032-.723 1.748-.723.693 0 1.26.236 1.699.708.44.472.66 1.136.66 1.992 0 .053-.002.131-.005.235h-3.868c.033.569.194 1.006.484 1.308.29.303.651.455 1.084.455.322 0 .597-.085.825-.254.228-.17.409-.44.542-.811zm-2.886-1.421h2.896c-.039-.436-.15-.763-.332-.981a1.346 1.346 0 0 0-1.089-.508c-.404 0-.744.135-1.021.405-.273.27-.424.632-.454 1.084zm5.86 3.091l-1.587-5.186h.908l.825 2.994.308 1.113c.013-.055.102-.412.268-1.069l.826-3.038h.903l.776 3.008.259.991.298-1.001.889-2.998h.854L179.212 168h-.913l-.825-3.105-.201-.884-1.049 3.989h-.918z" fill="#9FA6AD"/><path fill="url(#paint1_linear)" fill-opacity=".5" d="M92 93H304V104H92z"/><path fill="url(#paint2_linear)" fill-opacity=".5" d="M92 111H280V122H92z"/><path fill="url(#paint3_linear)" fill-opacity=".5" d="M92 129H297V140H92z"/><path fill="#F48024" d="M70.412 61H75.412V174H70.412z"/><defs><linearGradient id="paint0_linear" x1="92.061" y1="70.146" x2="242.514" y2="70.146" gradientUnits="userSpaceOnUse"><stop stop-color="#D6D9DC"/><stop offset="1" stop-color="#EFF0F1"/></linearGradient><linearGradient id="paint1_linear" x1="91.31" y1="98.271" x2="386.644" y2="98.271" gradientUnits="userSpaceOnUse"><stop stop-color="#D6D9DC"/><stop offset="1" stop-color="#EFF0F1"/></linearGradient><linearGradient id="paint2_linear" x1="91.388" y1="116.271" x2="353.288" y2="116.271" gradientUnits="userSpaceOnUse"><stop stop-color="#D6D9DC"/><stop offset="1" stop-color="#EFF0F1"/></linearGradient><linearGradient id="paint3_linear" x1="91.333" y1="134.271" x2="376.915" y2="134.271" gradientUnits="userSpaceOnUse"><stop stop-color="#D6D9DC"/><stop offset="1" stop-color="#EFF0F1"/></linearGradient></defs></svg>