<svg width="312" height="158" fill="none" xmlns="http://www.w3.org/2000/svg"><rect width="311.629" height="157.327" rx="6.571" fill="#EFF0F1"/><path d="M0 127.072h311.629v30.255H0v-30.255z" fill="#FAFAFB"/><path d="M10.06 146.542v-7.644h.938v2.742c.438-.507.99-.761 1.658-.761.41 0 .766.082 1.069.245.302.16.518.382.646.667.133.285.199.699.199 1.241v3.51h-.939v-3.51c0-.469-.103-.81-.308-1.022-.201-.215-.488-.323-.86-.323-.278 0-.54.073-.787.219a1.213 1.213 0 0 0-.522.584c-.104.247-.156.588-.156 1.022v3.03h-.939zm7.993-.84l.135.829c-.264.056-.5.084-.709.084-.34 0-.605-.054-.792-.162a.912.912 0 0 1-.397-.422c-.076-.178-.114-.548-.114-1.111v-3.186h-.689v-.73h.689v-1.371l.933-.563v1.934h.944v.73h-.944v3.238c0 .268.015.44.047.516a.408.408 0 0 0 .162.183.64.64 0 0 0 .323.068c.104 0 .241-.013.412-.037zm2.972 0l.135.829c-.264.056-.5.084-.709.084-.34 0-.605-.054-.792-.162a.912.912 0 0 1-.397-.422c-.076-.178-.114-.548-.114-1.111v-3.186h-.689v-.73h.689v-1.371l.933-.563v1.934h.944v.73h-.944v3.238c0 .268.016.44.047.516a.408.408 0 0 0 .162.183.641.641 0 0 0 .323.068c.104 0 .241-.013.412-.037zm.923 2.962v-7.66h.855v.72c.201-.282.429-.492.683-.631.254-.143.561-.214.923-.214.473 0 .89.122 1.251.365.362.243.634.587.819 1.032.184.442.276.927.276 1.455a3.69 3.69 0 0 1-.308 1.533c-.201.452-.497.8-.886 1.043-.386.24-.793.36-1.22.36-.313 0-.595-.066-.845-.198a1.934 1.934 0 0 1-.61-.501v2.696h-.938zm.85-4.86c0 .713.144 1.239.432 1.58.289.341.638.511 1.048.511.418 0 .774-.176 1.07-.527.298-.354.448-.902.448-1.642 0-.706-.146-1.234-.438-1.585-.289-.351-.635-.527-1.038-.527-.4 0-.754.188-1.064.563-.305.372-.459.914-.459 1.627zm4.718 1.085l.929-.146c.052.372.196.657.432.855.24.198.574.297 1.001.297.431 0 .751-.087.96-.261.208-.177.313-.384.313-.62a.571.571 0 0 0-.277-.501c-.128-.083-.448-.189-.96-.318-.687-.174-1.165-.323-1.433-.448a1.43 1.43 0 0 1-.605-.527 1.421 1.421 0 0 1-.203-.746c0-.246.055-.474.167-.683.114-.212.269-.387.464-.526.146-.108.344-.198.594-.271.254-.077.525-.115.814-.115.434 0 .815.063 1.141.188.33.125.574.295.73.511.157.212.265.497.324.855l-.918.125a1.002 1.002 0 0 0-.365-.668c-.198-.159-.48-.239-.845-.239-.43 0-.738.071-.923.213-.184.143-.276.31-.276.501 0 .122.038.231.115.328a.827.827 0 0 0 .36.251c.093.035.37.114.829.24.663.177 1.126.323 1.386.438.265.111.471.274.621.49.15.215.224.483.224.803 0 .313-.092.608-.276.886-.18.275-.443.488-.787.641-.345.15-.734.225-1.168.225-.72 0-1.27-.15-1.648-.449-.376-.299-.615-.742-.72-1.329zm5.976-2.816v-1.069h1.069v1.069h-1.07zm0 4.469v-1.069h1.069v1.069h-1.07zm2.007.13l2.216-7.905h.751l-2.21 7.905h-.757zm2.972 0l2.216-7.905h.751l-2.21 7.905h-.757zm3.504.328l.913.136c.038.281.144.487.318.615.233.174.55.261.954.261.434 0 .77-.087 1.006-.261.237-.174.397-.417.48-.73.049-.191.071-.592.068-1.204-.41.483-.922.725-1.533.725-.761 0-1.35-.275-1.768-.824-.417-.55-.625-1.208-.625-1.976 0-.529.095-1.016.286-1.46.191-.449.468-.795.83-1.038.364-.243.792-.365 1.282-.365.654 0 1.192.264 1.616.792v-.667h.866v4.787c0 .862-.089 1.472-.266 1.83a1.91 1.91 0 0 1-.834.855c-.38.209-.847.313-1.403.313-.66 0-1.194-.15-1.6-.449-.407-.295-.604-.742-.59-1.34zm.777-3.326c0 .726.144 1.256.433 1.59.288.334.65.501 1.084.501.431 0 .793-.166 1.085-.496.292-.333.438-.855.438-1.564 0-.678-.151-1.189-.454-1.533-.299-.344-.66-.516-1.084-.516-.417 0-.772.17-1.064.511-.292.337-.438.839-.438 1.507zm5.345-3.697v-1.079h.938v1.079h-.938zm0 6.565v-5.538h.938v5.538h-.938zm1.997-1.653l.928-.146c.052.372.196.657.433.855.24.198.573.297 1 .297.432 0 .751-.087.96-.261.209-.177.313-.384.313-.62a.571.571 0 0 0-.276-.501c-.13-.083-.449-.189-.96-.318-.688-.174-1.166-.323-1.434-.448a1.428 1.428 0 0 1-.605-.527 1.421 1.421 0 0 1-.203-.746c0-.246.056-.474.167-.683.115-.212.27-.387.464-.526.146-.108.344-.198.594-.271.254-.077.525-.115.814-.115.434 0 .815.063 1.142.188.33.125.573.295.73.511.156.212.264.497.323.855l-.918.125a1.001 1.001 0 0 0-.365-.668c-.198-.159-.48-.239-.845-.239-.43 0-.738.071-.922.213-.185.143-.277.31-.277.501 0 .122.039.231.115.328a.827.827 0 0 0 .36.251c.094.035.37.114.829.24.664.177 1.126.323 1.387.438.264.111.47.274.62.49.15.215.224.483.224.803 0 .313-.092.608-.276.886-.18.275-.443.488-.787.641-.344.15-.734.225-1.168.225-.72 0-1.269-.15-1.648-.449-.375-.299-.615-.742-.72-1.329zm7.764.813l.135.829c-.264.056-.5.084-.71.084-.34 0-.604-.054-.792-.162a.912.912 0 0 1-.396-.422c-.076-.178-.115-.548-.115-1.111v-3.186h-.688v-.73h.688v-1.371l.934-.563v1.934h.944v.73h-.944v3.238c0 .268.015.44.047.516a.408.408 0 0 0 .161.183.64.64 0 0 0 .324.068c.104 0 .241-.013.412-.037zm1.188.84v-1.069h1.07v1.069h-1.07zm2.534.458l.913.136c.038.281.144.487.318.615.233.174.55.261.954.261.435 0 .77-.087 1.006-.261.237-.174.397-.417.48-.73.049-.191.071-.592.068-1.204-.41.483-.921.725-1.533.725-.761 0-1.35-.275-1.768-.824-.417-.55-.625-1.208-.625-1.976 0-.529.095-1.016.286-1.46.192-.449.468-.795.83-1.038.364-.243.792-.365 1.282-.365.654 0 1.193.264 1.617.792v-.667h.865v4.787c0 .862-.089 1.472-.266 1.83a1.91 1.91 0 0 1-.834.855c-.379.209-.847.313-1.403.313-.66 0-1.194-.15-1.6-.449-.407-.295-.604-.742-.59-1.34zm.777-3.326c0 .726.145 1.256.433 1.59.289.334.65.501 1.085.501.43 0 .792-.166 1.084-.496.292-.333.438-.855.438-1.564 0-.678-.151-1.189-.454-1.533-.299-.344-.66-.516-1.084-.516-.417 0-.772.17-1.064.511-.292.337-.438.839-.438 1.507zm5.345-3.697v-1.079h.938v1.079h-.938zm0 6.565v-5.538h.938v5.538h-.938zm4.421-.84l.136.829c-.264.056-.5.084-.71.084-.34 0-.604-.054-.792-.162a.912.912 0 0 1-.396-.422c-.077-.178-.115-.548-.115-1.111v-3.186h-.688v-.73h.688v-1.371l.934-.563v1.934h.943v.73h-.943v3.238c0 .268.015.44.046.516a.408.408 0 0 0 .162.183.64.64 0 0 0 .323.068c.105 0 .242-.013.412-.037zm.923.84v-7.644h.939v2.742c.438-.507.99-.761 1.658-.761.41 0 .766.082 1.069.245.302.16.518.382.646.667.132.285.198.699.198 1.241v3.51h-.938v-3.51c0-.469-.103-.81-.308-1.022-.201-.215-.488-.323-.86-.323-.278 0-.54.073-.787.219a1.213 1.213 0 0 0-.522.584c-.104.247-.156.588-.156 1.022v3.03h-.939zm9.573 0v-.814c-.43.626-1.016.939-1.757.939a2.26 2.26 0 0 1-.917-.188c-.282-.125-.492-.282-.631-.469a1.82 1.82 0 0 1-.287-.699c-.038-.184-.058-.476-.058-.876v-3.431h.94v3.071c0 .49.018.821.056.991.06.247.185.441.376.584.191.139.427.208.709.208s.546-.071.793-.213c.246-.146.42-.343.52-.59.105-.25.157-.611.157-1.084v-2.967h.939v5.538h-.84zm3.181 0h-.87v-7.644h.938v2.727c.396-.498.902-.746 1.517-.746.34 0 .662.069.965.209.306.135.556.328.75.578.199.247.353.546.465.897.11.351.166.727.166 1.126 0 .949-.234 1.683-.703 2.201-.47.518-1.033.777-1.69.777-.653 0-1.166-.273-1.538-.819v.694zm-.01-2.811c0 .664.09 1.144.27 1.439.296.483.696.725 1.2.725.41 0 .765-.177 1.064-.532.299-.358.448-.89.448-1.595 0-.723-.144-1.257-.433-1.601-.285-.344-.63-.516-1.037-.516-.41 0-.765.179-1.064.537-.299.354-.448.869-.448 1.543zm5.355 2.811v-1.069h1.069v1.069h-1.07zm6.32-2.029l.922.12c-.1.636-.36 1.135-.777 1.497-.413.358-.923.537-1.528.537-.757 0-1.367-.247-1.83-.741-.459-.497-.688-1.208-.688-2.132 0-.598.099-1.121.297-1.57.198-.448.499-.784.902-1.006a2.682 2.682 0 0 1 1.325-.339c.6 0 1.093.153 1.475.459.382.302.628.733.735 1.293l-.912.141c-.087-.372-.242-.652-.464-.84a1.182 1.182 0 0 0-.798-.281c-.473 0-.857.17-1.152.511-.296.337-.444.872-.444 1.606 0 .743.143 1.284.428 1.621.285.337.657.506 1.116.506.368 0 .676-.113.923-.339.247-.226.403-.574.47-1.043zm1.376-.74c0-1.026.285-1.785.855-2.279.476-.41 1.056-.615 1.741-.615.762 0 1.384.25 1.867.751.483.497.725 1.185.725 2.065 0 .712-.108 1.274-.324 1.684a2.258 2.258 0 0 1-.933.949 2.704 2.704 0 0 1-1.335.339c-.775 0-1.402-.249-1.882-.746-.476-.497-.714-1.213-.714-2.148zm.964 0c0 .709.155 1.241.464 1.595.31.351.699.527 1.168.527.466 0 .854-.177 1.163-.532.309-.354.464-.895.464-1.621 0-.685-.156-1.203-.469-1.554a1.473 1.473 0 0 0-1.158-.532c-.469 0-.858.175-1.168.526-.31.352-.464.882-.464 1.591zm5.329 2.769v-5.538h.84v.777a1.955 1.955 0 0 1 1.679-.902c.41 0 .745.085 1.006.255.264.171.45.409.558.715.438-.647 1.008-.97 1.71-.97.549 0 .972.153 1.267.459.296.302.443.77.443 1.402v3.802h-.933v-3.489c0-.375-.031-.645-.094-.808a.764.764 0 0 0-.328-.401 1.034 1.034 0 0 0-.564-.152c-.389 0-.712.131-.969.391-.258.258-.386.671-.386 1.241v3.218h-.939v-3.598c0-.417-.076-.73-.229-.939-.153-.208-.403-.313-.751-.313-.264 0-.509.07-.735.209a1.184 1.184 0 0 0-.485.61c-.101.268-.151.653-.151 1.158v2.873h-.939zm8.192.13l2.216-7.905h.75l-2.21 7.905h-.756zm3.676-.13v-5.538h.844v.787c.407-.608.994-.912 1.763-.912.333 0 .639.061.917.182.282.119.492.275.631.47a1.8 1.8 0 0 1 .292.693c.035.174.052.478.052.913v3.405h-.938v-3.369c0-.382-.037-.667-.11-.855a.889.889 0 0 0-.391-.454 1.212 1.212 0 0 0-.652-.172 1.53 1.53 0 0 0-1.037.381c-.289.254-.433.735-.433 1.444v3.025h-.938zm5.772.458l.912.136c.038.281.144.487.318.615.233.174.551.261.954.261.435 0 .77-.087 1.007-.261.236-.174.396-.417.479-.73.049-.191.072-.592.068-1.204-.41.483-.921.725-1.533.725-.761 0-1.35-.275-1.767-.824-.418-.55-.626-1.208-.626-1.976 0-.529.095-1.016.287-1.46.191-.449.467-.795.829-1.038.365-.243.792-.365 1.282-.365.654 0 1.193.264 1.617.792v-.667h.865v4.787c0 .862-.088 1.472-.266 1.83a1.906 1.906 0 0 1-.834.855c-.379.209-.846.313-1.402.313-.661 0-1.195-.15-1.601-.449-.407-.295-.603-.742-.589-1.34zm.776-3.326c0 .726.145 1.256.433 1.59.289.334.65.501 1.085.501a1.39 1.39 0 0 0 1.084-.496c.292-.333.438-.855.438-1.564 0-.678-.151-1.189-.453-1.533-.299-.344-.661-.516-1.085-.516-.417 0-.772.17-1.064.511-.292.337-.438.839-.438 1.507zm5.345-3.697v-1.079h.939v1.079h-.939zm0 6.565v-5.538h.939v5.538h-.939zm2.372 0v-5.538h.845v.787c.407-.608.994-.912 1.762-.912.334 0 .64.061.918.182.282.119.492.275.631.47.139.194.236.426.292.693.035.174.052.478.052.913v3.405h-.938v-3.369c0-.382-.037-.667-.11-.855a.889.889 0 0 0-.391-.454 1.212 1.212 0 0 0-.652-.172 1.53 1.53 0 0 0-1.037.381c-.289.254-.433.735-.433 1.444v3.025h-.939zm5.319 0l2.023-2.879-1.872-2.659h1.173l.85 1.298c.16.247.289.454.386.621.153-.23.294-.433.422-.61l.934-1.309h1.121l-1.914 2.607 2.06 2.931h-1.153l-1.136-1.721-.303-.464-1.454 2.185h-1.137zm5.261.13l2.216-7.905h.751l-2.211 7.905h-.756zm7.268-.13v-.699c-.351.549-.867.824-1.548.824-.442 0-.848-.122-1.22-.365a2.433 2.433 0 0 1-.861-1.017c-.201-.438-.302-.94-.302-1.507 0-.553.092-1.053.276-1.502.185-.452.461-.797.829-1.037.369-.24.781-.36 1.236-.36.334 0 .631.071.892.214.26.139.472.321.636.547v-2.742h.933v7.644h-.871zm-2.966-2.764c0 .709.149 1.239.448 1.59.299.351.652.527 1.058.527.411 0 .758-.167 1.043-.501.289-.337.433-.85.433-1.538 0-.758-.146-1.314-.438-1.668-.292-.355-.652-.532-1.079-.532-.417 0-.767.17-1.048.511-.278.34-.417.878-.417 1.611zm9.109.98l.97.12c-.153.567-.437 1.007-.85 1.319-.414.313-.942.47-1.585.47-.81 0-1.453-.249-1.93-.746-.472-.501-.709-1.201-.709-2.101 0-.932.24-1.655.72-2.169.479-.515 1.102-.772 1.866-.772.741 0 1.346.252 1.815.756.469.504.704 1.213.704 2.127 0 .056-.002.139-.005.251h-4.13c.035.608.207 1.074.516 1.397.31.323.695.485 1.158.485.344 0 .638-.09.881-.271.243-.181.436-.469.579-.866zm-3.082-1.517h3.092c-.042-.466-.16-.815-.354-1.048a1.438 1.438 0 0 0-1.163-.542c-.431 0-.794.144-1.09.432-.292.289-.454.675-.485 1.158zm5.459 3.301v-4.808h-.829v-.73h.829v-.589c0-.372.033-.648.099-.829.091-.243.249-.44.475-.589.229-.153.549-.23.959-.23.265 0 .556.031.876.094l-.14.819a3.13 3.13 0 0 0-.553-.052c-.285 0-.487.06-.605.182s-.177.349-.177.683v.511h1.079v.73h-1.079v4.808h-.934zm6.362-.684c-.348.296-.683.504-1.007.626-.32.122-.664.183-1.032.183-.608 0-1.076-.148-1.403-.444a1.48 1.48 0 0 1-.49-1.141 1.544 1.544 0 0 1 .668-1.283c.201-.136.427-.238.677-.308.185-.048.463-.095.835-.141.757-.09 1.315-.198 1.673-.323l.006-.245c0-.382-.089-.652-.266-.808-.24-.212-.596-.318-1.069-.318-.442 0-.768.078-.98.234-.209.153-.364.426-.465.819l-.917-.125c.083-.393.221-.709.412-.949.191-.243.467-.429.829-.558.361-.132.78-.198 1.256-.198.473 0 .857.056 1.153.167.295.111.512.252.651.422.14.167.237.379.292.636.032.16.047.449.047.866v1.251c0 .873.02 1.425.058 1.658.041.23.121.45.24.663h-.981a1.985 1.985 0 0 1-.187-.684zm-.079-2.096c-.34.139-.851.258-1.533.355-.385.056-.658.118-.818.188a.809.809 0 0 0-.501.75c0 .251.094.459.282.626.191.167.469.25.834.25.362 0 .683-.078.965-.234.281-.16.488-.377.62-.652.101-.212.151-.525.151-.939v-.344zm6.038 2.78v-.814c-.431.626-1.016.939-1.757.939-.327 0-.632-.063-.917-.188-.282-.125-.492-.282-.631-.469a1.804 1.804 0 0 1-.287-.699c-.038-.184-.058-.476-.058-.876v-3.431h.939v3.071c0 .49.019.821.057.991a.992.992 0 0 0 .376.584c.191.139.427.208.709.208.281 0 .546-.071.792-.213.247-.146.421-.343.522-.59.104-.25.156-.611.156-1.084v-2.967h.939v5.538h-.84zm2.295 0v-7.644h.938v7.644h-.938zm4.447-.84l.136.829a3.46 3.46 0 0 1-.709.084c-.341 0-.605-.054-.793-.162a.907.907 0 0 1-.396-.422c-.077-.178-.115-.548-.115-1.111v-3.186h-.688v-.73h.688v-1.371l.934-.563v1.934h.943v.73h-.943v3.238c0 .268.015.44.046.516a.41.41 0 0 0 .162.183.642.642 0 0 0 .323.068c.105 0 .242-.013.412-.037zm1.189.84v-1.069h1.069v1.069h-1.069zm6.32-2.029l.923.12c-.101.636-.36 1.135-.777 1.497-.414.358-.923.537-1.528.537-.758 0-1.368-.247-1.83-.741-.459-.497-.689-1.208-.689-2.132 0-.598.1-1.121.298-1.57.198-.448.498-.784.902-1.006a2.68 2.68 0 0 1 1.324-.339c.601 0 1.093.153 1.476.459.382.302.627.733.735 1.293l-.913.141c-.086-.372-.241-.652-.464-.84a1.182 1.182 0 0 0-.797-.281c-.473 0-.857.17-1.153.511-.295.337-.443.872-.443 1.606 0 .743.143 1.284.428 1.621.285.337.657.506 1.115.506.369 0 .677-.113.923-.339.247-.226.404-.574.47-1.043zm1.376-.74c0-1.026.285-1.785.855-2.279.477-.41 1.057-.615 1.742-.615.761 0 1.383.25 1.866.751.484.497.725 1.185.725 2.065 0 .712-.107 1.274-.323 1.684a2.258 2.258 0 0 1-.933.949 2.704 2.704 0 0 1-1.335.339c-.775 0-1.403-.249-1.882-.746-.477-.497-.715-1.213-.715-2.148zm.965 0c0 .709.154 1.241.464 1.595.309.351.699.527 1.168.527.466 0 .853-.177 1.163-.532.309-.354.464-.895.464-1.621 0-.685-.157-1.203-.47-1.554a1.471 1.471 0 0 0-1.157-.532 1.49 1.49 0 0 0-1.168.526c-.31.352-.464.882-.464 1.591zm5.329 2.769v-5.538h.844v.787c.407-.608.995-.912 1.763-.912.333 0 .639.061.917.182.282.119.492.275.631.47a1.8 1.8 0 0 1 .292.693c.035.174.052.478.052.913v3.405h-.938v-3.369c0-.382-.037-.667-.11-.855a.889.889 0 0 0-.391-.454 1.211 1.211 0 0 0-.651-.172c-.4 0-.746.127-1.038.381-.289.254-.433.735-.433 1.444v3.025h-.938zm6.168 0v-4.808h-.829v-.73h.829v-.589c0-.372.033-.648.099-.829.09-.243.249-.44.475-.589.229-.153.549-.23.959-.23.264 0 .556.031.876.094l-.141.819a3.13 3.13 0 0 0-.553-.052c-.285 0-.486.06-.604.182-.119.122-.178.349-.178.683v.511h1.08v.73h-1.08v4.808h-.933z" fill="#6A737C"/><path d="M0 0h311.629v45.383H0V0z" fill="#FAFAFB"/><path d="M32.782 35.541v-7.643h1.012v6.741h3.764v.902h-4.776zm9.48-.682c-.348.295-.684.503-1.007.625-.32.122-.664.183-1.032.183-.609 0-1.076-.148-1.403-.444a1.48 1.48 0 0 1-.49-1.142c0-.27.06-.517.183-.74.125-.226.286-.407.484-.542.202-.136.428-.238.678-.308.184-.048.463-.095.835-.14.757-.09 1.315-.199 1.673-.324.004-.128.005-.21.005-.245 0-.382-.088-.652-.266-.808-.24-.212-.596-.318-1.068-.318-.442 0-.769.078-.98.235-.21.152-.364.425-.465.818l-.917-.125c.083-.393.22-.71.412-.949.19-.243.467-.43.829-.558.361-.132.78-.198 1.256-.198.473 0 .857.056 1.153.167.295.111.512.252.651.422.14.167.237.379.292.636.032.16.047.449.047.866v1.251c0 .873.02 1.425.058 1.658.041.23.121.45.24.663h-.98a1.99 1.99 0 0 1-.189-.684zm-.079-2.097c-.34.14-.851.258-1.533.355-.386.056-.658.118-.818.188a.81.81 0 0 0-.5.75c0 .25.093.46.28.626.192.167.47.25.835.25.361 0 .683-.078.964-.234.282-.16.489-.377.621-.652.1-.212.151-.525.151-.939v-.344zm2.034 1.127l.928-.146c.052.372.196.657.433.855.24.198.573.297 1 .297.432 0 .752-.087.96-.26.209-.178.313-.385.313-.621a.57.57 0 0 0-.276-.5c-.129-.084-.449-.19-.96-.319-.688-.174-1.166-.323-1.434-.448a1.43 1.43 0 0 1-.604-.527 1.423 1.423 0 0 1-.204-.745c0-.247.056-.475.167-.684.115-.212.27-.387.464-.526.146-.108.344-.198.595-.271.253-.077.524-.115.813-.115.434 0 .815.063 1.142.188.33.125.573.295.73.51.156.213.264.498.323.856l-.918.125a1 1 0 0 0-.365-.668c-.198-.16-.48-.24-.844-.24-.431 0-.739.072-.923.214-.184.143-.277.31-.277.501 0 .122.039.231.115.329.077.1.197.184.36.25.094.035.37.115.829.24.664.177 1.126.323 1.387.438.264.11.47.274.62.49.15.215.225.483.225.803 0 .313-.093.608-.277.886-.18.275-.443.488-.787.641-.344.15-.733.225-1.168.225-.72 0-1.269-.15-1.648-.449-.375-.299-.615-.742-.72-1.33zm7.764.813l.135.83c-.264.055-.5.083-.709.083-.34 0-.605-.054-.792-.162a.908.908 0 0 1-.397-.422c-.076-.178-.115-.548-.115-1.111v-3.186h-.688v-.73h.688v-1.371l.934-.563v1.934h.944v.73h-.944v3.238c0 .268.016.44.047.516a.41.41 0 0 0 .161.183.64.64 0 0 0 .324.068c.104 0 .241-.013.412-.037zm7.508.157c-.348.295-.683.503-1.006.625-.32.122-.664.183-1.033.183-.608 0-1.076-.148-1.402-.444a1.48 1.48 0 0 1-.49-1.142c0-.27.06-.517.182-.74.125-.226.287-.407.485-.542.201-.136.428-.238.678-.308a6.72 6.72 0 0 1 .834-.14c.758-.09 1.316-.199 1.674-.324l.005-.245c0-.382-.089-.652-.266-.808-.24-.212-.596-.318-1.069-.318-.441 0-.768.078-.98.235-.209.152-.363.425-.464.818l-.918-.125c.084-.393.22-.71.412-.949.191-.243.468-.43.83-.558.36-.132.78-.198 1.256-.198.473 0 .857.056 1.152.167.295.111.513.252.652.422.139.167.236.379.292.636.031.16.047.449.047.866v1.251c0 .873.019 1.425.057 1.658.042.23.122.45.24.663h-.98a1.99 1.99 0 0 1-.188-.684zm-.078-2.097c-.34.14-.852.258-1.533.355-.386.056-.659.118-.819.188a.81.81 0 0 0-.5.75c0 .25.094.46.281.626.191.167.47.25.834.25.362 0 .684-.078.965-.234.282-.16.488-.377.62-.652.101-.212.152-.525.152-.939v-.344zm6.022.751l.923.12c-.1.636-.36 1.135-.777 1.497-.414.358-.923.537-1.528.537-.757 0-1.367-.247-1.83-.74-.459-.498-.688-1.209-.688-2.133 0-.598.099-1.121.297-1.57.198-.448.499-.784.902-1.006a2.682 2.682 0 0 1 1.325-.34c.6 0 1.093.154 1.475.46.383.302.628.733.735 1.293l-.912.14c-.087-.371-.242-.651-.464-.839a1.184 1.184 0 0 0-.798-.281c-.473 0-.857.17-1.152.51-.296.338-.444.873-.444 1.607 0 .743.143 1.284.428 1.621.285.337.657.506 1.116.506.368 0 .676-.113.923-.339.247-.226.403-.573.47-1.043zm3.775 1.189l.136.83c-.264.055-.5.083-.71.083-.34 0-.604-.054-.792-.162a.908.908 0 0 1-.396-.422c-.077-.178-.115-.548-.115-1.111v-3.186h-.688v-.73h.688v-1.371l.933-.563v1.934h.944v.73h-.944v3.238c0 .268.016.44.047.516a.41.41 0 0 0 .162.183.639.639 0 0 0 .323.068c.104 0 .242-.013.412-.037zm.928-5.725v-1.08h.939v1.08h-.939zm0 6.564v-5.537h.939v5.537h-.939zm3.91 0l-2.106-5.537h.991l1.189 3.316c.129.358.247.73.354 1.116.084-.292.2-.643.35-1.053l1.23-3.379h.965l-2.096 5.537h-.876zm7.593-1.783l.97.12c-.153.567-.437 1.007-.85 1.32-.414.312-.942.469-1.585.469-.81 0-1.454-.249-1.93-.746-.472-.5-.709-1.201-.709-2.101 0-.932.24-1.655.72-2.17.48-.514 1.102-.771 1.866-.771.74 0 1.346.252 1.815.756.47.504.704 1.213.704 2.127 0 .056-.002.14-.005.25h-4.13c.035.609.207 1.075.516 1.398.31.323.695.485 1.158.485.344 0 .638-.09.88-.271.244-.18.437-.47.58-.866zm-3.082-1.517h3.092c-.042-.466-.16-.815-.355-1.048a1.438 1.438 0 0 0-1.162-.542 1.5 1.5 0 0 0-1.09.432c-.292.289-.454.675-.485 1.158zm7.81 1.131l.913-.125c.025.584.134.984.329 1.2.195.215.464.323.808.323.254 0 .473-.058.657-.172a.91.91 0 0 0 .38-.475c.07-.201.105-.521.105-.96v-5.265h1.011v5.208c0 .64-.078 1.135-.234 1.486a1.636 1.636 0 0 1-.735.803c-.334.185-.727.277-1.179.277-.67 0-1.185-.193-1.543-.579-.355-.386-.525-.96-.511-1.72zm9.365 2.17v-.814c-.43.626-1.016.939-1.757.939-.326 0-.632-.063-.917-.188-.282-.125-.492-.282-.631-.47a1.817 1.817 0 0 1-.287-.698c-.038-.184-.057-.476-.057-.876v-3.43h.938v3.07c0 .49.02.82.058.99a.99.99 0 0 0 .375.585c.191.139.428.209.71.209.28 0 .545-.072.792-.214.246-.146.42-.343.521-.59.104-.25.156-.611.156-1.084v-2.967h.939v5.537h-.84zm2.316 0v-5.538h.844v.787c.407-.608.994-.912 1.763-.912.333 0 .639.06.917.182.282.119.492.275.631.47.139.194.237.425.292.693.035.174.052.478.052.913v3.404h-.938v-3.368c0-.382-.037-.667-.11-.855a.884.884 0 0 0-.391-.454 1.205 1.205 0 0 0-.651-.172c-.4 0-.746.127-1.038.381-.289.254-.433.735-.433 1.444v3.024h-.938zm9.734-1.784l.97.12c-.153.567-.436 1.007-.85 1.32-.413.312-.942.469-1.585.469-.81 0-1.453-.249-1.929-.746-.473-.5-.709-1.201-.709-2.101 0-.932.24-1.655.719-2.17.48-.514 1.102-.771 1.867-.771.74 0 1.345.252 1.815.756.469.504.704 1.213.704 2.127 0 .056-.002.14-.006.25h-4.129c.034.609.207 1.075.516 1.398.309.323.695.485 1.157.485.345 0 .638-.09.882-.271.243-.18.436-.47.578-.866zm-3.081-1.517h3.092c-.042-.466-.16-.815-.355-1.048a1.437 1.437 0 0 0-1.162-.542c-.432 0-.795.144-1.09.432-.292.289-.454.675-.485 1.158zm11.481 3.3h-.938v-5.98a4.807 4.807 0 0 1-.892.646 6.198 6.198 0 0 1-.985.485v-.907a5.669 5.669 0 0 0 1.376-.897c.393-.35.671-.692.835-1.022h.604v7.675zm2.472-6.642v-.902h4.948v.73c-.487.518-.97 1.206-1.449 2.064a12.633 12.633 0 0 0-1.106 2.65 9.88 9.88 0 0 0-.36 2.1h-.964c.01-.6.128-1.327.354-2.179.226-.852.55-1.672.97-2.461.424-.793.874-1.46 1.351-2.002h-3.744zm10.084.281v1.09h-1.006v-.86c0-.466.055-.803.167-1.012.146-.278.377-.488.693-.63l.229.364a.838.838 0 0 0-.422.36c-.09.156-.141.386-.151.688h.49zm4.682 6.361h-.938v-5.98a4.807 4.807 0 0 1-.892.646 6.198 6.198 0 0 1-.985.485v-.907a5.669 5.669 0 0 0 1.376-.897c.393-.35.671-.692.835-1.022h.604v7.675zm2.55-1.767l.902-.084c.077.425.223.732.438.923.216.192.492.287.829.287.289 0 .541-.066.756-.198a1.62 1.62 0 0 0 .537-.527c.139-.222.256-.521.35-.896a4.754 4.754 0 0 0 .135-1.335 2.166 2.166 0 0 1-.772.73 2.089 2.089 0 0 1-1.053.276c-.632 0-1.168-.23-1.606-.688-.438-.459-.657-1.064-.657-1.815 0-.775.228-1.399.683-1.872.459-.472 1.033-.709 1.721-.709.497 0 .951.134 1.361.402.414.267.726.65.938 1.147.216.494.324 1.21.324 2.148 0 .977-.106 1.756-.318 2.336-.212.577-.529 1.017-.949 1.32-.417.302-.908.453-1.471.453-.598 0-1.086-.165-1.465-.495-.379-.334-.606-.802-.683-1.403zm3.843-3.374c0-.538-.144-.966-.433-1.282-.285-.317-.629-.475-1.032-.475-.417 0-.781.17-1.09.511-.309.34-.464.782-.464 1.325 0 .486.146.883.438 1.188.295.303.659.454 1.09.454.434 0 .79-.151 1.069-.454.281-.306.422-.728.422-1.267zm8.807 4.459c-.348.295-.683.503-1.007.625-.32.122-.664.183-1.032.183-.608 0-1.076-.148-1.403-.444a1.482 1.482 0 0 1-.49-1.142 1.55 1.55 0 0 1 .668-1.283c.201-.135.427-.237.677-.307.185-.048.463-.095.835-.14.757-.09 1.315-.199 1.673-.324l.006-.245c0-.382-.089-.652-.266-.808-.24-.212-.596-.318-1.069-.318-.442 0-.768.078-.98.235-.209.152-.364.425-.465.818l-.917-.125c.083-.393.221-.71.412-.949.191-.243.467-.43.829-.558.361-.132.78-.198 1.256-.198.473 0 .857.056 1.153.167.295.111.512.252.651.422.139.167.237.379.292.636.032.16.047.449.047.866v1.251c0 .873.019 1.425.058 1.658.041.23.121.45.24.663h-.981a1.98 1.98 0 0 1-.187-.684zm-.079-2.097c-.34.14-.851.258-1.533.355-.385.056-.658.118-.818.188a.81.81 0 0 0-.501.75c0 .25.094.46.282.626.191.167.469.25.834.25.362 0 .683-.078.965-.234.281-.16.488-.377.62-.652.101-.212.151-.525.151-.939v-.344zm4.458 1.94l.136.83a3.484 3.484 0 0 1-.709.083c-.341 0-.605-.054-.793-.162a.914.914 0 0 1-.396-.422c-.076-.178-.115-.548-.115-1.111v-3.186h-.688v-.73h.688v-1.371l.934-.563v1.934h.943v.73h-.943v3.238c0 .268.015.44.047.516a.404.404 0 0 0 .161.183.644.644 0 0 0 .324.068c.104 0 .241-.013.411-.037zm8.505-4.933l-.934.073c-.083-.368-.201-.636-.354-.802a1.243 1.243 0 0 0-.939-.402c-.299 0-.561.083-.787.25-.295.216-.528.53-.699.944-.17.414-.259 1.003-.266 1.768a2.181 2.181 0 0 1 1.857-1.017c.625 0 1.157.231 1.595.693.442.46.662 1.054.662 1.784 0 .48-.104.926-.313 1.34-.205.41-.488.724-.849.943a2.33 2.33 0 0 1-1.231.329c-.782 0-1.42-.287-1.914-.86-.493-.578-.74-1.526-.74-2.847 0-1.478.273-2.552.819-3.223.476-.584 1.117-.876 1.924-.876.601 0 1.093.169 1.475.506.386.337.617.803.694 1.397zm-3.833 3.296c0 .323.068.632.204.928.139.295.332.521.578.678.247.153.506.23.777.23.397 0 .737-.16 1.022-.48.285-.32.428-.755.428-1.304 0-.528-.141-.944-.422-1.246a1.386 1.386 0 0 0-1.064-.46c-.424 0-.784.154-1.079.46-.296.302-.444.7-.444 1.194zm5.428-1.992v-1.069h1.069v1.069h-1.069zm0 4.468v-1.068h1.069v1.069h-1.069zm7.384-.901v.901h-5.053c-.007-.225.03-.443.109-.651.129-.344.334-.683.616-1.017.285-.334.695-.72 1.23-1.158.831-.68 1.392-1.22 1.684-1.616.292-.4.438-.777.438-1.131a1.24 1.24 0 0 0-.401-.939c-.264-.257-.61-.386-1.038-.386-.452 0-.813.136-1.084.407-.271.271-.409.646-.412 1.126l-.965-.099c.066-.72.315-1.267.746-1.642.431-.38 1.01-.569 1.736-.569.734 0 1.314.204 1.742.61.427.407.641.911.641 1.512 0 .306-.062.607-.188.902-.125.296-.333.607-.625.934-.289.327-.77.775-1.445 1.345-.563.473-.924.794-1.084.965-.16.166-.292.335-.396.505h3.749zm4.546.901h-.938v-5.98a4.807 4.807 0 0 1-.892.646 6.198 6.198 0 0 1-.985.485v-.907a5.669 5.669 0 0 0 1.376-.897c.393-.35.671-.692.834-1.022h.605v7.675zm6.507 0h-.87v-7.643h.938v2.727c.397-.497.902-.746 1.518-.746.34 0 .662.07.964.208.306.136.556.329.751.58.198.246.353.545.464.896.111.351.167.727.167 1.126 0 .95-.235 1.683-.704 2.2-.469.519-1.032.778-1.689.778-.654 0-1.167-.273-1.539-.819v.694zm-.01-2.81c0 .664.09 1.144.271 1.44.296.482.695.724 1.199.724.411 0 .765-.177 1.064-.532.299-.358.449-.89.449-1.595 0-.724-.145-1.257-.433-1.601-.285-.344-.631-.516-1.038-.516-.41 0-.765.179-1.064.537-.298.354-.448.869-.448 1.543zm5.047 4.943l-.104-.881c.205.056.384.083.537.083.209 0 .376-.034.501-.104a.852.852 0 0 0 .307-.292c.059-.094.155-.327.287-.699a4.9 4.9 0 0 1 .084-.23l-2.102-5.547h1.012l1.152 3.207c.15.407.283.834.402 1.282.107-.43.236-.851.385-1.261l1.184-3.228h.939l-2.107 5.631c-.226.609-.401 1.028-.527 1.257-.166.31-.358.535-.573.678a1.345 1.345 0 0 1-.772.219c-.181 0-.382-.038-.605-.115zm8.353-2.133v-5.537h.845v.787c.407-.608.994-.912 1.763-.912.333 0 .639.06.917.182.282.119.492.275.631.47.139.194.236.425.292.693.035.174.052.478.052.913v3.404h-.938v-3.368c0-.382-.037-.667-.11-.855a.884.884 0 0 0-.391-.454 1.206 1.206 0 0 0-.652-.172 1.53 1.53 0 0 0-1.037.381c-.289.254-.433.735-.433 1.444v3.024h-.939zm5.772.46l.913.135c.038.281.144.487.318.615.233.174.551.26.954.26.435 0 .77-.086 1.007-.26.236-.174.396-.417.479-.73.049-.191.072-.593.068-1.204-.41.483-.921.724-1.533.724-.761 0-1.35-.274-1.768-.823-.417-.55-.625-1.208-.625-1.977 0-.528.095-1.014.287-1.46.191-.448.467-.794.829-1.037.365-.243.792-.365 1.282-.365.654 0 1.193.264 1.617.793v-.668h.865v4.787c0 .862-.088 1.472-.266 1.83a1.907 1.907 0 0 1-.834.855c-.379.209-.846.313-1.403.313-.66 0-1.194-.15-1.6-.449-.407-.295-.603-.742-.59-1.34zm.777-3.327c0 .726.145 1.256.433 1.59.289.334.65.5 1.085.5a1.39 1.39 0 0 0 1.084-.495c.292-.334.438-.855.438-1.564 0-.678-.151-1.189-.453-1.533-.299-.344-.661-.516-1.085-.516-.417 0-.772.17-1.064.51-.292.338-.438.84-.438 1.508zm5.345-3.697v-1.08h.938v1.08h-.938zm0 6.564v-5.537h.938v5.537h-.938zm2.372 0v-5.537h.845v.787c.407-.608.994-.912 1.762-.912.334 0 .64.06.918.182.282.119.492.275.631.47.139.194.236.425.292.693.035.174.052.478.052.913v3.404h-.938v-3.368c0-.382-.037-.667-.11-.855a.884.884 0 0 0-.391-.454 1.206 1.206 0 0 0-.652-.172 1.53 1.53 0 0 0-1.037.381c-.289.254-.433.735-.433 1.444v3.024h-.939zm5.319 0l2.023-2.878-1.872-2.659h1.173l.85 1.298c.16.247.289.454.386.62.153-.229.294-.432.422-.61l.934-1.308h1.121l-1.914 2.607 2.06 2.93h-1.153l-1.136-1.72-.303-.464-1.455 2.184h-1.136z" fill="#6A737C"/><path d="M37.708 20.32h-1.69v-3.26c0-.69-.037-1.136-.109-1.336a.932.932 0 0 0-.355-.475.991.991 0 0 0-.584-.169c-.292 0-.555.08-.788.24a1.23 1.23 0 0 0-.481.639c-.084.264-.126.753-.126 1.468v2.893h-1.69v-6.389h1.57v.939c.557-.722 1.259-1.083 2.105-1.083.373 0 .714.068 1.023.204.309.133.541.303.698.511.16.21.27.446.33.71.065.265.097.644.097 1.137v3.971zm1.564.421l1.931.235c.032.225.107.38.223.463.16.12.413.18.758.18.441 0 .772-.065.993-.198a.818.818 0 0 0 .337-.427c.052-.14.078-.399.078-.776v-.933c-.505.69-1.143 1.035-1.913 1.035-.859 0-1.538-.363-2.04-1.089-.393-.573-.59-1.287-.59-2.142 0-1.07.257-1.889.77-2.454a2.504 2.504 0 0 1 1.926-.848c.79 0 1.442.346 1.955 1.04v-.896h1.582v5.734c0 .754-.062 1.317-.186 1.69s-.299.666-.523.878c-.225.213-.526.38-.903.5-.373.12-.846.18-1.42.18-1.083 0-1.85-.186-2.304-.56-.453-.368-.68-.837-.68-1.407 0-.056.002-.124.006-.205zm1.51-3.748c0 .678.13 1.176.391 1.492.265.313.59.47.975.47.413 0 .762-.16 1.047-.482.285-.325.427-.804.427-1.438 0-.661-.136-1.153-.41-1.474a1.3 1.3 0 0 0-1.034-.48c-.405 0-.74.158-1.005.474-.26.313-.39.793-.39 1.438zm6.179-3.928V11.5h1.69v1.565h-1.69zm0 7.255v-6.389h1.69v6.39h-1.69zm9.241 0h-1.69v-3.26c0-.69-.037-1.136-.109-1.336a.932.932 0 0 0-.355-.475.991.991 0 0 0-.583-.169c-.293 0-.556.08-.789.24-.232.161-.393.374-.48.639-.085.264-.127.753-.127 1.468v2.893h-1.69v-6.389h1.57v.939c.557-.722 1.259-1.083 2.105-1.083.373 0 .714.068 1.023.204.309.133.541.303.698.511.16.21.27.446.33.71.065.265.097.644.097 1.137v3.971zm.909 0l2.304-3.29-2.208-3.099h2.063l1.131 1.757 1.192-1.757h1.985l-2.166 3.026 2.365 3.363H61.7l-1.3-1.98-1.311 1.98h-1.98zm10.197.15l2.184-9.12h1.27l-2.208 9.12h-1.246zm13.621-.15h-1.57v-.938c-.26.365-.57.637-.927.818-.353.177-.71.265-1.07.265-.734 0-1.364-.295-1.89-.885-.521-.593-.782-1.42-.782-2.478 0-1.083.255-1.906.764-2.467.51-.566 1.153-.848 1.931-.848.715 0 1.332.296 1.854.89V11.5h1.69v8.82zm-4.512-3.333c0 .682.094 1.176.283 1.48.272.442.653.662 1.143.662.389 0 .72-.164.992-.493.273-.333.41-.828.41-1.486 0-.734-.133-1.262-.398-1.583a1.253 1.253 0 0 0-1.016-.487c-.401 0-.738.16-1.011.481-.269.317-.403.793-.403 1.426zm9.885 1.3l1.684.283c-.216.617-.56 1.088-1.029 1.413-.465.321-1.048.482-1.75.482-1.111 0-1.933-.363-2.467-1.09-.421-.58-.632-1.315-.632-2.201 0-1.06.277-1.887.83-2.485.554-.602 1.254-.902 2.1-.902.95 0 1.7.314 2.25.944.55.626.813 1.586.788 2.882h-4.235c.012.501.149.892.41 1.173.26.277.585.415.974.415.265 0 .487-.072.668-.216.18-.145.317-.377.409-.698zm.096-1.709c-.012-.49-.138-.86-.379-1.113a1.159 1.159 0 0 0-.878-.385c-.37 0-.674.134-.915.403-.24.269-.359.634-.355 1.095h2.527zm2.322-2.647h.939v-.481c0-.538.056-.939.168-1.204.117-.264.327-.479.632-.643.309-.169.698-.253 1.167-.253.481 0 .953.072 1.414.217l-.229 1.179a3.338 3.338 0 0 0-.776-.097c-.244 0-.42.059-.53.175-.103.112-.156.33-.156.656v.451h1.264v1.33h-1.264v5.06h-1.69v-5.06h-.939v-1.33zm6.107 1.95l-1.534-.277c.172-.618.469-1.075.89-1.372.421-.297 1.047-.445 1.877-.445.754 0 1.316.09 1.685.27.369.177.627.403.776.68.152.273.228.776.228 1.51l-.017 1.974c0 .561.025.976.078 1.245.056.265.158.55.306.854h-1.672a6.188 6.188 0 0 1-.163-.499 3.093 3.093 0 0 0-.06-.199c-.288.281-.597.492-.926.632-.33.14-.68.21-1.053.21-.658 0-1.177-.178-1.558-.535-.377-.357-.566-.808-.566-1.353 0-.361.087-.682.259-.963.172-.285.413-.501.722-.65.313-.152.762-.285 1.347-.397.79-.148 1.338-.287 1.643-.415v-.168c0-.325-.08-.556-.24-.692-.161-.14-.464-.21-.91-.21-.3 0-.535.06-.703.18-.169.116-.305.323-.41.62zm2.262 1.371c-.217.072-.56.158-1.029.259-.47.1-.776.198-.92.294-.22.157-.331.355-.331.596a.83.83 0 0 0 .264.614.925.925 0 0 0 .674.258c.305 0 .596-.1.873-.3a1.06 1.06 0 0 0 .403-.56c.044-.144.066-.419.066-.824v-.337zm7.538 3.068v-.956a2.45 2.45 0 0 1-.92.806 2.554 2.554 0 0 1-1.197.295c-.429 0-.815-.095-1.155-.283a1.667 1.667 0 0 1-.74-.794c-.153-.341-.229-.812-.229-1.414V13.93h1.691v2.936c0 .898.03 1.45.09 1.654.064.201.178.361.343.482.164.116.373.174.625.174.289 0 .548-.078.777-.234.228-.16.385-.357.469-.59.084-.237.126-.812.126-1.727v-2.695h1.691v6.39h-1.571zm3.327 0V11.5h1.691v8.82h-1.691zm6.36-6.389v1.348h-1.155v2.575c0 .521.01.826.03.914a.391.391 0 0 0 .15.21c.08.057.177.085.289.085.156 0 .383-.054.68-.162l.144 1.311a3.36 3.36 0 0 1-1.336.253c-.304 0-.579-.05-.824-.15-.244-.105-.425-.237-.541-.398-.113-.164-.191-.385-.235-.662-.036-.196-.054-.593-.054-1.19v-2.786h-.776V13.93h.776v-1.27l1.697-.986v2.256h1.155zm1.173 6.39V18.63h1.69v1.69h-1.69zm9-4.5l-1.666.3c-.056-.333-.185-.584-.385-.752-.197-.169-.453-.253-.77-.253-.421 0-.758.147-1.011.44-.249.288-.373.774-.373 1.455 0 .758.126 1.294.379 1.607.257.313.6.469 1.029.469.321 0 .583-.09.788-.27.204-.185.349-.5.433-.945l1.661.282c-.173.762-.504 1.338-.993 1.727-.489.39-1.145.584-1.967.584-.935 0-1.681-.295-2.239-.885-.553-.59-.83-1.405-.83-2.448 0-1.055.279-1.875.836-2.461.558-.59 1.312-.884 2.263-.884.778 0 1.395.168 1.853.505.461.333.792.842.992 1.528zm.897 1.214c0-.561.138-1.105.415-1.63a2.858 2.858 0 0 1 1.173-1.203 3.508 3.508 0 0 1 1.703-.415c.966 0 1.758.314 2.376.944.618.626.927 1.418.927 2.377 0 .966-.313 1.768-.939 2.406-.622.634-1.406.95-2.352.95a3.731 3.731 0 0 1-1.679-.396 2.734 2.734 0 0 1-1.209-1.162c-.277-.513-.415-1.137-.415-1.87zm1.732.09c0 .634.151 1.12.452 1.457.301.337.672.505 1.113.505.441 0 .81-.168 1.107-.505.301-.337.451-.827.451-1.468 0-.626-.15-1.107-.451-1.444a1.416 1.416 0 0 0-1.107-.506c-.441 0-.812.169-1.113.506-.301.337-.452.822-.452 1.456zm12.003 3.195h-1.691v-3.26c0-.69-.036-1.136-.108-1.336a.928.928 0 0 0-.355-.475.99.99 0 0 0-.583-.169c-.293 0-.556.08-.789.24a1.23 1.23 0 0 0-.481.639c-.084.264-.126.753-.126 1.468v2.893h-1.691v-6.389h1.57v.939c.558-.722 1.26-1.083 2.106-1.083.373 0 .714.068 1.023.204.309.133.541.303.698.511.16.21.271.446.331.71.064.265.096.644.096 1.137v3.971zm.981-6.389h.938v-.481c0-.538.056-.939.169-1.204.116-.264.327-.479.631-.643.309-.169.698-.253 1.168-.253a4.7 4.7 0 0 1 1.413.217l-.228 1.179a3.343 3.343 0 0 0-.776-.097c-.245 0-.421.059-.53.175-.104.112-.156.33-.156.656v.451h1.263v1.33h-1.263v5.06h-1.691v-5.06h-.938v-1.33z" fill="#07C"/><rect opacity=".5" x="12.102" y="58.241" width="285.155" height="8.32" rx="1.643" fill="url(#paint0_linear)"/><rect opacity=".5" x="12.102" y="74.126" width="249.605" height="8.32" rx="1.643" fill="url(#paint1_linear)"/><rect opacity=".5" x="12.102" y="90.009" width="264.733" height="8.32" rx="1.643" fill="url(#paint2_linear)"/><rect opacity=".5" x="12.102" y="105.893" width="195.146" height="8.32" rx="1.643" fill="url(#paint3_linear)"/><path d="M16.189 8.912c-4.42 0-8 3.58-8 8 0 3.54 2.29 6.53 5.47 7.59.4.07.55-.17.55-.38 0-.19-.01-.82-.01-1.49-2.01.37-2.53-.49-2.69-.94-.09-.23-.48-.94-.82-1.13-.28-.15-.68-.52-.01-.53.63-.01 1.08.58 1.23.82.72 1.21 1.87.87 2.33.66.07-.52.28-.87.51-1.07-1.78-.2-3.64-.89-3.64-3.95 0-.87.31-1.59.82-2.15-.08-.2-.36-1.02.08-2.12 0 0 .67-.21 2.2.82.64-.18 1.32-.27 2-.27.68 0 1.36.09 2 .27 1.53-1.04 2.2-.82 2.2-.82.44 1.1.16 1.92.08 2.12.51.56.82 1.27.82 2.15 0 3.07-1.87 3.75-3.65 3.95.29.25.54.73.54 1.48 0 1.07-.01 1.93-.01 2.2 0 .21.15.46.55.38a8.013 8.013 0 0 0 5.45-7.59c0-4.42-3.58-8-8-8z" fill="#010101"/><path stroke="#D6D9DC" d="M0 126.5L312 126.5"/><path stroke="#D6D9DC" d="M0 45.5L312 45.5"/><defs><linearGradient id="paint0_linear" x1="11.174" y1="62.228" x2="408.419" y2="62.228" gradientUnits="userSpaceOnUse"><stop stop-color="#CBCFD2"/><stop offset="1" stop-color="#D9DBDC"/></linearGradient><linearGradient id="paint1_linear" x1="11.29" y1="78.112" x2="359.011" y2="78.112" gradientUnits="userSpaceOnUse"><stop stop-color="#CBCFD2"/><stop offset="1" stop-color="#D9DBDC"/></linearGradient><linearGradient id="paint2_linear" x1="11.24" y1="93.996" x2="380.036" y2="93.996" gradientUnits="userSpaceOnUse"><stop stop-color="#CBCFD2"/><stop offset="1" stop-color="#D9DBDC"/></linearGradient><linearGradient id="paint3_linear" x1="11.467" y1="109.88" x2="283.322" y2="109.88" gradientUnits="userSpaceOnUse"><stop stop-color="#CBCFD2"/><stop offset="1" stop-color="#D9DBDC"/></linearGradient></defs></svg>