<svg width="192" height="41" fill="none" xmlns="http://www.w3.org/2000/svg"><path fill-rule="evenodd" clip-rule="evenodd" d="M0 0h19.5v19.5H0V0zM21.5 0H41v19.5H21.5V0z" fill="#BBC0C4"/><path d="M182.03 6.71c-2.02-.56-4.34-.45-6.14.72-1.16.74-2 1.93-2.38 3.25-.31 1-.3 2.06-.28 3.1l-.01 1.4h-.2c-.91-.01-1.82-.02-2.73 0 .01 1.05 0 2.1 0 3.14v.24h1.5c.48 0 .96 0 1.44.02V32.8h4.22v-3.55-10.68h6.17v9.07c.03 1.4.26 2.91 1.2 4.02.8.99 2.09 1.44 3.32 1.53 1.3.1 2.65-.07 3.86-.6v-3.45c-.35.23-.74.41-1.16.51a2.9 2.9 0 0 1-2.05-.21c-.6-.33-.83-1.04-.9-1.68-.1-.73-.09-1.46-.08-2.2v-1.08-2.1-3.8a46.07 46.07 0 0 0 1.17 0l.17-.01h.36c.83 0 1.66-.01 2.49.02v-3.42h-4.17c-.02-1.05-.02-2.1-.02-3.16V9.9l-1.5.46c-.88.27-1.78.55-2.67.8-.02.78-.02 1.56-.02 2.34v1.67h-6.17v-1.05c-.01-.7-.02-1.41.08-2.11.12-.83.6-1.65 1.4-1.97 1.02-.42 2.15-.14 3.11.29V8.9v-2.2zM87.9 8.5a2.58 2.58 0 0 0-2.33-.82 2.44 2.44 0 0 0-2.14 2.4 2.39 2.39 0 0 0 1.96 2.34 2.62 2.62 0 0 0 2.8-1.18 2.4 2.4 0 0 0-.28-2.74zM59.38 8.2h-6.14v24.6a1227.78 1227.78 0 0 1 4.02 0v-6.6-4.41-3c0-1.66-.01-3.3.02-4.96l.21.37 2.82 7c1.56 3.88 3.11 7.74 4.68 11.6h1.27l1.76-.01 4.16-10.52 3.19-8.05c.06-.14.14-.27.22-.4.02.27.03.55.03.82a4473.72 4473.72 0 0 0-.01 18.15l2.78.01h1.48v-3.53V8.2h-2.02l-3.88.01a2188 2188 0 0 1-4.47 11l-2.92 7.17a85.73 85.73 0 0 1-1.46-3.64A6411.25 6411.25 0 0 0 59.38 8.2zM103.45 15.17c-2.04-.57-4.23-.6-6.27-.02a8.49 8.49 0 0 0-4.68 3.3A10.69 10.69 0 0 0 90.83 25c.1 2.19.97 4.37 2.55 5.9a8.55 8.55 0 0 0 5.5 2.3c1.97.1 4.04-.17 5.77-1.2l-.01-2.02v-1.8a8.04 8.04 0 0 1-3.79 1.56c-1.4.1-2.88-.23-3.95-1.18a5.29 5.29 0 0 1-1.7-3.5c-.18-1.69.06-3.51 1.12-4.89a4.95 4.95 0 0 1 3.5-1.94 6.7 6.7 0 0 1 4.82 1.48v-1.77-2.27a5.08 5.08 0 0 0-1.2-.5z" fill="#BBC0C4"/><path fill-rule="evenodd" clip-rule="evenodd" d="M131.8 15.56a11.2 11.2 0 0 0-6.04-.71 8.42 8.42 0 0 0-5.55 2.96 9.39 9.39 0 0 0-1.94 5.39c-.17 2.27.2 4.69 1.54 6.59a7.99 7.99 0 0 0 4.88 3.17c1.62.34 3.31.35 4.93 0a8.17 8.17 0 0 0 4.85-2.98 9.35 9.35 0 0 0 1.85-5.13c.13-1.88-.06-3.83-.84-5.56a7.46 7.46 0 0 0-3.68-3.73zm-1.25 3.83a4.54 4.54 0 0 0-3.53-1.2c-1.01.06-2.03.4-2.78 1.1a5.6 5.6 0 0 0-1.63 3.68 8.14 8.14 0 0 0 .64 4.41 4.2 4.2 0 0 0 2.65 2.18c1.12.3 2.35.27 3.44-.15a3.85 3.85 0 0 0 2.07-2.03c.6-1.35.67-2.86.6-4.31a5.69 5.69 0 0 0-1.46-3.68z" fill="#BBC0C4"/><path d="M149.1 15.5c-1.85-.7-3.9-.96-5.84-.62a6.28 6.28 0 0 0-4.2 2.58 5.38 5.38 0 0 0-.58 4.21c.23.95.8 1.8 1.57 2.4.87.66 1.88 1.1 2.88 1.52l.76.34.07.03c.64.3 1.31.62 1.78 1.17.5.75.35 1.97-.5 2.4-.9.43-1.95.42-2.92.27a9.22 9.22 0 0 1-3.83-1.65v4.07c1.34.6 2.82.9 4.28.99 2.07.07 4.32-.33 5.88-1.79a5.15 5.15 0 0 0 1.1-5.93 5.55 5.55 0 0 0-2.42-2.3c-.56-.32-1.16-.57-1.75-.82-.73-.3-1.46-.6-2.12-1.04-.7-.44-.9-1.41-.6-2.15.35-.75 1.22-1.09 2-1.12a7.43 7.43 0 0 1 4.44 1.31v-1.66-2.22z" fill="#BBC0C4"/><path fill-rule="evenodd" clip-rule="evenodd" d="M165.64 15.7a10.93 10.93 0 0 0-6.26-.86c-1.7.22-3.37.87-4.66 2a8.63 8.63 0 0 0-2.78 5.42c-.26 2.05-.18 4.2.66 6.12a7.81 7.81 0 0 0 4.29 4.16c1.87.74 3.96.82 5.94.5a8.24 8.24 0 0 0 5.18-3.03 9.65 9.65 0 0 0 1.91-6c.03-1.43-.15-2.88-.65-4.21a7.53 7.53 0 0 0-3.63-4.1zm-1.74 3.5a4.63 4.63 0 0 0-3.38-1 4.32 4.32 0 0 0-3.08 1.48 6.1 6.1 0 0 0-1.28 3.5c-.1 1.3 0 2.64.5 3.85a4.28 4.28 0 0 0 2.23 2.33c.94.4 2 .48 3.02.33a3.95 3.95 0 0 0 2.46-1.33 5.5 5.5 0 0 0 1.1-2.59c.2-1.24.2-2.53-.04-3.77a4.84 4.84 0 0 0-1.53-2.8z" fill="#BBC0C4"/><path d="M118 15.1a4.76 4.76 0 0 0-3.92.34 5.4 5.4 0 0 0-2.18 2.76v-1.34-1.69h-4.16V32.8h4.16v-5.62-2.81a7.8 7.8 0 0 1 .6-3.6c.5-1.05 1.44-1.97 2.64-2.11.98-.1 2.02.13 2.85.67v-1.88-2.34zM84.51 15.17h-.7a12946.03 12946.03 0 0 1 0 17.63h4.2v-7.05-10.57c-1.16-.02-2.33-.01-3.5 0z" fill="#BBC0C4"/><path fill-rule="evenodd" clip-rule="evenodd" d="M0 21.5h19.5V41H0V21.5zM21.5 21.5H41V41H21.5V21.5z" fill="#BBC0C4"/></svg>