<svg width="92" height="36" fill="none" xmlns="http://www.w3.org/2000/svg"><path d="M52.6.7c-1.8 1-2.5 2.6-2.5 7 .7-.6 1.5-1 2.3-1.4l2.4-1.2c1.5-1.2 1.7-2.6 1.7-5.1 0 0-2.5 0-3.9.7zM41.8 1.7A7 7 0 0 0 40 5.2l-5 19.1-4-15.6c-.4-1.9-1.2-3.7-2.3-5.2-1.4-1.8-4.4-1.9-4.7-1.9-.3 0-3.2.1-4.7 1.9A13.5 13.5 0 0 0 17 8.7l-4.1 15.6-5-19.1A7 7 0 0 0 6 1.7C3.6-.4 0 .1 0 .1l9.4 35.8s3.1.2 4.7-.6c2-1 3-1.8 4.3-6.7l4.4-18C23 10 23.1 9 24 9s1 1.1 1.1 1.6l4.5 18c1.2 4.9 2.2 5.7 4.3 6.7 1.5.8 4.7.6 4.7.6L47.8.1s-3.6-.5-6 1.6zM56.5 5.9c-.5.7-1.2 1.3-2 1.7-.8.5-1.6.8-2.5 1.2-1.5.7-1.9 1.5-1.9 2.7V36s2.4.3 4-.5c2-1 2.4-2 2.4-6.4V5.9zM80 18L92 .3s-5-.9-7.5 1.4A28.2 28.2 0 0 0 81 5.7l-4.4 6.4a1 1 0 0 1-1 .7 1 1 0 0 1-1-.7l-4.3-6.4c-1-1.5-2.1-2.8-3.4-4.1C64.5-.7 59.4.2 59.4.2l12 17.9-12 17.8s5.3.7 7.8-1.6c1.2-1.2 2.3-2.5 3.2-3.9l4.4-6.3a1 1 0 0 1 1-.7 1 1 0 0 1 .9.7l4.4 6.3c1 1.4 2 2.7 3.2 3.9 2.5 2.3 7.7 1.6 7.7 1.6L80 18.1z" fill="#BBC0C4"/></svg>