<svg width="307" height="45" fill="none" xmlns="http://www.w3.org/2000/svg"><path d="M105.14 36.24h21.93V29.7h-13.89v-6.15h11.84v-6.72h-11.84V11h13.9V4.54h-21.94v31.7zM170.37 11.13c-3.3 0-5.73.99-7.6 3.72h-.13l-1-2.98h-5.85V45h7.6V34.56h.13c1.43 1.61 3.55 2.36 6.47 2.36 6.67 0 11.53-5.72 11.53-12.56v-.93c.06-7.64-5.48-12.3-11.15-12.3zm-1.93 19.51c-3.5 0-5.11-2.98-5.11-6.65 0-3.67 1.62-6.52 5.1-6.52 3.5 0 5.12 2.98 5.12 6.65-.07 3.66-1.69 6.52-5.11 6.52zM207.5 23.18c0-8.2-5.8-12.12-12.09-12.12-7.04 0-12.58 4.98-12.58 12.62v.8c0 7.78 5.98 12.5 12.9 12.5 5.6 0 10.58-2.73 11.77-8.39h-7.17c-.74 1.93-2.43 2.55-4.42 2.55-3.18 0-4.92-2.18-5.3-5.28h16.82c0-.5.07-1.68.07-2.68zm-16.76-2.17c.37-2.55 1.87-4.48 4.86-4.48 2.62 0 4.3 1.8 4.3 4.48h-9.16zM223.57 11.13c-3.11 0-5.54 1.18-7.23 3.91h-.12l-1-3.17h-5.98v24.37h7.66V22.06c0-3.1 1.5-4.6 4-4.6 2.1 0 3.73 1.37 3.73 4.6v14.11h7.79v-16.4c0-4.73-2.87-8.64-8.85-8.64zM244 20.45c-1.3-.25-2.18-.87-2.18-2.18 0-1.12.81-1.99 2.56-1.99 1.93 0 2.86 1 2.86 2.62h6.98v-.56c0-5.1-4.73-7.28-9.97-7.28-4.67 0-10.03 2-10.03 7.71v.37c0 1.68.63 3.3 1.8 4.54 2.44 2.43 6.18 2.67 8.67 3.3 2.12.55 2.61 1.49 2.61 2.6 0 1.5-1.18 2.18-2.92 2.18-2.12 0-3.37-1.18-3.5-3.48h-6.9v.56c.24 5.97 4.85 8.14 10.46 8.14 4.98 0 10.46-2.3 10.46-8.02v-.5c0-1.67-.56-3.35-1.62-4.47-2.49-2.6-6.22-3.04-9.28-3.54zM264.13 11.87h-7.73v24.37h7.73V11.87zM154.23 11.87h-8.47l-4.11 6.15-4.11-6.15h-8.85l8.41 11.5-9.53 12.87h8.6l5.17-7.34 5.17 7.34h8.78l-9.34-13.12 8.28-11.25zM260.2 0a4.6 4.6 0 1 0 0 9.2 4.6 4.6 0 1 0 0-9.2zM278.02 11.87v-.8c0-2.06 1.43-4.17 3.73-4.23.38 0 2.25-.07 2.25-.07l.06-6.77h-2.8c-6.6.12-10.9 5.16-10.9 11.44v.43h-4.55v5.84h4.54v18.53h7.73V17.65h5.05l6.47 16.85-4.48 10.44h8.1l13.7-33.13h-8.03l-5.3 14.6-4.92-14.6-10.65.06z" fill="#BBC0C4"/><path d="M105.14 36.24h21.93V29.7h-13.89v-6.15h11.84v-6.72h-11.84V11h13.9V4.54h-21.94v31.7zM170.37 11.13c-3.3 0-5.73.99-7.6 3.72h-.13l-1-2.98h-5.85V45h7.6V34.56h.13c1.43 1.61 3.55 2.36 6.47 2.36 6.67 0 11.53-5.72 11.53-12.56v-.93c.06-7.64-5.48-12.3-11.15-12.3zm-1.93 19.51c-3.5 0-5.11-2.98-5.11-6.65 0-3.67 1.62-6.52 5.1-6.52 3.5 0 5.12 2.98 5.12 6.65-.07 3.66-1.69 6.52-5.11 6.52zM207.5 23.18c0-8.2-5.8-12.12-12.09-12.12-7.04 0-12.58 4.98-12.58 12.62v.8c0 7.78 5.98 12.5 12.9 12.5 5.6 0 10.58-2.73 11.77-8.39h-7.17c-.74 1.93-2.43 2.55-4.42 2.55-3.18 0-4.92-2.18-5.3-5.28h16.82c0-.5.07-1.68.07-2.68zm-16.76-2.17c.37-2.55 1.87-4.48 4.86-4.48 2.62 0 4.3 1.8 4.3 4.48h-9.16zM223.57 11.13c-3.11 0-5.54 1.18-7.23 3.91h-.12l-1-3.17h-5.98v24.37h7.66V22.06c0-3.1 1.5-4.6 4-4.6 2.1 0 3.73 1.37 3.73 4.6v14.11h7.79v-16.4c0-4.73-2.87-8.64-8.85-8.64zM244 20.45c-1.3-.25-2.18-.87-2.18-2.18 0-1.12.81-1.99 2.56-1.99 1.93 0 2.86 1 2.86 2.62h6.98v-.56c0-5.1-4.73-7.28-9.97-7.28-4.67 0-10.03 2-10.03 7.71v.37c0 1.68.63 3.3 1.8 4.54 2.44 2.43 6.18 2.67 8.67 3.3 2.12.55 2.61 1.49 2.61 2.6 0 1.5-1.18 2.18-2.92 2.18-2.12 0-3.37-1.18-3.5-3.48h-6.9v.56c.24 5.97 4.85 8.14 10.46 8.14 4.98 0 10.46-2.3 10.46-8.02v-.5c0-1.67-.56-3.35-1.62-4.47-2.49-2.6-6.22-3.04-9.28-3.54zM264.13 11.87h-7.73v24.37h7.73V11.87zM154.23 11.87h-8.47l-4.11 6.15-4.11-6.15h-8.85l8.41 11.5-9.53 12.87h8.6l5.17-7.34 5.17 7.34h8.78l-9.34-13.12 8.28-11.25zM260.2 0a4.6 4.6 0 1 0 0 9.2 4.6 4.6 0 1 0 0-9.2zM278.02 11.87v-.8c0-2.06 1.43-4.17 3.73-4.23.38 0 2.25-.07 2.25-.07l.06-6.77h-2.8c-6.6.12-10.9 5.16-10.9 11.44v.43h-4.55v5.84h4.54v18.53h7.73V17.65h5.05l6.47 16.85-4.48 10.44h8.1l13.7-33.13h-8.03l-5.3 14.6-4.92-14.6-10.65.06zM24.16 17.4c-.31-1-.69-1.92-1-2.92-.37-1.18-.87-1.55-1.93-1.55h-8.85c-1.05 0-1.55.43-1.93 1.55-.37 1-.68 1.93-1 2.92-.3 1-.3 1 .63 1h13.46c.93 0 .93 0 .62-1z" fill="#BBC0C4"/><path d="M29.64 4.54H3.91A3.03 3.03 0 0 0 .92 7.52V33.2c0 1.62 1.31 2.98 3 2.98h25.72c1.62 0 3-1.3 3-2.98V7.52c0-1.62-1.32-2.98-3-2.98zM28.52 17.9c-.31.37-.69.44-1.06.5-.44.06-.5.25-.37.56.43.87.56 3.54.56 4.85v4.9c-.07.88-.38 1.12-1.06 1.12-.69 0-2 .07-2.8 0-.57-.06-.88-.43-.88-1.05v-1.74c0-.56-.06-.69-.56-.69H11.51c-.5 0-.56.19-.56.69v1.74c0 .62-.31 1.05-.87 1.05-.81.07-2.06 0-2.8 0-.75 0-1.06-.24-1.06-1.11V23.8c0-1.31.18-3.92.56-4.85.12-.31.06-.5-.38-.56-.43-.06-.74-.13-1.06-.5-.24-.31-.24-.75-.12-1.12.12-.37.44-.37.75-.37h1.3c.32 0 .44-.13.57-.44.37-.93.87-2.17 1.3-3.1.5-1.06 1.38-1.93 2.5-1.93h10.4c1.12.06 2 .93 2.5 1.93.43.93.93 2.17 1.3 3.1.13.31.25.44.56.44h1.3c.32 0 .63 0 .76.37.12.37.12.81.06 1.12z" fill="#BBC0C4"/><path d="M9.83 20.32c-1 0-1.56.69-1.56 1.62v.13c0 .8.75 1.49 1.56 1.42h.19c.8 0 1.43-.74 1.43-1.55 0-.93-.56-1.62-1.62-1.62zM23.72 20.32c-1 0-1.56.69-1.56 1.62v.13c0 .8.75 1.49 1.56 1.42h.13c.8 0 1.43-.74 1.43-1.55.06-.93-.56-1.62-1.56-1.62zM64.4 4.54H38.67a2.99 2.99 0 0 0-2.99 2.98V33.2c0 1.62 1.31 2.98 3 2.98H64.4c1.62 0 3-1.3 3-2.98V7.52c0-1.62-1.32-2.98-3-2.98zm-14.45 14.1l-.69.38c-.43.25-.68.75-.68 1.24v9.7c0 .68-.56 1.24-1.25 1.24h-.43c-.69 0-1.25-.56-1.25-1.24v-9.7c0-.5-.31-.93-.68-1.24l-.63-.37a2 2 0 0 1-.93-1.74l.56-6.97c0-.24.19-.43.43-.43h.38c.25 0 .43.19.43.43l.07 5.29c0 .12.12.25.25.25h.3c.13 0 .26-.13.26-.25l.37-5.29c0-.24.19-.43.44-.43h.37c.25 0 .44.19.44.43l.37 5.29c0 .12.12.25.25.25h.37c.13 0 .25-.13.25-.25l.06-5.29c0-.24.2-.43.44-.43h.37c.25 0 .44.19.44.43l.62 6.97a2 2 0 0 1-.93 1.74zm9.6 11.32c0 .68-.57 1.24-1.25 1.24h-.5c-.69 0-1.25-.56-1.25-1.24V23c-.06-.38-.25-.69-.56-.81a2.47 2.47 0 0 1-1.43-2.24v-7.9c0-1.24.93-2.42 2.24-2.54h.25a2.5 2.5 0 0 1 2.5 2.49v17.96zM99.23 4.54h-25.8a2.99 2.99 0 0 0-2.99 2.98v25.73c0 1.62 1.31 2.99 3 2.99h25.79c1.61 0 2.99-1.3 2.99-2.99V7.52c0-1.62-1.31-2.98-3-2.98zm-2.75 8.51c-.87 1-3.8 3.8-4.6 4.6a.82.82 0 0 0-.2.75c.57 2.05 2 8.95 2.37 10.38.07.25 0 .56-.18.74-.38.38-.75.75-1.12 1.18-.38.38-.75.32-1-.18-.93-1.93-3.36-7.03-3.74-7.77-.25-.5-.5-.56-.93-.19-1.06.81-2.68 2.18-3.68 2.99-.25.24-.62.5-.5.87.07.74.13 1.43.25 2.1.07.32 0 .63-.25.82l-.74.74c-.38.31-.69.25-.94-.12l-1.3-2.43a1.35 1.35 0 0 0-.26-.3 1.1 1.1 0 0 0-.3-.25l-2.44-1.31c-.37-.25-.43-.62-.12-.93l.75-.75c.25-.18.5-.3.8-.25.7.07 1.38.19 2.12.25.38.13.63-.18.88-.5.8-1.05 2.18-2.67 2.99-3.66.37-.44.3-.69-.19-.93-.75-.38-5.92-2.8-7.79-3.73-.5-.2-.56-.63-.18-1l1.12-1.12c.18-.18.5-.25.74-.18 1.44.37 8.35 1.86 10.4 2.36a.8.8 0 0 0 .76-.25c.8-.8 3.6-3.73 4.6-4.6.75-.68 1.81-.68 2.56 0 .81.75.81 1.93.12 2.67z" fill="#BBC0C4"/></svg>