<svg width="144" height="46" fill="none" xmlns="http://www.w3.org/2000/svg"><path d="M17.7767 19.5145L28.7523 24.515L39.8127 14.8107C39.9822 14.0055 40.0457 13.2216 40.0457 12.374C40.0457 5.55136 34.4944 0 27.6717 0C23.5824 0 19.7896 2.0129 17.4801 5.38185L15.6367 14.9378L17.7767 19.5145Z" fill="#BBC0C4"/><path d="M6.42008 31.1257C6.25058 31.9308 6.18701 32.7572 6.18701 33.6047C6.18701 40.4486 11.7596 45.9999 18.6034 45.9999C22.714 45.9999 26.5491 43.9659 28.8586 40.5757L30.6808 31.0621L28.2441 26.4007L17.2262 21.379L6.42008 31.1257Z" fill="#BBC0C4"/><path d="M6.35678 12.1409L13.8787 13.9207L15.5314 5.38181C14.5143 4.59784 13.243 4.17407 11.9293 4.17407C8.66632 4.17407 5.99658 6.82262 5.99658 10.1068C5.99658 10.806 6.12371 11.5053 6.35678 12.1409Z" fill="#BBC0C4"/><path d="M5.69968 13.942C2.35191 15.0438 0 18.2645 0 21.8029C0 25.2566 2.14003 28.3289 5.33947 29.5579L15.8913 20.0231L13.9631 15.8914L5.69968 13.942Z" fill="#BBC0C4"/><path d="M30.7656 40.5757C31.8039 41.3597 33.054 41.8046 34.3465 41.8046C37.6095 41.8046 40.2792 39.1561 40.2792 35.8719C40.2792 35.1515 40.1521 34.4523 39.919 33.8166L32.4183 32.058L30.7656 40.5757Z" fill="#BBC0C4"/><path d="M32.2908 30.0876L40.5543 32.0157C43.9232 30.9139 46.254 27.6933 46.254 24.1337C46.254 20.7011 44.1139 17.6076 40.9145 16.3999L30.1084 25.8711L32.2908 30.0876Z" fill="#BBC0C4"/><path d="M68.1628 33.075L69.1586 32.9691L69.2222 35.0032C66.5948 35.3634 64.3489 35.5541 62.4843 35.5541C60.0052 35.5541 58.2466 34.8337 57.2084 33.3928C56.1701 31.952 55.6616 29.7061 55.6616 26.6761C55.6616 20.6162 58.0771 17.5863 62.8869 17.5863C65.2176 17.5863 66.955 18.2431 68.0992 19.5356C69.2434 20.8281 69.8155 22.8834 69.8155 25.6591L69.6671 27.6296H58.2678C58.2678 29.5366 58.6068 30.9562 59.306 31.8673C60.0052 32.7784 61.1918 33.2445 62.9081 33.2445C64.6455 33.2869 66.3829 33.2233 68.1628 33.075ZM67.2305 25.5955C67.2305 23.4767 66.8915 21.9723 66.2134 21.1036C65.5354 20.2348 64.4336 19.7899 62.9081 19.7899C61.3825 19.7899 60.2171 20.256 59.4543 21.1671C58.6916 22.0782 58.289 23.5614 58.2678 25.5955H67.2305Z" fill="#BBC0C4"/><path d="M73.4175 35.2362V10.4458H76.0025V35.2362H73.4175Z" fill="#BBC0C4"/><path d="M92.339 23.1801V31.6766C92.339 32.5454 94.479 32.7149 94.479 32.7149L94.3519 35.0032C92.5297 35.0032 91.0253 35.1515 90.1142 34.2828C88.0378 35.1939 85.9825 35.5753 83.906 35.5753C82.3169 35.5753 81.1092 35.1304 80.2828 34.2192C79.4565 33.3293 79.0327 32.0368 79.0327 30.3418C79.0327 28.6679 79.4565 27.4178 80.304 26.6338C81.1516 25.8498 82.4864 25.3413 84.3086 25.1718L89.7328 24.6633V23.1801C89.7328 22.0147 89.4786 21.1672 88.9701 20.6587C88.4615 20.1502 87.7623 19.8959 86.8936 19.8959H80.0921V17.6075H86.7241C88.6734 17.6075 90.0931 18.0525 90.983 18.9636C91.8941 19.8535 92.339 21.2731 92.339 23.1801ZM81.7025 30.2146C81.7025 32.3335 82.5712 33.3929 84.3298 33.3929C85.8978 33.3929 87.4445 33.1386 88.9489 32.6089L89.7328 32.3335V26.6338L84.6264 27.1211C83.5882 27.2059 82.8466 27.5025 82.3805 28.0111C81.9143 28.5196 81.7025 29.2612 81.7025 30.2146Z" fill="#BBC0C4"/><path d="M102.446 19.9171C99.9456 19.9171 98.6743 20.7859 98.6743 22.5445C98.6743 23.3497 98.971 23.9217 99.5431 24.2608C100.115 24.5998 101.429 24.9388 103.484 25.299C105.539 25.6592 106.98 26.1465 107.828 26.8034C108.675 27.439 109.099 28.6467 109.099 30.4266C109.099 32.2064 108.527 33.4989 107.383 34.3252C106.239 35.1516 104.586 35.5753 102.382 35.5753C100.963 35.5753 96.1953 35.0456 96.1953 35.0456L96.3436 32.7997C99.0769 33.0539 101.069 33.2658 102.403 33.2658C103.738 33.2658 104.755 33.0539 105.455 32.6302C106.154 32.2064 106.514 31.486 106.514 30.4901C106.514 29.4943 106.217 28.8163 105.624 28.4561C105.031 28.0959 103.717 27.7568 101.683 27.439C99.649 27.1212 98.2082 26.655 97.3607 26.0194C96.5131 25.4049 96.0894 24.2396 96.0894 22.5657C96.0894 20.8918 96.6826 19.6417 97.8692 18.8365C99.0557 18.0314 100.539 17.6288 102.298 17.6288C103.696 17.6288 108.569 17.989 108.569 17.989V20.2561C106.006 20.1078 103.908 19.9171 102.446 19.9171Z" fill="#BBC0C4"/><path d="M121.6 20.2137H116.112V28.4772C116.112 30.4477 116.26 31.7614 116.536 32.3759C116.832 32.9903 117.51 33.3082 118.591 33.3082L121.663 33.0963L121.833 35.2363C120.286 35.4906 119.121 35.6177 118.316 35.6177C116.515 35.6177 115.286 35.1727 114.586 34.304C113.887 33.4353 113.548 31.7614 113.548 29.3035V20.2137H111.09V17.9678H113.548V12.6707H116.112V17.9466H121.6V20.2137Z" fill="#BBC0C4"/><path d="M125.202 14.0479V11.0603H127.787V14.0691L125.202 14.0479ZM125.202 35.2363V17.9677H127.787V35.2363H125.202Z" fill="#BBC0C4"/><path d="M139.017 17.6075C139.78 17.6075 141.072 17.7559 142.895 18.0313L143.721 18.1373L143.615 20.2349C141.772 20.023 140.415 19.9171 139.547 19.9171C137.597 19.9171 136.263 20.3832 135.563 21.3155C134.864 22.2478 134.504 23.9853 134.504 26.5067C134.504 29.0281 134.822 30.7867 135.479 31.7826C136.135 32.7784 137.491 33.2658 139.568 33.2658L143.636 32.9479L143.742 35.088C141.602 35.4058 139.992 35.5753 138.932 35.5753C136.241 35.5753 134.377 34.8761 133.36 33.4988C132.343 32.1216 131.813 29.7909 131.813 26.5067C131.813 23.2225 132.364 20.9129 133.466 19.5993C134.589 18.2856 136.432 17.6075 139.017 17.6075Z" fill="#BBC0C4"/></svg>