<svg viewBox="0 0 184 70" xmlns="http://www.w3.org/2000/svg"><g fill="#bbc0c4"><path d="m2.89 11.68c0-.46-1.25-1.64-1.64-1.64h-1.07v-1.04h6.23l6.43 16.13h.16l6.73-16.13h5.57v1h-1c-.39 0-1.64 1.18-1.64 1.64v16.11c0 .46 1.25 1.64 1.64 1.64h1v1.06h-8.24v-1.06h1.05c.39 0 1.64-1.18 1.64-1.64v-15.61l-7.81 18.62-7.76-19v15.92c0 .46 1.25 1.64 1.64 1.64h1v1.05h-6.64v-1.05h1c.39 0 1.64-1.18 1.64-1.64z"/><path d="m34.31 21.25c.39-2.16 0-4.06-2.37-4.06-2.75 0-4.13 2.23-4.13 5.44s2 5.64 5.12 5.64a4.35 4.35 0 0 0 4.39-2.49h.86c-.92 3-2.76 4.92-6.24 4.92-3.86 0-6.36-3.25-6.36-7.25 0-4.46 3-7.41 6.63-7.41a6.31 6.31 0 0 1 4.92 2l-2 3.15z"/><path d="m62.31 13.25a1.74 1.74 0 0 0 1.77-1.71v-.09a1.68 1.68 0 0 0 -1.59-1.77h-.18a1.81 1.81 0 0 0 -.31 3.61 1.22 1.22 0 0 0 .27 0z"/><path d="m82 29.32c-.39 0-1.51-1-1.51-1.44v-7.74a3.78 3.78 0 0 0 -3.6-3.94h-.27c-2.49 0-3.8 1.45-5.44 3.15l-.53-2.9h-4.4v1h.85c.39 0 1.51 1.05 1.51 1.45v8.85c0 .46-1.12 1.44-1.51 1.44h-1.7c-.4 0-1.51-1-1.51-1.44v-11.3h-5v1h.85c.4 0 1.51 1.05 1.51 1.45v8.85c0 .46-1.11 1.44-1.51 1.44h-1.56a8 8 0 0 1 -2.56-1.74l-7.44-9.87 5.18-5.58a10.21 10.21 0 0 1 2.75-2h1v-1h-7.74v1h1.05c.39 0 1.64 1.44 1.31 1.83l-7.65 8.58v-8.73c0-.46 1.24-1.64 1.64-1.64h1v-1.04h-8.28v1h1c.39 0 1.64 1.18 1.64 1.64v16.11c0 .46-1.25 1.64-1.64 1.64h-1v1.06h8.33v-1.06h-1c-.4 0-1.64-1.18-1.64-1.64v-5.64l2.16-2.37 7.36 10.71h19.88v-1.06h-.79c-.39 0-1.51-1-1.51-1.45v-7.15c0-.91 2.56-2.88 4.53-2.88a2.13 2.13 0 0 1 2.24 2v.35 7.61c0 .46-1.12 1.44-1.51 1.44h-.79v1.05h7.09v-1.04z"/><path d="m84.55 25.52c0 1.31 1.9 4.06 4.85 4.06 1.71 0 2.69-.59 2.69-1.9 0-1.57-1.38-2.1-2.62-2.62-1-.4-1.77-.72-2.89-1.25-1.7-.79-3-1.9-3-3.8 0-2.5 1.51-3.94 4.2-3.94 1.51 0 2.36.72 3.41.72.39 0 .65-.06.78-.39h.79v4.26h-.85a4.46 4.46 0 0 0 -4.2-3.6c-1.64 0-2.36.72-2.36 1.83s.85 1.64 2.23 2.23c1 .46 1.84.79 3 1.25 1.51.59 3.21 1.77 3.21 4 0 2.62-1.84 4.2-4.46 4.2-1.77 0-2.82-.86-4-.86a1.15 1.15 0 0 0 -1 .46h-.66v-4.85h.86z"/><path d="m94.71 23.45c0-4.13 2.82-7.35 6.37-7.28a4.83 4.83 0 0 1 5 4.64v.19l.06 1-9.25.73c0 2.82 2 5.57 5 5.57a4.31 4.31 0 0 0 4.33-2.49h.91c-.92 3-2.63 4.92-6 4.92-3.86-.03-6.42-3.38-6.42-7.28zm9.12-2.23c.26-2-.07-3.94-2.82-3.94s-4 2.36-4.13 4.53z"/><path d="m108.62 19.09a4.49 4.49 0 0 0 -1.77-1.58h-.59v-1.06h7.34v1h-.85c-.39 0-1.25 1-1.25 1.51l3.22 7.49 3.15-7.45a2.11 2.11 0 0 0 -1.18-1.51h-.86v-1.04h5.58v1h-.66c-.33 0-1.31 1.05-1.64 1.51l-4.72 10.69-3.48 7.68-1.24-.59 3.67-7.61z"/><path d="m41.52 41.45a4.19 4.19 0 0 0 3 3.81c2.75 3 6.1 6.1 9 8.72a8.09 8.09 0 0 0 1.12-4.53c0-2-1.31-3.15-3.41-3.22v-1h7.61v1h-.84a4.47 4.47 0 0 0 -1.9 2.3 11.14 11.14 0 0 1 -1.83 6 51.63 51.63 0 0 0 4.3 3.47h1.32v1h-2.37a7.21 7.21 0 0 1 -5.34-2.13 9.45 9.45 0 0 1 -7 2.58 6.53 6.53 0 0 1 -6.75-6.3 7.84 7.84 0 0 1 3.41-6.49 6.59 6.59 0 0 1 -1.66-4.48c0-3.09 2-4.79 5.12-4.79 2 0 3 .65 3.93.65.46 0 .79 0 1-.39h.92v5h-1c0-1.44-2.1-4.33-5-4.33-2.25.05-3.63 1.13-3.63 3.13zm-.92 10.24c0 3.08 3.28 6 6.3 6a7.55 7.55 0 0 0 4.66-1.44 108.23 108.23 0 0 1 -9.25-9 5.83 5.83 0 0 0 -1.71 4.44z"/><path d="m81.79 45.19c0-2.23-2.49-6.69-6.49-6.69-3.67 0-5.9 2-6.3 6.89a38 38 0 0 0 .07 5.44 7.09 7.09 0 0 0 7.28 6.82c3.67 0 5.51-1.57 6.89-4.39h1.11a8.73 8.73 0 0 1 -8.66 6.1c-6.16 0-10.1-5-10.1-11.15s3.61-11 9.58-11c2.29 0 3.74.92 5.38.92a1.49 1.49 0 0 0 1.31-.59h.79v7.61h-.86z"/><path d="m85.79 52.08c0-4.53 3.22-7.35 6.89-7.35s6.89 2.82 6.89 7.35-3.22 7.37-6.89 7.37a7 7 0 0 1 -6.9-7.1 2.44 2.44 0 0 1 .01-.27zm11 2.3a18.72 18.72 0 0 0 0-4.73c-.26-2.23-1.51-3.74-4.06-3.74s-3.73 1.51-4.07 3.68a18.64 18.64 0 0 0 0 4.72c.33 2.16 1.51 3.74 4.07 3.74a3.78 3.78 0 0 0 4.08-3.67z"/><path d="m122.18 56.45c0 .46 1 1.45 1.44 1.45h.66v1h-7v-1h.78c.4 0 1.45-1 1.45-1.45v-7.65a2 2 0 0 0 -1.67-2.29 2.08 2.08 0 0 0 -.5 0c-1.83 0-4.06 1.78-4.06 2.69v7.26a2.31 2.31 0 0 0 1.44 1.45h.79v1h-7.09v-1h.76c.39 0 1.44-1 1.44-1.45v-7.66a2.08 2.08 0 0 0 -2.23-2.3c-1.84 0-4.07 1.84-4.07 2.82v7.22c0 .46 1.05 1.44 1.45 1.44h.78v1h-7.08v-.98h.79c.39 0 1.44-1 1.44-1.44v-8.94c0-.46-1-1.44-1.44-1.44h-.79v-1h4.26l.59 2.69c1.58-1.71 2.63-3 5.06-3a3.41 3.41 0 0 1 3.67 3c1.7-1.71 2.82-2.89 5.11-2.89a3.68 3.68 0 0 1 3.84 3.56 2.41 2.41 0 0 1 0 .38v7.53z"/><path d="m128.36 45.13.46 2.82a5.27 5.27 0 0 1 5.05-3.22c3.41 0 5.44 2.82 5.44 7.09s-2.36 7.47-5.7 7.47a4.71 4.71 0 0 1 -4.72-2.75v6.62c0 .46 1.11 1.45 1.44 1.45h.92v1h-7.35v-1h.92c.39 0 1.44-1 1.44-1.45v-15.54c0-.46-1.05-1.44-1.44-1.44h-.92v-1zm.46 5v3.72a4 4 0 0 0 4 4c2.36 0 3.48-1.51 3.8-3.67a14.29 14.29 0 0 0 0-4.13c-.26-2.23-1.5-3.61-3.47-3.61-2.36-.07-3.67 1.57-4.33 3.74z"/><path d="m169.48 58c-.39 0-1.5-1-1.5-1.44v-7.76a3.78 3.78 0 0 0 -3.62-3.94h-.25c-2.5 0-3.81 1.45-5.45 3.15l-.48-2.82h-4.4v1h.86c.39 0 1.5 1.05 1.5 1.45v8.81c0 .46-1.11 1.45-1.5 1.45h-1.71c-.39 0-1.51-1-1.51-1.45v-7.52c0-2.75-2.23-4.13-5.18-4.13a7.12 7.12 0 0 0 -5.57 2.2l1.83 2.82h1c-1.05-2.36-.27-3.93 2.09-3.93s3.28 1.11 3.28 3.08v1.71l-3.6.72c-2 .39-4.53 1.38-4.53 4.13a3.63 3.63 0 0 0 3.45 3.8h.09c2 0 3.54-1.64 4.66-3.08l.33 2.82h11.8v-1.07h-.78c-.4 0-1.51-1-1.51-1.44v-7.2c0-.92 2.56-2.89 4.52-2.89a2.14 2.14 0 0 1 2.24 2v.34 7.58c0 .46-1.11 1.45-1.5 1.45h-.85v1h7.08v-1h-.79zm-20.66-3c-.59 1-2 2.42-3.41 2.42a2.18 2.18 0 0 1 -2.23-2.13v-.11c0-1.38.59-2.29 2.3-2.75l3.34-.86z"/><path d="m171.18 47.75a4.39 4.39 0 0 0 -1.77-1.57h-.59v-1h7.36v1h-.85c-.39 0-1.24 1-1.24 1.51l3.21 7.41 3.15-7.41a2 2 0 0 0 -1.18-1.51h-.86v-1h5.59v1h-.66c-.32 0-1.31 1-1.64 1.51l-4.7 10.69-3.47 7.67-1.26-.6 3.67-7.61z"/></g></svg>