<svg width="211" height="39" fill="none" xmlns="http://www.w3.org/2000/svg"><path d="M0 0h15.47c2.95 0 5.16.74 6.8 1.97a7.73 7.73 0 0 1 2.78 6.22c0 3.03-1.23 4.92-3.69 6.07v.16c3.28 1.07 5.16 4.01 5.16 7.54 0 3.36-1.31 5.98-3.44 7.62-1.8 1.3-4.1 1.88-7.2 1.88H0V0zm13.91 12.29c1.64 0 2.87-.9 2.87-2.79 0-1.8-1.23-2.7-2.95-2.7H8.51v5.4h5.4v.09zm.74 12.2c1.88 0 3.27-1.14 3.27-3.19 0-2.21-1.47-3.2-3.27-3.2H8.59v6.48h6.06v-.08zM27.91 0h8.1v31.54h-8.1V0zM37.65 20.32c0-7.13 4.58-11.88 11.7-11.88 7.12 0 11.63 4.83 11.63 11.88 0 7.13-4.5 11.88-11.63 11.88-7.12 0-11.7-4.75-11.7-11.88zm15.22 0c0-3.93-1.22-6.4-3.68-6.4s-3.6 2.47-3.6 6.4 1.14 6.47 3.6 6.47c2.46-.08 3.68-2.54 3.68-6.47zM61.88 20.32c0-7.13 4.58-11.88 11.7-11.88 7.12 0 11.54 4.75 11.54 11.88 0 7.13-4.5 11.88-11.62 11.88-7.04 0-11.62-4.75-11.62-11.88zm15.22 0c0-3.93-1.23-6.4-3.68-6.4-2.46 0-3.6 2.47-3.6 6.4s1.14 6.47 3.6 6.47c2.45-.08 3.68-2.54 3.68-6.47zM86.76 9.01h7.53v3.36h.16c1.47-2.62 3.52-4.01 6.8-4.01 2.86 0 4.99 1.39 6.05 3.85h.16c1.8-2.95 4.18-3.85 6.96-3.85 5.24 0 7.45 3.85 7.45 9.01v14.1H114v-12.7c0-2.3-.73-3.78-2.7-3.78-1.96 0-2.95 1.8-2.95 4.26v12.21h-7.85v-12.7c0-2.3-.74-3.77-2.7-3.77-1.97 0-2.95 1.8-2.95 4.26v12.21h-8.1V9.01zM131.77 28.51h-.08v2.95h-7.53V0h7.86v11.3h.16c1.47-1.96 3.52-3.02 6.39-3.02 5.64 0 8.92 5.08 8.92 11.88 0 7.62-3.52 12.04-9.42 12.04-2.45 0-4.99-1.15-6.3-3.69zm7.61-8.44c0-3.6-1.3-5.98-3.68-5.98-2.45 0-3.93 2.38-3.93 5.98 0 3.6 1.56 5.98 3.93 5.98 2.38 0 3.68-2.29 3.68-5.98zM148.39 20.24c0-7.05 4.66-11.88 11.37-11.88 3.36 0 5.9 1.06 7.86 2.95 2.62 2.54 3.77 6.47 3.69 11.06h-15.06c.32 2.78 1.63 4.26 4 4.26 1.4 0 2.62-.66 3.12-2.13h7.6c-1.3 5.16-5.31 7.7-10.96 7.7-6.96-.08-11.62-4.83-11.62-11.96zm7.86-2.38h7.2c-.17-2.7-1.64-4.1-3.52-4.1-2.21-.08-3.44 1.48-3.69 4.1zM180.23 12.86h.16c1.64-3.11 3.76-4.34 6.47-4.34.65 0 1.06.08 1.3.25v6.88H188c-4.66-.82-7.37 1.4-7.37 6.47v9.42h-7.93V9.01h7.53v3.85zM188.98 31.54h7.62c.32.99 1.3 1.89 3.19 1.89 2.53 0 3.44-1.56 3.44-3.93v-1.64h-.17a6.72 6.72 0 0 1-5.4 2.54c-4.83 0-9.09-3.6-9.09-10.65 0-6.48 3.44-11.47 8.68-11.47 3.03 0 4.83 1.22 6.06 3.1h.16V8.94H211v19.5c0 3.6-1.23 6.4-3.11 8.03-1.96 1.72-4.75 2.46-7.94 2.46-6.06.08-10.23-2.38-10.97-7.38zm14.57-12.12c0-2.79-1.3-5.08-3.6-5.08-2.2 0-3.6 1.96-3.6 5.08 0 3.03 1.4 5.16 3.6 5.16 2.21 0 3.6-2.21 3.6-5.16z" fill="#BBC0C4"/></svg>