<svg viewBox="0 0 174 70" xmlns="http://www.w3.org/2000/svg"><g fill="#bbc0c4"><path d="m88.61 37c.07-6.51-2-12.09-7.26-16.2-4.77-3.72-10.3-4.7-16.18-4a17.91 17.91 0 0 0 -11.56 5.58c-.13.15-.26.32-.52.15 0-6.46 0-12.93 0-19.41 0-1.28-.37-1.55-1.55-1.49-1.86.1-3.73.09-5.59 0-1.07-.05-1.44.2-1.43 1.37.05 9.3.17 46.51-.22 51.19-.08.91.16 1.18 1.09 1.15 2.06-.07 4.13-.08 6.19 0 .93 0 1.19-.32 1.2-1.17 0-1.2.13-2.4.19-3.59a.57.57 0 0 1 .57.29c6.15 6.75 18.87 7.82 26.74 2.42a19.62 19.62 0 0 0 7.45-10 3.79 3.79 0 0 0 .65-3.45 11.3 11.3 0 0 0 .23-2.84zm-9 .62c-.25 4.07-1.49 7.73-4.78 10.35-4.17 3.31-8.89 3.76-13.74 1.89s-7.1-5.7-7.83-10.58a15.47 15.47 0 0 1 2.32-11.38c3.26-4.74 8-6.14 13.43-5.24s9.13 4.68 10.28 10.14a17.72 17.72 0 0 1 .37 4.82z"/><path d="m127.41 25.93a19.1 19.1 0 0 0 -1.92-3.7 22.26 22.26 0 0 0 -1.67-3.35c-.31-.6-.41-.94.49-.93 2.75 0 5.51.05 8.26 0 .82 0 1 .51 1.27 1q6.53 13.08 13.07 26.14l.85 1.67c.52-.25.61-.76.81-1.16q6.6-13.23 13.18-26.49a1.78 1.78 0 0 1 1.92-1.21c2.14.09 4.29.06 6.44 0 1 0 1.29.1.74 1.15-3.29 6.35-6.52 12.74-9.77 19.11q-7.7 15.13-15.38 30.27a1.73 1.73 0 0 1 -1.85 1.12c-2.31-.08-4.62 0-6.93 0-1.34 0-1.35 0-.74-1.16l6.51-12.33a1.35 1.35 0 0 0 .13-1.46q-7.35-13.74-14.65-27.5c-.48-.24-.42-.83-.76-1.17z"/><path d="m128.14 41.23c-.06-3.09.08-6.19 0-9.28a28.88 28.88 0 0 0 -.42-5.5c-.6-2.86-2.82-5.25-5.22-6.8a17.74 17.74 0 0 0 -5.63-2.3 36.24 36.24 0 0 0 -11.47-.58 21.82 21.82 0 0 0 -9 2.54 10.77 10.77 0 0 0 -5.7 7.86c-.12.68.06.87.71.86q3.7 0 7.41 0a.71.71 0 0 0 .83-.65 6.15 6.15 0 0 1 4.44-4.4 16.36 16.36 0 0 1 9-.3c4.36 1 6.48 3.66 6.61 8.06 0 .92-.24 1.18-1.15 1.17-3.6 0-7.21 0-10.81.08a40.56 40.56 0 0 0 -10.74 1.45 16.85 16.85 0 0 0 -4.73 2.15 11.12 11.12 0 0 0 -1.91 1.59 23.48 23.48 0 0 0 -1.76 2.51 1.4 1.4 0 0 0 -.16.26 1.47 1.47 0 0 0 -.08.28c-.21 1-.45 2-.61 3-.37 6 2.51 9.91 8 12.09a23.62 23.62 0 0 0 9.79 1.37c5.55-.2 10.51-1.77 14.24-6.18.1-.12.22-.24.38-.11.1 1.38.21 2.75.27 4.12 0 .56.2.79.79.78q3.27 0 6.56 0c.55 0 .68-.22.63-.73-.41-4.44-.18-8.89-.27-13.34zm-20.14 9.89a15.06 15.06 0 0 1 -6.82-.74 6.39 6.39 0 0 1 -4.34-7 5.08 5.08 0 0 1 3.09-4.05 17.41 17.41 0 0 1 6.35-1.46c2.1-.17 4.21-.22 5.87-.29 2.43 0 4.41.05 6.39 0 .9 0 1.18.18 1.17 1.12-.19 7.21-4.49 11.84-11.71 12.42z"/><path d="m11.82 38.76h32.7a37.38 37.38 0 0 0 -.19-6.52c-1.3-7.7-5.6-12.78-13.21-14.79a29.91 29.91 0 0 0 -16.12.28 16.89 16.89 0 0 0 -12.42 12.84 26.09 26.09 0 0 0 -.58 9.64c.83 6.53 3.89 11.64 10.08 14.24a28.89 28.89 0 0 0 23.38-.17 13 13 0 0 0 7.76-8.79c.21-.73.09-1-.74-1q-3.46.06-6.93 0a1.17 1.17 0 0 0 -1.26.84 8.6 8.6 0 0 1 -4.36 4.37 15 15 0 0 1 -5.64 1.3c-7.16.45-12.43-3.75-13.66-10.82-.19-1.13-.01-1.43 1.19-1.42zm-1-6.73c1.2-5.84 5.23-9.38 11.23-9.75a15.09 15.09 0 0 1 8 1.41c3.44 1.76 5.08 4.69 5.5 8.44.11.94-.28 1-1.06 1-3.81 0-7.61 0-11.42 0s-7.53 0-11.29 0c-.9.06-1.14-.13-.94-1.13z"/></g></svg>