<svg enable-background="new 0 0 145.7 59.8" viewBox="0 0 145.7 59.8" xmlns="http://www.w3.org/2000/svg"><g clip-rule="evenodd" fill="#bbc0c4" fill-rule="evenodd"><path d="m135.3 27.8h-5.7v-22.6h5.4v2.5c.9-1.7 2.6-2.9 4.5-3 3.7-.2 6.2 2 6.2 6.7v16.3h-5.9v-17c0-2 0-3.7-1.4-4-.7-.1-1.4 0-2 .5-.9 1-1.3 2.2-1.2 3.5z"/><path d="m38 6.8c-1.4-1.3-3.1-2-5-2s-3.7.8-5 2c-2.4 2-3.9 5.7-3.9 9.8 0 4.2 1.5 7.7 3.9 9.8 1.4 1.2 3.2 2 5 2 1.9 0 3.6-.7 5-2 2.5-2 3.9-5.5 3.9-9.8 0-4.1-1.3-7.8-3.9-9.8zm-2.2 9.7c0 4.2 0 7.6-.7 9.2-.4.9-1.2 1.4-2.2 1.3-.9 0-1.7-.5-2-1.3-.8-1.7-.8-5-.8-9.2 0-4 0-7.6.8-9.3.3-.8 1.1-1.4 2-1.3.9-.1 1.8.5 2.2 1.3.9 1.7.7 5.3.7 9.3z"/><path d="m96.8 36.4v6h-1.2c-.7-2.5-1.7-4.7-4.4-4.9-1.6-.3-3.1.8-3.4 2.4-.2 1.5.3 2.9 3.4 4.5 3.9 2.2 6.9 3.2 6.9 7.7 0 4.9-4.2 7.2-7.7 7.2h-6.7v-8.3h1.2c.8 4.4 2.2 7.1 5.4 7.2 1.8.2 3.4-1.1 3.5-2.9 0-.2 0-.3 0-.5 0-2.2-1.3-3.5-4.6-5.4-3.5-2.2-5.7-3.5-5.7-6.6 0-4 2.9-6.6 7.4-6.6h5.9z"/><path d="m104.2 27.8v-16.3c0-4.7-2.5-6.9-6.2-6.7-2 .1-3.8 1.4-4.7 3.2-.8-2.4-2.7-3.4-5.4-3.2-1.9.1-3.7 1.3-4.6 3v-2.6h-5.2v22.6h5.7v-17c0-1.7.2-2.7 1.2-3.5.5-.5 1.2-.6 1.8-.5 1.3.3 1.3 2 1.3 4v17h5.7v-17.2c-.1-1.2.3-2.5 1.2-3.4.5-.5 1.2-.6 1.9-.5 1.3.3 1.5 2 1.5 4v17z"/><path d="m45.8.5h5.9v27.3h-5.9z"/><path d="m72.5 27.8v-27.3h-5.9v6.4c-.6-1.3-1.9-2.1-3.4-2-4.2 0-7.6 4.4-7.7 11.1-.2 4.5 1.3 12.1 7.2 12.1 1.8.1 3.4-.9 4.2-2.5v2.2zm-6.9-20.7c1.2 1.7 1.2 5.7 1.2 8.9 0 3.4.2 7.7-1.2 9.6-.4.6-1.1 1-1.9 1-1.2 0-1.8-1.3-2.2-3.5-.2-2-.2-4.5-.2-7.2 0-4.5.3-9.6 2.5-9.6.8-.1 1.4.3 1.8.8z"/><path d="m121.7 5.9c1.5.8 2.5 2.2 2.5 5.2v16.7h-5.6v-2.5c-.7 1.8-2.5 3-5.1 3-2 0-5.6-1-5.6-6.2 0-4.9 3.2-5.9 6.7-7.4 3.2-1.3 3.5-1.5 3.5-2.9v-3.7c0-1.5-.8-2.2-2.5-2.2-.7.2-1.9.5-1.9 1.3-.2 1 1 1 1.2 2.5.2 2.3-1.7 3.2-3.4 3-1.4.1-2.6-1.1-2.7-2.5-.2-3 3.2-5.5 7.9-5.5 1.9-.1 3.5.4 5 1.2zm-3.4 8.4-1.9 1.2c-1.9 1.2-2.2 2.7-2.4 4.4-.2 1.5-.2 3 0 4.5.2 1.8 1.4 2.2 2.4 1.8 1.2-.5 1.9-2.7 1.9-5z"/><path d="m38.4 37.4c1.5 1 2.4 2.2 2.4 5.2v16.8h-5.4v-2.5c-.7 1.7-2.5 2.9-5 2.9-2.2 0-5.6-.8-5.6-6.1 0-4.9 3.2-5.9 6.6-7.4s3.7-1.7 3.7-2.9v-3.7c0-1.7-.8-2.3-2.5-2.2-.7 0-1.8.3-1.8 1.2-.2 1.2 1 1.2 1.2 2.7.2 2.2-1.7 3-3.4 3-1.4-.1-2.6-1.2-2.7-2.7-.2-2.9 3.2-5.4 7.9-5.4 1.5-.1 3.2.3 4.6 1.1zm-3.4 8.4-1.8 1.2c-1.5.9-2.4 2.6-2.4 4.4-.2 1.5-.2 3 0 4.6 0 2 1.2 2.3 2.2 1.8 1.3-.5 2-2.5 2-5z"/><path d="m79.1 43.1c0-4.7-2.5-7.1-6.2-6.7-1.7.1-3.2.9-4.2 2.2v-6.6h-5.7v15.5c0 5.7-4 11.1-8.1 10.9-2.9 0-3.5-2.2-3.9-4.5-.5-3.8-.5-7.6-.2-11.4.3-2.7 1-4.9 3-4.9 1.5 0 1.7 1 1 1.7-.7.8-1.7 1.7-1.2 3.5.5 2 3.7 2.4 5.2.8 1.1-1.4 1.1-3.4.2-4.9-1-1.7-2.7-2.3-5.2-2.3-3.2 0-9.3 2.9-9.3 11.9 0 9.8 6.2 11.4 9.8 11.4 4 0 7.6-3.5 8.6-6.4v6.1h5.8v-17c-.1-1.3.3-2.6 1.2-3.5.6-.5 1.3-.6 2-.5 1.3.3 1.3 2 1.3 4v17h5.9z"/><path d="m20.2 0v9.6h-1.2c-1-4.7-3.2-8.2-6.2-8.4-2-.2-3.2 1-4.2 2.7-1 2-1.5 6.2-1.5 11.3-.1 3.6.1 7.2.6 10.8.3 1.2 1.2 3 3.4 3 1 .1 1.9-.3 2.5-1 .8-1 1-3 1-4.4v-4.6c0-1.7-.5-2.7-1.3-3.2-.7-.2-1.4-.4-2.2-.5v-1.2h9.4v24.1h-1.2c-.4-1.6-.9-3.2-1.7-4.7-.9-1.9-2.8-3.1-4.9-3.2-2.7-.2-4.7 1.5-4.7 4 0 3.4 2 4.2 5.7 6.2 3.5 2 8.1 3.7 8.1 9.6s-4.9 9.3-10.4 9.3h-8.9v-11.6h1.2c1.5 8.8 5.2 10.3 7.7 10.3 3.2 0 4.7-2 4.7-4.9-.2-3.7-2.7-5-6.2-6.9-5-2.9-7.4-4.2-7.4-8.9.2-4 3.4-6.6 6.9-7.6-7.4-.8-9.6-7.6-9.4-14.8 0-7.2 4.2-15 12.5-15z"/></g></svg>