<svg width="121" height="56" fill="none" xmlns="http://www.w3.org/2000/svg"><path d="M72.6 24.4h-3a10 10 0 0 1 0-3.7H77v24a11.1 11.1 0 0 1-2.3.2 15 15 0 0 1-2.2-.2V24.4zm26.2 6a9 9 0 0 0-.4-2.5c-.2-.8-.5-1.5-1-2a5 5 0 0 0-4.2-2c-1.9 0-3.3.5-4.3 1.7a8.5 8.5 0 0 0-1.9 4.8h11.8zM87 33.9c0 2.6.7 4.5 2 5.7 1.3 1.3 3.2 1.9 5.7 1.9a17 17 0 0 0 6.3-1.2l.6 1.7.2 2c-1 .4-2.1.8-3.3 1-1.2.2-2.6.3-4 .3-2.3 0-4.1-.3-5.7-.9a10 10 0 0 1-6-6.5 17.9 17.9 0 0 1 0-10 10 10 0 0 1 5.6-6.8c1.4-.6 3-1 5-1 1.6 0 3 .3 4.3.9 1.2.5 2.2 1.3 3 2.3.9 1 1.5 2.2 2 3.5a14.5 14.5 0 0 1 .6 5.8l-.1 1.3H87zm21.4-13.2a13 13 0 0 1 3-.1l.9.1a26.3 26.3 0 0 1 .4 3.8c.6-1 1.5-2 2.6-2.8 1-.8 2.4-1.1 4-1.1a12.9 12.9 0 0 1 1.5 0 7.7 7.7 0 0 1 .2 2 10.4 10.4 0 0 1-.2 2.3l-.8-.1h-.6a8 8 0 0 0-2.4.3 5 5 0 0 0-2 1.3c-.7.6-1.1 1.4-1.5 2.4-.3 1-.5 2.4-.5 4v12a11.2 11.2 0 0 1-2.3.1 15.4 15.4 0 0 1-2.3-.2v-24zM75.8 7.9c0 .5 0 1-.3 1.6a4.6 4.6 0 0 1-3.3 0L72 7.9c0-.6 0-1.2.3-1.7a4.6 4.6 0 0 1 3.3 0l.2 1.6zm5.7-1.3H77l3.2-3.3a7.8 7.8 0 0 0-1.8-1.8l-3.2 3.2V.2L73.9 0h-1.3v4.6l-3.2-3.2-1 .8-.8 1 3.2 3.3h-4.5l-.1 1.2.1 1.3h4.5l-3.2 3.3c.5.7 1.1 1.3 1.8 1.8l3.2-3.2v4.5l1.3.1h1.3V11l3.2 3.2 1-.8.8-1L77 9h4.5V8 6.5zM0 44l12.5-19.7h-11a11.6 11.6 0 0 1 0-3.7h17.8l.3.6L7 41h11.8a13 13 0 0 1 0 3.7H.2l-.2-.6zm36.1-10.7a42.1 42.1 0 0 0-3.5-.2c-2 0-3.4.3-4.4 1-1 .8-1.5 1.9-1.5 3.3 0 1 .1 1.7.5 2.2.3.6.8 1 1.3 1.3.5.2 1 .4 1.7.5a17.6 17.6 0 0 0 6-.4v-7.7zm0-4.5c0-1.8-.4-3.1-1.3-3.8-1-.8-2.3-1.1-4-1.1a17 17 0 0 0-5.9 1c-.6-1.1-.9-2.3-.9-3.8a21.2 21.2 0 0 1 7.2-1c3 0 5.4.6 7 2 1.6 1.5 2.4 3.8 2.4 6.9v15a72.7 72.7 0 0 1-8.6 1.2c-1.5 0-3-.1-4.1-.4a8.3 8.3 0 0 1-3.1-1.4 6.3 6.3 0 0 1-2-2.4 8 8 0 0 1-.7-3.5c0-1.3.3-2.5.8-3.5s1.3-1.9 2.2-2.5c1-.7 2-1.2 3.2-1.5 1.2-.4 2.5-.5 3.8-.5a34.1 34.1 0 0 1 4 .2v-.9zm14.1 12a9 9 0 0 0 1.9.4l2.4.1c1 0 2.1-.2 3-.5a6 6 0 0 0 2.4-1.7c.7-.7 1.2-1.7 1.6-2.8.4-1.2.6-2.5.6-4 0-2.6-.5-4.6-1.4-6-1-1.5-2.4-2.2-4.5-2.2a6 6 0 0 0-2.2.4c-.7.3-1.3.7-1.9 1.3-.6.5-1 1.2-1.3 2-.4 1-.6 2-.6 3.2v9.7zm-4.5-20.2a9.6 9.6 0 0 1 3.8 0l.2.6A70.4 70.4 0 0 1 50 24l1.1-1.5a7.5 7.5 0 0 1 3.6-2.1 10.5 10.5 0 0 1 6.4.4c1.2.4 2.2 1.1 3 2.1 1 1 1.6 2.3 2 3.8.6 1.5.8 3.3.8 5.3 0 4.2-1.1 7.4-3.3 9.7-2.2 2.3-5.4 3.5-9.4 3.5a16 16 0 0 1-4-.5v11a13.3 13.3 0 0 1-4.5 0V20.7z" fill="#BBC0C4"/></svg>