<svg fill="none" height="60" width="60" xmlns="http://www.w3.org/2000/svg" xmlns:xlink="http://www.w3.org/1999/xlink"><linearGradient id="a"><stop offset="0" stop-color="#ffb935"/><stop offset="1" stop-color="#ffd943"/></linearGradient><linearGradient id="b" gradientUnits="userSpaceOnUse" x1="7.966" x2="26.936" xlink:href="#a" y1="11.479" y2="11.479"/><linearGradient id="c" gradientUnits="userSpaceOnUse" x1="38.992" x2="59.026" xlink:href="#a" y1="18.004" y2="18.004"/><linearGradient id="d" gradientUnits="userSpaceOnUse" x1="12.05" x2="23.978" xlink:href="#a" y1="27.003" y2="27.003"/><path d="M17.47 3C12.208 3 8 7.336 8 12.616v5.781c0 2.137 19 2.137 19 0v-5.781C26.938 7.274 22.668 3 17.47 3zm-5.818 11.5l.061-1.885c0-3.205 2.538-5.781 5.694-5.781 3.157 0 5.694 2.576 5.694 5.781v1.886c-2.414.691-9.098.754-11.45 0z" fill="url(#b)"/><path d="M52.034 12.016a1.008 1.008 0 0 1-1.008-1.008c0-.557-.451-1.008-1.008-1.008H41a2 2 0 0 0-2 2v9.984a2 2 0 0 0 2 2h9.018c.557 0 1.008.451 1.008 1.008 0 .557.451 1.008 1.008 1.008H57a2 2 0 0 0 2-2v-9.984a2 2 0 0 0-2-2z" fill="url(#c)"/><path d="M49 10v11.797M38 6a2 2 0 1 0 0-4 2 2 0 0 0 0 4zm11 4V8H38v14.04h11V24h8V10.024zM38 6v53m.395-31.453l-4.148 4.173M26.46 17.726c2.49 0 4.595 2.44 6.446 4.301l8.232 8.345a2.957 2.957 0 0 1 0 4.172 2.915 2.915 0 0 1-4.148 0L26.255 24.009H7.147m3.616-10.198v-1.99c0-3.274 2.617-5.905 5.871-5.905 3.255 0 5.871 2.631 5.871 5.905v1.99M1 36.405h5.87m0-18.679c-3.254 0-5.87 2.632-5.87 5.906v15.726c0 1.605 1.47 2.933 3.066 2.933S7 40.943 7 39.338m-.13-21.612v-5.905C6.87 6.429 11.274 2 16.634 2c5.424 0 9.764 4.429 9.764 9.82v5.906c0 2.183-19.527 2.183-19.527 0zM19.015 59V39.358h-4.018V59m8.465-45.574c0 1.54-13.72 1.54-13.72 0" stroke="#2b2d6e" stroke-linecap="round" stroke-linejoin="round" stroke-width="2"/><path d="M21.99 29h-7.98c-1.102 0-2.01-.903-2.01-2s.908-2 2.01-2h7.98c1.102 0 2.01.903 2.01 2s-.908 2-2.01 2z" fill="url(#d)"/><g stroke="#2b2d6e" stroke-linecap="round" stroke-width="2"><path d="M20.99 28h-7.98c-1.102 0-2.01-.903-2.01-2s.908-2 2.01-2h7.98c1.102 0 2.01.903 2.01 2-.065 1.097-.973 2-2.01 2zM8 32h19m-8 14h8M7 46h8" stroke-linejoin="round"/><path d="M27 25v33.605M7 24v35"/><path d="M19 59h8v-2.022C27 54.761 25.23 53 23 53s-4 1.76-4 3.978zM7 59h8v-2.022C15 54.761 13.23 53 11 53s-4 1.76-4 3.978z" stroke-linejoin="round"/></g></svg>