<svg fill="none" height="60" width="60" xmlns="http://www.w3.org/2000/svg" xmlns:xlink="http://www.w3.org/1999/xlink"><linearGradient id="a"><stop offset="0" stop-color="#fdb835"/><stop offset="1" stop-color="#ffcf10"/></linearGradient><linearGradient id="b" gradientUnits="userSpaceOnUse" x1="27.045" x2="37.027" xlink:href="#a" y1="56.987" y2="56.987"/><linearGradient id="c" gradientUnits="userSpaceOnUse" x1="24.983" x2="42.111" xlink:href="#a" y1="30.17" y2="30.17"/><path d="M36.107 54c.447 0 .893.417.893.833V57c0 1.667-1.16 3-2.5 3h-5c-1.34 0-2.5-1.333-2.5-3v-2.167c0-.416.446-.833.893-.833z" fill="url(#b)"/><g stroke="#2b2d6e" stroke-linecap="round" stroke-linejoin="round" stroke-miterlimit="10" stroke-width="2"><path d="M39.45 47.694v.79c0 1.934-1.614 3.516-3.587 3.516H25.106c-1.973 0-3.586-1.582-3.586-3.515v-.967c0-3.515-1.703-6.767-4.483-8.964C11.48 34.16 8.252 27.218 9.15 19.572 10.314 9.906 18.293 2.26 28.064 1.118 41.063-.201 52 9.73 52 22.12c0 6.767-3.227 12.743-8.248 16.61-2.779 2.108-4.303 5.448-4.303 8.963zM35 52v3c0 1.667-1.16 3-2.5 3h-5c-1.34 0-2.5-1.333-2.5-3v-3zm4-3H29m10-4h-6m23-22h3M2 23h3m5-21l3 2m35 36l3 2m1-40l-3 2M13 40l-3 2M4 11l3 1m47 19l3 1m1-21l-3 1M7 32l-3 1"/></g><path d="M41.293 36.372H25.795c-.477 0-.795-.315-.795-.788V24.788c0-.473.318-.788.795-.788h15.578c.477 0 .794.315.794.788v10.796c-.079.394-.397.788-.874.788z" fill="url(#c)"/><path d="M37.134 33H21.787c-.472 0-.787-.308-.787-.77V21.77c0-.462.315-.77.787-.77h15.426c.472 0 .787.308.787.77v10.538a.851.851 0 0 1-.866.692zM37 21H25v-3.858C25 13.756 27.675 11 30.962 11s5.962 2.756 5.962 6.142" stroke="#2b2d6e" stroke-linecap="round" stroke-linejoin="round" stroke-miterlimit="10" stroke-width="2"/><path d="M29.5 29a1.5 1.5 0 1 0 0-3 1.5 1.5 0 0 0 0 3z" stroke="#2b2d6e" stroke-linecap="round" stroke-linejoin="round" stroke-miterlimit="10" stroke-width="2"/></svg>