<svg fill="none" height="60" width="60" xmlns="http://www.w3.org/2000/svg"><linearGradient id="a" gradientUnits="userSpaceOnUse" x1="12.979" x2="48.98" y1="52.98" y2="52.98"><stop offset="0" stop-color="#ffb935"/><stop offset="1" stop-color="#ffd943"/></linearGradient><path d="M25.867 22c.75 4.645 8.133 3.54 8.133 3.54 0 3.815-1.017 8.46-5.137 8.46-2.193 0-3.157-1.327-4.013-3.097-1.177-2.433-.598-6.624 1.017-8.903zM33 36.5c0 2.79-2.04 4.5-4.5 4.5-2.512 0-4.5-1.767-4.5-4.5" stroke="#2b2d6e" stroke-linecap="round" stroke-linejoin="round" stroke-width="2"/><path d="M15 44c0-3.135 2.764-5.243 6.047-6.27l3.283-1.568S26 35.46 26 34.595V33m6 0v2.053c0 .864 1.502 1.567 1.502 1.567l2.951 1.566C39.405 39.213 42 40.866 42 44" stroke="#2b2d6e" stroke-linecap="round" stroke-linejoin="round" stroke-width="2"/><path d="M25.855 34C24.255 34 21 32.99 21 32.99v-9.834c1.19-7.822 14.67-7.801 16 0v9.834S33.8 34 32.145 34" stroke="#2b2d6e" stroke-linecap="round" stroke-linejoin="round" stroke-width="2"/><path d="M47 46H15a2 2 0 0 0-2 2v10a2 2 0 0 0 2 2h32a2 2 0 0 0 2-2V48a2 2 0 0 0-2-2z" fill="url(#a)"/><g stroke="#2b2d6e" stroke-linecap="round" stroke-linejoin="round" stroke-width="2"><path d="M47 4H11v54h36zM20 53h18m-13-4h8"/><path d="M29 14a3 3 0 1 0 0-6 3 3 0 0 0 0 6z"/><path d="M22 1l6.423 8.732c.262.357.713.357.976 0L30 8.915M37 1l-2 3M11 44h35"/></g></svg>