<svg fill="none" height="60" width="60" xmlns="http://www.w3.org/2000/svg" xmlns:xlink="http://www.w3.org/1999/xlink"><linearGradient id="a"><stop offset="0" stop-color="#ffb935"/><stop offset="1" stop-color="#ffd943"/></linearGradient><linearGradient id="b" gradientUnits="userSpaceOnUse" x1="3.963" x2="59" xlink:href="#a" y1="36.992" y2="36.992"/><linearGradient id="c" gradientUnits="userSpaceOnUse" x1="7.01" x2="39.018" xlink:href="#a" y1="18.519" y2="18.519"/><path d="M4 52.005v-2.39c0-.383.19-.765.57-.957l52.91-27.536c.665-.383 1.52.191 1.52.956v2.452a1 1 0 0 1-.54.887L5.52 52.865c-.76.383-1.52-.095-1.52-.86z" fill="url(#b)"/><path d="M2 48.474l52.483-27.352c.664-.384 1.517.193 1.517.962v29.801C56 53.04 55.052 54 53.914 54H5.644c-1.138 0-1.423-1.538-.474-2.019L56 25.256" stroke="#2b2d6e" stroke-linecap="round" stroke-linejoin="round" stroke-width="2"/><path d="M33.5 25.925a1 1 0 0 0 1.27-.653l3.938-12.71a1 1 0 0 0-.647-1.247L25.701 7.31a1 1 0 0 0-1.26.647l-.716 2.242a1 1 0 0 0 .634 1.252l4.012 1.346c.836.28.926 1.426.145 1.834L7.872 25.406a1 1 0 0 0-.43 1.336l1.177 2.347a1 1 0 0 0 1.36.436L30.54 18.71c.788-.415 1.684.33 1.42 1.18L30.7 23.963a1 1 0 0 0 .64 1.245z" fill="url(#c)"/><path d="M32.375 27.247L37 12.619 22.652 8l-1.322 4.138 7.174 2.31L5 26.862 7.077 31 30.58 18.586 28.316 25.9z" stroke="#2b2d6e" stroke-linecap="round" stroke-linejoin="round" stroke-width="2"/><g fill="#2b2d6e"><circle cx="25" cy="49" r="1"/><circle cx="29" cy="49" r="1"/><circle cx="33" cy="49" r="1"/><circle cx="37" cy="49" r="1"/><circle cx="41" cy="49" r="1"/><circle cx="45" cy="49" r="1"/><circle cx="49" cy="49" r="1"/><circle cx="53" cy="49" r="1"/><circle cx="33" cy="45" r="1"/><circle cx="37" cy="45" r="1"/><circle cx="41" cy="45" r="1"/><circle cx="45" cy="45" r="1"/><circle cx="49" cy="45" r="1"/><circle cx="53" cy="45" r="1"/><circle cx="37" cy="41" r="1"/><circle cx="45" cy="41" r="1"/><circle cx="53" cy="41" r="1"/></g></svg>