<svg fill="none" height="60" width="60" xmlns="http://www.w3.org/2000/svg" xmlns:xlink="http://www.w3.org/1999/xlink"><linearGradient id="a"><stop offset="0" stop-color="#ffb935"/><stop offset="1" stop-color="#ffd943"/></linearGradient><linearGradient id="b" gradientUnits="userSpaceOnUse" x1="19.041" x2="42.015" xlink:href="#a" y1="6.487" y2="6.487"/><linearGradient id="c" gradientUnits="userSpaceOnUse" x1="7.968" x2="15.981" xlink:href="#a" y1="44.982" y2="44.982"/><linearGradient id="d" gradientUnits="userSpaceOnUse" x1="46.013" x2="54.026" xlink:href="#a" y1="44.982" y2="44.982"/><linearGradient id="e" gradientUnits="userSpaceOnUse" x1="25.965" x2="33.003" xlink:href="#a" y1="56.983" y2="56.983"/><path d="M41.645 4.59a.774.774 0 0 1 .124.075c.258.2.3.505.126.81l-3.229 5.115c-.171.302-.553.437-.855.405a.853.853 0 0 1-.148-.032c-.583-.167-4.602-1.29-7.132-1.29-2.484 0-6.406 1.083-7.098 1.28a.938.938 0 0 1-.216.042c-.344.015-.715-.168-.883-.405l-3.23-5.115c-.174-.307-.13-.614.13-.813a.778.778 0 0 1 .117-.07C19.923 4.295 24.544 2 30.469 2c5.913 0 10.581 2.286 11.176 2.59z" fill="url(#b)"/><path d="M13.313 54C10.382 54 8 51.588 8 48.619V41.38C8 38.412 10.382 36 13.313 36 14.779 36 16 37.237 16 38.722V51.34c0 1.423-1.221 2.66-2.687 2.66z" fill="url(#c)"/><path d="M48.687 54C51.618 54 54 51.588 54 48.619V41.38C54 38.412 51.618 36 48.687 36 47.221 36 46 37.237 46 38.722V51.34c0 1.423 1.221 2.66 2.687 2.66z" fill="url(#d)"/><path d="M31.25 59h-3.5c-.966 0-1.75-.897-1.75-2s.784-2 1.75-2h3.5c.966 0 1.75.897 1.75 2s-.784 2-1.75 2z" fill="url(#e)"/><g stroke="#2b2d6e" stroke-linecap="round" stroke-linejoin="round" stroke-width="2"><path d="M12.313 53C9.382 53 7 50.588 7 47.619V40.38C7 37.412 9.382 35 12.313 35 13.779 35 15 36.237 15 37.722V50.34c0 1.423-1.221 2.66-2.687 2.66zM6 46H2.667C1.747 46 1 45.103 1 44s.747-2 1.667-2H6zm40.687 7C49.618 53 52 50.588 52 47.619V40.38C52 37.412 49.618 35 46.687 35 45.221 35 44 36.237 44 37.722V50.34c0 1.423 1.221 2.66 2.687 2.66zM53 46h3.333c.92 0 1.667-.897 1.667-2s-.747-2-1.667-2H53z"/><path d="M3 42V27.437C3 12.813 14.84 1 29.5 1c7.33 0 13.908 2.938 18.732 7.75S56 20.125 56 27.438V42M8 28c0-9.255 3.813-16.298 11.5-20M40 8c7.688 3.766 11 10.745 11 20m-3 26c0 1.103-.833 2-1.859 2H33m-1.75 2h-3.5c-.966 0-1.75-.897-1.75-2s.784-2 1.75-2h3.5c.966 0 1.75.897 1.75 2s-.784 2-1.75 2z"/><path d="M42 4.5L38.425 10c-2.528-.957-5.317-1.404-8.17-1.404s-5.641.51-8.17 1.404L18 4"/></g><circle cx="26" cy="5" fill="#2b2d6e" r="1"/><circle cx="30" cy="5" fill="#2b2d6e" r="1"/><circle cx="34" cy="5" fill="#2b2d6e" r="1"/></svg>