<svg fill="none" height="60" width="60" xmlns="http://www.w3.org/2000/svg"><linearGradient id="a" gradientUnits="userSpaceOnUse" x1="11" x2="47" y1="32" y2="32"><stop offset="0" stop-color="#ffb935"/><stop offset="1" stop-color="#ffd943"/></linearGradient><path d="M29 50c9.941 0 18-8.059 18-18s-8.059-18-18-18-18 8.059-18 18 8.059 18 18 18z" fill="url(#a)"/><g stroke="#2b2d6e" stroke-linecap="round" stroke-linejoin="round" stroke-width="2"><path d="M30.5 54C43.479 54 54 43.479 54 30.5S43.479 7 30.5 7 7 17.521 7 30.5 17.521 54 30.5 54z"/><path d="M30.5 50C41.27 50 50 41.27 50 30.5S41.27 11 30.5 11 11 19.73 11 30.5 19.73 50 30.5 50zM30 27v-8m-1 13l-8 5m9-23v2m0 29v2m16.875-17H45m-29 0h-2m25-14l-1 2M23 42l-1 2m23-5l-2-1M18 23l-2-1m29 0l-2 1M18 38l-2 1m23 5l-1-2M23 18l-1-2"/><path d="M30 32a2 2 0 1 0 0-4 2 2 0 0 0 0 4zm13.547-21h9.432v4L59 9l-6.021-6v4H30M16.905 50H6.941v-4L1 52l5.94 6v-4H30M7 30V7.044H3L9 1l6 6.044h-4v10.468M53 37v16.005h4L50.941 59 45 53.005h4v-8.158"/></g></svg>