<svg fill="none" height="1396" viewBox="0 0 1600 1396" width="1600" xmlns="http://www.w3.org/2000/svg" xmlns:xlink="http://www.w3.org/1999/xlink"><linearGradient id="a"><stop offset="0" stop-color="#eff0f1"/><stop offset=".9919" stop-color="#fdfdfd"/></linearGradient><linearGradient id="b" gradientUnits="userSpaceOnUse" x1="278.443" x2="1233.66" xlink:href="#a" y1="-334.736" y2="1552.61"/><linearGradient id="c" gradientUnits="userSpaceOnUse" x1="1279.07" x2="1450.65" xlink:href="#a" y1="508.642" y2="847.66"/><linearGradient id="d"><stop offset="0" stop-color="#65bb5c"/><stop offset="1" stop-color="#a9d9a4"/></linearGradient><linearGradient id="e" gradientUnits="userSpaceOnUse" x1="493.958" x2="988.328" xlink:href="#d" y1="547.001" y2="547.001"/><linearGradient id="f" gradientUnits="userSpaceOnUse" x1="493.959" x2="988.329" xlink:href="#d" y1="611.937" y2="611.937"/><linearGradient id="g" gradientUnits="userSpaceOnUse" x1="225.5" x2="741.597" xlink:href="#d" y1="627.145" y2="644.066"/><linearGradient id="h"><stop offset=".00126075" stop-color="#ddede0"/><stop offset="1" stop-color="#e7f2e6"/></linearGradient><linearGradient id="i" gradientUnits="userSpaceOnUse" x1="971.39" x2="1604.75" xlink:href="#h" y1="19.8645" y2="1271.28"/><linearGradient id="j" gradientUnits="userSpaceOnUse" x1="975.841" x2="1234.3" xlink:href="#h" y1="730.937" y2="730.937"/><linearGradient id="k" gradientUnits="userSpaceOnUse" x1="849.427" x2="1482.79" xlink:href="#a" y1="81.5869" y2="1333"/><linearGradient id="l" gradientUnits="userSpaceOnUse" x1="975.838" x2="1234.3" xlink:href="#d" y1="812.456" y2="812.456"/><linearGradient id="m" gradientUnits="userSpaceOnUse" x1="975.842" x2="1234.31" xlink:href="#h" y1="774.432" y2="774.432"/><linearGradient id="n" gradientUnits="userSpaceOnUse" x1="1168.05" x2="1227.31" xlink:href="#h" y1="774.432" y2="774.432"/><linearGradient id="o" gradientUnits="userSpaceOnUse" x1="849.894" x2="1483.25" xlink:href="#h" y1="81.3519" y2="1332.77"/><linearGradient id="p" gradientUnits="userSpaceOnUse" x1="975.839" x2="1234.3" xlink:href="#h" y1="803.969" y2="803.969"/><linearGradient id="q" gradientUnits="userSpaceOnUse" x1="1168.04" x2="1227.3" xlink:href="#h" y1="803.969" y2="803.969"/><linearGradient id="r" gradientUnits="userSpaceOnUse" x1="1176.59" x2="1323.33" xlink:href="#h" y1="583.731" y2="583.731"/><linearGradient id="s" gradientUnits="userSpaceOnUse" x1="1176.6" x2="1323.33" xlink:href="#h" y1="661.679" y2="661.679"/><linearGradient id="t" gradientUnits="userSpaceOnUse" x1="926.562" x2="1559.92" xlink:href="#h" y1="42.5517" y2="1293.96"/><linearGradient id="u" gradientUnits="userSpaceOnUse" x1="1176.6" x2="1323.33" xlink:href="#h" y1="675.66" y2="675.66"/><linearGradient id="v" gradientUnits="userSpaceOnUse" x1="924.187" x2="1557.54" xlink:href="#h" y1="43.7536" y2="1295.17"/><linearGradient id="w" gradientUnits="userSpaceOnUse" x1="1176.59" x2="1323.33" xlink:href="#h" y1="726.747" y2="726.747"/><linearGradient id="x" gradientUnits="userSpaceOnUse" x1="909.047" x2="1542.41" xlink:href="#h" y1="51.416" y2="1302.83"/><linearGradient id="y" gradientUnits="userSpaceOnUse" x1="1176.6" x2="1323.33" xlink:href="#h" y1="800.502" y2="800.502"/><linearGradient id="z" gradientUnits="userSpaceOnUse" x1="976.676" x2="1610.03" xlink:href="#h" y1="17.1886" y2="1268.6"/><linearGradient id="A" gradientUnits="userSpaceOnUse" x1="1176.6" x2="1323.33" xlink:href="#h" y1="587.314" y2="587.314"/><linearGradient id="B" gradientUnits="userSpaceOnUse" x1="975.843" x2="1234.31" xlink:href="#h" y1="776.012" y2="776.012"/><linearGradient id="C" gradientUnits="userSpaceOnUse" x1="1176.6" x2="1323.33" xlink:href="#h" y1="776.012" y2="776.012"/><linearGradient id="D" gradientUnits="userSpaceOnUse" x1="975.852" x2="1234.3" xlink:href="#h" y1="712.949" y2="712.949"/><linearGradient id="E" gradientUnits="userSpaceOnUse" x1="1176.59" x2="1323.32" xlink:href="#h" y1="712.949" y2="712.949"/><linearGradient id="F" gradientUnits="userSpaceOnUse" x1="975.841" x2="1234.3" xlink:href="#h" y1="742.006" y2="742.006"/><linearGradient id="G" gradientUnits="userSpaceOnUse" x1="1176.6" x2="1323.33" xlink:href="#h" y1="742.006" y2="742.006"/><linearGradient id="H" gradientUnits="userSpaceOnUse" x1="872.352" x2="1505.71" xlink:href="#h" y1="69.9864" y2="1321.4"/><linearGradient id="I" gradientUnits="userSpaceOnUse" x1="975.838" x2="1234.3" xlink:href="#h" y1="750.524" y2="750.524"/><linearGradient id="J" gradientUnits="userSpaceOnUse" x1="1176.6" x2="1323.33" xlink:href="#h" y1="750.524" y2="750.524"/><linearGradient id="K" gradientUnits="userSpaceOnUse" x1="868.269" x2="1501.63" xlink:href="#h" y1="72.0522" y2="1323.47"/><linearGradient id="L" gradientUnits="userSpaceOnUse" x1="975.84" x2="1234.3" xlink:href="#h" y1="781.927" y2="781.927"/><linearGradient id="M" gradientUnits="userSpaceOnUse" x1="1176.6" x2="1323.33" xlink:href="#h" y1="781.927" y2="781.927"/><linearGradient id="N" gradientUnits="userSpaceOnUse" x1="859.884" x2="1493.21" xlink:href="#a" y1="76.2945" y2="1327.73"/><linearGradient id="O" gradientUnits="userSpaceOnUse" x1="975.827" x2="1234.31" xlink:href="#d" y1="800.517" y2="800.517"/><linearGradient id="P" gradientUnits="userSpaceOnUse" x1="1176.59" x2="1323.34" xlink:href="#d" y1="800.517" y2="800.517"/><linearGradient id="Q" gradientUnits="userSpaceOnUse" x1="1168.04" x2="1227.3" xlink:href="#h" y1="712.896" y2="712.896"/><linearGradient id="R" gradientUnits="userSpaceOnUse" x1="1176.59" x2="1323.31" xlink:href="#h" y1="712.896" y2="712.896"/><linearGradient id="S" gradientUnits="userSpaceOnUse" x1="975.841" x2="1234.3" xlink:href="#h" y1="755.065" y2="755.065"/><linearGradient id="T" gradientUnits="userSpaceOnUse" x1="1168.04" x2="1227.3" xlink:href="#h" y1="755.065" y2="755.065"/><linearGradient id="U" gradientUnits="userSpaceOnUse" x1="1176.6" x2="1323.33" xlink:href="#h" y1="755.065" y2="755.065"/><linearGradient id="V" gradientUnits="userSpaceOnUse" x1="975.838" x2="1234.3" xlink:href="#h" y1="778.687" y2="778.687"/><linearGradient id="W" gradientUnits="userSpaceOnUse" x1="1168.04" x2="1227.3" xlink:href="#h" y1="778.687" y2="778.687"/><linearGradient id="X" gradientUnits="userSpaceOnUse" x1="1176.59" x2="1323.33" xlink:href="#h" y1="778.687" y2="778.687"/><linearGradient id="Y" gradientUnits="userSpaceOnUse" x1="975.856" x2="1234.3" xlink:href="#h" y1="717.51" y2="717.51"/><linearGradient id="Z" gradientUnits="userSpaceOnUse" x1="1168.04" x2="1227.3" xlink:href="#h" y1="717.51" y2="717.51"/><linearGradient id="aa" gradientUnits="userSpaceOnUse" x1="1176.59" x2="1323.32" xlink:href="#h" y1="717.51" y2="717.51"/><linearGradient id="ab" gradientUnits="userSpaceOnUse" x1="857.88" x2="1491.24" xlink:href="#h" y1="77.3096" y2="1328.73"/><linearGradient id="ac" gradientUnits="userSpaceOnUse" x1="975.838" x2="1234.3" xlink:href="#h" y1="792.317" y2="792.317"/><linearGradient id="ad" gradientUnits="userSpaceOnUse" x1="1168.04" x2="1227.3" xlink:href="#h" y1="792.317" y2="792.317"/><linearGradient id="ae" gradientUnits="userSpaceOnUse" x1="1176.6" x2="1323.33" xlink:href="#h" y1="792.317" y2="792.317"/><linearGradient id="af" gradientUnits="userSpaceOnUse" x1="1022.44" x2="1655.8" xlink:href="#h" y1="-5.97215" y2="1245.44"/><linearGradient id="ag" gradientUnits="userSpaceOnUse" x1="1335.61" x2="1443.49" xlink:href="#h" y1="692.282" y2="692.282"/><linearGradient id="ah" gradientUnits="userSpaceOnUse" x1="1151.94" x2="1398.93" y1="1196.59" y2="1196.59"><stop offset="0" stop-color="#d4d6d9"/><stop offset="1" stop-color="#eff0f1"/></linearGradient><linearGradient id="ai" gradientUnits="userSpaceOnUse" x1="-5284.72" x2="1436" y1="1250.96" y2="1251"><stop offset=".805973" stop-color="#d4d6d9"/><stop offset="1" stop-color="#eff0f1"/></linearGradient><linearGradient id="aj"><stop offset="0" stop-color="#99d4ff"/><stop offset="1" stop-color="#3af"/></linearGradient><linearGradient id="ak" gradientUnits="userSpaceOnUse" x1="1051.8" x2="1191.1" xlink:href="#aj" y1="960.394" y2="960.394"/><linearGradient id="al" gradientUnits="userSpaceOnUse" x1="1133.23" x2="1199.34" xlink:href="#aj" y1="707.22" y2="789.745"/><linearGradient id="am"><stop offset="0" stop-color="#ccc2ff"/><stop offset="1" stop-color="#e2d4e9"/></linearGradient><linearGradient id="an" gradientUnits="userSpaceOnUse" x1="34281.1" x2="86012.8" xlink:href="#am" y1="76623.9" y2="76623.9"/><linearGradient id="ao" gradientUnits="userSpaceOnUse" x1="14485.8" x2="35484.2" xlink:href="#am" y1="65503.5" y2="65503.5"/><linearGradient id="ap" gradientUnits="userSpaceOnUse" x1="99481.2" x2="252263" xlink:href="#am" y1="76842.8" y2="76842.8"/><linearGradient id="aq" gradientUnits="userSpaceOnUse" x1="80391.4" x2="203646" xlink:href="#am" y1="65503.7" y2="65503.7"/><linearGradient id="ar" gradientUnits="userSpaceOnUse" x1="32989.2" x2="82709.5" xlink:href="#am" y1="65503.3" y2="65503.3"/><linearGradient id="as" gradientUnits="userSpaceOnUse" x1="37441.4" x2="93786.1" xlink:href="#am" y1="76623.9" y2="76623.9"/><linearGradient id="at" gradientUnits="userSpaceOnUse" x1="190.929" x2="995.484" xlink:href="#am" y1="893.318" y2="893.318"/><linearGradient id="au"><stop offset=".1044" stop-color="#ccc2ff"/><stop offset=".8809" stop-color="#e2d4e9"/></linearGradient><linearGradient id="av" gradientUnits="userSpaceOnUse" x1="289.737" x2="903.142" xlink:href="#au" y1="893.318" y2="893.318"/><linearGradient id="aw" gradientUnits="userSpaceOnUse" x1="190.929" x2="995.484" xlink:href="#am" y1="893.099" y2="893.099"/><linearGradient id="ax" gradientUnits="userSpaceOnUse" x1="289.737" x2="903.142" xlink:href="#au" y1="893.099" y2="893.099"/><linearGradient id="ay"><stop offset="0" stop-color="#fde476"/><stop offset=".9944" stop-color="#fbba23"/></linearGradient><linearGradient id="az" gradientUnits="userSpaceOnUse" x1="117.411" x2="234.849" xlink:href="#ay" y1="508.649" y2="508.649"/><linearGradient id="aA" gradientUnits="userSpaceOnUse" x1="472.921" x2="553.828" xlink:href="#ay" y1="167.62" y2="167.62"/><linearGradient id="aB" gradientUnits="userSpaceOnUse" x1="612.649" x2="782.064" xlink:href="#ay" y1="242.01" y2="242.01"/><linearGradient id="aC" gradientUnits="userSpaceOnUse" x1="244.889" x2="416.51" xlink:href="#ay" y1="716.853" y2="716.853"/><linearGradient id="aD" gradientUnits="userSpaceOnUse" x1="275.08" x2="298.126" xlink:href="#ay" y1="744.832" y2="744.832"/><linearGradient id="aE" gradientUnits="userSpaceOnUse" x1="348.141" x2="371.187" xlink:href="#ay" y1="671.77" y2="671.77"/><linearGradient id="aF" gradientUnits="userSpaceOnUse" x1="328.038" x2="348.142" xlink:href="#ay" y1="743.116" y2="743.116"/><linearGradient id="aG" gradientUnits="userSpaceOnUse" x1="275.082" x2="288.321" xlink:href="#ay" y1="666.869" y2="666.869"/><linearGradient id="aH" gradientUnits="userSpaceOnUse" x1="356.479" x2="369.719" xlink:href="#ay" y1="714.922" y2="714.922"/><linearGradient id="aI" gradientUnits="userSpaceOnUse" x1="289.02" x2="460.641" xlink:href="#ay" y1="349.093" y2="349.093"/><clipPath id="aJ"><path d="m0 0h1600v1395.28h-1600z"/></clipPath><g clip-path="url(#aJ)"><path d="m1421.02 247.625c-23.78-29.421-49.77-55.409-77.23-78.701-134.84-113.5148-310.63-157.4008-497.698-167.20775-224.578-12.25865-462.641 35.05975-646.031 217.95875-183.3893 182.409-236.3467 404.291-176.5245 625.192 25.0077 92.43 69.384 182.653 129.9415 261.843 249.096.49 739.933 1.23 877.722.98h131.9c103.22 0 197.61-.24 281.95-.24 67.18-75.52 116.95-162.307 139.75-256.454 48.54-199.326-23.05-430.769-163.78-603.371z" fill="url(#b)"/><path d="m1182.96 322.157c-1.47 0-2.45-.98-2.45-2.451v-102.973c0-2.452 1.72-4.903 4.17-5.639l111.31-30.892c1.22-.245 2.69.491 2.94 1.716.24 1.226-.49 2.697-1.72 2.943l-111.06 30.891c-.25 0-.74.491-.74.736v102.973c0 1.471-.98 2.696-2.45 2.696z" fill="#e6e7ea"/><path d="m855.655 215.507c-1.471 0-2.452-.98-2.452-2.452 0-1.471.981-2.451 2.452-2.451h250.075c1.47 0 2.45.98 2.45 2.451 0 1.472-.98 2.452-2.45 2.452z" fill="#e6e7ea"/><path d="m1428.87 697.027c1.47 11.278 16.92 41.925-8.58 62.274-25.5 20.105-55.66 40.209-64.48 61.048-4.91 12.259-12.51 19.614-17.9 23.537-2.45 1.961-5.88-.245-5.15-3.432 10.05-44.622 63.75-245.174 63.26-264.297-.49-20.595-2.46-41.679 1.22-42.17 3.68-.49 32.36 43.151 37.02 54.674s11.28 34.324-.49 54.919c-11.52 20.594-6.37 42.169-4.9 53.447z" fill="url(#c)"/><path d="m333.436 750.72c-2.207 0-3.923-1.716-3.923-3.923 0-2.206 1.716-3.922 3.923-3.922s3.923 1.716 3.923 3.922c0 2.207-1.716 3.923-3.923 3.923zm0-4.903c-.49 0-.981.49-.981.98 0 .491.491.981.981.981s.981-.49.981-.981c0-.49-.246-.98-.981-.98z" fill="#ee7b06" opacity=".1"/><path d="m874.288 1062.58c-1.226 0-2.207.98-1.717 2.45l11.278 37.51c.491 1.23.981 3.44 1.471 4.66l2.942 9.56c.491 1.23 1.717 2.46 3.188 2.46h2.942c1.226 0 2.451-.99 2.451-2.46v-9.31c0-1.23 0-3.44 0-4.91v-37.26c0-1.23-1.225-2.45-2.451-2.45h-20.104z" fill="#b9bdc1"/><path d="m306.222 1062.58c-1.471 0-2.452 1.23-2.452 2.45v36.53 4.91 10.05c0 1.47.981 2.45 2.452 2.45h2.942c1.471 0 2.697-.98 3.187-2.45l3.187-10.3c.491-1.22.981-3.43 1.471-4.66l11.033-36.77c.49-1.23-.49-2.45-1.716-2.45h-20.104z" fill="#b9bdc1"/><path d="m864.971 743.855h-537.175c-21.085 0-18.388 26.969-18.388 26.969 0-10.787 8.336-19.613 18.388-19.613h537.42c10.052 0 18.388 8.826 18.388 19.613 0 0-1.962-26.969-18.633-26.969z" fill="#b3a4f5" opacity=".1"/><path d="m533.007 792.154h-91.695c-11.768 0-21.33 11.278-21.33 24.763l-8.826 50.751c0 13.729 9.562 24.762 21.33 24.762h109.347c11.768 0 21.33-11.278 21.33-24.762l-8.826-50.751c0-13.485-9.807-24.763-21.33-24.763z" fill="#7760d9" opacity=".5"/><path d="m266.994 377.076h-4.903v370.212h4.903z" fill="#fff"/><path d="m919.644 727.674h-630.83c-1.716 0-3.188-1.471-3.188-3.187v-412.872c0-1.716 1.472-3.187 3.188-3.187h630.83c1.717 0 3.188 1.471 3.188 3.187v412.626c0 1.962-1.471 3.433-3.188 3.433z" fill="#fff"/><path d="m919.644 308.428c1.717 0 3.188 1.471 3.188 3.187v412.626c0 1.717-1.471 3.188-3.188 3.188h-630.83c-1.716 0-3.187-1.471-3.187-3.188v-412.626c0-1.716 1.471-3.187 3.187-3.187zm0-4.904h-630.83c-4.413 0-8.091 3.678-8.091 8.091v412.626c0 4.414 3.678 8.091 8.091 8.091h630.83c4.414 0 8.091-3.677 8.091-8.091v-412.626c0-4.413-3.677-8.091-8.091-8.091z" fill="#f1f1f1"/><path d="m685.014 285.136h-424.149v4.904h424.149z" fill="#fff"/><path d="m584.738 558.504c3.187.981 6.129 2.207 9.316 3.433 2.942.981 5.884 2.206 8.826 3.432v-36.285c-13.239 6.864-25.498 14.955-36.53 23.781 2.942.981 6.129 1.962 9.071 2.942 3.187.491 6.129 1.717 9.317 2.697z" fill="url(#e)" opacity=".15"/><path d="m741.159 495.74c-49.034 0-94.882 11.278-133.374 30.647v40.698c1.471.736 3.187 1.226 4.658 1.962 1.472.735 3.188 1.226 4.659 1.961 16.917 7.11 33.834 15.446 50.015 24.518 8.826 4.903 17.162 10.052 25.498 15.445 49.035 32.363 85.32 73.062 85.565 117.193h143.917v-170.395c-44.867-38.247-109.347-62.029-180.938-62.029z" fill="url(#f)" opacity=".15"/><path d="m617.347 571.008c-1.471-.735-3.187-1.226-4.658-1.961-1.471-.736-3.188-1.226-4.659-1.961v160.588h-4.903v-162.55c-2.942-1.226-5.884-2.206-8.826-3.432-3.188-1.226-6.13-2.207-9.317-3.433-3.187-.98-6.129-2.206-9.316-3.187-3.188-.981-6.13-1.961-9.072-2.942-34.814-10.543-67.668-16.427-92.185-15.936-56.88.98-136.561 33.098-189.764 82.378v109.592h214.526 279.498c-.49-44.131-36.776-84.83-85.566-117.192-8.09-5.394-16.671-10.543-25.498-15.446-16.426-9.072-33.343-17.408-50.26-24.518z" fill="url(#g)" opacity=".1"/><path d="m602.881 305.976v222.862 36.286c1.716.736 3.187 1.226 4.903 1.961v-40.698-220.411z" fill="#e6e7ea"/><path d="m607.784 727.674v-160.589c-1.716-.735-3.187-1.225-4.903-1.961v162.55z" fill="#e6e7ea"/><path d="m1317.81 704.137c.98-1.471-.49-2.942-2.21-4.413.49 1.961.98 3.678 1.47 5.394.25-.49.49-.736.74-.981z" fill="url(#i)"/><path d="m1316.09 710.757-1.47-4.904c-.49-1.716-.98-3.432-1.47-5.393l-2.21-7.601 6.13 5.149c1.47 1.226 4.9 4.168 2.7 7.6z" fill="#dcede0"/><path d="m1185.66 739.933c-2.21-5.639-3.93-11.524-5.4-17.898.98 5.639 2.95 11.768 5.4 17.898z" fill="url(#j)"/><path d="m1183.45 740.913c-2.94-6.619-4.66-12.749-5.64-18.388l4.91-.98c1.47 5.884 3.18 11.768 5.39 17.652z" fill="#dcede0"/><path d="m1225.62 801.716c-2.7 3.923-7.85 11.769-12.5 18.879v2.451c4.16-7.11 8.58-14.22 12.5-21.33 0 0 0 .245 0 0z" fill="url(#k)"/><path d="m1225.62 801.716c-2.7 3.923-7.85 11.769-12.5 18.879v2.451c4.16-7.11 8.58-14.22 12.5-21.33 0 0 0 .245 0 0z" fill="url(#l)"/><path d="m1200.86 770.334c-5.64-8.826-11.03-19.124-15.2-30.402-2.7-6.129-4.41-12.013-5.4-17.897-.73-2.697-1.22-5.639-1.71-8.336-16.92 22.801-11.52 79.436 2.7 102.237 7.35 11.768 20.84 22.801 23.29 18.388 1.22-2.452 4.66-7.845 8.58-13.484v-33.344c-3.92-5.394-8.09-11.033-12.26-17.162z" fill="url(#m)"/><path d="m1202.82 837.757c-6.13 0-17.41-10.788-23.54-20.595-13.97-22.065-20.84-80.417-2.69-104.934l3.43-4.658.98 5.639c.49 2.451.98 5.148 1.72 8.336.73 5.393 2.69 11.278 5.39 17.407 3.92 10.297 8.83 20.349 14.96 29.911v.245c3.67 5.639 7.35 11.033 11.76 16.672l.49.735v34.815l-.49.49c-4.41 6.865-7.35 11.524-8.33 13.485-.49 1.471-1.96 2.452-3.68 2.452zm-25.5-117.438c-12.5 24.762-6.37 74.778 5.89 94.391 6.37 10.298 16.42 18.143 19.12 18.388 1.23-2.206 3.92-6.374 8.09-12.749v-31.872c-4.41-5.639-8.09-11.033-11.77-16.427-6.37-10.052-11.52-20.349-15.44-30.892-2.7-6.619-4.66-12.749-5.64-18.388.24-1.225 0-1.716-.25-2.451z" fill="#dcede0"/><path d="m1200.86 770.334c-5.64-8.826-11.03-19.124-15.2-30.402-2.7-6.129-4.41-12.013-5.4-17.897-.73-2.697-1.22-5.639-1.71-8.336-16.92 22.801-11.52 79.436 2.7 102.237 7.35 11.768 20.84 22.801 23.29 18.388 1.22-2.452 4.66-7.845 8.58-13.484v-33.344c-3.92-5.394-8.09-11.033-12.26-17.162z" fill="url(#n)"/><path d="m1202.82 837.757c-6.13 0-17.41-10.788-23.54-20.595-13.97-22.065-20.84-80.417-2.69-104.934l3.43-4.658.98 5.639c.49 2.451.98 5.148 1.72 8.336.73 5.393 2.69 11.278 5.39 17.407 3.92 10.297 8.83 20.349 14.96 29.911v.245c3.67 5.639 7.35 11.033 11.76 16.672l.49.735v34.815l-.49.49c-4.41 6.865-7.35 11.524-8.33 13.485-.49 1.471-1.96 2.452-3.68 2.452zm-25.5-117.438c-12.5 24.762-6.37 74.778 5.89 94.391 6.37 10.298 16.42 18.143 19.12 18.388 1.23-2.206 3.92-6.374 8.09-12.749v-31.872c-4.41-5.639-8.09-11.033-11.77-16.427-6.37-10.052-11.52-20.349-15.44-30.892-2.7-6.619-4.66-12.749-5.64-18.388.24-1.225 0-1.716-.25-2.451z" fill="#dcede0"/><path d="m1213.12 820.595c4.66-7.11 9.8-14.956 12.5-18.879-3.68-4.168-8.09-8.826-12.5-14.465z" fill="url(#o)"/><path d="m1210.67 828.93v-48.789l4.41 5.639c3.68 4.658 7.6 9.317 12.26 14.465l1.22 1.471-.98 1.471c-2.69 3.923-7.84 11.769-12.5 18.879zm4.9-34.814v18.388c2.7-3.923 5.15-7.601 6.86-10.543-2.45-2.697-4.65-5.393-6.86-7.845z" fill="#dcede0"/><path d="m1213.12 820.595c4.66-7.11 9.8-14.956 12.5-18.879-3.68-4.168-8.09-8.826-12.5-14.465z" fill="url(#p)"/><path d="m1210.67 828.93v-48.789l4.41 5.639c3.68 4.658 7.6 9.317 12.26 14.465l1.22 1.471-.98 1.471c-2.69 3.923-7.84 11.769-12.5 18.879zm4.9-34.814v18.388c2.7-3.923 5.15-7.601 6.86-10.543-2.45-2.697-4.65-5.393-6.86-7.845z" fill="#dcede0"/><path d="m1213.12 820.595c4.66-7.11 9.8-14.956 12.5-18.879-3.68-4.168-8.09-8.826-12.5-14.465z" fill="url(#q)"/><path d="m1210.67 828.93v-48.789l4.41 5.639c3.68 4.658 7.6 9.317 12.26 14.465l1.22 1.471-.98 1.471c-2.69 3.923-7.84 11.769-12.5 18.879zm4.9-34.814v18.388c2.7-3.923 5.15-7.601 6.86-10.543-2.45-2.697-4.65-5.393-6.86-7.845z" fill="#dcede0"/><path d="m1213.12 569.782c-3.68 6.865-7.36 14.221-10.79 21.576l10.79 6.129z" fill="url(#r)"/><path d="m1215.57 601.9-16.43-9.317.98-1.961c3.43-7.11 7.11-14.465 11.04-21.82l4.65-8.581v41.679zm-10.3-11.523 5.15 2.942v-13.73c-1.72 3.678-3.43 7.356-5.15 10.788z" fill="#dcede0"/><path d="m1180.02 711.983v1.961c7.35 7.356 17.41 12.994 29.18 16.427 1.47.49 2.69.981 4.16 1.716v-28.93c-12.5 2.206-24.02 3.922-33.1 3.922 9.08-.245 20.84-1.716 33.1-3.922v-49.035c-12.99-.245-24.51-2.452-30.15-7.845 5.64 5.393 17.4 7.6 30.15 7.845v-56.145l-10.78-6.129c-13.73 29.176-24.77 62.274-25.5 95.372-.25 9.072.49 17.408 1.71 25.498.25.246.49.491.74.736-.25-.736 0-1.226.49-1.471z" fill="url(#s)"/><path d="m1215.57 735.765-3.43-1.717c-1.23-.49-2.46-.98-3.68-1.471-12.01-3.677-21.82-8.826-28.93-15.936l-.98-.981-.25-.245-.73-.735-1.23-1.471v-.736c-1.47-8.581-1.96-17.407-1.72-25.988.74-29.176 9.08-60.558 25.75-96.353l1.22-2.452 14.47 8.091v139.994zm-33.34-22.801c6.61 6.619 15.93 11.523 27.21 14.955.24 0 .73.245.98.245v-22.556c-11.03 1.962-20.35 3.188-27.95 3.433l-.24 2.942zm1.71-63.255c-2.94 12.749-4.66 25.253-4.9 37.021-.25 6.129.24 12.259.73 18.388v-.981c7.85-.245 18.15-1.226 30.65-3.432v-44.622c-12.01-.49-20.84-2.696-26.48-6.374zm1.23-5.149c4.41 3.678 13.24 5.884 25.5 6.62v-52.222l-7.36-4.168c-8.09 17.653-13.98 34.079-18.14 49.77z" fill="#dcede0"/><path d="m1268.53 648.483s-30.16 5.884-55.41 5.394v49.034c34.08-6.129 74.04-18.142 83.11-24.027-8.83-9.071-18.63-19.123-27.7-30.401z" fill="url(#t)"/><path d="m1210.67 705.854v-54.674h2.45c24.76.735 54.43-5.149 54.67-5.149l1.47-.245.98 1.226c8.09 9.807 16.43 18.633 24.52 26.969l5.39 5.639-2.69 1.471c-9.32 5.639-49.04 17.898-84.1 24.272zm4.9-49.525v43.64c30.15-5.884 64.48-15.936 76.74-21.575l-.98-.981c-7.85-8.09-15.94-16.671-23.78-25.988-6.13.736-30.41 4.904-51.98 4.904z" fill="#dcede0"/><path d="m1268.53 648.483s-30.16 5.884-55.41 5.394v49.034c34.08-6.129 74.04-18.142 83.11-24.027-8.83-9.071-18.63-19.123-27.7-30.401z" fill="url(#u)"/><path d="m1210.67 705.854v-54.674h2.45c24.76.735 54.43-5.149 54.67-5.149l1.47-.245.98 1.226c8.09 9.807 16.43 18.633 24.52 26.969l5.39 5.639-2.69 1.471c-9.32 5.639-49.04 17.898-84.1 24.272zm4.9-49.525v43.64c30.15-5.884 64.48-15.936 76.74-21.575l-.98-.981c-7.85-8.09-15.94-16.671-23.78-25.988-6.13.736-30.41 4.904-51.98 4.904z" fill="#dcede0"/><path d="m1312.41 697.027c-4.66-5.884-10.3-11.768-16.18-18.142-9.32 5.639-49.28 17.652-83.11 24.027v28.93c11.27 5.394 18.63 18.388 20.59 32.853 28.2-8.091 60.07-26.233 83.36-59.577-.49-1.716-.98-3.432-1.47-5.394-1.23-.98-2.21-1.716-3.19-2.697z" fill="url(#v)"/><path d="m1231.75 767.882-.49-2.697c-1.96-14.22-9.32-26.233-19.37-30.891l-1.47-.736v-32.608l1.96-.49c33.59-6.13 73.55-18.143 82.38-23.537l1.72-.981 1.47 1.471c6.86 7.11 12.01 12.749 16.42 18.143.49.491 1.23 1.226 2.21 1.962l1.23.98.24.736c.49 1.716.98 3.677 1.47 5.148l.25 1.226-.74.981c-20.1 29.176-50.26 50.751-84.58 60.558zm-16.18-37.511c10.05 5.639 17.65 17.162 20.1 31.137 23.05-7.11 54.68-22.801 78.7-56.88-.24-1.226-.73-2.207-.98-3.433-.98-.735-1.96-1.716-2.69-2.697-3.93-5.148-8.59-10.052-14.71-16.426-11.53 5.884-47.57 16.672-80.42 22.801z" fill="#dcede0"/><path d="m1312.41 701.931c-4.66-5.884-10.3-11.769-16.18-18.143-9.32 5.639-49.28 17.652-83.11 24.027v28.93c11.27 5.394 18.63 18.388 20.59 32.854 28.2-8.091 60.07-26.234 83.36-59.577-.49-1.717-.98-3.433-1.47-5.394-1.23-.981-2.21-1.717-3.19-2.697z" fill="url(#w)"/><path d="m1231.75 772.786-.49-2.697c-1.96-14.22-9.32-26.234-19.37-30.892l-1.47-.735v-32.608l1.96-.491c33.59-6.129 73.55-18.143 82.38-23.536l1.72-.981 1.47 1.471c6.86 7.11 12.01 12.749 16.42 18.143.49.49 1.23 1.226 2.21 1.961l1.23.981.24.735c.49 1.717.98 3.678 1.47 5.149l.25 1.226-.74.981c-20.1 29.175-50.26 50.75-84.58 60.557zm-16.18-37.512c10.05 5.639 17.65 17.162 20.1 31.137 23.05-7.11 54.68-22.801 78.7-56.88-.24-1.226-.73-2.206-.98-3.432-.98-.736-1.96-1.717-2.69-2.697-3.93-5.149-8.59-10.052-14.71-16.427-11.53 5.884-47.57 16.672-80.42 22.801z" fill="#dcede0"/><path d="m1233.71 764.695c1.47 11.278-.24 23.782-6.37 34.324-.49.981-.98 1.962-1.72 2.942 5.89 6.375 10.3 10.788 11.77 13.485 6.13 10.052 15.94 51.732 15.94 68.403 0 1.471 1.22 2.452 2.69 2.207h.25c.98-.245 1.71-.736 1.96-1.716 2.45-11.033 17.16-77.72 43.64-104.935 27.46-28.44 21.08-56.389 20.59-58.841 0-.245 0-.245 0-.245-1.47-3.678-3.18-8.827-4.9-14.956-23.54 33.099-55.65 51.241-83.85 59.332z" fill="url(#x)"/><path d="m1255.78 888.508c-1.23 0-2.21-.491-3.19-1.226-.98-.981-1.72-2.207-1.72-3.678 0-15.936-9.8-57.37-15.69-67.177-.98-1.717-3.92-4.659-7.35-8.581-1.23-1.226-2.7-2.697-3.93-4.413l-1.22-1.226 2.45-4.414c5.64-9.561 7.85-21.084 6.13-32.853l-.25-2.206 1.97-.491c23.53-6.864 56.88-22.556 81.88-58.596l2.95-4.168 1.47 4.903c1.71 6.13 3.43 11.033 4.9 14.711 0 .245.25.49.25.735.73 3.188 7.11 32.118-21.09 61.294-25.74 26.478-40.21 90.959-42.9 103.708-.5 1.961-1.97 3.432-3.93 3.678-.24 0-.49 0-.73 0zm-27.22-86.792c.98.981 1.96 1.962 2.7 2.942 3.92 4.168 6.86 7.356 8.09 9.317 6.37 10.542 16.18 52.957 16.43 69.874 2.69-12.994 17.4-78.7 44.13-106.16 26.48-27.214 20.59-53.693 19.86-56.635-1.23-2.697-2.45-6.374-3.68-10.542-19.61 26.479-47.81 46.338-79.68 55.899 1.22 12.014-1.23 24.027-7.11 33.834z" fill="#dcede0"/><path d="m1233.71 769.599c1.47 11.277-.24 23.781-6.37 34.324-.49.98-.98 1.961-1.72 2.942 5.89 6.374 10.3 10.787 11.77 13.484 6.13 10.052 15.94 51.732 15.94 68.404 0 1.471 1.22 2.451 2.69 2.206h.25c.98-.245 1.71-.735 1.96-1.716 2.45-11.033 17.16-77.72 43.64-104.934 27.46-28.44 21.08-56.39 20.59-58.842 0-.245 0-.245 0-.245-1.47-3.677-3.18-8.826-4.9-14.955-23.54 33.098-55.65 51.241-83.85 59.332z" fill="url(#y)"/><path d="m1255.78 893.411c-1.23 0-2.21-.49-3.19-1.226-.98-.981-1.72-2.206-1.72-3.678 0-15.936-9.8-57.37-15.69-67.177-.98-1.716-3.92-4.658-7.35-8.581-1.23-1.226-2.7-2.697-3.93-4.413l-1.22-1.226 2.45-4.413c5.64-9.562 7.85-21.085 6.13-32.853l-.25-2.207 1.97-.49c23.53-6.865 56.88-22.556 81.88-58.597l2.95-4.167 1.47 4.903c1.71 6.129 3.43 11.033 4.9 14.71 0 .246.25.491.25.736.73 3.187 7.11 32.118-21.09 61.293-25.74 26.479-40.21 90.959-42.9 103.708-.5 1.962-1.97 3.433-3.93 3.678-.24 0-.49 0-.73 0zm-27.22-86.791c.98.98 1.96 1.961 2.7 2.942 3.92 4.168 6.86 7.355 8.09 9.316 6.37 10.543 16.18 52.958 16.43 69.875 2.69-12.995 17.4-78.701 44.13-106.16 26.48-27.214 20.59-53.693 19.86-56.635-1.23-2.697-2.45-6.375-3.68-10.543-19.61 26.479-47.81 46.338-79.68 55.9 1.22 12.013-1.23 24.027-7.11 33.834z" fill="#dcede0"/><path d="m1246.95 616.856-33.83-19.124v56.145c25.25.735 55.41-5.394 55.41-5.394-21.82-26.479-40.7-60.067-38.01-108.612-2.69 48.545 16.43 82.379 38.01 108.612 9.31 11.278 19.12 21.33 27.95 30.401 6.13 6.375 11.52 12.259 16.18 18.143.73.981 1.96 1.962 2.94 2.697-12.75-46.092-29.42-137.297-25.99-174.318 4.17-44.131 3.19-57.616-.98-60.067-4.17-2.452-24.03 15.446-39.96 44.131-7.11 12.749-21.33 34.079-35.55 60.312v27.95z" fill="url(#z)"/><path d="m1320.01 706.834-6.62-5.639c-.98-.735-1.96-1.716-2.69-2.697-4.42-5.393-9.32-10.787-16.19-17.897l-3.18-3.433c-7.85-8.09-15.94-16.671-23.78-25.988-6.38 1.226-32.12 5.639-54.43 5.149h-2.45v-87.037l.24-.49c8.83-16.672 17.9-31.137 25.01-42.906 4.17-6.864 7.84-12.749 10.54-17.407 13.73-24.517 31.38-43.395 39.47-45.357 1.47-.49 2.7-.245 3.93.245 5.14 2.942 6.86 13.485 2.2 62.519-3.43 36.531 13 127.245 25.99 173.583zm-87.52-157.891c0 45.847 19.85 76.249 37.75 97.824 8.09 9.807 16.43 18.633 24.52 26.969l3.19 3.432c4.9 5.149 9.07 9.562 12.5 13.73-12.5-48.789-26.72-130.922-23.54-165.737 1.23-13.485 4.91-53.693.25-57.616-3.68.245-20.84 14.711-36.78 43.151-2.69 4.658-6.37 10.787-10.54 17.652-2.21 3.678-4.9 7.846-7.35 12.014zm-16.92 102.482c18.88.245 39.72-2.942 48.3-4.658-6.13-7.846-13-17.162-18.88-28.195l-29.67-16.672v49.525zm0-55.164 25.74 14.465c-7.84-16.917-13.48-37.266-13.48-61.783-3.93 6.619-8.09 13.729-12.02 21.33v25.988z" fill="#dcede0"/><path d="m1246.95 621.759-33.83-19.123v56.144c25.25.736 55.41-5.394 55.41-5.394-21.82-26.478-40.7-60.067-38.01-108.611-2.69 48.544 16.43 82.378 38.01 108.611 9.31 11.278 19.12 21.33 27.95 30.402 6.13 6.374 11.52 12.259 16.18 18.143.73.98 1.96 1.961 2.94 2.697-12.75-46.093-29.42-137.297-25.99-174.318 4.17-44.132 3.19-57.616-.98-60.068s-24.03 15.446-39.96 44.131c-7.11 12.749-21.33 34.079-35.55 60.313v27.95z" fill="url(#A)"/><path d="m1320.01 711.738-6.62-5.639c-.98-.736-1.96-1.716-2.69-2.697-4.42-5.394-9.32-10.788-16.19-17.898l-3.18-3.432c-7.85-8.091-15.94-16.672-23.78-25.989-6.38 1.226-32.12 5.639-54.43 5.149h-2.45v-87.036l.24-.491c8.83-16.672 17.9-31.137 25.01-42.905 4.17-6.865 7.84-12.749 10.54-17.407 13.73-24.518 31.38-43.396 39.47-45.357 1.47-.491 2.7-.246 3.93.245 5.14 2.942 6.86 13.484 2.2 62.519-3.43 36.531 13 127.245 25.99 173.583zm-87.52-157.892c0 45.848 19.85 76.249 37.75 97.824 8.09 9.807 16.43 18.633 24.52 26.969l3.19 3.433c4.9 5.148 9.07 9.562 12.5 13.729-12.5-48.789-26.72-130.922-23.54-165.737 1.23-13.484 4.91-53.693.25-57.615-3.68.245-20.84 14.71-36.78 43.15-2.69 4.658-6.37 10.788-10.54 17.653-2.21 3.677-4.9 7.845-7.35 12.013zm-16.92 102.483c18.88.245 39.72-2.943 48.3-4.659-6.13-7.845-13-17.162-18.88-28.195l-29.67-16.671v49.525zm0-55.164 25.74 14.465c-7.84-16.917-13.48-37.266-13.48-61.784-3.93 6.62-8.09 13.73-12.02 21.33v25.989z" fill="#dcede0"/><path d="m1203.31 770.089c3.43 4.658 6.62 8.826 9.81 12.749v-13.73c-3.43.491-6.62.736-9.81.981z" fill="url(#B)"/><path d="m1215.57 789.703-4.41-5.394c-3.44-4.168-6.62-8.581-9.81-12.749l-2.7-3.678 4.42-.245c3.18-.245 6.37-.49 9.56-.98l2.69-.491v23.537zm-7.6-17.408c.98 1.226 1.72 2.452 2.7 3.433v-3.923c-.98.245-1.72.245-2.7.49z" fill="#dcede0"/><path d="m1203.31 770.089c3.43 4.658 6.62 8.826 9.81 12.749v-13.73c-3.43.491-6.62.736-9.81.981z" fill="url(#C)"/><path d="m1215.57 789.703-4.41-5.394c-3.44-4.168-6.62-8.581-9.81-12.749l-2.7-3.678 4.42-.245c3.18-.245 6.37-.49 9.56-.98l2.69-.491v23.537zm-7.6-17.408c.98 1.226 1.72 2.452 2.7 3.433v-3.923c-.98.245-1.72.245-2.7.49z" fill="#dcede0"/><path d="m1179.04 712.964c-.25-.246-.49-.491-.74-.736 0 .49.25.981.25 1.226.24 0 .24-.245.49-.49z" fill="url(#D)"/><path d="m1177.08 719.583-2.46-15.2 7.6 8.335-1.71 2.452z" fill="#dcede0"/><path d="m1179.04 712.964c-.25-.246-.49-.491-.74-.736 0 .49.25.981.25 1.226.24 0 .24-.245.49-.49z" fill="url(#E)"/><path d="m1177.08 719.583-2.46-15.2 7.6 8.335-1.71 2.452z" fill="#dcede0"/><path d="m1180.26 722.035c1.47 6.374 3.19 12.258 5.4 17.897 4.41 10.543 11.03 21.085 17.65 30.157 3.19-.245 6.37-.49 9.81-.981v-37.266c-1.23-.736-2.7-1.226-4.17-1.716-11.77-3.433-21.82-8.827-29.18-16.427 0 2.697 0 5.639.49 8.336z" fill="url(#F)"/><path d="m1202.08 772.541-.73-.981c-7.85-11.033-13.98-21.33-17.9-30.647-2.2-6.129-4.17-12.258-5.64-18.388v-.245c-.49-2.942-.49-5.884-.49-8.581l.25-5.639 3.92 4.168c6.62 6.865 16.18 12.259 27.95 15.691 1.47.49 2.94.981 4.41 1.716l1.47.736v40.944l-2.2.245c-3.43.49-6.62.735-9.81.981zm-19.36-50.996c1.47 5.884 3.18 11.768 5.39 17.407 3.68 8.581 9.32 18.388 16.67 28.685 1.96-.245 3.92-.245 6.13-.49v-33.589c-.73-.245-1.47-.49-2.45-.735-10.3-3.188-18.88-7.356-25.74-12.995-.25.491 0 .981 0 1.717z" fill="#dcede0"/><path d="m1180.26 722.035c1.47 6.374 3.19 12.258 5.4 17.897 4.41 10.543 11.03 21.085 17.65 30.157 3.19-.245 6.37-.49 9.81-.981v-37.266c-1.23-.736-2.7-1.226-4.17-1.716-11.77-3.433-21.82-8.827-29.18-16.427 0 2.697 0 5.639.49 8.336z" fill="url(#G)"/><path d="m1202.08 772.541-.73-.981c-7.85-11.033-13.98-21.33-17.9-30.647-2.2-6.129-4.17-12.258-5.64-18.388v-.245c-.49-2.942-.49-5.884-.49-8.581l.25-5.639 3.92 4.168c6.62 6.865 16.18 12.259 27.95 15.691 1.47.49 2.94.981 4.41 1.716l1.47.736v40.944l-2.2.245c-3.43.49-6.62.735-9.81.981zm-19.36-50.996c1.47 5.884 3.18 11.768 5.39 17.407 3.68 8.581 9.32 18.388 16.67 28.685 1.96-.245 3.92-.245 6.13-.49v-33.589c-.73-.245-1.47-.49-2.45-.735-10.3-3.188-18.88-7.356-25.74-12.995-.25.491 0 .981 0 1.717z" fill="#dcede0"/><path d="m1233.71 764.695c-1.96-14.465-9.56-27.459-20.59-32.853v37.266c6.37-.735 13.48-2.206 20.59-4.413z" fill="url(#H)"/><path d="m1210.67 772.05v-44.131l3.43 1.716c11.52 5.639 19.86 18.879 22.06 34.815l.25 2.207-1.96.49c-7.11 1.961-14.22 3.677-21.09 4.413zm4.9-35.795v30.156c5.15-.735 10.3-1.961 15.44-3.432-1.96-11.523-7.84-21.33-15.44-26.724z" fill="#dcede0"/><path d="m1233.71 764.695c-1.96-14.465-9.56-27.459-20.59-32.853v37.266c6.37-.735 13.48-2.206 20.59-4.413z" fill="url(#I)"/><path d="m1210.67 772.05v-44.131l3.43 1.716c11.52 5.639 19.86 18.879 22.06 34.815l.25 2.207-1.96.49c-7.11 1.961-14.22 3.677-21.09 4.413zm4.9-35.795v30.156c5.15-.735 10.3-1.961 15.44-3.432-1.96-11.523-7.84-21.33-15.44-26.724z" fill="#dcede0"/><path d="m1233.71 764.695c-1.96-14.465-9.56-27.459-20.59-32.853v37.266c6.37-.735 13.48-2.206 20.59-4.413z" fill="url(#J)"/><path d="m1210.67 772.05v-44.131l3.43 1.716c11.52 5.639 19.86 18.879 22.06 34.815l.25 2.207-1.96.49c-7.11 1.961-14.22 3.677-21.09 4.413zm4.9-35.795v30.156c5.15-.735 10.3-1.961 15.44-3.432-1.96-11.523-7.84-21.33-15.44-26.724z" fill="#dcede0"/><path d="m1213.12 782.838c7.84 9.807 14.22 16.181 14.22 16.181 6.13-10.542 8.09-23.046 6.37-34.324-7.11 2.207-14.22 3.433-20.59 4.413z" fill="url(#K)"/><path d="m1227.83 803.187-2.21-2.206c-.24-.245-6.37-6.62-14.46-16.427l-.49-.735v-16.672l2.2-.245c6.62-.981 13.49-2.452 20.35-4.413l2.7-.736.49 2.697c1.71 12.749-.74 25.498-6.87 36.04zm-12.26-21.33c4.66 5.884 8.82 10.298 11.28 12.994 3.92-8.09 5.64-17.652 4.9-26.969-5.39 1.471-10.79 2.697-16.18 3.433z" fill="#dcede0"/><path d="m1213.12 782.838c7.84 9.807 14.22 16.181 14.22 16.181 6.13-10.542 8.09-23.046 6.37-34.324-7.11 2.207-14.22 3.433-20.59 4.413z" fill="url(#L)"/><path d="m1227.83 803.187-2.21-2.206c-.24-.245-6.37-6.62-14.46-16.427l-.49-.735v-16.672l2.2-.245c6.62-.981 13.49-2.452 20.35-4.413l2.7-.736.49 2.697c1.71 12.749-.74 25.498-6.87 36.04zm-12.26-21.33c4.66 5.884 8.82 10.298 11.28 12.994 3.92-8.09 5.64-17.652 4.9-26.969-5.39 1.471-10.79 2.697-16.18 3.433z" fill="#dcede0"/><path d="m1213.12 782.838c7.84 9.807 14.22 16.181 14.22 16.181 6.13-10.542 8.09-23.046 6.37-34.324-7.11 2.207-14.22 3.433-20.59 4.413z" fill="url(#M)"/><path d="m1227.83 803.187-2.21-2.206c-.24-.245-6.37-6.62-14.46-16.427l-.49-.735v-16.672l2.2-.245c6.62-.981 13.49-2.452 20.35-4.413l2.7-.736.49 2.697c1.71 12.749-.74 25.498-6.87 36.04zm-12.26-21.33c4.66 5.884 8.82 10.298 11.28 12.994 3.92-8.09 5.64-17.652 4.9-26.969-5.39 1.471-10.79 2.697-16.18 3.433z" fill="#dcede0"/><path d="m1225.62 801.716s0 .245 0 0c.74-.735 1.23-1.716 1.72-2.697 0 0-.74.981-1.72 2.697z" fill="url(#N)"/><path d="m1225.62 801.716s0 .245 0 0c.74-.735 1.23-1.716 1.72-2.697 0 0-.74.981-1.72 2.697z" fill="url(#O)"/><path d="m1225.62 801.716s0 .245 0 0c.74-.735 1.23-1.716 1.72-2.697 0 0-.74.981-1.72 2.697z" fill="url(#P)"/><path d="m1180.02 711.983c-.25.245-.49.735-.98 1.226.24.245.49.49.73.735 0-.735 0-1.471.25-1.961z" fill="url(#Q)"/><path d="m1181.98 719.583-3.92-4.168c-.25-.245-.49-.49-.49-.735l-1.72-1.716 1.47-1.962c.25-.245.49-.49.74-.981l5.14-5.884-.73 7.601v1.226z" fill="#dcede0"/><path d="m1180.02 711.983c-.25.245-.49.735-.98 1.226.24.245.49.49.73.735 0-.735 0-1.471.25-1.961z" fill="url(#R)"/><path d="m1181.98 719.583-3.92-4.168c-.25-.245-.49-.49-.49-.735l-1.72-1.716 1.47-1.962c.25-.245.49-.49.74-.981l5.14-5.884-.73 7.601v1.226z" fill="#dcede0"/><path d="m1185.66 739.933c4.17 11.278 9.56 21.575 15.2 30.401h2.45c-6.62-9.316-12.99-19.859-17.65-30.401z" fill="url(#S)"/><path d="m1199.63 772.786-.73-1.226c-6.38-10.052-11.53-20.349-15.45-30.892l4.66-1.716c3.92 9.071 9.81 19.123 17.41 29.911l2.69 3.678-4.41.245c-.73 0-1.72 0-2.45.245z" fill="#dcede0"/><path d="m1185.66 739.933c4.17 11.278 9.56 21.575 15.2 30.401h2.45c-6.62-9.316-12.99-19.859-17.65-30.401z" fill="url(#T)"/><path d="m1199.63 772.786-.73-1.226c-6.38-10.052-11.53-20.349-15.45-30.892l4.66-1.716c3.92 9.071 9.81 19.123 17.41 29.911l2.69 3.678-4.41.245c-.73 0-1.72 0-2.45.245z" fill="#dcede0"/><path d="m1185.66 739.933c4.17 11.278 9.56 21.575 15.2 30.401h2.45c-6.62-9.316-12.99-19.859-17.65-30.401z" fill="url(#U)"/><path d="m1199.63 772.786-.73-1.226c-6.38-10.052-11.53-20.349-15.45-30.892l4.66-1.716c3.92 9.071 9.81 19.123 17.41 29.911l2.69 3.678-4.41.245c-.73 0-1.72 0-2.45.245z" fill="#dcede0"/><path d="m1200.86 770.334c3.92 6.375 8.09 12.014 12.01 16.917v-4.413c-3.19-3.678-6.37-8.091-9.81-12.749-.49 0-1.22.245-2.2.245z" fill="url(#V)"/><path d="m1215.57 794.361-4.42-5.394c-4.65-5.884-8.58-11.278-12.25-17.162l-2.21-3.678 4.17-.245h2.45 1.47l.74.981c2.94 4.168 6.13 8.336 9.56 12.504l.49.735z" fill="#dcede0"/><path d="m1200.86 770.334c3.92 6.375 8.09 12.014 12.01 16.917v-4.413c-3.19-3.678-6.37-8.091-9.81-12.749-.49 0-1.22.245-2.2.245z" fill="url(#W)"/><path d="m1215.57 794.361-4.42-5.394c-4.65-5.884-8.58-11.278-12.25-17.162l-2.21-3.678 4.17-.245h2.45 1.47l.74.981c2.94 4.168 6.13 8.336 9.56 12.504l.49.735z" fill="#dcede0"/><path d="m1200.86 770.334c3.92 6.375 8.09 12.014 12.01 16.917v-4.413c-3.19-3.678-6.37-8.091-9.81-12.749-.49 0-1.22.245-2.2.245z" fill="url(#X)"/><path d="m1215.57 794.361-4.42-5.394c-4.65-5.884-8.58-11.278-12.25-17.162l-2.21-3.678 4.17-.245h2.45 1.47l.74.981c2.94 4.168 6.13 8.336 9.56 12.504l.49.735z" fill="#dcede0"/><path d="m1179.77 713.944c-.24-.245-.49-.49-.73-.735-.25.245-.25.49-.49.49.49 2.942.98 5.639 1.71 8.336-.49-2.697-.49-5.639-.49-8.091z" fill="url(#Y)"/><path d="m1177.81 722.525c-.73-3.187-1.22-5.884-1.72-8.581l-.24-.981 2.94-3.677 2.21 2.452c.24.245.24.245.49.49l.73.735v.981c0 2.452 0 5.149.49 7.601z" fill="#dcede0"/><path d="m1179.77 713.944c-.24-.245-.49-.49-.73-.735-.25.245-.25.49-.49.49.49 2.942.98 5.639 1.71 8.336-.49-2.697-.49-5.639-.49-8.091z" fill="url(#Z)"/><path d="m1177.81 722.525c-.73-3.187-1.22-5.884-1.72-8.581l-.24-.981 2.94-3.677 2.21 2.452c.24.245.24.245.49.49l.73.735v.981c0 2.452 0 5.149.49 7.601z" fill="#dcede0"/><path d="m1179.77 713.944c-.24-.245-.49-.49-.73-.735-.25.245-.25.49-.49.49.49 2.942.98 5.639 1.71 8.336-.49-2.697-.49-5.639-.49-8.091z" fill="url(#aa)"/><path d="m1177.81 722.525c-.73-3.187-1.22-5.884-1.72-8.581l-.24-.981 2.94-3.677 2.21 2.452c.24.245.24.245.49.49l.73.735v.981c0 2.452 0 5.149.49 7.601z" fill="#dcede0"/><path d="m1213.12 782.838v4.413c4.41 5.639 8.82 10.543 12.5 14.465 1.23-1.716 1.72-2.697 1.72-2.697s-6.38-6.374-14.22-16.181z" fill="url(#ab)"/><path d="m1225.87 805.639-2.21-2.207c-4.9-5.148-8.83-9.806-12.5-14.71l-.49-.735v-12.259l4.41 5.394c7.84 9.561 13.97 15.936 13.97 16.181l1.47 1.471z" fill="#dcede0"/><path d="m1213.12 782.838v4.413c4.41 5.639 8.82 10.543 12.5 14.465 1.23-1.716 1.72-2.697 1.72-2.697s-6.38-6.374-14.22-16.181z" fill="url(#ac)"/><path d="m1225.87 805.639-2.21-2.207c-4.9-5.148-8.83-9.806-12.5-14.71l-.49-.735v-12.259l4.41 5.394c7.84 9.561 13.97 15.936 13.97 16.181l1.47 1.471z" fill="#dcede0"/><path d="m1213.12 782.838v4.413c4.41 5.639 8.82 10.543 12.5 14.465 1.23-1.716 1.72-2.697 1.72-2.697s-6.38-6.374-14.22-16.181z" fill="url(#ad)"/><path d="m1225.87 805.639-2.21-2.207c-4.9-5.148-8.83-9.806-12.5-14.71l-.49-.735v-12.259l4.41 5.394c7.84 9.561 13.97 15.936 13.97 16.181l1.47 1.471z" fill="#dcede0"/><path d="m1213.12 782.838v4.413c4.41 5.639 8.82 10.543 12.5 14.465 1.23-1.716 1.72-2.697 1.72-2.697s-6.38-6.374-14.22-16.181z" fill="url(#ae)"/><path d="m1225.87 805.639-2.21-2.207c-4.9-5.148-8.83-9.806-12.5-14.71l-.49-.735v-12.259l4.41 5.394c7.84 9.561 13.97 15.936 13.97 16.181l1.47 1.471z" fill="#dcede0"/><path d="m1437.21 586.699c-4.66-11.523-33.1-55.164-37.03-54.673-3.92.49-1.71 21.575-1.22 42.169.49 19.124-53.45 219.676-63.26 264.297-.73 2.942 2.7 5.149 5.15 3.433 5.4-3.923 12.75-11.278 17.9-23.537 8.58-21.085 38.74-40.944 64.48-61.048 25.5-20.104 10.05-50.996 8.58-62.274s-6.62-32.608 5.15-53.203c11.77-20.839 4.9-43.395.25-55.164z" fill="url(#af)"/><path d="m1338.89 845.112c-.98 0-2.21-.245-3.19-.981-1.96-1.226-2.94-3.677-2.45-6.129 3.43-14.956 11.53-47.073 21.09-84.585 17.89-70.365 42.41-166.963 42.17-179.221 0-4.904-.25-9.807-.49-14.711-.74-21.82-.98-29.421 3.92-29.911 1.47-.245 4.17-.49 20.59 23.782 7.36 11.033 16.43 25.988 19.13 32.363 8.58 21.82 8.33 41.434-.49 57.125-10.06 17.652-7.36 35.795-5.4 47.564.25 1.471.49 2.942.49 4.167.25 1.962.98 4.659 1.96 7.846 3.93 14.71 10.79 39.228-11.27 56.635-4.42 3.432-9.07 7.11-13.73 10.542-21.09 16.182-43.15 32.854-50.02 49.525-5.15 12.749-12.99 20.35-18.63 24.518-1.23.981-2.45 1.471-3.68 1.471zm62.27-309.654c-.73 4.168-.49 14.956 0 24.027.25 4.658.5 9.807.5 14.711.24 12.994-23.3 105.914-42.42 180.447-9.56 37.266-17.65 69.384-21.08 84.34 0 .49.24.735.24.98.25.245.49.245.98 0 5.15-3.923 12.26-10.787 17.16-22.556 7.36-17.897 29.91-35.06 51.49-51.731 4.66-3.433 9.07-7.11 13.73-10.543 19.61-15.446 13.48-37.266 9.56-51.486-.98-3.187-1.71-6.129-1.96-8.336-.25-1.226-.49-2.452-.49-3.923-1.72-11.768-4.9-31.627 6.13-50.751 8.09-14.22 8.33-32.608.24-52.957-4.16-10.297-27.46-45.357-34.08-52.222z" fill="#dcede0"/><path d="m1437.21 591.603c-4.66-11.523-33.1-55.164-37.03-54.674-3.92.49-1.71 21.575-1.22 42.17.49 19.123-53.45 219.675-63.26 264.297-.73 2.942 2.7 5.148 5.15 3.432 5.4-3.923 12.75-11.278 17.9-23.537 8.58-21.085 38.74-40.944 64.48-61.048 25.5-20.104 10.05-50.996 8.58-62.274s-6.62-32.608 5.15-53.202c11.77-20.84 4.9-43.396.25-55.164z" fill="url(#ag)"/><path d="m1338.89 850.015c-.98 0-2.21-.245-3.19-.98-1.96-1.226-2.94-3.678-2.45-6.13 3.43-14.955 11.53-47.073 21.09-84.584 17.89-70.365 42.41-166.963 42.17-179.222 0-4.904-.25-9.807-.49-14.71-.74-21.821-.98-29.421 3.92-29.912 1.47-.245 4.17-.49 20.59 23.782 7.36 11.033 16.43 25.989 19.13 32.363 8.58 21.821 8.33 41.434-.49 57.125-10.06 17.653-7.36 35.796-5.4 47.564.25 1.471.49 2.942.49 4.168.25 1.961.98 4.658 1.96 7.846 3.93 14.71 10.79 39.227-11.27 56.635-4.42 3.432-9.07 7.11-13.73 10.542-21.09 16.181-43.15 32.853-50.02 49.525-5.15 12.749-12.99 20.349-18.63 24.517-1.23.981-2.45 1.471-3.68 1.471zm62.27-309.653c-.73 4.168-.49 14.955 0 24.027.25 4.658.5 9.806.5 14.71.24 12.994-23.3 105.915-42.42 180.447-9.56 37.267-17.65 69.384-21.08 84.34 0 .49.24.736.24.981.25.245.49.245.98 0 5.15-3.923 12.26-10.788 17.16-22.556 7.36-17.898 29.91-35.06 51.49-51.732 4.66-3.432 9.07-7.11 13.73-10.542 19.61-15.446 13.48-37.267 9.56-51.487-.98-3.187-1.71-6.129-1.96-8.335-.25-1.226-.49-2.452-.49-3.923-1.72-11.769-4.9-31.628 6.13-50.751 8.09-14.22 8.33-32.608.24-52.958-4.16-10.297-27.46-45.357-34.08-52.221z" fill="#dcede0"/><path d="m1260.19 968.434h-4.17v-.981c-2.21-21.82-2.94-45.847-3.19-63.254-.24-7.11-.24-12.995-.49-17.408l2.46-.245z" fill="#dcede0"/><path d="m1298.44 968.434h-3.44l.5-1.471c10.54-38.247 31.62-106.16 37.51-121.116l2.2.736z" fill="#dcede0"/><path d="m1221.21 1102.54c0 2.7 2.2 4.91 4.9 4.91h102.97c2.7 0 4.91-2.21 4.91-4.91v-129.203c0-2.696-2.21-4.903-4.91-4.903h-102.97c-2.7 0-4.9 2.207-4.9 4.903z" fill="#fff" opacity=".49"/><path d="m1211.16 1229.05 1.71 28.69 1.72 29.66c50.99-27.46 99.54-61.53 143.67-98.07l-6.62-83.35c-46.58 0-95.86 0-147.35.24l4.66 80.91z" fill="url(#ah)"/><path d="m1200.86 1258.96-1.47-19.85-8.34-104.94-2.21-26.48c-8.58 0-17.16 0-25.98 0-42.42 0-86.55 0-131.91 0-137.539 0-628.621-.73-877.717-.98 84.34 110.33 200.307 199.33 339.32 242.72 239.044 74.29 471.958 55.17 672.757-37.51 16.18-7.6 32.12-15.44 47.56-23.78h-9.81z" fill="url(#ai)"/><path d="m1366.84 1107.45 4.17 72.57c17.9-15.45 34.81-31.38 51.24-48.06 7.84-8.09 15.44-16.18 22.8-24.51-25.25 0-51.24 0-78.21 0z" fill="#eaebec"/><path d="m1197.18 424.885c3.43-6.374 4.9-13.73 3.19-20.594-1.47-5.885-5.4-10.053-10.3-12.504 7.36-7.11 6.87-23.782 2.21-40.209-3.68-12.994-12.75-25.743-22.07-32.117-3.68-5.394-9.07-8.581-15.44-9.072 0-.245 0-.49-.25-.49-3.43-12.749-19.86-15.936-32.85-12.504-2.21.49-4.17 1.226-5.89 2.207-.24-.981-.98-1.717-1.71-1.962-4.91-1.716-8.83-2.451-21.09 0-3.92.736-6.62 2.207-8.58 3.923-6.13 1.471-11.77 3.923-17.16 7.11-8.58-.49-17.9 6.375-21.82 17.162-.98 2.697-1.47 5.149-1.72 7.846-4.41 8.581-7.11 18.388-7.11 28.685v30.892c-3.43 5.394-4.66 12.258-2.94 18.878.25.981.74 2.207.98 3.187-1.96 6.375-1.47 14.22.49 21.33 2.21 8.336 5.64 13.24 11.28 14.956 4.41 5.639 10.05 10.297 16.43 13.485 2.2.98 4.9 7.355 6.86 8.335 1.96 1.226 12.26-3.187 18.88-3.677l30.65 1.226s0 0 0-.245l-5.64-18.634-4.66 1.226c-16.92 4.413-34.33-6.129-38-23.291l-3.44-16.427c-.73.491-1.47.736-2.45.736-.73.245-1.47.245-2.2.245-2.95 0-5.89-1.226-8.34-3.433-2.94-2.696-4.9-6.619-5.88-10.787-.25-1.471-.49-2.942-.49-4.168 0-7.6 3.92-13.975 9.8-15.201.74-.245 1.47-.245 2.21-.245l-2.7-12.749c10.05-2.697 19.62-8.091 26.73-15.936l22.31-23.782c-2.21 5.149-2.7 11.523-.98 17.898 1.22 4.167 3.18 7.845 5.63 10.787.5 1.471.99 2.697 1.48 4.168.24.736.73 1.471.98 2.452 2.2 4.903 4.9 9.562 8.09 13.73l4.17 5.393 2.69 3.433 8.83 11.523c.98 1.226 1.96 2.452 2.7 3.923.24 1.716.49 3.432.98 5.148 1.22 4.904 3.43 9.072 6.37 12.259 3.43 14.465 1.23 30.401-3.68 46.338 0 0 1.23.49 2.94.735 5.4 0 14.72-2.942 15.7-2.452.49.246 1.47.491 2.2.491.74 0 1.47 0 2.21-.245l2.45-.981c1.23-.49 3.43-.736 5.15-.981h3.19c1.47 0 2.94-.735 3.67-2.206 0-.245.25-.245.25-.491l3.19-.49c12.5-3.432 16.42-16.917 12.99-29.421z" fill="#5c3a34"/><path d="m1237.88 496.23c0-10.787-6.13-20.839-16.18-25.007-1.96-.981-4.42-1.471-7.11-1.716-.49 0-.98 0-1.47 0-.25 0-.49 0-.74 0h-35.55c.74 15.445-46.09 51.486-49.77 50.015-9.81-3.923-6.62-37.021-7.11-48.544 0 0 0 0 0-.246l-.49-1.471h-25.99c-17.16-1.226-34.32 7.601-42.9 24.027-2.46 4.659-3.93 9.317-4.66 14.22l-32.12 84.095c-1.23.49-2.21 1.226-3.43 1.961l-50.507 14.956 9.071 34.079 7.11-1.471c3.187-4.413 8.091-7.355 13.975-7.846h22.551l11.53-2.452c5.88-.245 11.03-3.187 14.71-7.355l11.77-13.239.49 18.388-17.17 3.432.25 28.195h15.2 2.7l.24 12.259h170.89l6.62-98.069 7.11-73.552c.24-1.471.49-3.188.49-4.659z" fill="#40327a"/><path d="m892.431 637.941 6.864 25.988 11.769-1.961-10.052-27.215z" fill="#40327a"/><path d="m740.423 671.529h-25.252c-1.717 0-3.188-1.471-3.188-3.187v-44.867c0-1.716 1.471-3.187 3.188-3.187h25.252c1.717 0 3.188 1.471 3.188 3.187v44.867c.245 1.716-1.226 3.187-3.188 3.187z" fill="#fff"/><path d="m740.423 673.981h-25.253c-3.187 0-5.639-2.697-5.639-5.639v-44.867c0-3.187 2.697-5.639 5.639-5.639h25.253c3.187 0 5.639 2.697 5.639 5.639v44.867c.245 2.942-2.452 5.639-5.639 5.639zm-25.253-51.486c-.49 0-.735.49-.735.735v44.867c0 .49.49.735.735.735h25.253c.491 0 .736-.49.736-.735v-44.867c0-.49-.491-.735-.736-.735z" fill="#40327a"/><path d="m736.745 622.004c-.245 0-.245 0 0 0-1.471 0-2.452-1.226-2.452-2.697l1.226-14.955c0-1.471 1.226-2.452 2.697-2.207 1.471 0 2.452 1.226 2.206 2.697l-1.226 14.956c-.245 1.226-1.225 2.206-2.451 2.206z" fill="#fbba23"/><path d="m721.79 621.269c-1.471 0-2.452-.981-2.452-2.452v-19.614c0-1.471.981-2.452 2.452-2.452s2.451.981 2.451 2.452v19.614c0 1.226-1.226 2.452-2.451 2.452z" fill="#fbba23"/><path d="m729.39 621.269c-1.226 0-2.451-.981-2.451-2.452l-.246-36.776c0-1.471.981-2.452 2.452-2.452 1.226 0 2.452.981 2.452 2.452l.245 36.776c0 1.226-.981 2.452-2.452 2.452z" fill="#fbba23"/><path d="m740.178 639.657h-26.969c-1.471 0-2.452-.981-2.452-2.452s.981-2.452 2.452-2.452h26.969c1.471 0 2.451.981 2.451 2.452s-1.225 2.452-2.451 2.452z" fill="#40327a"/><path d="m740.178 651.915h-26.969c-1.471 0-2.452-.98-2.452-2.451s.981-2.452 2.452-2.452h26.969c1.471 0 2.451.981 2.451 2.452s-1.225 2.451-2.451 2.451z" fill="#40327a"/><path d="m723.016 596.752c0 1.471-1.226 2.451-2.452 2.451s-2.452-.98-2.452-2.451c0-1.472 1.226-2.452 2.452-2.452s2.452.98 2.452 2.452z" fill="#ffc5bb"/><path d="m730.371 582.041c0 1.471-1.226 2.452-2.451 2.452-1.226 0-2.452-.981-2.452-2.452s1.226-2.452 2.452-2.452c1.225 0 2.451.981 2.451 2.452z" fill="#ffc5bb"/><path d="m739.687 604.842c-.245 1.226-1.226 2.452-2.207 2.207-.98-.245-1.716-1.226-1.471-2.697.246-1.226 1.226-2.452 2.207-2.207.981.246 1.716 1.471 1.471 2.697z" fill="#ffc5bb"/><path d="m845.603 606.558h37.511l-1.226-49.034h-36.285z" fill="#fff"/><path d="m755.624 658.045c-.98 0-1.716-.491-2.206-1.226-.736-1.226-.245-2.697.981-3.187 4.903-2.452 9.561-4.659 13.729-6.13 1.226-.49 2.697.245 3.187 1.471.491 1.226-.245 2.697-1.471 3.188-3.922 1.471-8.335 3.432-12.994 6.129-.245-.245-.735-.245-1.226-.245z" fill="#b9bdc1"/><path d="m1134.42 961.079h.49l.98-8.091.49 14.22 54.67 166.722-34.32-428.322-.74-8.581h-101.75c-2.69 13.73-2.45 28.195-2.45 41.68v31.627 1.716l.25 1.717 21.08 184.86 3.44.245h-3.44l15.45 264.538 8.83-1.71 26.23.24c2.94-29.66 18.63-184.61 18.63-188.78s-6.62-61.048-7.84-72.081z" fill="url(#ak)"/><path d="m1124.36 1221.94c-.49 0-1.71 0-3.18 0l-21.33-.24c-1.23 0-3.44.24-4.91.49l-3.92.73c-1.22.25-3.43.74-4.9.98l-54.43 10.55c-1.23.24-3.19 1.22-4.17 1.96l-6.37 6.86c-.74.98-.98 2.95-.49 4.17l10.78 2.94c1.23.49 3.44.98 4.66.98h86.55c1.22 0 2.45-.98 2.45-2.45v-24.52c0-1.47-.24-2.45-.74-2.45z" fill="#323756"/><path d="m1036.35 634.263c-1.23 0-2.21-.736-2.46-1.961-.24-1.226.49-2.697 1.97-2.942l134.35-27.215c.49 0 .74-.49.74-.735l2.69-60.803c0-1.471 1.23-2.452 2.45-2.452 1.48 0 2.46 1.226 2.46 2.452l-2.7 60.803c0 2.697-1.96 4.903-4.66 5.394l-134.35 27.214c-.25.245-.49.245-.49.245z" fill="#fff" opacity=".25"/><g fill="#fff" opacity=".25"><path d="m1076.31 662.948c-1.47 0-2.45-.981-2.45-2.452s.98-2.451 2.45-2.451h2.45c39.23 0 120.63-.245 124.3-.736 2.21-.49 9.57-4.413 13.49-8.826 2.94-3.187 5.88-8.581 7.11-11.033l.24-.735c.74-1.226 2.21-1.717 3.44-.981 1.22.736 1.71 2.207.98 3.432l-.25.736c-1.47 2.697-4.66 8.336-7.84 12.013-4.42 4.904-12.75 9.562-16.18 10.298-1.72.245-33.35.49-125.04.735z" opacity=".25"/><path d="m1226.11 640.637c-1.47-.245-2.45-1.225-2.45-2.696l6.13-67.913c0-1.226 1.22-2.452 2.69-2.207 1.23.245 2.46 1.226 2.21 2.697l-6.13 67.913c0 1.226-1.22 2.206-2.45 2.206z" opacity=".25"/></g><path d="m1196.94 1154.77c-.99 0-1.97-.74-2.46-1.72l-59.33-181.674c-.24-.49-.24-.981-.24-1.471l-6.62-184.615c0-1.471.98-2.452 2.45-2.452 1.22 0 2.45.981 2.45 2.452l6.62 184.615 59.58 181.915c.49 1.23-.25 2.7-1.47 3.19-.49-.49-.74-.24-.98-.24z" fill="#fff"/><path d="m1179.53 675.207h-25.5l1.72 22.065h25z" fill="#b9bdc1"/><path d="m1187.62 1253.08c-.74.98-.49 2.45.73 2.94l10.06 2.45c1.22.25 2.45-.73 2.2-2.2l-1.22-14.96c0-1.22-.98-1.47-1.72-.49z" fill="#323756"/><path d="m1252.83 1227.83h.5l-25.5-199.82-26.97-71.099 24.52-175.054 4.9-35.06s.73-29.42-8.83-49.77h-41.19l28.44 491.573 10.79 32.85 14.47 2.7h18.63z" fill="url(#al)"/><path d="m1252.83 1230.28c0-1.23-.24-3.19-.24-4.17s-1.23-1.72-2.45-1.72h-13.73c-1.23 0-3.68 0-4.91 0h-9.07c-1.22 0-3.43.74-4.41 1.48l-4.9 3.43c-1.23.73-1.96 2.45-1.96 3.92l1.47 23.78c0 1.23.73 2.45 1.47 2.45.73 0 3.43-.49 4.66-.73l32.6-10.79c1.23-.49 2.21-1.96 2.21-3.19z" fill="#323756"/><path d="m1180.75 697.272h-24.76l.74 8.582 32.36 401.836h15.45z" fill="#b9bdc1"/><path d="m1212.87 1259.21-1.71-28.69-2.46-41.92-4.65-80.91c-5.15 0-10.3 0-15.45 0l2.21 26.48 8.33 104.94 1.47 19.85 2.46 29.18h9.8c.49-.25.74-.49 1.23-.74z" fill="#b9bdc1"/><path d="m882.134 661.477 4.413-.981h-4.658z" fill="#40327a"/><path d="m896.353 627.643-12.503 4.659-8.581 3.187 6.619 25.008h4.659l82.623-17.653-8.826-34.324z" fill="#40327a"/><path d="m969.17 642.844-9.072-34.079-25.743-97.824h-171.621-6.62l31.873 121.115 7.355 28.44h6.62 50.75 28.931 4.413 83.604 3.923zm-102.237-42.17c-8.336 0-17.163-6.865-19.369-15.2-2.207-8.336 2.942-15.201 11.278-15.201s17.162 6.865 19.369 15.201c2.206 8.335-2.943 15.2-11.278 15.2z" fill="#cdc2ff"/><path d="m1064.3 396.445 2.69 12.259c.98-.736 1.96-1.717 2.46-3.188 1.22-2.697 1.47-5.884.73-9.316-.74-3.433-2.21-6.13-4.41-8.091-1.23-1.226-2.45-1.716-3.93-1.961z" fill="#ffc5bb"/><path d="m1068.95 384.186c2.46 2.207 4.17 5.149 5.15 8.336l5.4-1.226c0-2.451.49-4.903 1.22-6.864 1.47-3.923 4.17-6.375 7.6-7.11 3.44-.736 6.87.49 9.81 3.677 1.72 1.716 3.19 3.923 4.17 6.62l24.27-4.904-4.17-5.393c-3.18-4.168-5.88-8.827-8.09-13.73-.98-2.207-1.71-4.168-2.45-6.62-2.45-2.942-4.41-6.62-5.64-10.787-1.72-6.375-1.22-12.504.98-17.898l-22.31 23.782c-7.35 7.845-16.67 13.239-26.72 15.936l2.69 12.749c2.95 0 5.64 1.226 8.09 3.432z" fill="#ffc5bb"/><path d="m1167.51 463.868c-.73.245-1.47.245-2.2.245-.74 0-1.72-.245-2.21-.491-.98-.245-10.3 2.697-15.69 2.452-1.72 0-2.94-.735-2.94-.735 5.15-16.182 7.11-31.873 3.68-46.338-2.95-3.187-5.15-7.355-6.38-12.259-.49-1.716-.73-3.432-.98-5.148-.74-1.226-1.72-2.452-2.7-3.923l-8.82-11.523.24.98-25.74 5.149c.73 4.168.49 8.581-.74 12.014-1.47 3.922-4.16 6.374-7.6 7.11-.49 0-1.22.245-1.71.245-5.89 0-11.77-6.13-13.49-14.711 0-.245 0-.245 0-.49l-4.9.981c.24 3.677 0 7.11-1.47 10.052-1.23 2.942-3.43 5.148-5.89 6.374l3.44 16.427c3.67 17.162 21.08 27.704 38 23.291l4.66-1.226 5.14 17.163.5 1.471v.245c.73 11.278-2.7 44.621 7.11 48.544 3.67 1.471 50.5-34.569 49.77-50.015-.25-2.452-.74-4.904-1.48-7.11-1.96.245-3.92.49-5.14.98z" fill="#ffc5bb"/><path d="m1094.45 406.497c2.21-.49 3.44-2.697 3.93-4.168.98-2.697 1.22-6.129.49-9.562-.74-3.432-2.21-6.619-4.17-8.581-.98-.98-2.45-2.206-4.41-2.206-.25 0-.5 0-.74 0-2.21.49-3.43 2.697-3.92 4.168-.98 2.697-1.23 6.129-.49 9.561 1.22 6.865 5.39 11.769 9.31 10.788z" fill="#ffc5bb"/><path d="m1065.28 401.103-9.81 1.962c.74 1.716 1.72 3.187 3.19 4.413 1.96 1.716 4.17 2.452 6.13 2.206.73-.245 1.71-.49 2.2-1.225l-2.69-12.014z" fill="#5c3a34"/><path d="m1059.64 385.657c-3.68.736-6.13 4.904-5.89 10.298 0 .735 0 1.716.25 2.451l10.3-2.206-2.21-10.543c-.49 0-.74-.245-1.23-.245-.49.245-.98.245-1.22.245z" fill="#5c3a34"/><path d="m1129.51 387.128-.24-.98-2.7-3.433-24.27 4.904c-.98-2.452-2.45-4.904-4.17-6.62-2.94-2.942-6.37-4.413-9.81-3.678-3.43.736-6.13 3.188-7.6 7.111-.73 1.961-1.22 4.413-1.22 6.864l-5.4 1.226c-.98-3.187-2.94-6.129-5.14-8.336-2.46-2.206-5.4-3.432-8.34-3.432-.74 0-1.47 0-2.21.245-5.88 1.226-10.05 7.355-9.8 15.201 0 1.471.24 2.942.49 4.168.98 4.413 2.94 8.09 5.88 10.787 2.45 2.207 5.39 3.433 8.34 3.433.73 0 1.47 0 2.2-.245.74-.246 1.72-.491 2.45-.736 2.46-1.226 4.42-3.432 5.89-6.374s1.72-6.375 1.47-10.053l4.9-.98v.49c1.72 8.581 7.36 14.711 13.49 14.711.49 0 1.22 0 1.71-.246 3.44-.735 6.13-3.187 7.6-7.11 1.23-3.432 1.72-7.6.74-12.013zm-60.31 18.143c-.73 1.471-1.47 2.452-2.45 3.187-.74.491-1.47.981-2.21 1.226-1.96.491-4.17-.245-6.13-2.206-1.22-1.226-2.2-2.697-3.18-4.413l9.8-1.962-.98-4.658v-.245l-10.3 2.206c0-.735-.24-1.716-.24-2.451 0-5.394 2.45-9.562 5.88-10.298h.98c.49 0 .74 0 1.23.246 1.23.245 2.7.98 3.92 1.961 2.21 1.961 3.68 4.903 4.42 8.091.73 3.187.49 6.864-.74 9.316zm29.18-2.697c-.49 1.226-1.72 3.678-3.93 4.168-3.67.736-8.09-4.168-9.31-10.787-.74-3.433-.49-6.865.49-9.562.49-1.226 1.71-3.678 3.92-4.168h.74c1.96 0 3.67 1.471 4.41 2.207 1.96 1.961 3.43 5.148 4.17 8.581.73 3.432.49 6.864-.49 9.561z" fill="#323756"/><path d="m676.677 893.411-15.2 169.169h146.858l10.788-169.169z" fill="url(#an)" opacity=".5"/><path d="m886.546 893.166c9.317-.981 16.672-8.826 16.672-18.633l-17.408-107.386c0-10.297-8.335-18.633-18.633-18.633h-14.955l-12.994 144.652z" fill="url(#ao)" opacity=".5"/><path clip-rule="evenodd" d="m284.891 895.127c7.846-1.961 14.465-2.206 19.124-2.206 1.471.245 2.942.49 4.413.49h2.206 345.694l-10.787 169.169h-427.091-.246-6.374c-11.523 0-20.84-9.56-20.84-20.84v-2.92c-.162-1.21-.245-2.44-.245-3.7v-38.246-26.233-.246c0-.525.07-.98.135-1.403.057-.366.11-.707.11-1.048.49-5.885 2.206-20.595 7.845-27.215 7.11-8.335 71.591-41.924 86.056-45.602z" fill="url(#ap)" fill-rule="evenodd" opacity=".5"/><path d="m325.835 748.759c-10.297 0-18.633 8.336-18.633 18.633l-17.407 107.386c0 8.826 6.129 16.181 14.22 18.143 3.923 0 6.374.49 6.374.49h345.94v-.49h-2.942c-11.769 0-21.33-11.278-21.33-24.763l8.826-50.751c0-13.729 9.562-24.762 21.33-24.762h.49l2.697-43.396h-339.565zm215.998 143.917h-109.347c-11.769 0-21.33-11.278-21.33-24.763l8.826-50.751c0-13.73 9.562-24.762 21.33-24.762h91.695c11.768 0 21.33 11.278 21.33 24.762l8.826 50.751c0 13.73-9.562 24.763-21.33 24.763z" fill="url(#aq)" opacity=".5"/><path d="m753.907 792.154c11.769 0 21.33 11.278 21.33 24.763l8.827 50.751c0 13.729-9.562 24.762-21.33 24.762h-86.056v.491h142.445l9.072-144.653h-138.523l-3.923 43.396h68.158z" fill="url(#ar)" opacity=".5"/><path d="m987.803 940.729c-10.052-9.806-90.714-47.318-90.714-47.318h-10.788-47.318l-15.201 169.169h141.22 9.071c11.278 0 20.84-9.32 20.84-20.84v-71.345c.245.246 3.187-19.859-7.11-29.666z" fill="url(#as)" opacity=".5"/><path d="m676.678 893.411h142.445v-.245z" fill="url(#at)"/><path d="m676.678 893.411h142.445v-.245z" fill="url(#av)"/><path d="m310.634 893.411s-2.452-.49-6.375-.49c1.471.245 2.942.49 4.413.49z" fill="url(#aw)"/><path d="m310.634 893.411s-2.452-.49-6.375-.49c1.471.245 2.942.49 4.413.49z" fill="url(#ax)"/><path d="m662.458 792.154c-11.768 0-21.33 11.278-21.33 24.763l-8.826 50.751c0 13.729 9.562 24.762 21.33 24.762h2.942l6.374-100.521h-.49z" fill="#7760d9" opacity=".5"/><path d="m762.979 892.675c11.768 0 21.33-11.278 21.33-24.762l-8.827-50.751c0-13.73-9.561-24.762-21.33-24.762h-68.403l-9.071 100.521h86.301z" fill="#7760d9" opacity=".5"/><path d="m831.382 697.272-3.188 51.487-9.071 144.407h19.859l13.239-144.407 3.433-40.454.98-11.033z" fill="#b9bdc1"/><path d="m808.335 1062.58-9.562 152.01h11.524l13.484-152.01 15.201-169.169h-19.859z" fill="#b9bdc1"/><path d="m819.123 893.166v.245h19.859v-.245z" fill="#9ea3a9"/><path d="m668.832 697.272-3.187 51.487-2.697 43.396-6.375 100.521v.735h20.104v-.735l9.072-100.521 3.923-43.396 3.432-38.247.981-13.24z" fill="#b9bdc1"/><path d="m645.786 1062.58-10.297 164.27h11.278l14.711-164.27 15.2-169.169h-20.104z" fill="#b9bdc1"/><path d="m1343.55 697.272h-25.01l.74 8.582 32.11 398.656h15.45z" fill="#b9bdc1"/><path d="m1366.59 1104.51c-5.14 0-10.29 0-15.44 0l.24 2.94h15.45z" fill="#b9bdc1"/><path d="m1351.39 1107.45 6.62 81.88c4.42-3.67 8.59-5.63 12.75-9.31l-4.16-72.57c-4.91 0-10.06 0-15.21 0z" fill="#b9bdc1"/><path d="m1362.92 697.272v-24.517h-20.84l1.47 24.517z" fill="#7760d9"/><path d="m1342.08 672.755h-25.25-93.17-170.89-430.275v24.517h46.338 25.253 137.297 25.252 197.365 167.7 96.84 25.01z" fill="#7760d9"/><path d="m1034.39 632.056v-.735l-10.3 1.961h-11.03-22.56c-5.639.245-10.788 3.433-13.975 7.846-1.961 2.942-3.187 6.374-3.432 10.052 0 3.187.735 6.374 2.206 9.071h49.771.49 9.07z" fill="#ffc5bb"/><path d="m1034.39 660.496h-9.08-.24-50.016-178.486v12.259h279.502v-12.259z" fill="#b6a0fa"/><path d="m1102.3 430.279c.98 5.884-3.19 11.523-9.07 12.504-5.89.98-11.53-3.188-12.51-9.072z" fill="#fff"/><path d="m119.89 457.003c-1.226 0-2.452.981-2.452 2.452v17.652 4.903 46.093c0 1.226 1.226 2.452 2.452 2.452h71.836 3.432c.491 0 1.717.98 2.452 1.961l21.33 27.214c.736.981 1.471.736 1.471-.49l.491-26.234c0-1.225 1.225-2.451 2.451-2.451h9.072c1.471 0 2.451-1.226 2.451-2.452v-68.648c0-1.471-.98-2.452-2.451-2.452zm44.131 36.776c0 1.226-.98 2.452-2.451 2.452h-9.807c-1.226 0-2.452-1.226-2.452-2.452v-9.807c0-1.471 1.226-2.452 2.452-2.452h9.807c1.471 0 2.451.981 2.451 2.452zm26.969 0c0 1.226-.98 2.452-2.451 2.452h-9.807c-1.471 0-2.452-1.226-2.452-2.452v-9.807c0-1.471.981-2.452 2.452-2.452h9.807c1.471 0 2.451.981 2.451 2.452zm26.969 0c0 1.226-.98 2.452-2.451 2.452h-9.807c-1.471 0-2.452-1.226-2.452-2.452v-9.807c0-1.471.981-2.452 2.452-2.452h9.807c1.471 0 2.451.981 2.451 2.452z" fill="url(#az)"/><path d="m475.391 133.374c-1.471 0-2.452 1.226-2.452 2.452v10.297 4.904 28.93c0 1.471.981 2.452 2.452 2.452h48.054 3.187c.491 0 1.471.981 2.207 1.961l13.73 16.917c.735.981 1.471.736 1.471-.49l.245-15.936c0-1.226 1.226-2.452 2.452-2.452h4.658c1.471 0 2.452-.981 2.452-2.452v-44.131c0-1.226-.981-2.452-2.452-2.452zm29.421 24.518c0 1.471-.981 2.451-2.452 2.451h-4.903c-1.471 0-2.452-.98-2.452-2.451v-4.904c0-1.226.981-2.452 2.452-2.452h4.903c1.471 0 2.452 1.226 2.452 2.452zm17.162 0c0 1.471-.981 2.451-2.452 2.451h-4.903c-1.471 0-2.452-.98-2.452-2.451v-4.904c0-1.226.981-2.452 2.452-2.452h4.903c1.471 0 2.452 1.226 2.452 2.452zm19.614 0c0 1.471-.981 2.451-2.452 2.451h-4.903c-1.471 0-2.452-.98-2.452-2.451v-4.904c0-1.226.981-2.452 2.452-2.452h4.903c1.471 0 2.452 1.226 2.452 2.452z" fill="url(#aA)"/><path d="m615.14 155.44c-1.471 0-2.452 1.226-2.452 2.452v117.683c0 1.471.981 2.451 2.452 2.451h36.776c1.226 0 2.452 1.226 2.452 2.452v47.073c0 1.226.735 1.471 1.471.491l37.511-48.054c.736-.981 1.717-1.962 2.207-1.962h3.187 80.907c1.226 0 2.452-.98 2.452-2.451v-79.927c0-1.226 0-3.432 0-4.903v-32.853c0-1.226-1.226-2.452-2.452-2.452zm117.683 39.963c0 1.471-.735 3.187-1.716 4.168l-38.492 34.569c-.981.981-2.697.981-3.678 0l-17.897-16.181c-.981-.981-1.717-2.697-1.717-4.168v-14.465c0-1.226.736-1.716 1.962-.981l17.898 14.956c.98.98 2.696.735 3.677 0l38.492-34.815c.981-.981 1.717-.49 1.717.736v16.181z" fill="url(#aB)"/><path d="m126.02 474.165c-1.471 0-2.452-.981-2.452-2.452v-20.104c0-3.187 2.697-5.639 5.639-5.639h69.139c1.471 0 2.451.981 2.451 2.452s-.98 2.451-2.451 2.451h-69.139c-.49 0-.736.491-.736.736v20.104c0 1.226-1.226 2.452-2.451 2.452z" fill="#ee7b06"/><path d="m225.56 549.433c-1.716 0-3.433-.735-4.413-2.207l-17.898-22.555c-.245-.246-.49-.246-.735-.246h-73.307c-3.187 0-5.639-2.696-5.639-5.639v-25.007c0-1.471.981-2.452 2.452-2.452s2.451.981 2.451 2.452v25.007c0 .491.491.736.736.736h73.307c1.716 0 3.432.735 4.413 2.206l17.897 22.556c.246.491.736.246.981.246s.49-.246.49-.736v-18.388c0-3.187 2.697-5.639 5.639-5.639h10.788c.49 0 .736-.49.736-.735v-66.933c0-.49-.491-.735-.736-.735h-15.201c-1.471 0-2.451-.981-2.451-2.452s.98-2.452 2.451-2.452h15.201c3.187 0 5.639 2.697 5.639 5.639v66.933c0 3.187-2.697 5.639-5.639 5.639h-10.542c-.491 0-.736.49-.736.735v18.388c0 2.452-1.471 4.658-3.923 5.394-.735 0-1.226.245-1.961.245z" fill="#ee7b06"/><path d="m190.991 481.52h-14.711v14.711h14.711z" fill="#fff"/><path d="m217.959 481.52h-14.71v14.711h14.71z" fill="#fff"/><path d="m164.021 481.52h-14.71v14.711h14.71z" fill="#fff"/><path d="m931.904 495.495c-.246 0-.491 0-.736-.245-1.226-.491-1.961-1.962-1.471-3.188 1.716-4.658 2.942-9.316 4.168-13.729.245-1.226 1.716-2.207 2.942-1.716 1.226.245 2.207 1.716 1.716 2.942-1.226 4.658-2.697 9.561-4.413 14.22-.245 1.226-1.226 1.716-2.206 1.716zm6.864-28.44h-.245c-1.226-.245-2.206-1.471-2.206-2.697.735-4.904.98-9.562.98-14.465 0-1.471.981-2.452 2.452-2.452s2.452 1.226 2.452 2.452c0 4.903-.491 10.052-.981 14.955 0 1.226-1.226 2.207-2.452 2.207zm.491-29.421c-1.226 0-2.207-.981-2.452-2.206-.49-4.659-1.471-9.562-2.452-14.221-.245-1.225.491-2.696 1.716-2.942 1.226-.245 2.697.491 2.943 1.717 1.225 4.903 1.961 9.807 2.696 14.71.246 1.226-.735 2.452-2.206 2.697-.245.245-.245.245-.245.245zm-128.471-25.008c-4.903 0-9.316-1.225-13.73-3.432-1.225-.736-1.716-2.207-.98-3.187.735-1.226 2.206-1.717 3.187-.981 3.923 2.207 8.336 2.942 12.994 2.697 1.471 0 2.452.981 2.697 2.206 0 1.472-.981 2.452-2.207 2.697-.735 0-1.471 0-1.961 0zm121.361-3.432c-.981 0-1.962-.49-2.207-1.471-1.471-3.678-3.187-7.355-4.903-11.033-.245-.735-.736-1.471-1.226-1.961-.736-1.226-.245-2.697.981-3.433 1.225-.735 2.696-.245 3.432.981.49.736.735 1.471 1.226 2.207 1.961 3.677 3.677 7.6 5.148 11.523.491 1.226-.245 2.697-1.471 3.187-.245 0-.735 0-.98 0zm-105.67-.736c-.981 0-1.716-.49-2.206-1.225-.736-1.226-.246-2.697.98-3.433 3.678-1.961 7.601-4.903 11.278-8.336.981-.98 2.452-.98 3.433 0 .98.981.98 2.452 0 3.433-3.923 3.922-8.091 6.865-12.259 9.071-.49.245-.981.49-1.226.49zm-39.228-8.581c-.735 0-1.471-.245-1.961-.98-2.942-4.168-5.149-9.317-6.129-14.22-.245-1.226.49-2.697 1.961-2.942 1.226-.246 2.697.49 2.942 1.961.981 4.413 2.697 8.826 5.394 12.504.736.98.49 2.697-.49 3.432-.736.245-1.226.245-1.717.245zm60.558-11.278c-.49 0-.98-.245-1.471-.49-.981-.735-1.226-2.452-.49-3.432 2.697-3.678 5.394-7.601 8.09-12.014.736-1.226 2.207-1.471 3.433-.735 1.226.735 1.471 2.206.735 3.432-2.696 4.413-5.393 8.826-8.335 12.504-.491.49-1.226.735-1.962.735zm70.365-5.148c-.736 0-1.471-.245-1.961-.981-2.943-3.923-5.885-7.6-9.072-11.033-.981-.98-.981-2.451.245-3.432.981-.981 2.452-.981 3.433.245 3.432 3.678 6.619 7.6 9.561 11.768.736 1.226.491 2.697-.49 3.433-.735-.245-1.226 0-1.716 0zm-136.316-11.523c-.246 0-.491 0-.736 0-1.226-.246-1.961-1.717-1.716-2.942 1.471-5.149 4.168-9.807 8.091-13.485.98-.981 2.451-.981 3.432 0s.981 2.452 0 3.432c-3.187 3.188-5.639 6.865-6.865 11.278-.245.981-1.226 1.717-2.206 1.717zm81.152-8.336c-.245 0-.736 0-.981-.245-1.226-.491-1.716-1.962-1.226-3.188 2.207-4.413 3.923-9.071 5.394-13.239.245-.49.491-.736.736-1.226-2.942-.981-5.884-1.716-8.827-2.206-1.225-.246-2.206-1.472-1.961-2.943.245-1.225 1.471-2.206 2.942-1.961 4.904.981 9.807 2.452 14.465 4.168 1.226.49 1.962 1.961 1.471 3.187-.49 1.226-1.961 1.962-3.187 1.471-.245 0-.49-.245-.981-.245v1.471c-1.471 4.658-3.432 9.317-5.639 13.975-.49.49-1.225.981-2.206.981zm35.06-1.716c-.491 0-.981-.246-1.471-.491-3.678-2.942-7.601-5.639-11.769-8.091-1.226-.735-1.471-2.206-.98-3.432.735-1.226 2.206-1.471 3.432-.981 4.413 2.452 8.581 5.394 12.504 8.581.981.736 1.226 2.452.49 3.433-.735.735-1.471.981-2.206.981zm-96.599-10.543c-.98 0-1.716-.49-2.206-1.226-.736-1.226-.245-2.697.981-3.432 4.413-2.452 9.071-4.413 13.975-5.884 1.225-.491 2.696.245 3.187 1.716.49 1.226-.245 2.697-1.716 3.187-4.659 1.471-9.072 3.187-13.24 5.394-.245 0-.735.245-.981.245zm27.95-9.071c-1.226 0-2.206-.981-2.452-2.207-.245-1.226.736-2.697 2.207-2.697 4.904-.735 10.052-.98 15.201-.735 1.471 0 2.451 1.226 2.451 2.451 0 1.471-1.225 2.452-2.451 2.452-4.904-.245-9.562 0-14.22.736-.736 0-.736 0-.736 0zm42.905-6.62c-.245 0-.245 0-.49 0-1.226-.245-2.206-1.471-1.961-2.942.98-4.904 1.226-9.562 1.471-14.22 0-1.226 1.226-2.452 2.452-2.452 1.471 0 2.451 1.226 2.451 2.452 0 4.903-.49 10.052-1.471 14.955-.245 1.471-1.471 2.207-2.452 2.207zm0-29.176c-1.225 0-2.206-.735-2.451-1.961-.736-4.658-2.207-9.317-3.923-13.73-.49-1.226 0-2.697 1.471-3.187 1.226-.49 2.697 0 3.187 1.471 1.962 4.658 3.188 9.562 4.168 14.465.245 1.226-.735 2.697-1.961 2.942 0 0-.245 0-.491 0zm-10.787-27.214c-.736 0-1.471-.49-1.961-1.226-2.452-3.922-5.394-7.6-8.827-11.278-.98-.98-.98-2.451 0-3.432.981-.981 2.452-.981 3.433 0 3.432 3.678 6.619 7.6 9.316 11.768.736 1.226.491 2.697-.735 3.433-.245.735-.736.735-1.226.735zm-20.104-21.33c-.491 0-.981-.245-1.471-.49-3.678-2.942-7.846-5.394-12.014-7.846-1.226-.735-1.716-2.206-.981-3.432.736-1.226 2.207-1.716 3.433-.981 4.413 2.452 8.826 5.149 12.749 8.091.981.735 1.226 2.452.49 3.432-.735.981-1.471 1.226-2.206 1.226zm-25.743-13.975c-.246 0-.491 0-.736-.245-4.413-1.716-9.071-2.942-13.73-3.923-1.226-.245-2.206-1.471-1.961-2.942.245-1.226 1.471-2.206 2.942-1.961 4.904.981 9.807 2.452 14.465 4.168 1.226.49 1.962 1.961 1.471 3.187-.49 1.226-1.471 1.716-2.451 1.716z" fill="#b9bdc1"/><path d="m621.269 202.023c-1.471 0-2.452-.981-2.452-2.452v-54.428c0-3.188 2.697-5.639 5.639-5.639h29.911c1.472 0 2.452.98 2.452 2.451s-.98 2.452-2.452 2.452h-29.911c-.49 0-.735.49-.735.736v54.428c0 1.226-1.226 2.452-2.452 2.452z" fill="#ee7b06"/><path d="m666.136 312.596c-.736 0-1.226 0-1.962-.245-2.451-.736-3.922-2.942-3.922-5.394v-39.228c0-.49-.491-.735-.736-.735h-35.06c-3.187 0-5.639-2.697-5.639-5.639v-25.008c0-1.471.981-2.452 2.452-2.452s2.452.981 2.452 2.452v25.008c0 .49.49.735.735.735h35.06c3.187 0 5.639 2.697 5.639 5.639v39.228c0 .49.245.735.49.735.246 0 .736 0 .981-.245l35.305-44.376c.49-.49 1.226-.981 1.962-.981h26.233c1.471 0 2.452.981 2.452 2.452s-.981 2.452-2.452 2.452h-25.008l-34.569 43.64c-.981 1.226-2.697 1.962-4.413 1.962z" fill="#ee7b06"/><path d="m789.458 266.994h-17.652c-1.471 0-2.452-.981-2.452-2.452s.981-2.452 2.452-2.452h17.652c.49 0 .736-.49.736-.735v-116.212c0-.491-.491-.736-.736-.736h-96.108c-1.471 0-2.452-.981-2.452-2.452s.981-2.451 2.452-2.451h96.108c3.187 0 5.639 2.696 5.639 5.639v115.966c.245 3.188-2.452 5.885-5.639 5.885z" fill="#ee7b06"/><path d="m670.793 198.345c-.98-.981-1.961-.49-1.961.981v14.465c0 1.471.736 3.187 1.716 4.168l17.898 16.181c.981.981 2.697.981 3.677 0l38.493-34.569c.98-.981 1.716-2.697 1.716-4.168v-15.936c0-1.226-.736-1.717-1.716-.736l-38.002 34.57c-.981.98-2.697.98-3.678 0z" fill="#fff"/><path d="m330.739 631.076c-47.318 0-85.81 38.492-85.81 85.81 0 47.319 38.492 85.811 85.81 85.811 47.319 0 85.811-38.492 85.811-85.811 0-47.318-38.492-85.81-85.811-85.81zm-49.034 29.175c3.677 0 6.619 2.942 6.619 6.62s-2.942 6.62-6.619 6.62c-3.678 0-6.62-2.942-6.62-6.62s2.942-6.62 6.62-6.62zm4.903 96.108c-6.374 0-11.523-5.148-11.523-11.523 0-6.374 5.149-11.523 11.523-11.523 6.375 0 11.523 5.149 11.523 11.523 0 6.375-5.148 11.523-11.523 11.523zm51.487-3.187c-5.394 0-10.053-4.413-10.053-10.052 0-5.394 4.414-10.052 10.053-10.052 5.393 0 10.052 4.413 10.052 10.052s-4.659 10.052-10.052 10.052zm25.007-31.627c-3.677 0-6.62-2.942-6.62-6.62s2.943-6.62 6.62-6.62c3.678 0 6.62 2.942 6.62 6.62s-2.942 6.62-6.62 6.62zm-3.432-38.247c-6.375 0-11.523-5.149-11.523-11.523 0-6.375 5.148-11.524 11.523-11.524 6.374 0 11.523 5.149 11.523 11.524 0 6.374-5.149 11.523-11.523 11.523z" fill="url(#aC)"/><path d="m286.608 733.313c-6.374 0-11.523 5.149-11.523 11.523 0 6.375 5.149 11.523 11.523 11.523 6.375 0 11.523-5.148 11.523-11.523 0-6.374-5.148-11.523-11.523-11.523z" fill="url(#aD)"/><path d="m359.669 660.251c-6.374 0-11.523 5.149-11.523 11.524 0 6.374 5.149 11.523 11.523 11.523 6.375 0 11.523-5.149 11.523-11.523 0-6.375-5.148-11.524-11.523-11.524z" fill="url(#aE)"/><path d="m338.095 753.172c5.552 0 10.052-4.501 10.052-10.052 0-5.552-4.5-10.052-10.052-10.052s-10.052 4.5-10.052 10.052c0 5.551 4.5 10.052 10.052 10.052z" fill="url(#aF)"/><path d="m281.705 673.491c3.677 0 6.619-2.942 6.619-6.62 0-3.677-2.942-6.62-6.619-6.62-3.678 0-6.62 2.943-6.62 6.62 0 3.678 2.942 6.62 6.62 6.62z" fill="url(#aG)"/><path d="m363.102 708.305c-3.677 0-6.62 2.942-6.62 6.62s2.943 6.62 6.62 6.62c3.678 0 6.62-2.942 6.62-6.62s-2.942-6.62-6.62-6.62z" fill="url(#aH)"/><g fill="#ee7b06"><path d="m405.517 685.014c-.98 0-1.961-.736-2.451-1.716-9.317-29.421-34.079-51.242-64.481-56.881-1.226-.245-2.206-1.471-1.961-2.942.245-1.225 1.471-2.206 2.942-1.961 32.118 5.884 58.351 28.93 68.158 60.313.49 1.226-.245 2.697-1.716 3.187 0 0-.245 0-.491 0z"/><path d="m239.534 695.311c-.245 0-.245 0-.49 0-1.226-.245-2.206-1.471-1.961-2.942 1.226-7.11 3.432-13.975 6.374-20.349 13.975-31.382 45.357-51.732 79.682-51.977 1.225 0 2.451.981 2.451 2.452s-.98 2.451-2.451 2.451c-32.363.246-62.029 19.369-75.269 49.035-2.697 6.129-4.658 12.504-5.884 19.124-.245 1.471-1.471 2.206-2.452 2.206z"/><path d="m285.382 787.496c-.245 0-.736 0-.981-.245-10.787-5.394-20.104-12.749-27.95-21.82-4.167-4.904-7.845-10.543-11.032-16.427-3.433-6.62-5.884-13.485-7.601-20.595-.98-4.413-1.716-9.071-1.961-13.484 0-1.471.981-2.452 2.206-2.697 1.472 0 2.452.981 2.697 2.207.246 4.168.981 8.581 1.962 12.749 1.471 6.619 3.923 13.239 7.11 19.368 2.942 5.394 6.374 10.788 10.297 15.446 7.355 8.581 16.182 15.691 26.234 20.595 1.225.49 1.716 1.961.98 3.187-.245 1.226-.98 1.716-1.961 1.716z"/><path d="m323.875 796.568c-5.394 0-10.543-.491-15.936-1.471-1.226-.246-2.207-1.471-1.962-2.942.245-1.226 1.471-2.207 2.942-1.962 7.846 1.471 15.691 1.716 23.537.981 1.471-.245 2.452.735 2.697 2.206.245 1.226-.736 2.452-2.207 2.697-3.187.246-6.129.491-9.071.491z"/><path d="m356.727 789.948c-.981 0-1.961-.49-2.207-1.471-.49-1.226 0-2.697 1.226-3.187 25.989-11.033 44.622-34.079 49.77-61.784.246-1.226 1.472-2.207 2.943-1.961 1.225.245 2.206 1.471 1.961 2.942-5.394 29.421-25.008 53.938-52.712 65.461-.246-.245-.736 0-.981 0z"/><path d="m323.138 729.145c-4.413 0-9.562-1.471-14.22-5.149-.491-.245-.981-.735-1.226-1.226-8.091-11.278-5.394-22.555.981-28.93 6.374-6.374 17.897-9.317 28.93-.981.49.491.981.736 1.226 1.226 8.091 11.278 5.394 22.556-.981 28.931-3.677 3.677-8.826 6.129-14.71 6.129zm0-36.531c-4.413 0-8.581 1.962-11.278 4.658-4.904 4.904-7.11 13.73-.491 22.556l.246.246c8.826 6.374 17.652 4.413 22.556-.491 4.903-4.903 7.11-13.73.49-22.556l-.245-.245c-3.678-3.187-7.601-4.168-11.278-4.168z"/><path d="m283.42 762.243c-3.923 0-7.601-1.716-10.052-4.168-4.414-4.413-6.13-12.013-.981-19.368.49-.491.981-.981 1.471-1.471 7.355-5.394 15.201-3.433 19.369.98 4.413 4.413 6.129 12.014.98 19.369-.49.49-.735.981-1.471 1.471-3.187 2.207-6.374 3.187-9.316 3.187zm-.245-23.291c-1.962 0-4.168.735-6.62 2.206l-.245.246c-3.923 5.393-2.207 10.542.49 12.994 2.697 2.697 7.6 4.413 12.994.49l.245-.245c3.923-5.394 2.207-10.542-.49-12.994-1.226-1.471-3.678-2.697-6.374-2.697z"/><path d="m363.101 682.562c-3.923 0-7.601-1.716-10.052-4.168-4.413-4.413-6.13-12.013-.981-19.369.49-.49.981-.98 1.471-1.471 7.355-5.393 15.201-3.432 19.369.981 4.413 4.413 6.129 12.014.98 19.369-.49.49-.98.981-1.471 1.471-3.187 2.206-6.374 3.187-9.316 3.187zm-.245-23.291c-1.962 0-4.168.735-6.62 2.206l-.245.245c-3.923 5.394-2.207 10.543.49 12.995 2.697 2.696 7.601 4.413 12.994.49l.246-.245c3.922-5.394 2.206-10.543-.491-12.994-1.226-1.471-3.432-2.697-6.374-2.697z"/><path d="m339.811 759.056c-3.433 0-6.62-1.471-8.827-3.677-3.677-3.678-5.393-10.543-.98-16.917.49-.491.98-.981 1.471-1.471 6.619-4.659 13.239-2.943 16.917.735 3.677 3.678 5.393 10.542.98 16.917-.49.49-.98.981-1.471 1.471-2.697 1.961-5.394 2.942-8.09 2.942zm0-20.104c-1.717 0-3.433.49-5.394 1.961l-.245.245c-3.188 4.414-1.717 8.582.245 10.788 2.206 2.207 6.129 3.433 10.787.245l.245-.245c3.188-4.413 1.717-8.581-.245-10.788-1.471-1.225-3.187-2.206-5.393-2.206z"/><path d="m278.271 672.51c-2.697 0-4.904-.981-6.375-2.697-2.697-2.697-3.923-7.6-.735-12.259.49-.49.98-1.225 1.471-1.471 4.658-3.187 9.561-1.961 12.258.736s3.923 7.6.736 12.259c-.49.49-.981 1.225-1.471 1.471-1.961 1.471-3.923 1.961-5.884 1.961zm0-13.239c-.981 0-1.962.245-2.942.98l-.246.246c-1.716 2.451-.98 4.658.246 5.884 1.226 1.225 3.432 1.961 5.884.245l.245-.245c1.716-2.452.981-4.659-.245-5.884-.736-.736-1.716-1.226-2.942-1.226z"/><path d="m368.005 725.713c-2.697 0-4.903-.981-6.374-2.697-2.697-2.697-3.923-7.601-.736-12.259.49-.49.981-1.226 1.471-1.471 4.658-3.187 9.562-1.961 12.259.735 2.697 2.697 3.923 7.601.735 12.259-.49.49-.98 1.226-1.471 1.471-2.206 1.471-4.168 1.962-5.884 1.962zm0-13.24c-.981 0-1.961.245-2.942.981l-.245.245c-1.716 2.452-.981 4.658.245 5.884s3.432 1.962 5.884.245l.245-.245c1.717-2.452.981-4.658-.245-5.884-.735-.735-1.716-1.226-2.942-1.226z"/><path d="m310.144 697.763c-.735 0-1.225-.245-1.716-.736l-27.214-27.214c-.981-.981-.981-2.452 0-3.432.981-.981 2.452-.981 3.432 0l27.215 27.214c.98.981.98 2.452 0 3.432-.491.491-.981.736-1.717.736z"/><path d="m338.093 697.272c-.49 0-1.226-.245-1.716-.735-.981-.981-.981-2.452-.245-3.432l16.671-18.143c.981-.981 2.452-.981 3.433-.245.981.98.981 2.451.245 3.432l-16.672 18.143c-.49.735-1.226.98-1.716.98z"/><path d="m361.386 717.867c-.245 0-.245 0-.491 0l-20.349-3.678c-1.226-.245-2.206-1.471-1.961-2.942s1.471-2.206 2.942-1.961l20.349 3.677c1.226.246 2.207 1.472 1.962 2.943-.246 1.225-1.226 1.961-2.452 1.961z"/><path d="m335.887 739.933c-.981 0-1.961-.491-2.207-1.471l-5.393-12.259c-.491-1.226 0-2.697 1.225-3.187 1.226-.491 2.697 0 3.188 1.226l5.393 12.258c.491 1.226 0 2.697-1.225 3.188-.491 0-.736.245-.981.245z"/><path d="m291.511 742.384c-.49 0-1.226-.245-1.716-.735-.981-.981-.981-2.452 0-3.433l17.162-18.142c.981-.981 2.452-.981 3.433 0 .98.98.98 2.451 0 3.432l-17.162 18.143c-.491.49-.981.735-1.717.735z"/><path d="m318.481 704.628c1.354 0 2.451-1.098 2.451-2.452s-1.097-2.452-2.451-2.452c-1.355 0-2.452 1.098-2.452 2.452s1.097 2.452 2.452 2.452z"/><path d="m328.288 704.628c1.354 0 2.451-1.098 2.451-2.452s-1.097-2.452-2.451-2.452-2.452 1.098-2.452 2.452 1.098 2.452 2.452 2.452z"/><path d="m318.481 714.435c1.354 0 2.451-1.098 2.451-2.452s-1.097-2.452-2.451-2.452c-1.355 0-2.452 1.098-2.452 2.452s1.097 2.452 2.452 2.452z"/><path d="m328.288 714.435c1.354 0 2.451-1.098 2.451-2.452s-1.097-2.452-2.451-2.452-2.452 1.098-2.452 2.452 1.098 2.452 2.452 2.452z"/></g><path d="m374.87 434.937c47.392 0 85.811-38.418 85.811-85.81s-38.419-85.811-85.811-85.811-85.81 38.419-85.81 85.811 38.418 85.81 85.81 85.81z" fill="url(#aI)"/><path d="m448.913 317.499c-.98 0-1.961-.735-2.451-1.716-9.317-29.421-34.079-51.241-64.481-56.88-1.226-.245-2.206-1.471-1.961-2.942.245-1.226 1.471-2.207 2.942-1.962 32.118 5.885 58.351 28.931 68.158 60.313.49 1.226-.245 2.697-1.716 3.187 0 0-.245 0-.491 0z" fill="#ee7b06"/><path d="m282.93 327.796c-.245 0-.245 0-.49 0-1.226-.245-2.207-1.471-1.962-2.942 1.226-7.11 3.433-13.974 6.375-20.349 13.975-31.382 45.357-51.732 79.681-51.977 1.226 0 2.452.981 2.452 2.452s-.981 2.452-2.452 2.452c-32.363.245-62.029 19.368-75.268 49.034-2.697 6.13-4.658 12.504-5.884 19.124-.245 1.471-1.226 2.206-2.452 2.206z" fill="#ee7b06"/><path d="m328.778 419.982c-.245 0-.736 0-.981-.246-10.787-5.393-20.104-12.749-27.95-21.82-4.167-4.904-7.845-10.542-11.032-16.427-3.433-6.619-5.884-13.484-7.601-20.594-.98-4.413-1.716-8.826-1.961-13.485 0-1.471.981-2.451 2.206-2.697 1.472 0 2.452.981 2.697 2.207.246 4.168.981 8.581 1.962 12.749 1.471 6.62 3.923 13.239 7.11 19.369 2.942 5.393 6.374 10.787 10.297 15.446 7.355 8.581 16.181 15.691 26.234 20.594 1.225.49 1.716 1.961.98 3.187 0 1.226-.98 1.717-1.961 1.717z" fill="#ee7b06"/><path d="m367.27 428.808c-5.393 0-10.542-.491-15.936-1.471-1.226-.245-2.206-1.471-1.961-2.942.245-1.226 1.471-2.207 2.942-1.962 7.845 1.471 15.691 1.716 23.536.981 1.472-.245 2.452.735 2.697 2.207.246 1.225-.735 2.451-2.206 2.696-3.187.491-6.13.491-9.072.491z" fill="#ee7b06"/><path d="m400.123 422.188c-.981 0-1.961-.49-2.207-1.471-.49-1.226 0-2.697 1.226-3.187 25.989-11.033 44.622-34.079 49.77-61.784.246-1.226 1.472-2.206 2.943-1.961 1.225.245 2.206 1.471 1.961 2.942-5.394 29.421-25.008 53.938-52.712 65.461-.245 0-.491 0-.981 0z" fill="#ee7b06"/><path d="m316.029 380.999v-76.004h110.328v76.004" fill="#fff"/><g fill="#ee7b06"><path d="m422.679 379.773c-1.472 0-2.452-.981-2.452-2.452v-72.816c0-.49-.491-.735-.736-.735h-103.708c-.49 0-.735.49-.735.735v72.816c0 1.471-.981 2.452-2.452 2.452s-2.452-.981-2.452-2.452v-72.816c0-3.187 2.697-5.639 5.639-5.639h103.463c3.187 0 5.639 2.697 5.639 5.639v72.816c.245 1.226-.981 2.452-2.206 2.452z"/><path d="m378.303 344.223c-.735 0-1.471-.245-1.961-.981-.981-.98-.735-2.696.245-3.432l27.46-22.556c.98-.981 2.697-.735 3.432.245.981.981.736 2.697-.245 3.433l-27.46 22.556c-.49.49-.98.735-1.471.735z"/><path d="m328.532 349.862c-.735 0-1.226-.245-1.716-.735-.981-.981-.981-2.452 0-3.433l15.446-15.446c1.716-1.716 4.413-2.206 6.374-1.226l24.027 11.278c1.226.491 1.717 1.962 1.226 3.188-.49 1.226-1.961 1.716-3.187 1.226l-24.027-11.278c-.245-.246-.735 0-.981.245l-15.446 15.446c-.49.49-.98.735-1.716.735z"/><path d="m375.116 350.598c-3.433 0-6.375-2.942-6.375-6.375 0-3.432 2.942-6.374 6.375-6.374 3.432 0 6.374 2.942 6.374 6.374 0 3.433-2.697 6.375-6.374 6.375zm0-7.846c-.736 0-1.471.736-1.471 1.471 0 .736.735 1.471 1.471 1.471.735 0 1.471-.735 1.471-1.471 0-.735-.491-1.471-1.471-1.471z"/><path d="m408.705 322.893c-3.433 0-6.375-2.942-6.375-6.374 0-3.433 2.942-6.375 6.375-6.375 3.432 0 6.374 2.942 6.374 6.375.245 3.432-2.697 6.374-6.374 6.374zm0-7.845c-.736 0-1.471.735-1.471 1.471 0 .735.735 1.471 1.471 1.471.735 0 1.471-.736 1.471-1.471 0-.736-.491-1.471-1.471-1.471z"/><path d="m325.836 356.482c-3.432 0-6.374-2.942-6.374-6.375 0-3.432 2.942-6.374 6.374-6.374 3.433 0 6.375 2.942 6.375 6.374 0 3.678-2.942 6.375-6.375 6.375zm0-7.846c-.735 0-1.471.736-1.471 1.471 0 .736.736 1.471 1.471 1.471.736 0 1.471-.735 1.471-1.471 0-.735-.735-1.471-1.471-1.471z"/><path d="m319.707 311.125c-.246 0-.736 0-.981-.245-.245 0-.49-.246-.736-.491-.245-.245-.49-.49-.49-.735s-.245-.491-.245-.981c0-.245 0-.245 0-.49 0-.246 0-.246 0-.491s.245-.245.245-.49l.245-.245c.981-.981 2.452-.981 3.433 0 .245 0 .245.245.245.245 0 .245.245.245.245.49s0 .245.245.491v.49c0 .245 0 .736-.245.981s-.245.49-.49.735c0 .491-.736.736-1.471.736z"/><path d="m327.797 311.125c-.245 0-.245 0-.49 0s-.245 0-.49-.245c-.245 0-.245 0-.491-.246-.245 0-.245-.245-.49-.245l-.245-.245c0-.245-.245-.245-.245-.49s0-.245-.245-.491c0-.245 0-.245 0-.49 0-.735.245-1.226.735-1.716 0 0 .245-.245.49-.245 0 0 .246-.245.491-.245s.245-.246.49-.246c.736-.245 1.716 0 2.207.736.245.245.49.49.49.735 0 .246.245.491.245.981 0 .736-.245 1.226-.735 1.716-.491.491-1.226.736-1.717.736z"/><path d="m335.643 311.125c-.245 0-.245 0-.49 0s-.245 0-.491-.245c-.245 0-.245 0-.49-.246-.245 0-.245-.245-.49-.245l-.245-.245c0-.245-.246-.245-.246-.49s0-.245-.245-.491c0-.245 0-.245 0-.49 0-.735.245-1.226.736-1.716.245 0 .245-.245.49-.245 0 0 .245-.245.49-.245.246 0 .246-.246.491-.246.735-.245 1.716 0 2.206.736.246.245.491.49.491.735 0 .246.245.491.245.981 0 .736-.245 1.226-.736 1.716-.49.491-.98.736-1.716.736z"/><path d="m319.706 318.97c-.735 0-1.226-.245-1.716-.735-.245 0-.245-.245-.245-.491 0 0-.245-.245-.245-.49s0-.245 0-.49 0-.245 0-.491c0-.735.245-1.225.735-1.716.981-.981 2.452-.981 3.432 0 .491.491.736.981.736 1.716v.491c0 .245 0 .245-.245.49 0 .245-.245.245-.245.49 0 .246-.246.246-.246.491-.49.49-1.225.735-1.961.735z"/><path d="m327.797 318.97c-.736 0-1.226-.245-1.716-.735-.491-.491-.736-1.226-.736-1.716 0-.246 0-.736.245-.981 0-.245.246-.49.491-.736 0 0 .245-.245.49-.245 0 0 .245-.245.49-.245h.491c.735-.245 1.716 0 2.206.736.246.245.491.49.491.735s.245.49.245.981c0 .49 0 .735-.245.98-.245.246-.245.491-.491.736-.735.245-1.471.49-1.961.49z"/><path d="m319.707 326.816c-.736 0-1.226-.245-1.717-.736-.245-.245-.49-.49-.49-.735s-.245-.491-.245-.981c0-.735.245-1.226.735-1.716.981-.981 2.452-.981 3.433 0 .49.49.735.981.735 1.716 0 .245 0 .736-.245.981 0 .245-.245.49-.49.735l-.245.245s-.245.246-.491.246c-.245 0-.245 0-.49 0 0 .245-.245.245-.49.245z"/><path d="m428.563 379.773h-123.567c-1.471 0-2.452-.98-2.452-2.452 0-1.471.981-2.451 2.452-2.451h123.567c1.471 0 2.452.98 2.452 2.451 0 1.472-.981 2.452-2.452 2.452z"/></g><path d="m740.423 523.69c-.736 0-1.471-.245-1.962-.981-2.942-3.432-6.374-6.865-10.297-9.807-.981-.735-1.226-2.452-.49-3.432.735-.981 2.451-1.226 3.432-.491 4.168 3.188 7.846 6.865 11.033 10.543.981.981.735 2.697-.245 3.432-.491.491-.981.736-1.471.736zm-23.047-18.143c-.49 0-.735 0-1.225-.245-4.168-2.207-8.336-4.168-12.995-6.129-1.226-.491-1.961-1.962-1.471-3.188.491-1.226 1.962-1.961 3.188-1.471 4.903 1.962 9.316 3.923 13.729 6.375 1.226.735 1.716 2.206.981 3.432-.49.736-1.226 1.226-2.207 1.226zm-27.214-10.788c-.245 0-.49 0-.735 0-4.659-1.225-9.317-2.206-14.22-2.942-1.226-.245-2.207-1.471-1.962-2.697.245-1.225 1.471-2.206 2.697-1.961 4.904.736 9.807 1.716 14.711 2.942 1.225.245 2.206 1.716 1.716 2.942-.245.981-1.226 1.716-2.207 1.716zm-71.59-2.206h-1.717c-1.471 0-2.451-1.226-2.451-2.452s1.226-2.452 2.451-2.452h1.717c4.168 0 8.335-.245 12.749-.49 1.471 0 2.451.981 2.697 2.207 0 1.471-.981 2.451-2.207 2.696-4.413.246-9.071.491-13.239.491zm-16.182-.981h-.245c-5.149-.49-10.297-1.471-14.71-2.697-1.226-.245-2.207-1.716-1.717-2.942.246-1.226 1.717-2.206 2.943-1.716 4.413 1.226 9.071 1.961 14.22 2.697 1.225.245 2.206 1.471 2.206 2.697-.49 1.226-1.471 1.961-2.697 1.961zm43.886-.981c-1.226 0-2.452-.98-2.452-2.206 0-1.471.981-2.452 2.207-2.697 4.903-.245 10.052-.49 14.956-.245 1.471 0 2.451 1.226 2.451 2.452 0 1.471-1.226 2.451-2.451 2.451-4.904 0-9.807 0-14.711.245 0 0 .245 0 0 0zm-72.326-6.619c-.245 0-.735 0-.981-.245-4.903-2.452-9.071-5.149-12.749-8.336-.98-.981-1.225-2.452-.245-3.433.981-.98 2.452-1.226 3.433-.245 3.432 2.942 7.355 5.394 11.768 7.6 1.226.491 1.716 1.962 1.226 3.188-.491.98-1.471 1.471-2.452 1.471zm-21.575-19.124c-.736 0-1.716-.49-2.207-1.226-1.226-2.206-2.206-4.413-3.187-6.619-2.452-.245-5.149-.736-7.6-1.226-1.226-.245-2.207-1.716-1.962-2.942s1.716-2.207 2.942-1.962c1.717.491 3.433.736 5.149.981-.245-.981-.49-1.716-.49-2.697-.245-1.226.735-2.697 1.961-2.942s2.697.736 2.942 1.962c.245 1.471.49 2.696.981 4.167h3.677c1.471 0 2.452.981 2.452 2.452s-.981 2.452-2.452 2.452c-.735 0-1.471 0-2.206 0 .49 1.471 1.226 2.697 1.961 3.923.736 1.226.245 2.697-.98 3.432 0 0-.491.245-.981.245zm16.672-10.297c-.981 0-1.962-.736-2.207-1.716-.49-1.226.245-2.697 1.471-3.187 4.413-1.472 8.581-3.678 12.504-6.375 1.226-.735 2.697-.49 3.432.49.736 1.226.491 2.697-.49 3.433-4.413 2.942-8.826 5.394-13.73 6.865-.49.49-.735.49-.98.49zm-42.906-3.678c-.245 0-.735 0-.98-.245-4.413-1.961-8.827-4.413-13.24-7.355-1.226-.735-1.471-2.207-.735-3.432.735-1.226 2.206-1.471 3.432-.736 4.168 2.697 8.336 4.904 12.504 6.865 1.226.49 1.716 1.961 1.226 3.187s-1.226 1.716-2.207 1.716zm66.687-12.994c-.49 0-.98-.245-1.471-.49-.98-.981-1.225-2.452-.245-3.433 3.187-3.922 5.149-7.845 5.884-12.013.246-1.226 1.471-2.207 2.697-1.961 1.226.245 2.207 1.471 1.962 2.696-.736 4.904-3.188 9.562-6.865 14.221-.491.735-1.226.98-1.962.98zm-45.602-1.471h-.245c-1.226-.245-2.207-1.471-2.207-2.697.736-4.903 1.962-9.807 3.923-14.71.491-1.226 1.962-1.961 3.188-1.471 1.225.49 1.961 1.961 1.471 3.187-1.717 4.413-2.943 9.072-3.678 13.485-.245 1.226-1.226 2.206-2.452 2.206zm-45.847-1.226c-.491 0-1.226-.245-1.471-.49-3.678-3.187-7.355-6.62-11.033-10.052-.981-.981-.981-2.452 0-3.433.981-.98 2.452-.98 3.432 0 3.433 3.433 7.11 6.865 10.543 9.807.981.981 1.226 2.452.245 3.433-.245.245-.981.735-1.716.735zm-20.595-21.085c-.735 0-1.471-.245-1.961-.98-3.187-3.678-6.129-7.846-9.071-11.769-.736-1.225-.491-2.696.49-3.432 1.226-.735 2.697-.49 3.432.49 2.697 3.923 5.639 7.846 8.827 11.523.98.981.735 2.697-.246 3.433-.245.735-.98.735-1.471.735zm115.232-3.187c-.736 0-1.471-.245-1.962-.981-2.451-3.432-6.129-6.129-10.297-7.845-1.226-.49-1.961-1.961-1.471-3.187s1.961-1.962 3.187-1.471c5.149 1.961 9.807 5.393 12.749 9.561.736 1.226.491 2.697-.49 3.433-.736.49-1.226.49-1.716.49zm-38.002-1.716c-.49 0-.981-.245-1.471-.49-.981-.736-1.226-2.452-.491-3.433 3.433-4.413 8.091-7.355 13.485-8.826 1.226-.245 2.697.49 2.942 1.716s-.49 2.697-1.716 2.942c-4.168.981-7.846 3.433-10.788 7.11-.49.736-1.226.981-1.961.981zm-94.147-19.124c-.735 0-1.716-.49-2.206-1.225-2.452-4.168-4.904-8.581-7.11-12.995-.491-1.225 0-2.696.98-3.187 1.226-.49 2.697 0 3.188.981 2.206 4.413 4.413 8.581 6.865 12.749.735 1.226.245 2.697-.981 3.432.245.245-.245.245-.736.245z" fill="#b9bdc1"/><path d="m770.825 620.778c-.736 0-1.471-.49-1.962-1.225-.49-.736-.98-1.472-1.471-2.207-.735-.981-.49-2.697.491-3.432.98-.736 2.697-.491 3.432.49.491.735 1.226 1.716 1.716 2.452.736 1.225.491 2.697-.735 3.432-.491.245-.981.49-1.471.49zm-11.769-12.749c-.49 0-.98-.245-1.471-.49-3.432-2.697-7.6-5.149-12.013-7.355-1.226-.49-1.716-1.962-1.226-3.187.49-1.226 1.961-1.717 3.187-1.226 4.904 2.451 9.072 4.903 12.995 7.845.98.736 1.225 2.452.49 3.433-.49.735-1.226.98-1.962.98z" fill="#b9bdc1"/><path d="m500.643 601.9c-4.903 0-9.807-.245-14.955-.49-1.472 0-2.452-1.226-2.207-2.697 0-1.471 1.226-2.452 2.697-2.207 4.903.246 9.807.491 14.71.491 1.471 0 2.452 1.226 2.452 2.451-.245 1.226-1.471 2.452-2.697 2.452zm14.71-.245c-1.225 0-2.451-.981-2.451-2.452s.98-2.451 2.451-2.451c4.904-.246 9.807-.491 14.466-.981 1.471 0 2.451.735 2.697 2.206.245 1.226-.736 2.452-2.207 2.697-4.903.245-9.807.736-14.956.981zm-44.131-1.226h-.245c-4.903-.49-9.807-1.226-14.71-1.716-1.226-.245-2.207-1.471-1.962-2.697s1.471-2.207 2.697-1.961c4.904.735 9.562 1.226 14.465 1.716 1.226.245 2.452 1.226 2.207 2.697 0 .98-1.226 1.961-2.452 1.961zm73.307-1.716c-1.226 0-2.206-.981-2.452-1.961-.245-1.226.736-2.697 1.962-2.697l.98-.246c4.414-.735 9.072-1.471 13.485-2.206 1.226-.245 2.697.735 2.697 1.961.245 1.226-.736 2.697-1.962 2.697-4.658.736-9.071 1.471-13.484 2.207l-.981.245s0 0-.245 0zm-102.482-2.697c-.246 0-.245 0-.491 0-4.903-.981-9.807-1.961-14.465-3.187-1.226-.245-2.206-1.716-1.716-2.942.245-1.226 1.716-2.207 2.942-1.717 4.658 1.226 9.562 2.207 14.22 3.188 1.226.245 2.207 1.471 1.961 2.942-.245.98-1.225 1.716-2.451 1.716zm131.658-1.716c-1.226 0-2.207-.981-2.452-2.207s.735-2.697 2.206-2.697c4.904-.735 9.807-1.226 14.711-1.961 1.471-.245 2.452.735 2.697 2.207.245 1.225-.736 2.451-2.207 2.696-4.903.491-9.807 1.226-14.465 1.962-.245 0-.49 0-.49 0zm29.175-3.678c-1.226 0-2.206-.98-2.451-2.206-.246-1.226.735-2.452 2.206-2.697 4.904-.491 9.807-.981 14.71-1.471 1.472 0 2.452.98 2.697 2.206 0 1.471-.98 2.452-2.206 2.697-4.904.491-9.807.981-14.711 1.471zm-189.273-1.716c-.246 0-.491 0-.736 0-4.903-1.471-9.562-2.942-13.975-4.658-1.226-.491-1.961-1.962-1.471-3.188.49-1.225 1.962-1.961 3.187-1.471 4.413 1.717 9.072 3.188 13.73 4.659 1.226.49 1.961 1.716 1.716 2.942-.49.98-1.471 1.716-2.451 1.716zm286.852-.49h-.245c-2.942-.246-6.129-.736-9.317-.981-1.471 0-2.451-1.226-2.206-2.697 0-1.471 1.226-2.452 2.697-2.206 3.187.245 6.374.49 9.562.98 1.225.245 2.206 1.471 2.206 2.697-.49 1.226-1.471 2.207-2.697 2.207zm-68.403-.491c-1.226 0-2.452-.98-2.452-2.206 0-1.471.981-2.452 2.207-2.697 5.148-.245 10.052-.736 14.71-.736 1.226 0 2.452.981 2.452 2.452s-.981 2.452-2.452 2.452c-4.168 0-9.317.49-14.465.735.245 0 .245 0 0 0zm44.131-1.226c-3.432 0-6.865 0-10.542-.245-1.471 0-2.697 0-4.168 0s-2.452-.98-2.452-2.451c0-1.472.981-2.452 2.452-2.452h4.413c3.432 0 6.865 0 10.297.245 1.471 0 2.452 1.226 2.452 2.452 0 1.471-.981 2.451-2.452 2.451zm-392.032-7.355c-1.471 0-3.187 0-4.658 0s-2.452-1.226-2.452-2.451c0-1.472 1.226-2.452 2.452-2.452 4.658.245 9.562 0 14.465-.245 1.226-.246 2.452.98 2.697 2.206 0 1.471-.981 2.452-2.207 2.697-3.432.245-6.864.245-10.297.245zm101.747-.49c-.245 0-.736 0-.981-.245-4.658-1.962-9.071-4.168-13.484-6.375-1.226-.735-1.716-2.206-.981-3.187.736-1.226 2.207-1.716 3.187-.981 4.168 2.207 8.581 4.168 13.24 6.13 1.226.49 1.716 1.961 1.226 3.187-.246.981-1.226 1.471-2.207 1.471zm-120.87-1.226c-.246 0-.246 0-.491 0-5.148-.981-10.052-2.452-14.465-4.168-1.226-.49-1.961-1.961-1.471-3.187s1.961-1.962 3.187-1.471c4.168 1.716 8.827 2.942 13.73 3.923 1.226.245 2.207 1.471 1.961 2.942-.245 1.226-1.226 1.961-2.451 1.961zm43.886-.735c-1.226 0-2.207-.736-2.452-1.962s.49-2.697 1.961-2.942c4.659-.981 9.317-2.452 13.73-3.923 1.226-.49 2.697.245 3.187 1.471.491 1.226-.245 2.697-1.471 3.188-4.658 1.716-9.562 2.942-14.465 4.168-.245 0-.245 0-.49 0zm27.459-10.298c-.981 0-1.716-.49-2.207-1.226-.735-1.225-.245-2.697.981-3.432 3.678-2.207 7.355-4.413 10.297-6.865-.245-.735-.245-1.716.246-2.452.735-.98 2.451-1.225 3.432-.49 3.678 2.942 7.6 5.639 11.768 8.336 1.226.735 1.471 2.206.736 3.432-.736 1.226-2.207 1.471-3.433.736-3.187-1.962-6.374-4.168-9.316-6.375-3.433 2.942-7.355 5.639-11.768 7.846.245.49-.246.49-.736.49zm-98.314-.245c-.491 0-.981-.245-1.471-.49-4.414-3.433-7.846-7.355-10.053-12.014-.735-1.226-.245-2.697.981-3.187 1.226-.736 2.697-.245 3.187.981 1.962 3.922 4.904 7.355 8.827 10.297.98.735 1.225 2.452.49 3.432-.49.736-1.226.981-1.961.981zm120.38-18.633c-.491 0-.981-.245-1.471-.49-1.226-.736-1.471-2.207-.491-3.433 2.697-3.677 4.658-7.845 6.13-12.013l.245-.491c.49-1.226 1.716-1.961 3.187-1.716 1.226.49 1.961 1.716 1.716 3.187l-.245.491c-1.471 4.658-3.678 9.071-6.62 13.239-.98.736-1.716 1.226-2.451 1.226zm-21.33-.736c-.736 0-1.226-.245-1.717-.735-3.677-3.923-6.865-7.846-9.316-12.014-.736-1.225-.245-2.697.735-3.432 1.226-.736 2.697-.245 3.433.735 2.206 3.678 5.148 7.601 8.581 11.278.98.981.98 2.452 0 3.433-.491.49-1.226.735-1.716.735zm-14.711-25.252c-1.226 0-2.206-.736-2.452-1.962-.245-1.471-.49-3.187-.49-4.658 0-4.168.981-7.846 3.187-11.278.736-1.226 2.207-1.471 3.433-.736 1.226.736 1.471 2.207.735 3.433-1.471 2.452-2.451 5.394-2.451 8.581 0 1.226 0 2.452.245 3.923.245 1.226-.736 2.697-1.962 2.942.246-.245 0-.245-.245-.245zm44.867-1.717c-1.226 0-2.452-.98-2.452-2.451 0-4.904-1.471-9.072-3.923-12.259-.735-.981-.49-2.697.491-3.432.98-.736 2.697-.491 3.432.49 3.187 4.168 4.658 9.316 4.904 15.201 0 1.225-.981 2.451-2.452 2.451zm-30.892-21.085c-.981 0-1.961-.735-2.452-1.716-.49-1.226.245-2.697 1.471-3.187 5.149-1.716 10.788-1.716 15.937-.49 1.225.245 2.206 1.716 1.716 2.942-.245 1.226-1.716 2.206-2.942 1.716-4.168-.981-9.072-.981-13.24.49 0 .245-.245.245-.49.245z" fill="#b9bdc1"/><path d="m507.999 776.954c-4.904 0-10.052-.245-14.956-.981-1.226-.245-2.207-1.471-2.207-2.697.246-1.226 1.472-2.206 2.697-2.206 4.904.735 9.562.98 14.22.98 1.471 0 2.452.981 2.452 2.452s-.981 2.452-2.206 2.452zm14.465-1.226c-1.226 0-2.207-.981-2.452-1.961-.245-1.226.736-2.697 1.961-2.697 4.904-.736 9.562-1.962 13.975-3.433 1.226-.49 2.697.245 3.188 1.471.49 1.226-.246 2.697-1.471 3.187-4.659 1.717-9.562 2.697-14.711 3.678-.245-.245-.245-.245-.49-.245zm71.345-2.452c-2.452 0-4.903 0-7.355-.245-1.226-.245-2.452-1.226-2.207-2.697.246-1.226 1.226-2.452 2.697-2.207 2.207.246 4.659.246 6.865.246 2.452 0 4.904-.246 7.355-.246 1.471-.245 2.452.736 2.697 2.207.245 1.226-.735 2.452-2.206 2.697-2.452.245-5.149.245-7.846.245zm-114.986 0c-.245 0-.49 0-.49 0-4.659-1.226-9.562-2.452-14.22-4.168-1.226-.49-1.962-1.716-1.471-3.187.49-1.226 1.716-1.961 3.187-1.471 4.658 1.716 9.316 2.942 13.975 4.168 1.226.245 2.206 1.716 1.716 2.942-.736.981-1.716 1.716-2.697 1.716zm93.411-2.942c-.245 0-.49 0-.736 0-5.148-1.471-9.806-3.677-13.974-6.129-.491-.245-.981-.736-.981-1.226-1.716 1.226-3.433 2.206-5.149 3.187-1.226.736-2.697.245-3.432-.981-.736-1.225-.245-2.696.981-3.432 4.167-2.452 7.845-5.149 11.523-8.336.98-.981 2.451-.735 3.432.245.981.981.736 2.452-.245 3.433-1.226.98-2.207 1.961-3.432 2.942 3.922 2.206 8.09 4.168 12.748 5.394 1.226.49 1.962 1.716 1.717 2.942s-1.226 1.961-2.452 1.961zm43.641-.245c-.981 0-1.962-.736-2.452-1.716-.49-1.226.245-2.697 1.716-2.942 3.433-.981 6.865-2.452 10.052-3.923.981-.49 1.962-.981 2.942-1.471 1.226-.736 2.697-.245 3.433.98.735 1.226.245 2.697-.981 3.433-.98.49-2.206 1.226-3.187 1.716-3.433 1.716-7.11 3.187-10.788 4.168-.245-.245-.49-.245-.735-.245zm-165.002-6.375c-.245 0-.735 0-.98-.245-4.414-1.961-9.072-4.168-13.485-6.619-1.226-.736-1.716-2.207-.981-3.433.736-1.226 2.207-1.716 3.433-.981 4.413 2.207 8.826 4.414 12.994 6.375 1.226.49 1.716 1.961 1.226 3.187-.245 1.226-1.226 1.716-2.207 1.716zm190.99-7.11c-.735 0-1.471-.49-1.961-.98-.736-1.226-.491-2.697.735-3.433 3.678-2.451 7.601-5.148 12.014-8.336.98-.735 2.697-.49 3.432.491.736.98.491 2.697-.49 3.432-4.413 3.187-8.336 6.129-12.014 8.581-.735.245-1.226.245-1.716.245zm-94.391-1.471c-.736 0-1.472-.245-1.962-.735-3.677-4.168-6.129-8.826-7.6-13.73-.491-1.226.245-2.697 1.716-2.942 1.226-.49 2.697.245 2.942 1.716 1.226 4.168 3.432 8.091 6.62 11.769.98.98.735 2.451-.245 3.432-.246.245-.736.49-1.471.49zm-122.587-5.148c-.49 0-.981 0-1.226-.491-4.168-2.697-8.336-5.393-12.259-8.336-.98-.735-1.471-2.206-.49-3.432.736-.981 2.207-1.471 3.432-.49 3.923 2.942 8.091 5.639 12.014 8.09 1.226.736 1.471 2.207.735 3.433-.49.735-1.225 1.226-2.206 1.226zm147.349-2.942c-.49 0-.981-.246-1.471-.491-.981-.735-1.226-2.206-.49-3.432 3.187-4.168 4.903-8.336 5.393-12.259.246-1.226 1.471-2.206 2.697-2.206 1.226.245 2.207 1.471 2.207 2.697-.736 4.658-2.697 9.561-6.375 14.465-.49.735-1.226 1.226-1.961 1.226zm93.411-7.601c-.736 0-1.471-.245-1.961-.98-.736-.981-.736-2.697.49-3.433 3.677-2.942 7.6-5.884 11.523-9.071.981-.736 2.697-.736 3.432.49.736.981.736 2.697-.49 3.433-3.923 3.187-7.845 6.129-11.523 9.071-.49.245-.981.49-1.471.49zm-126.019-11.523c-.245 0-.245 0-.49 0-1.226-.245-2.207-1.471-1.962-2.942 1.226-5.884 4.168-10.542 8.826-13.73 1.226-.735 2.697-.49 3.433.736.735 1.226.49 2.697-.736 3.432-3.432 2.207-5.639 5.884-6.619 10.543-.245 1.226-1.471 1.961-2.452 1.961zm149.065-6.865c-.735 0-1.471-.245-1.961-.98-.736-.981-.736-2.697.49-3.433l11.523-9.071c.981-.736 2.697-.736 3.433.49.735.981.735 2.697-.491 3.433l-11.523 9.071c-.245.49-.735.49-1.471.49zm-114.496-.98c-.735 0-1.471-.246-1.961-.736-2.697-3.187-6.865-5.394-11.278-5.884-1.226-.245-2.207-1.471-1.961-2.697.245-1.226 1.471-2.207 2.697-1.961 5.639.98 10.787 3.677 14.22 7.6.98.981.735 2.452-.246 3.432-.49 0-.98.246-1.471.246z" fill="#b9bdc1"/><path d="m544.285 195.893c-1.716 0-3.187-.735-4.413-2.206l-10.297-12.259c-.246-.245-.491-.245-.736-.245h-7.11c-1.471 0-2.452-.981-2.452-2.452s.981-2.452 2.452-2.452h7.11c1.716 0 3.433.736 4.413 2.207l10.297 12.504c.246.49.736.245.981.245s.491-.245.491-.735v-8.336c0-3.188 2.696-5.639 5.639-5.639h5.638c.491 0 .736-.491.736-.736v-42.905c0-.49-.49-.736-.736-.736h-12.749c-1.471 0-2.451-.98-2.451-2.451s.98-2.452 2.451-2.452h12.749c3.188 0 5.639 2.697 5.639 5.639v42.415c0 3.187-2.696 5.639-5.639 5.639h-5.638c-.491 0-.736.49-.736.735v8.336c0 2.452-1.471 4.658-3.923 5.394-.245.49-.98.49-1.716.49z" fill="#ee7b06"/><path d="m502.36 181.183h-22.556c-3.187 0-5.639-2.697-5.639-5.639v-42.66c0-3.187 2.697-5.639 5.639-5.639h44.622c1.471 0 2.451.981 2.451 2.452s-.98 2.451-2.451 2.451h-44.622c-.49 0-.735.491-.735.736v42.415c0 .49.49.735.735.735h22.556c1.471 0 2.452.981 2.452 2.452s-1.226 2.697-2.452 2.697z" fill="#ee7b06"/><path d="m521.974 150.536h-9.807v9.807h9.807z" fill="#fff"/><path d="m541.588 150.536h-9.807v9.807h9.807z" fill="#fff"/><path d="m504.812 150.536h-9.807v9.807h9.807z" fill="#fff"/></g></svg>